%TF.GenerationSoftware,KiCad,Pcbnew,9.0.3*%
%TF.CreationDate,2026-02-23T20:27:38+09:00*%
%TF.ProjectId,cat_tenkeys,6361745f-7465-46e6-9b65-79732e6b6963,rev?*%
%TF.SameCoordinates,Original*%
%TF.FileFunction,Soldermask,Top*%
%TF.FilePolarity,Negative*%
%FSLAX46Y46*%
G04 Gerber Fmt 4.6, Leading zero omitted, Abs format (unit mm)*
G04 Created by KiCad (PCBNEW 9.0.3) date 2026-02-23 20:27:38*
%MOMM*%
%LPD*%
G01*
G04 APERTURE LIST*
G04 Aperture macros list*
%AMOutline5P*
0 Free polygon, 5 corners , with rotation*
0 The origin of the aperture is its center*
0 number of corners: always 5*
0 $1 to $10 corner X, Y*
0 $11 Rotation angle, in degrees counterclockwise*
0 create outline with 5 corners*
4,1,5,$1,$2,$3,$4,$5,$6,$7,$8,$9,$10,$1,$2,$11*%
%AMOutline6P*
0 Free polygon, 6 corners , with rotation*
0 The origin of the aperture is its center*
0 number of corners: always 6*
0 $1 to $12 corner X, Y*
0 $13 Rotation angle, in degrees counterclockwise*
0 create outline with 6 corners*
4,1,6,$1,$2,$3,$4,$5,$6,$7,$8,$9,$10,$11,$12,$1,$2,$13*%
%AMOutline7P*
0 Free polygon, 7 corners , with rotation*
0 The origin of the aperture is its center*
0 number of corners: always 7*
0 $1 to $14 corner X, Y*
0 $15 Rotation angle, in degrees counterclockwise*
0 create outline with 7 corners*
4,1,7,$1,$2,$3,$4,$5,$6,$7,$8,$9,$10,$11,$12,$13,$14,$1,$2,$15*%
%AMOutline8P*
0 Free polygon, 8 corners , with rotation*
0 The origin of the aperture is its center*
0 number of corners: always 8*
0 $1 to $16 corner X, Y*
0 $17 Rotation angle, in degrees counterclockwise*
0 create outline with 8 corners*
4,1,8,$1,$2,$3,$4,$5,$6,$7,$8,$9,$10,$11,$12,$13,$14,$15,$16,$1,$2,$17*%
G04 Aperture macros list end*
%ADD10C,2.400000*%
%ADD11O,2.600000X1.500000*%
%ADD12O,1.500000X2.600000*%
%ADD13Outline8P,-1.300000X0.450000X-1.000000X0.750000X1.000000X0.750000X1.300000X0.450000X1.300000X-0.450000X1.000000X-0.750000X-1.000000X-0.750000X-1.300000X-0.450000X0.000000*%
%ADD14R,2.600000X1.500000*%
G04 APERTURE END LIST*
D10*
%TO.C,SW5*%
X-19040000Y19690000D03*
X-21580000Y26040000D03*
%TD*%
%TO.C,SW11*%
X-21810000Y-30460000D03*
X-15460000Y-27920000D03*
%TD*%
%TO.C,SW3*%
X35690000Y1040000D03*
X42040000Y3580000D03*
%TD*%
%TO.C,SW8*%
X14190000Y-30460000D03*
X20540000Y-27920000D03*
%TD*%
%TO.C,SW10*%
X-3810000Y-8460000D03*
X2540000Y-5920000D03*
%TD*%
%TO.C,SW7*%
X-21810000Y-8460000D03*
X-15460000Y-5920000D03*
%TD*%
%TO.C,SW4*%
X14190000Y-8460000D03*
X20540000Y-5920000D03*
%TD*%
%TO.C,SW2*%
X19040000Y27310000D03*
X21580000Y20960000D03*
%TD*%
D11*
%TO.C,U1*%
X8170000Y40160000D03*
X8170000Y37620000D03*
X8170000Y35080000D03*
X8170000Y32540000D03*
X8170000Y30000000D03*
X8170000Y27460000D03*
X8170000Y24920000D03*
X8170000Y22380000D03*
X8170000Y19840000D03*
D12*
X5080000Y19190000D03*
X2540000Y19190000D03*
X0Y19190000D03*
X-2540000Y19190000D03*
X-5080000Y19190000D03*
D11*
X-8170000Y19840000D03*
X-8170000Y22380000D03*
X-8170000Y24920000D03*
X-8170000Y27460000D03*
X-8170000Y30000000D03*
X-8170000Y32540000D03*
D13*
X-8170000Y35080000D03*
D14*
X-8170000Y37620000D03*
D13*
X-8170000Y40160000D03*
%TD*%
D10*
%TO.C,SW9*%
X-3810000Y-30460000D03*
X2540000Y-27920000D03*
%TD*%
%TO.C,SW6*%
X-43310000Y1040000D03*
X-36960000Y3580000D03*
%TD*%
M02*
