M48
; DRILL file {KiCad 9.0.3} date 2026-02-23T20:27:38+0900
; FORMAT={-:-/ absolute / inch / decimal}
; #@! TF.CreationDate,2026-02-23T20:27:38+09:00
; #@! TF.GenerationSoftware,Kicad,Pcbnew,9.0.3
; #@! TF.FileFunction,NonPlated,1,2,NPTH
FMAT,2
INCH
; #@! TA.AperFunction,NonPlated,NPTH,ComponentDrill
T1C0.0669
; #@! TA.AperFunction,NonPlated,NPTH,ComponentDrill
T2C0.1260
; #@! TA.AperFunction,NonPlated,NPTH,ComponentDrill
T3C0.1575
%
G90
G05
T1
X-1.7551Y-0.0591
X-1.3551Y-0.0591
X-0.9087Y-0.4331
X-0.9087Y-1.2992
X-0.6496Y1.1252
X-0.6496Y0.7252
X-0.5087Y-0.4331
X-0.5087Y-1.2992
X-0.2Y-0.4331
X-0.2Y-1.2992
X0.2Y-0.4331
X0.2Y-1.2992
X0.5087Y-0.4331
X0.5087Y-1.2992
X0.6496Y1.1252
X0.6496Y0.7252
X0.9087Y-0.4331
X0.9087Y-1.2992
X1.3551Y-0.0591
X1.7551Y-0.0591
T2
X-1.4567Y0.9055
X-1.4567Y-0.9055
X1.4567Y0.9055
X1.4567Y-0.9055
T3
X-1.5551Y-0.0591
X-0.7087Y-0.4331
X-0.7087Y-1.2992
X-0.6496Y0.9252
X0.0Y-0.4331
X0.0Y-1.2992
X0.6496Y0.9252
X0.7087Y-0.4331
X0.7087Y-1.2992
X1.5551Y-0.0591
M30
