%TF.GenerationSoftware,KiCad,Pcbnew,9.0.3*%
%TF.CreationDate,2026-02-23T20:27:38+09:00*%
%TF.ProjectId,cat_tenkeys,6361745f-7465-46e6-9b65-79732e6b6963,rev?*%
%TF.SameCoordinates,Original*%
%TF.FileFunction,Copper,L2,Bot*%
%TF.FilePolarity,Positive*%
%FSLAX46Y46*%
G04 Gerber Fmt 4.6, Leading zero omitted, Abs format (unit mm)*
G04 Created by KiCad (PCBNEW 9.0.3) date 2026-02-23 20:27:38*
%MOMM*%
%LPD*%
G01*
G04 APERTURE LIST*
G04 Aperture macros list*
%AMOutline5P*
0 Free polygon, 5 corners , with rotation*
0 The origin of the aperture is its center*
0 number of corners: always 5*
0 $1 to $10 corner X, Y*
0 $11 Rotation angle, in degrees counterclockwise*
0 create outline with 5 corners*
4,1,5,$1,$2,$3,$4,$5,$6,$7,$8,$9,$10,$1,$2,$11*%
%AMOutline6P*
0 Free polygon, 6 corners , with rotation*
0 The origin of the aperture is its center*
0 number of corners: always 6*
0 $1 to $12 corner X, Y*
0 $13 Rotation angle, in degrees counterclockwise*
0 create outline with 6 corners*
4,1,6,$1,$2,$3,$4,$5,$6,$7,$8,$9,$10,$11,$12,$1,$2,$13*%
%AMOutline7P*
0 Free polygon, 7 corners , with rotation*
0 The origin of the aperture is its center*
0 number of corners: always 7*
0 $1 to $14 corner X, Y*
0 $15 Rotation angle, in degrees counterclockwise*
0 create outline with 7 corners*
4,1,7,$1,$2,$3,$4,$5,$6,$7,$8,$9,$10,$11,$12,$13,$14,$1,$2,$15*%
%AMOutline8P*
0 Free polygon, 8 corners , with rotation*
0 The origin of the aperture is its center*
0 number of corners: always 8*
0 $1 to $16 corner X, Y*
0 $17 Rotation angle, in degrees counterclockwise*
0 create outline with 8 corners*
4,1,8,$1,$2,$3,$4,$5,$6,$7,$8,$9,$10,$11,$12,$13,$14,$15,$16,$1,$2,$17*%
G04 Aperture macros list end*
%TA.AperFunction,SMDPad,CuDef*%
%ADD10R,2.000000X3.000000*%
%TD*%
%TA.AperFunction,ComponentPad*%
%ADD11C,2.400000*%
%TD*%
%TA.AperFunction,SMDPad,CuDef*%
%ADD12R,3.000000X2.000000*%
%TD*%
%TA.AperFunction,ComponentPad*%
%ADD13O,2.600000X1.500000*%
%TD*%
%TA.AperFunction,ComponentPad*%
%ADD14O,1.500000X2.600000*%
%TD*%
%TA.AperFunction,ComponentPad*%
%ADD15Outline8P,-1.300000X0.450000X-1.000000X0.750000X1.000000X0.750000X1.300000X0.450000X1.300000X-0.450000X1.000000X-0.750000X-1.000000X-0.750000X-1.300000X-0.450000X0.000000*%
%TD*%
%TA.AperFunction,ComponentPad*%
%ADD16R,2.600000X1.500000*%
%TD*%
%TA.AperFunction,ViaPad*%
%ADD17C,0.500000*%
%TD*%
%TA.AperFunction,Conductor*%
%ADD18C,0.300000*%
%TD*%
G04 APERTURE END LIST*
D10*
%TO.P,SW5,1,1*%
%TO.N,GND*%
X-19040000Y16100000D03*
D11*
X-19040000Y19690000D03*
%TO.P,SW5,2,2*%
%TO.N,Net-(SW5-Pad2)*%
X-21580000Y26040000D03*
D10*
X-21580000Y29600000D03*
%TD*%
D12*
%TO.P,SW11,1,1*%
%TO.N,GND*%
X-25400000Y-30460000D03*
D11*
X-21810000Y-30460000D03*
%TO.P,SW11,2,2*%
%TO.N,Net-(SW11-Pad2)*%
X-15460000Y-27920000D03*
D12*
X-11900000Y-27920000D03*
%TD*%
%TO.P,SW3,1,1*%
%TO.N,Net-(SW3-Pad1)*%
X32100000Y1040000D03*
D11*
X35690000Y1040000D03*
%TO.P,SW3,2,2*%
%TO.N,GND*%
X42040000Y3580000D03*
D12*
X45600000Y3580000D03*
%TD*%
%TO.P,SW8,1,1*%
%TO.N,Net-(SW8-Pad1)*%
X10600000Y-30460000D03*
D11*
X14190000Y-30460000D03*
%TO.P,SW8,2,2*%
%TO.N,GND*%
X20540000Y-27920000D03*
D12*
X24100000Y-27920000D03*
%TD*%
%TO.P,SW10,1,1*%
%TO.N,GND*%
X-7400000Y-8460000D03*
D11*
X-3810000Y-8460000D03*
%TO.P,SW10,2,2*%
%TO.N,Net-(SW10-Pad2)*%
X2540000Y-5920000D03*
D12*
X6100000Y-5920000D03*
%TD*%
%TO.P,SW7,1,1*%
%TO.N,GND*%
X-25400000Y-8460000D03*
D11*
X-21810000Y-8460000D03*
%TO.P,SW7,2,2*%
%TO.N,Net-(SW7-Pad2)*%
X-15460000Y-5920000D03*
D12*
X-11900000Y-5920000D03*
%TD*%
%TO.P,SW4,1,1*%
%TO.N,Net-(SW4-Pad1)*%
X10600000Y-8460000D03*
D11*
X14190000Y-8460000D03*
%TO.P,SW4,2,2*%
%TO.N,GND*%
X20540000Y-5920000D03*
D12*
X24100000Y-5920000D03*
%TD*%
D10*
%TO.P,SW2,1,1*%
%TO.N,Net-(SW2-Pad1)*%
X19040000Y30900000D03*
D11*
X19040000Y27310000D03*
%TO.P,SW2,2,2*%
%TO.N,GND*%
X21580000Y20960000D03*
D10*
X21580000Y17400000D03*
%TD*%
D13*
%TO.P,U1,0,0*%
%TO.N,unconnected-(U1-Pad0)*%
X8170000Y40160000D03*
%TO.P,U1,1,1*%
%TO.N,unconnected-(U1-Pad1)*%
X8170000Y37620000D03*
%TO.P,U1,2,2*%
%TO.N,Net-(SW2-Pad1)*%
X8170000Y35080000D03*
%TO.P,U1,3,3*%
%TO.N,unconnected-(U1-Pad3)*%
X8170000Y32540000D03*
%TO.P,U1,4,4*%
%TO.N,Net-(SW3-Pad1)*%
X8170000Y30000000D03*
%TO.P,U1,5,5*%
%TO.N,unconnected-(U1-Pad5)*%
X8170000Y27460000D03*
%TO.P,U1,6,6*%
%TO.N,Net-(SW4-Pad1)*%
X8170000Y24920000D03*
%TO.P,U1,7,7*%
%TO.N,unconnected-(U1-Pad7)*%
X8170000Y22380000D03*
%TO.P,U1,8,8*%
%TO.N,Net-(SW8-Pad1)*%
X8170000Y19840000D03*
D14*
%TO.P,U1,9,9*%
%TO.N,Net-(SW9-Pad2)*%
X5080000Y19190000D03*
%TO.P,U1,10,10*%
%TO.N,unconnected-(U1-Pad10)*%
X2540000Y19190000D03*
%TO.P,U1,11,11*%
%TO.N,Net-(SW10-Pad2)*%
X0Y19190000D03*
%TO.P,U1,12,12*%
%TO.N,unconnected-(U1-Pad12)*%
X-2540000Y19190000D03*
%TO.P,U1,13,13*%
%TO.N,Net-(SW11-Pad2)*%
X-5080000Y19190000D03*
D13*
%TO.P,U1,14,14*%
%TO.N,Net-(SW7-Pad2)*%
X-8170000Y19840000D03*
%TO.P,U1,15,15*%
%TO.N,unconnected-(U1-Pad15)*%
X-8170000Y22380000D03*
%TO.P,U1,26,26*%
%TO.N,Net-(SW6-Pad2)*%
X-8170000Y24920000D03*
%TO.P,U1,27,27*%
%TO.N,unconnected-(U1-Pad27)*%
X-8170000Y27460000D03*
%TO.P,U1,28,28*%
%TO.N,Net-(SW5-Pad2)*%
X-8170000Y30000000D03*
%TO.P,U1,29,29*%
%TO.N,unconnected-(U1-Pad29)*%
X-8170000Y32540000D03*
D15*
%TO.P,U1,30,3V3*%
%TO.N,unconnected-(U1-3V3-Pad30)*%
X-8170000Y35080000D03*
D16*
%TO.P,U1,31,GND*%
%TO.N,GND*%
X-8170000Y37620000D03*
D15*
%TO.P,U1,32,5V*%
%TO.N,unconnected-(U1-5V-Pad32)*%
X-8170000Y40160000D03*
%TD*%
D12*
%TO.P,SW9,1,1*%
%TO.N,GND*%
X-7400000Y-30460000D03*
D11*
X-3810000Y-30460000D03*
%TO.P,SW9,2,2*%
%TO.N,Net-(SW9-Pad2)*%
X2540000Y-27920000D03*
D12*
X6100000Y-27920000D03*
%TD*%
%TO.P,SW6,1,1*%
%TO.N,GND*%
X-46900000Y1040000D03*
D11*
X-43310000Y1040000D03*
%TO.P,SW6,2,2*%
%TO.N,Net-(SW6-Pad2)*%
X-36960000Y3580000D03*
D12*
X-33400000Y3580000D03*
%TD*%
D17*
%TO.N,Net-(SW6-Pad2)*%
X-11450000Y6066700D03*
%TO.N,Net-(SW3-Pad1)*%
X29323500Y28526200D03*
%TO.N,GND*%
X22248300Y3571200D03*
%TD*%
D18*
%TO.N,Net-(SW3-Pad1)*%
X29323500Y28526200D02*
X30248300Y27601400D01*
X30248300Y27601400D02*
X30248300Y2350000D01*
X30248300Y2350000D02*
X30250000Y2350000D01*
X30250000Y2350000D02*
X31560000Y1040000D01*
X31560000Y1040000D02*
X32100000Y1040000D01*
%TO.N,GND*%
X24100000Y-5920000D02*
X23570000Y-5920000D01*
X23570000Y-5920000D02*
X22248300Y-4598300D01*
X22248300Y-4598300D02*
X22248300Y3571200D01*
X24100000Y-5920000D02*
X24013100Y-6006900D01*
X24013100Y-6006900D02*
X20626900Y-6006900D01*
X22248300Y3571200D02*
X22248300Y16731700D01*
X22248300Y16731700D02*
X21580000Y17400000D01*
%TO.N,Net-(SW4-Pad1)*%
X8730000Y24920000D02*
X10750000Y22900000D01*
X7670000Y24920000D02*
X8730000Y24920000D01*
%TO.N,Net-(SW9-Pad2)*%
X5080000Y19790000D02*
X5080000Y-980000D01*
X7142800Y-9557200D02*
X7142800Y-26877200D01*
X8149000Y-4049000D02*
X8149000Y-8551000D01*
X5080000Y-980000D02*
X8149000Y-4049000D01*
X8149000Y-8551000D02*
X7142800Y-9557200D01*
X7142800Y-26877200D02*
X6100000Y-27920000D01*
%TO.N,Net-(SW4-Pad1)*%
X10000000Y-8460000D02*
X10600000Y-8460000D01*
X10600000Y-8460000D02*
X10750000Y-8310000D01*
X10750000Y-8310000D02*
X10750000Y22900000D01*
%TO.N,Net-(SW8-Pad1)*%
X10600000Y-30460000D02*
X10010000Y-30460000D01*
X10010000Y-30460000D02*
X8650000Y-29100000D01*
X8650000Y-29100000D02*
X8650000Y19840000D01*
X8650000Y19840000D02*
X7670000Y19840000D01*
%TO.N,Net-(SW11-Pad2)*%
X-11900000Y-27920000D02*
X-11520000Y-27920000D01*
X-10048300Y-26448300D02*
X-10048300Y-7465600D01*
X-11520000Y-27920000D02*
X-10048300Y-26448300D01*
X-10048300Y-7465600D02*
X-5080000Y-2497300D01*
X-5080000Y-2497300D02*
X-5080000Y19790000D01*
%TO.N,Net-(SW7-Pad2)*%
X-7670000Y19840000D02*
X-7670000Y19751700D01*
X-7670000Y19751700D02*
X-6518300Y18600000D01*
%TO.N,Net-(SW6-Pad2)*%
X-11450000Y6066700D02*
X-11450000Y23870000D01*
X-11450000Y23870000D02*
X-10400000Y24920000D01*
X-10400000Y24920000D02*
X-7670000Y24920000D01*
%TO.N,GND*%
X-7670000Y37620000D02*
X-9880000Y37620000D01*
X-9880000Y37620000D02*
X-12500000Y35000000D01*
X-16175300Y20146900D02*
X-18583100Y20146900D01*
X-12500000Y35000000D02*
X-12500000Y23822200D01*
X-12500000Y23822200D02*
X-16175300Y20146900D01*
X-18583100Y20146900D02*
X-19040000Y19690000D01*
%TO.N,Net-(SW11-Pad2)*%
X-11900000Y-27920000D02*
X-15460000Y-27920000D01*
%TO.N,Net-(SW10-Pad2)*%
X2540000Y-5920000D02*
X6100000Y-5920000D01*
X0Y1799600D02*
X0Y19790000D01*
X2540000Y-740400D02*
X0Y1799600D01*
X2540000Y-5920000D02*
X2540000Y-740400D01*
%TO.N,Net-(SW9-Pad2)*%
X2540000Y-27920000D02*
X6100000Y-27920000D01*
%TO.N,Net-(SW8-Pad1)*%
X10600000Y-30460000D02*
X14190000Y-30460000D01*
%TO.N,Net-(SW7-Pad2)*%
X-11900000Y-5920000D02*
X-15460000Y-5920000D01*
X-11900000Y-5920000D02*
X-10048300Y-5920000D01*
X-6518300Y-2390000D02*
X-10048300Y-5920000D01*
X-6518300Y18600000D02*
X-6518300Y-2390000D01*
%TO.N,Net-(SW6-Pad2)*%
X-33400000Y3580000D02*
X-36960000Y3580000D01*
%TO.N,Net-(SW5-Pad2)*%
X-21580000Y26040000D02*
X-21580000Y29600000D01*
%TO.N,Net-(SW4-Pad1)*%
X14190000Y-8460000D02*
X10600000Y-8460000D01*
%TO.N,Net-(SW3-Pad1)*%
X32100000Y1040000D02*
X35690000Y1040000D01*
%TO.N,Net-(SW2-Pad1)*%
X16711700Y35080000D02*
X19040000Y32751700D01*
X7670000Y35080000D02*
X16711700Y35080000D01*
X19040000Y30900000D02*
X19040000Y32751700D01*
X19040000Y27310000D02*
X19040000Y30900000D01*
%TO.N,GND*%
X21580000Y17400000D02*
X21580000Y20960000D01*
X20540000Y-27920000D02*
X20626900Y-27920000D01*
X20626900Y-27920000D02*
X24100000Y-27920000D01*
X45600000Y3580000D02*
X42040000Y3580000D01*
X-7400000Y-8460000D02*
X-3810000Y-8460000D01*
X20626900Y-27920000D02*
X20626900Y-6006900D01*
X20626900Y-6006900D02*
X20540000Y-5920000D01*
X-43310000Y1040000D02*
X-46900000Y1040000D01*
X-25400000Y-8460000D02*
X-21810000Y-8460000D01*
X-7400000Y-30460000D02*
X-3810000Y-30460000D01*
X-19040000Y17951700D02*
X-19040000Y19690000D01*
X-19040000Y16685000D02*
X-19040000Y17951700D01*
X-19040000Y16685000D02*
X-19040000Y16100000D01*
X-19040000Y-5690000D02*
X-21810000Y-8460000D01*
X-19040000Y16100000D02*
X-19040000Y-5690000D01*
X-21638700Y-30288700D02*
X-21810000Y-30460000D01*
X-21638700Y-8631300D02*
X-21638700Y-30288700D01*
X-21810000Y-8460000D02*
X-21638700Y-8631300D01*
X-25400000Y-30460000D02*
X-23548300Y-30460000D01*
X-21810000Y-30460000D02*
X-23548300Y-30460000D01*
%TD*%
%TA.AperFunction,Conductor*%
%TO.N,Net-(SW3-Pad1)*%
G36*
X29537732Y28655275D02*
G01*
X29537795Y28655179D01*
X29774570Y28290053D01*
X29776196Y28281247D01*
X29773026Y28275414D01*
X29574285Y28076673D01*
X29566012Y28073246D01*
X29559647Y28075128D01*
X29194519Y28311905D01*
X29189443Y28319281D01*
X29191069Y28328087D01*
X29321481Y28524926D01*
X29324773Y28528218D01*
X29440941Y28605183D01*
X29521517Y28658567D01*
X29530305Y28660279D01*
X29537732Y28655275D01*
G37*
%TD.AperFunction*%
%TD*%
%TA.AperFunction,Conductor*%
%TO.N,Net-(SW3-Pad1)*%
G36*
X30400334Y2854239D02*
G01*
X32496397Y2044293D01*
X32502879Y2038114D01*
X32503094Y2029162D01*
X32503016Y2028967D01*
X32103119Y1046663D01*
X32096826Y1040293D01*
X32091734Y1039388D01*
X30608377Y1109049D01*
X30600276Y1112860D01*
X30597683Y1117504D01*
X30102592Y2840093D01*
X30103600Y2848991D01*
X30110605Y2854570D01*
X30113837Y2855025D01*
X30396117Y2855025D01*
X30400334Y2854239D01*
G37*
%TD.AperFunction*%
%TD*%
%TA.AperFunction,Conductor*%
%TO.N,GND*%
G36*
X22400353Y-4096480D02*
G01*
X24497935Y-4915677D01*
X24504394Y-4921877D01*
X24504576Y-4930830D01*
X24504509Y-4930999D01*
X24103134Y-5913328D01*
X24096832Y-5919691D01*
X24091723Y-5920589D01*
X22865916Y-5859743D01*
X22608359Y-5846958D01*
X22600267Y-5843126D01*
X22597694Y-5838499D01*
X22102576Y-4110601D01*
X22103591Y-4101705D01*
X22110600Y-4096132D01*
X22113823Y-4095679D01*
X22396098Y-4095679D01*
X22400353Y-4096480D01*
G37*
%TD.AperFunction*%
%TD*%
%TA.AperFunction,Conductor*%
%TO.N,GND*%
G36*
X22481916Y3524777D02*
G01*
X22489342Y3519773D01*
X22491054Y3510983D01*
X22491031Y3510871D01*
X22400275Y3085264D01*
X22395198Y3077887D01*
X22388832Y3076004D01*
X22107768Y3076004D01*
X22099495Y3079431D01*
X22096325Y3085264D01*
X22005568Y3510871D01*
X22007194Y3519677D01*
X22014571Y3524754D01*
X22014683Y3524777D01*
X22245972Y3571727D01*
X22250628Y3571727D01*
X22481916Y3524777D01*
G37*
%TD.AperFunction*%
%TD*%
%TA.AperFunction,Conductor*%
%TO.N,GND*%
G36*
X21279479Y-4973437D02*
G01*
X22724121Y-5853481D01*
X22729403Y-5860711D01*
X22729734Y-5863472D01*
X22729734Y-6149650D01*
X22726307Y-6157923D01*
X22723241Y-6160127D01*
X21154200Y-6939958D01*
X21145267Y-6940572D01*
X21138920Y-6935432D01*
X20543023Y-5926809D01*
X20541765Y-5917943D01*
X20543818Y-5913729D01*
X21264118Y-4976299D01*
X21271875Y-4971829D01*
X21279479Y-4973437D01*
G37*
%TD.AperFunction*%
%TD*%
%TA.AperFunction,Conductor*%
%TO.N,GND*%
G36*
X22607427Y-4976243D02*
G01*
X24009476Y-5862168D01*
X24085757Y-5910368D01*
X24090920Y-5917684D01*
X24089398Y-5926509D01*
X24085994Y-5929996D01*
X22606947Y-6915371D01*
X22598162Y-6917106D01*
X22593363Y-6914935D01*
X22229491Y-6637265D01*
X21604602Y-6160411D01*
X21600104Y-6152668D01*
X21600000Y-6151110D01*
X21600000Y-5862168D01*
X21603427Y-5853895D01*
X21603944Y-5853408D01*
X22593422Y-4977373D01*
X22601887Y-4974456D01*
X22607427Y-4976243D01*
G37*
%TD.AperFunction*%
%TD*%
%TA.AperFunction,Conductor*%
%TO.N,GND*%
G36*
X21586869Y17387196D02*
G01*
X21592054Y17382905D01*
X22577380Y15903931D01*
X22579155Y15895352D01*
X22400046Y14909608D01*
X22395195Y14902081D01*
X22388534Y14900000D01*
X22102669Y14900000D01*
X22095000Y14902864D01*
X21855814Y15110436D01*
X20952413Y15894435D01*
X20948412Y15902444D01*
X20949305Y15907822D01*
X21039926Y16122369D01*
X21571540Y17380971D01*
X21577915Y17387258D01*
X21586869Y17387196D01*
G37*
%TD.AperFunction*%
%TD*%
%TA.AperFunction,Conductor*%
%TO.N,GND*%
G36*
X22397105Y4062969D02*
G01*
X22400275Y4057136D01*
X22491031Y3631528D01*
X22489405Y3622722D01*
X22482028Y3617645D01*
X22250625Y3570672D01*
X22245975Y3570672D01*
X22014681Y3617622D01*
X22007257Y3622626D01*
X22005545Y3631416D01*
X22005568Y3631528D01*
X22096325Y4057136D01*
X22101402Y4064513D01*
X22107768Y4066396D01*
X22388832Y4066396D01*
X22397105Y4062969D01*
G37*
%TD.AperFunction*%
%TD*%
%TA.AperFunction,Conductor*%
%TO.N,Net-(SW4-Pad1)*%
G36*
X9448444Y24871047D02*
G01*
X9456619Y24867391D01*
X9458672Y24864402D01*
X9877962Y23988064D01*
X9878442Y23979122D01*
X9875681Y23974741D01*
X9673778Y23772838D01*
X9665505Y23769411D01*
X9663329Y23769614D01*
X7486040Y24182069D01*
X7478552Y24186976D01*
X7476724Y24195743D01*
X7476912Y24196569D01*
X7666915Y24911757D01*
X7672351Y24918873D01*
X7678549Y24920448D01*
X9448444Y24871047D01*
G37*
%TD.AperFunction*%
%TD*%
%TA.AperFunction,Conductor*%
%TO.N,Net-(SW9-Pad2)*%
G36*
X5090745Y19763975D02*
G01*
X5090871Y19763671D01*
X5701784Y18227891D01*
X5701658Y18218937D01*
X5701610Y18218826D01*
X5233084Y17161371D01*
X5226600Y17155196D01*
X5222387Y17154411D01*
X4937613Y17154411D01*
X4929340Y17157838D01*
X4926916Y17161371D01*
X4458388Y18218828D01*
X4458171Y18227779D01*
X4458215Y18227891D01*
X5069129Y19763671D01*
X5075371Y19770091D01*
X5084325Y19770217D01*
X5090745Y19763975D01*
G37*
%TD.AperFunction*%
%TD*%
%TA.AperFunction,Conductor*%
%TO.N,Net-(SW9-Pad2)*%
G36*
X7292473Y-25941155D02*
G01*
X7295367Y-25945936D01*
X7597385Y-26911639D01*
X7596583Y-26920558D01*
X7592712Y-26924863D01*
X6110189Y-27914200D01*
X6101406Y-27915942D01*
X6093963Y-27910962D01*
X6093675Y-27910509D01*
X5502330Y-26929642D01*
X5500993Y-26920787D01*
X5505927Y-26913822D01*
X6989877Y-25939647D01*
X6996298Y-25937728D01*
X7284200Y-25937728D01*
X7292473Y-25941155D01*
G37*
%TD.AperFunction*%
%TD*%
%TA.AperFunction,Conductor*%
%TO.N,Net-(SW4-Pad1)*%
G36*
X10902552Y-6463427D02*
G01*
X10903514Y-6464517D01*
X11671261Y-7451538D01*
X11673636Y-7460172D01*
X11669988Y-7467294D01*
X10608581Y-8453030D01*
X10600187Y-8456149D01*
X10592047Y-8452419D01*
X9679607Y-7467957D01*
X9676496Y-7459560D01*
X9679611Y-7452046D01*
X9680083Y-7451538D01*
X10596528Y-6463741D01*
X10604667Y-6460008D01*
X10605105Y-6460000D01*
X10894279Y-6460000D01*
X10902552Y-6463427D01*
G37*
%TD.AperFunction*%
%TD*%
%TA.AperFunction,Conductor*%
%TO.N,Net-(SW8-Pad1)*%
G36*
X8801796Y-28736992D02*
G01*
X9491975Y-28966331D01*
X10966078Y-29456160D01*
X10972849Y-29462021D01*
X10973492Y-29470952D01*
X10973336Y-29471393D01*
X10602838Y-30453474D01*
X10596711Y-30460005D01*
X10591956Y-30461044D01*
X9108379Y-30469319D01*
X9100087Y-30465938D01*
X9097258Y-30461447D01*
X9097118Y-30461044D01*
X8505376Y-28751923D01*
X8505907Y-28742985D01*
X8512604Y-28737040D01*
X8516432Y-28736396D01*
X8798108Y-28736396D01*
X8801796Y-28736992D01*
G37*
%TD.AperFunction*%
%TD*%
%TA.AperFunction,Conductor*%
%TO.N,Net-(SW8-Pad1)*%
G36*
X7678773Y19836556D02*
G01*
X8999884Y19167426D01*
X9005716Y19160630D01*
X9005940Y19154119D01*
X8802234Y18348831D01*
X8796883Y18341651D01*
X8790891Y18340000D01*
X8503584Y18340000D01*
X8497032Y18342006D01*
X8486934Y18348831D01*
X7213483Y19209529D01*
X7208550Y19217000D01*
X7210343Y19225774D01*
X7210664Y19226225D01*
X7664113Y19833121D01*
X7671810Y19837697D01*
X7678773Y19836556D01*
G37*
%TD.AperFunction*%
%TD*%
%TA.AperFunction,Conductor*%
%TO.N,Net-(SW11-Pad2)*%
G36*
X-9905578Y-26118812D02*
G01*
X-9902151Y-26127085D01*
X-9902608Y-26130326D01*
X-10129137Y-26915827D01*
X-10397670Y-27846979D01*
X-10403255Y-27853979D01*
X-10408398Y-27855426D01*
X-11891746Y-27920637D01*
X-11900162Y-27917577D01*
X-11903103Y-27913344D01*
X-12301340Y-26931066D01*
X-12301272Y-26922111D01*
X-12294893Y-26915827D01*
X-12294725Y-26915761D01*
X-10200316Y-26116154D01*
X-10196144Y-26115385D01*
X-9913851Y-26115385D01*
X-9905578Y-26118812D01*
G37*
%TD.AperFunction*%
%TD*%
%TA.AperFunction,Conductor*%
%TO.N,Net-(SW11-Pad2)*%
G36*
X-5069255Y19763975D02*
G01*
X-5069129Y19763671D01*
X-4458215Y18227891D01*
X-4458341Y18218937D01*
X-4926916Y17161371D01*
X-4933400Y17155196D01*
X-4937613Y17154411D01*
X-5222387Y17154411D01*
X-5230660Y17157838D01*
X-5233084Y17161371D01*
X-5701610Y18218826D01*
X-5701828Y18227779D01*
X-5701784Y18227891D01*
X-5090871Y19763671D01*
X-5084629Y19770091D01*
X-5075675Y19770217D01*
X-5069255Y19763975D01*
G37*
%TD.AperFunction*%
%TD*%
%TA.AperFunction,Conductor*%
%TO.N,Net-(SW7-Pad2)*%
G36*
X-6885941Y19982549D02*
G01*
X-6881374Y19976305D01*
X-6611229Y19085639D01*
X-6534649Y18833156D01*
X-6535527Y18824244D01*
X-6537569Y18821490D01*
X-6739397Y18619662D01*
X-6747669Y18616236D01*
X-6751816Y18616995D01*
X-7987390Y19085639D01*
X-7993910Y19091778D01*
X-7994181Y19100728D01*
X-7993961Y19101266D01*
X-7673192Y19835020D01*
X-7666739Y19841227D01*
X-7664602Y19841837D01*
X-6894699Y19984412D01*
X-6885941Y19982549D01*
G37*
%TD.AperFunction*%
%TD*%
%TA.AperFunction,Conductor*%
%TO.N,Net-(SW6-Pad2)*%
G36*
X-11301195Y6558469D02*
G01*
X-11298025Y6552636D01*
X-11207268Y6127028D01*
X-11208894Y6118222D01*
X-11216270Y6113145D01*
X-11447675Y6066172D01*
X-11452325Y6066172D01*
X-11683616Y6113122D01*
X-11691042Y6118126D01*
X-11692754Y6126916D01*
X-11692731Y6127028D01*
X-11601975Y6552636D01*
X-11596898Y6560013D01*
X-11590532Y6561896D01*
X-11309468Y6561896D01*
X-11301195Y6558469D01*
G37*
%TD.AperFunction*%
%TD*%
%TA.AperFunction,Conductor*%
%TO.N,Net-(SW6-Pad2)*%
G36*
X-9132004Y25541616D02*
G01*
X-7694343Y24930768D01*
X-7688068Y24924379D01*
X-7688150Y24915425D01*
X-7694342Y24909232D01*
X-9132006Y24298382D01*
X-9140958Y24298301D01*
X-9141304Y24298447D01*
X-10198629Y24766916D01*
X-10204804Y24773400D01*
X-10205589Y24777613D01*
X-10205589Y25062386D01*
X-10202162Y25070659D01*
X-10198629Y25073083D01*
X-9141319Y25541545D01*
X-9132366Y25541763D01*
X-9132004Y25541616D01*
G37*
%TD.AperFunction*%
%TD*%
%TA.AperFunction,Conductor*%
%TO.N,GND*%
G36*
X-9463437Y38195086D02*
G01*
X-7699592Y37630407D01*
X-7692757Y37624621D01*
X-7692016Y37615697D01*
X-7697802Y37608862D01*
X-7698651Y37608467D01*
X-9463868Y36872555D01*
X-9472823Y36872535D01*
X-9475337Y36873956D01*
X-10013654Y37273002D01*
X-10014960Y37274128D01*
X-10217951Y37477119D01*
X-10221378Y37485392D01*
X-10217951Y37493665D01*
X-10217694Y37493914D01*
X-9475020Y38192465D01*
X-9466646Y38195638D01*
X-9463437Y38195086D01*
G37*
%TD.AperFunction*%
%TD*%
%TA.AperFunction,Conductor*%
%TO.N,GND*%
G36*
X-16939019Y20299422D02*
G01*
X-16932101Y20293736D01*
X-16930723Y20288228D01*
X-16930723Y20002089D01*
X-16934150Y19993816D01*
X-16934554Y19993431D01*
X-18189902Y18856779D01*
X-18198334Y18853767D01*
X-18206016Y18857169D01*
X-19035452Y19684466D01*
X-19038890Y19692735D01*
X-19037996Y19697236D01*
X-18584845Y20788862D01*
X-18578508Y20795189D01*
X-18570635Y20795570D01*
X-16939019Y20299422D01*
G37*
%TD.AperFunction*%
%TD*%
%TA.AperFunction,Conductor*%
%TO.N,Net-(SW11-Pad2)*%
G36*
X-13392660Y-26924889D02*
G01*
X-11913615Y-27910263D01*
X-11908630Y-27917702D01*
X-11910365Y-27926487D01*
X-11913614Y-27929736D01*
X-13391423Y-28914286D01*
X-13392657Y-28915108D01*
X-13401442Y-28916843D01*
X-13406721Y-28914286D01*
X-14395877Y-28073504D01*
X-14399962Y-28065535D01*
X-14400000Y-28064589D01*
X-14400000Y-27775410D01*
X-14396573Y-27767137D01*
X-14395883Y-27766500D01*
X-13406721Y-26925713D01*
X-13398198Y-26922966D01*
X-13392660Y-26924889D01*
G37*
%TD.AperFunction*%
%TD*%
%TA.AperFunction,Conductor*%
%TO.N,Net-(SW11-Pad2)*%
G36*
X-14803046Y-26925255D02*
G01*
X-13276319Y-27766664D01*
X-13270727Y-27773659D01*
X-13270266Y-27776911D01*
X-13270266Y-28063088D01*
X-13273693Y-28071361D01*
X-13276319Y-28073335D01*
X-14803044Y-28914743D01*
X-14811943Y-28915735D01*
X-14818508Y-28910861D01*
X-15456872Y-27926365D01*
X-15458498Y-27917559D01*
X-15456872Y-27913635D01*
X-14818508Y-26929138D01*
X-14811132Y-26924060D01*
X-14803046Y-26925255D01*
G37*
%TD.AperFunction*%
%TD*%
%TA.AperFunction,Conductor*%
%TO.N,Net-(SW10-Pad2)*%
G36*
X3196953Y-4925255D02*
G01*
X4723681Y-5766664D01*
X4729273Y-5773659D01*
X4729734Y-5776911D01*
X4729734Y-6063088D01*
X4726307Y-6071361D01*
X4723681Y-6073335D01*
X3196955Y-6914743D01*
X3188056Y-6915735D01*
X3181491Y-6910861D01*
X2637145Y-6071361D01*
X2543126Y-5926364D01*
X2541501Y-5917559D01*
X2543127Y-5913635D01*
X2633890Y-5773659D01*
X3181492Y-4929137D01*
X3188867Y-4924060D01*
X3196953Y-4925255D01*
G37*
%TD.AperFunction*%
%TD*%
%TA.AperFunction,Conductor*%
%TO.N,Net-(SW10-Pad2)*%
G36*
X4607340Y-4924890D02*
G01*
X5263855Y-5362275D01*
X6086384Y-5910263D01*
X6091369Y-5917702D01*
X6089634Y-5926487D01*
X6086384Y-5929737D01*
X4607342Y-6915108D01*
X4598557Y-6916843D01*
X4593278Y-6914286D01*
X3604123Y-6073504D01*
X3600038Y-6065535D01*
X3600000Y-6064589D01*
X3600000Y-5775410D01*
X3603427Y-5767137D01*
X3604116Y-5766500D01*
X4593279Y-4925712D01*
X4601801Y-4922966D01*
X4607340Y-4924890D01*
G37*
%TD.AperFunction*%
%TD*%
%TA.AperFunction,Conductor*%
%TO.N,Net-(SW10-Pad2)*%
G36*
X10745Y19763975D02*
G01*
X10871Y19763671D01*
X621784Y18227891D01*
X621658Y18218937D01*
X621610Y18218826D01*
X153084Y17161371D01*
X146600Y17155196D01*
X142387Y17154411D01*
X-142387Y17154411D01*
X-150660Y17157838D01*
X-153084Y17161371D01*
X-621610Y18218826D01*
X-621828Y18227779D01*
X-621784Y18227891D01*
X-10871Y19763671D01*
X-4629Y19770091D01*
X4325Y19770217D01*
X10745Y19763975D01*
G37*
%TD.AperFunction*%
%TD*%
%TA.AperFunction,Conductor*%
%TO.N,Net-(SW10-Pad2)*%
G36*
X2691362Y-3733693D02*
G01*
X2693336Y-3736319D01*
X3534743Y-5263044D01*
X3535735Y-5271943D01*
X3530861Y-5278508D01*
X2546365Y-5916872D01*
X2537559Y-5918498D01*
X2533635Y-5916872D01*
X1549138Y-5278508D01*
X1544060Y-5271132D01*
X1545255Y-5263046D01*
X2386664Y-3736318D01*
X2393659Y-3730727D01*
X2396911Y-3730266D01*
X2683089Y-3730266D01*
X2691362Y-3733693D01*
G37*
%TD.AperFunction*%
%TD*%
%TA.AperFunction,Conductor*%
%TO.N,Net-(SW9-Pad2)*%
G36*
X4607340Y-26924890D02*
G01*
X5263855Y-27362275D01*
X6086384Y-27910263D01*
X6091369Y-27917702D01*
X6089634Y-27926487D01*
X6086384Y-27929737D01*
X4607342Y-28915108D01*
X4598557Y-28916843D01*
X4593278Y-28914286D01*
X3604123Y-28073504D01*
X3600038Y-28065535D01*
X3600000Y-28064589D01*
X3600000Y-27775410D01*
X3603427Y-27767137D01*
X3604116Y-27766500D01*
X4593279Y-26925712D01*
X4601801Y-26922966D01*
X4607340Y-26924890D01*
G37*
%TD.AperFunction*%
%TD*%
%TA.AperFunction,Conductor*%
%TO.N,Net-(SW9-Pad2)*%
G36*
X3196953Y-26925255D02*
G01*
X4723681Y-27766664D01*
X4729273Y-27773659D01*
X4729734Y-27776911D01*
X4729734Y-28063088D01*
X4726307Y-28071361D01*
X4723681Y-28073335D01*
X3196955Y-28914743D01*
X3188056Y-28915735D01*
X3181491Y-28910861D01*
X2637145Y-28071361D01*
X2543126Y-27926364D01*
X2541501Y-27917559D01*
X2543127Y-27913635D01*
X2633890Y-27773659D01*
X3181492Y-26929137D01*
X3188867Y-26924060D01*
X3196953Y-26925255D01*
G37*
%TD.AperFunction*%
%TD*%
%TA.AperFunction,Conductor*%
%TO.N,Net-(SW8-Pad1)*%
G36*
X13548508Y-29469138D02*
G01*
X14186872Y-30453635D01*
X14188498Y-30462441D01*
X14186872Y-30466365D01*
X13548508Y-31450861D01*
X13541132Y-31455939D01*
X13533044Y-31454743D01*
X12006319Y-30613335D01*
X12000727Y-30606340D01*
X12000266Y-30603088D01*
X12000266Y-30316911D01*
X12003693Y-30308638D01*
X12006319Y-30306664D01*
X13533046Y-29465255D01*
X13541943Y-29464264D01*
X13548508Y-29469138D01*
G37*
%TD.AperFunction*%
%TD*%
%TA.AperFunction,Conductor*%
%TO.N,Net-(SW8-Pad1)*%
G36*
X12106721Y-29465713D02*
G01*
X13095877Y-30306495D01*
X13099962Y-30314464D01*
X13100000Y-30315410D01*
X13100000Y-30604589D01*
X13096573Y-30612862D01*
X13095877Y-30613504D01*
X12106721Y-31454286D01*
X12098198Y-31457033D01*
X12092657Y-31455108D01*
X12091423Y-31454286D01*
X10613614Y-30469736D01*
X10608630Y-30462298D01*
X10610365Y-30453513D01*
X10613615Y-30450263D01*
X12092659Y-29464890D01*
X12101442Y-29463156D01*
X12106721Y-29465713D01*
G37*
%TD.AperFunction*%
%TD*%
%TA.AperFunction,Conductor*%
%TO.N,Net-(SW7-Pad2)*%
G36*
X-14803046Y-4925255D02*
G01*
X-13276319Y-5766664D01*
X-13270727Y-5773659D01*
X-13270266Y-5776911D01*
X-13270266Y-6063088D01*
X-13273693Y-6071361D01*
X-13276319Y-6073335D01*
X-14803044Y-6914743D01*
X-14811943Y-6915735D01*
X-14818508Y-6910861D01*
X-15456872Y-5926365D01*
X-15458498Y-5917559D01*
X-15456872Y-5913635D01*
X-14818508Y-4929138D01*
X-14811132Y-4924060D01*
X-14803046Y-4925255D01*
G37*
%TD.AperFunction*%
%TD*%
%TA.AperFunction,Conductor*%
%TO.N,Net-(SW7-Pad2)*%
G36*
X-13392660Y-4924889D02*
G01*
X-11913615Y-5910263D01*
X-11908630Y-5917702D01*
X-11910365Y-5926487D01*
X-11913614Y-5929736D01*
X-13391423Y-6914286D01*
X-13392657Y-6915108D01*
X-13401442Y-6916843D01*
X-13406721Y-6914286D01*
X-14395877Y-6073504D01*
X-14399962Y-6065535D01*
X-14400000Y-6064589D01*
X-14400000Y-5775410D01*
X-14396573Y-5767137D01*
X-14395883Y-5766500D01*
X-13406721Y-4925713D01*
X-13398198Y-4922966D01*
X-13392660Y-4924889D01*
G37*
%TD.AperFunction*%
%TD*%
%TA.AperFunction,Conductor*%
%TO.N,Net-(SW7-Pad2)*%
G36*
X-10393609Y-4923952D02*
G01*
X-9697099Y-5354805D01*
X-9694991Y-5356474D01*
X-9491457Y-5560008D01*
X-9488031Y-5568280D01*
X-9490828Y-5575871D01*
X-10394151Y-6635227D01*
X-10402127Y-6639299D01*
X-10408123Y-6638181D01*
X-11882208Y-5929599D01*
X-11888180Y-5922926D01*
X-11887684Y-5913985D01*
X-11883630Y-5909320D01*
X-10406253Y-4924170D01*
X-10397469Y-4922431D01*
X-10393609Y-4923952D01*
G37*
%TD.AperFunction*%
%TD*%
%TA.AperFunction,Conductor*%
%TO.N,Net-(SW6-Pad2)*%
G36*
X-34892657Y4575108D02*
G01*
X-33629410Y3733504D01*
X-33413615Y3589737D01*
X-33408630Y3582298D01*
X-33410365Y3573513D01*
X-33413614Y3570263D01*
X-34892659Y2584890D01*
X-34901442Y2583156D01*
X-34906721Y2585713D01*
X-35154010Y2795908D01*
X-35895877Y3426495D01*
X-35899962Y3434464D01*
X-35900000Y3435410D01*
X-35900000Y3724589D01*
X-35896573Y3732862D01*
X-35895877Y3733504D01*
X-34906721Y4574286D01*
X-34898198Y4577033D01*
X-34892657Y4575108D01*
G37*
%TD.AperFunction*%
%TD*%
%TA.AperFunction,Conductor*%
%TO.N,Net-(SW6-Pad2)*%
G36*
X-36303044Y4574743D02*
G01*
X-34776319Y3733335D01*
X-34770727Y3726340D01*
X-34770266Y3723088D01*
X-34770266Y3436911D01*
X-34773693Y3428638D01*
X-34776318Y3426664D01*
X-36303046Y2585255D01*
X-36311943Y2584264D01*
X-36318508Y2589138D01*
X-36956872Y3573635D01*
X-36958498Y3582441D01*
X-36956872Y3586365D01*
X-36318508Y4570861D01*
X-36311132Y4575939D01*
X-36303044Y4574743D01*
G37*
%TD.AperFunction*%
%TD*%
%TA.AperFunction,Conductor*%
%TO.N,Net-(SW5-Pad2)*%
G36*
X-21428638Y28226307D02*
G01*
X-21426664Y28223681D01*
X-20585255Y26696952D01*
X-20584264Y26688055D01*
X-20589136Y26681491D01*
X-21573635Y26043127D01*
X-21582441Y26041501D01*
X-21586365Y26043127D01*
X-22570861Y26681490D01*
X-22575939Y26688866D01*
X-22574743Y26696954D01*
X-21733336Y28223681D01*
X-21726341Y28229273D01*
X-21723089Y28229734D01*
X-21436911Y28229734D01*
X-21428638Y28226307D01*
G37*
%TD.AperFunction*%
%TD*%
%TA.AperFunction,Conductor*%
%TO.N,Net-(SW5-Pad2)*%
G36*
X-21573513Y29589634D02*
G01*
X-21570263Y29586384D01*
X-20584891Y28107342D01*
X-20583156Y28098557D01*
X-20585712Y28093279D01*
X-21426495Y27104123D01*
X-21434464Y27100038D01*
X-21435410Y27100000D01*
X-21724590Y27100000D01*
X-21732863Y27103427D01*
X-21733505Y27104123D01*
X-22574286Y28093278D01*
X-22577033Y28101801D01*
X-22575108Y28107342D01*
X-21589737Y29586384D01*
X-21582298Y29591369D01*
X-21573513Y29589634D01*
G37*
%TD.AperFunction*%
%TD*%
%TA.AperFunction,Conductor*%
%TO.N,Net-(SW4-Pad1)*%
G36*
X13548508Y-7469138D02*
G01*
X14186872Y-8453635D01*
X14188498Y-8462441D01*
X14186872Y-8466365D01*
X13548508Y-9450861D01*
X13541132Y-9455939D01*
X13533044Y-9454743D01*
X12006319Y-8613335D01*
X12000727Y-8606340D01*
X12000266Y-8603088D01*
X12000266Y-8316911D01*
X12003693Y-8308638D01*
X12006319Y-8306664D01*
X13533046Y-7465255D01*
X13541943Y-7464264D01*
X13548508Y-7469138D01*
G37*
%TD.AperFunction*%
%TD*%
%TA.AperFunction,Conductor*%
%TO.N,Net-(SW4-Pad1)*%
G36*
X12106721Y-7465713D02*
G01*
X13095877Y-8306495D01*
X13099962Y-8314464D01*
X13100000Y-8315410D01*
X13100000Y-8604589D01*
X13096573Y-8612862D01*
X13095877Y-8613504D01*
X12106721Y-9454286D01*
X12098198Y-9457033D01*
X12092657Y-9455108D01*
X12091423Y-9454286D01*
X10613614Y-8469736D01*
X10608630Y-8462298D01*
X10610365Y-8453513D01*
X10613615Y-8450263D01*
X12092659Y-7464890D01*
X12101442Y-7463156D01*
X12106721Y-7465713D01*
G37*
%TD.AperFunction*%
%TD*%
%TA.AperFunction,Conductor*%
%TO.N,Net-(SW3-Pad1)*%
G36*
X35048508Y2030861D02*
G01*
X35686872Y1046365D01*
X35688498Y1037559D01*
X35686872Y1033635D01*
X35048508Y49138D01*
X35041132Y44060D01*
X35033046Y45255D01*
X33506318Y886664D01*
X33500727Y893659D01*
X33500266Y896911D01*
X33500266Y1183088D01*
X33503693Y1191361D01*
X33506319Y1193335D01*
X35033044Y2034743D01*
X35041943Y2035735D01*
X35048508Y2030861D01*
G37*
%TD.AperFunction*%
%TD*%
%TA.AperFunction,Conductor*%
%TO.N,Net-(SW3-Pad1)*%
G36*
X33606721Y2034286D02*
G01*
X34595877Y1193504D01*
X34599962Y1185535D01*
X34600000Y1184589D01*
X34600000Y895410D01*
X34596573Y887137D01*
X34595883Y886500D01*
X33854010Y255908D01*
X33606721Y45713D01*
X33598198Y42966D01*
X33592660Y44889D01*
X32113614Y1030263D01*
X32108630Y1037702D01*
X32110365Y1046487D01*
X32113615Y1049737D01*
X32329410Y1193504D01*
X33592657Y2035108D01*
X33601442Y2036843D01*
X33606721Y2034286D01*
G37*
%TD.AperFunction*%
%TD*%
%TA.AperFunction,Conductor*%
%TO.N,Net-(SW2-Pad1)*%
G36*
X9141319Y35701545D02*
G01*
X10198629Y35233083D01*
X10204804Y35226599D01*
X10205589Y35222386D01*
X10205589Y34937613D01*
X10202162Y34929340D01*
X10198629Y34926916D01*
X9141318Y34458453D01*
X9132366Y34458236D01*
X9132053Y34458362D01*
X7694342Y35069232D01*
X7688068Y35075621D01*
X7688150Y35084575D01*
X7694343Y35090768D01*
X9132004Y35701616D01*
X9140958Y35701698D01*
X9141319Y35701545D01*
G37*
%TD.AperFunction*%
%TD*%
%TA.AperFunction,Conductor*%
%TO.N,Net-(SW2-Pad1)*%
G36*
X18695871Y33309171D02*
G01*
X19755228Y32405848D01*
X19759300Y32397872D01*
X19758182Y32391876D01*
X19049599Y30917791D01*
X19042926Y30911819D01*
X19033985Y30912315D01*
X19029320Y30916369D01*
X18044170Y32393746D01*
X18042431Y32402530D01*
X18043954Y32406392D01*
X18474801Y33102894D01*
X18476478Y33105012D01*
X18680007Y33308541D01*
X18688280Y33311968D01*
X18695871Y33309171D01*
G37*
%TD.AperFunction*%
%TD*%
%TA.AperFunction,Conductor*%
%TO.N,Net-(SW2-Pad1)*%
G36*
X19046487Y30889634D02*
G01*
X19049737Y30886384D01*
X20035108Y29407342D01*
X20036843Y29398557D01*
X20034286Y29393278D01*
X19193505Y28404123D01*
X19185536Y28400038D01*
X19184590Y28400000D01*
X18895410Y28400000D01*
X18887137Y28403427D01*
X18886495Y28404123D01*
X18045712Y29393279D01*
X18042966Y29401801D01*
X18044891Y29407342D01*
X19030263Y30886384D01*
X19037702Y30891369D01*
X19046487Y30889634D01*
G37*
%TD.AperFunction*%
%TD*%
%TA.AperFunction,Conductor*%
%TO.N,Net-(SW2-Pad1)*%
G36*
X19191362Y29496307D02*
G01*
X19193336Y29493681D01*
X20034743Y27966954D01*
X20035735Y27958055D01*
X20030861Y27951490D01*
X19046365Y27313127D01*
X19037559Y27311501D01*
X19033635Y27313127D01*
X18049137Y27951491D01*
X18044060Y27958866D01*
X18045255Y27966952D01*
X18886664Y29493681D01*
X18893659Y29499273D01*
X18896911Y29499734D01*
X19183089Y29499734D01*
X19191362Y29496307D01*
G37*
%TD.AperFunction*%
%TD*%
%TA.AperFunction,Conductor*%
%TO.N,GND*%
G36*
X21732863Y19896573D02*
G01*
X21733505Y19895877D01*
X22574286Y18906721D01*
X22577033Y18898198D01*
X22575108Y18892657D01*
X21589737Y17413615D01*
X21582298Y17408630D01*
X21573513Y17410365D01*
X21570263Y17413615D01*
X20584890Y18892659D01*
X20583156Y18901442D01*
X20585713Y18906721D01*
X21426495Y19895877D01*
X21434464Y19899962D01*
X21435410Y19900000D01*
X21724590Y19900000D01*
X21732863Y19896573D01*
G37*
%TD.AperFunction*%
%TD*%
%TA.AperFunction,Conductor*%
%TO.N,GND*%
G36*
X21586365Y20956872D02*
G01*
X22570861Y20318508D01*
X22575939Y20311132D01*
X22574743Y20303044D01*
X21733336Y18776319D01*
X21726341Y18770727D01*
X21723089Y18770266D01*
X21436911Y18770266D01*
X21428638Y18773693D01*
X21426664Y18776319D01*
X20585255Y20303046D01*
X20584264Y20311943D01*
X20589138Y20318508D01*
X21573635Y20956872D01*
X21582441Y20958498D01*
X21586365Y20956872D01*
G37*
%TD.AperFunction*%
%TD*%
%TA.AperFunction,Conductor*%
%TO.N,GND*%
G36*
X22607340Y-26924890D02*
G01*
X23263855Y-27362275D01*
X24086384Y-27910263D01*
X24091369Y-27917702D01*
X24089634Y-27926487D01*
X24086384Y-27929737D01*
X22607342Y-28915108D01*
X22598557Y-28916843D01*
X22593278Y-28914286D01*
X21604123Y-28073504D01*
X21600038Y-28065535D01*
X21600000Y-28064589D01*
X21600000Y-27775410D01*
X21603427Y-27767137D01*
X21604116Y-27766500D01*
X22593279Y-26925712D01*
X22601801Y-26922966D01*
X22607340Y-26924890D01*
G37*
%TD.AperFunction*%
%TD*%
%TA.AperFunction,Conductor*%
%TO.N,GND*%
G36*
X21196953Y-26925255D02*
G01*
X22723681Y-27766664D01*
X22729273Y-27773659D01*
X22729734Y-27776911D01*
X22729734Y-28063088D01*
X22726307Y-28071361D01*
X22723681Y-28073335D01*
X21196955Y-28914743D01*
X21188056Y-28915735D01*
X21181491Y-28910861D01*
X20637145Y-28071361D01*
X20543126Y-27926364D01*
X20541501Y-27917559D01*
X20543127Y-27913635D01*
X20633890Y-27773659D01*
X21181492Y-26929137D01*
X21188867Y-26924060D01*
X21196953Y-26925255D01*
G37*
%TD.AperFunction*%
%TD*%
%TA.AperFunction,Conductor*%
%TO.N,GND*%
G36*
X42696955Y4574743D02*
G01*
X44223681Y3733335D01*
X44229273Y3726340D01*
X44229734Y3723088D01*
X44229734Y3436911D01*
X44226307Y3428638D01*
X44223681Y3426664D01*
X42696953Y2585255D01*
X42688056Y2584264D01*
X42681492Y2589136D01*
X42043126Y3573635D01*
X42041501Y3582441D01*
X42043127Y3586365D01*
X42136263Y3730000D01*
X42681491Y4570861D01*
X42688867Y4575939D01*
X42696955Y4574743D01*
G37*
%TD.AperFunction*%
%TD*%
%TA.AperFunction,Conductor*%
%TO.N,GND*%
G36*
X44107342Y4575108D02*
G01*
X45586384Y3589737D01*
X45591369Y3582298D01*
X45589634Y3573513D01*
X45586384Y3570263D01*
X44763855Y3022275D01*
X44107341Y2584890D01*
X44098557Y2583156D01*
X44093279Y2585712D01*
X43104122Y3426495D01*
X43100038Y3434464D01*
X43100000Y3435410D01*
X43100000Y3724589D01*
X43103427Y3732862D01*
X43104123Y3733504D01*
X44093278Y4574286D01*
X44101801Y4577033D01*
X44107342Y4575108D01*
G37*
%TD.AperFunction*%
%TD*%
%TA.AperFunction,Conductor*%
%TO.N,GND*%
G36*
X-4451492Y-7469136D02*
G01*
X-3901781Y-8316911D01*
X-3813127Y-8453635D01*
X-3811501Y-8462441D01*
X-3813126Y-8466364D01*
X-3908425Y-8613335D01*
X-4451491Y-9450861D01*
X-4458867Y-9455939D01*
X-4466955Y-9454743D01*
X-5993681Y-8613335D01*
X-5999273Y-8606340D01*
X-5999734Y-8603088D01*
X-5999734Y-8316911D01*
X-5996307Y-8308638D01*
X-5993681Y-8306664D01*
X-4466953Y-7465255D01*
X-4458056Y-7464264D01*
X-4451492Y-7469136D01*
G37*
%TD.AperFunction*%
%TD*%
%TA.AperFunction,Conductor*%
%TO.N,GND*%
G36*
X-5893279Y-7465712D02*
G01*
X-4904122Y-8306495D01*
X-4900038Y-8314464D01*
X-4900000Y-8315410D01*
X-4900000Y-8604589D01*
X-4903427Y-8612862D01*
X-4904123Y-8613504D01*
X-5893278Y-9454286D01*
X-5901801Y-9457033D01*
X-5907342Y-9455108D01*
X-7386384Y-8469737D01*
X-7391369Y-8462298D01*
X-7389634Y-8453513D01*
X-7386384Y-8450263D01*
X-6563855Y-7902275D01*
X-5907341Y-7464890D01*
X-5898557Y-7463156D01*
X-5893279Y-7465712D01*
G37*
%TD.AperFunction*%
%TD*%
%TA.AperFunction,Conductor*%
%TO.N,GND*%
G36*
X20777923Y-25733693D02*
G01*
X20780127Y-25736759D01*
X21559958Y-27305798D01*
X21560572Y-27314731D01*
X21555432Y-27321078D01*
X20546809Y-27916976D01*
X20537943Y-27918234D01*
X20533729Y-27916181D01*
X19912059Y-27438504D01*
X19596300Y-27195882D01*
X19591829Y-27188124D01*
X19593437Y-27180520D01*
X20473481Y-25735879D01*
X20480712Y-25730597D01*
X20483473Y-25730266D01*
X20769650Y-25730266D01*
X20777923Y-25733693D01*
G37*
%TD.AperFunction*%
%TD*%
%TA.AperFunction,Conductor*%
%TO.N,GND*%
G36*
X20546809Y-5923023D02*
G01*
X21555432Y-6518920D01*
X21560812Y-6526078D01*
X21559958Y-6534200D01*
X20780127Y-8103241D01*
X20773376Y-8109125D01*
X20769650Y-8109734D01*
X20483473Y-8109734D01*
X20475200Y-8106307D01*
X20473481Y-8104121D01*
X19593438Y-6659481D01*
X19592061Y-6650633D01*
X19596299Y-6644118D01*
X20533729Y-5923817D01*
X20542377Y-5921495D01*
X20546809Y-5923023D01*
G37*
%TD.AperFunction*%
%TD*%
%TA.AperFunction,Conductor*%
%TO.N,GND*%
G36*
X-43951491Y2030861D02*
G01*
X-43406263Y1190000D01*
X-43313127Y1046365D01*
X-43311501Y1037559D01*
X-43313126Y1033635D01*
X-43951492Y49137D01*
X-43958867Y44060D01*
X-43966953Y45255D01*
X-45493681Y886664D01*
X-45499273Y893659D01*
X-45499734Y896911D01*
X-45499734Y1183088D01*
X-45496307Y1191361D01*
X-45493681Y1193335D01*
X-43966955Y2034743D01*
X-43958056Y2035735D01*
X-43951491Y2030861D01*
G37*
%TD.AperFunction*%
%TD*%
%TA.AperFunction,Conductor*%
%TO.N,GND*%
G36*
X-45393278Y2034286D02*
G01*
X-44404123Y1193504D01*
X-44400038Y1185535D01*
X-44400000Y1184589D01*
X-44400000Y895410D01*
X-44403427Y887137D01*
X-44404116Y886500D01*
X-45393279Y45712D01*
X-45401801Y42966D01*
X-45407340Y44890D01*
X-46063855Y482275D01*
X-46886384Y1030263D01*
X-46891369Y1037702D01*
X-46889634Y1046487D01*
X-46886384Y1049737D01*
X-45407342Y2035108D01*
X-45398557Y2036843D01*
X-45393278Y2034286D01*
G37*
%TD.AperFunction*%
%TD*%
%TA.AperFunction,Conductor*%
%TO.N,GND*%
G36*
X-23893279Y-7465712D02*
G01*
X-22904122Y-8306495D01*
X-22900038Y-8314464D01*
X-22900000Y-8315410D01*
X-22900000Y-8604589D01*
X-22903427Y-8612862D01*
X-22904123Y-8613504D01*
X-23893278Y-9454286D01*
X-23901801Y-9457033D01*
X-23907342Y-9455108D01*
X-25386384Y-8469737D01*
X-25391369Y-8462298D01*
X-25389634Y-8453513D01*
X-25386384Y-8450263D01*
X-24563855Y-7902275D01*
X-23907341Y-7464890D01*
X-23898557Y-7463156D01*
X-23893279Y-7465712D01*
G37*
%TD.AperFunction*%
%TD*%
%TA.AperFunction,Conductor*%
%TO.N,GND*%
G36*
X-22451492Y-7469136D02*
G01*
X-21901781Y-8316911D01*
X-21813127Y-8453635D01*
X-21811501Y-8462441D01*
X-21813126Y-8466364D01*
X-21908425Y-8613335D01*
X-22451491Y-9450861D01*
X-22458867Y-9455939D01*
X-22466955Y-9454743D01*
X-23993681Y-8613335D01*
X-23999273Y-8606340D01*
X-23999734Y-8603088D01*
X-23999734Y-8316911D01*
X-23996307Y-8308638D01*
X-23993681Y-8306664D01*
X-22466953Y-7465255D01*
X-22458056Y-7464264D01*
X-22451492Y-7469136D01*
G37*
%TD.AperFunction*%
%TD*%
%TA.AperFunction,Conductor*%
%TO.N,GND*%
G36*
X-4451492Y-29469136D02*
G01*
X-3901781Y-30316911D01*
X-3813127Y-30453635D01*
X-3811501Y-30462441D01*
X-3813126Y-30466364D01*
X-3908425Y-30613335D01*
X-4451491Y-31450861D01*
X-4458867Y-31455939D01*
X-4466955Y-31454743D01*
X-5993681Y-30613335D01*
X-5999273Y-30606340D01*
X-5999734Y-30603088D01*
X-5999734Y-30316911D01*
X-5996307Y-30308638D01*
X-5993681Y-30306664D01*
X-4466953Y-29465255D01*
X-4458056Y-29464264D01*
X-4451492Y-29469136D01*
G37*
%TD.AperFunction*%
%TD*%
%TA.AperFunction,Conductor*%
%TO.N,GND*%
G36*
X-5893279Y-29465712D02*
G01*
X-4904122Y-30306495D01*
X-4900038Y-30314464D01*
X-4900000Y-30315410D01*
X-4900000Y-30604589D01*
X-4903427Y-30612862D01*
X-4904123Y-30613504D01*
X-5893278Y-31454286D01*
X-5901801Y-31457033D01*
X-5907342Y-31455108D01*
X-7386384Y-30469737D01*
X-7391369Y-30462298D01*
X-7389634Y-30453513D01*
X-7386384Y-30450263D01*
X-6563855Y-29902275D01*
X-5907341Y-29464890D01*
X-5898557Y-29463156D01*
X-5893279Y-29465712D01*
G37*
%TD.AperFunction*%
%TD*%
%TA.AperFunction,Conductor*%
%TO.N,GND*%
G36*
X-19033635Y19686872D02*
G01*
X-18049138Y19048508D01*
X-18044060Y19041132D01*
X-18045255Y19033046D01*
X-18886664Y17506319D01*
X-18893659Y17500727D01*
X-18896911Y17500266D01*
X-19183089Y17500266D01*
X-19191362Y17503693D01*
X-19193336Y17506319D01*
X-20034743Y19033044D01*
X-20035735Y19041943D01*
X-20030861Y19048508D01*
X-19046365Y19686872D01*
X-19037559Y19688498D01*
X-19033635Y19686872D01*
G37*
%TD.AperFunction*%
%TD*%
%TA.AperFunction,Conductor*%
%TO.N,GND*%
G36*
X-18887137Y18596573D02*
G01*
X-18886495Y18595877D01*
X-18045713Y17606721D01*
X-18042966Y17598198D01*
X-18044889Y17592660D01*
X-19030263Y16113615D01*
X-19037702Y16108630D01*
X-19046487Y16110365D01*
X-19049737Y16113615D01*
X-20035108Y17592657D01*
X-20036843Y17601442D01*
X-20034286Y17606721D01*
X-19193505Y18595877D01*
X-19185536Y18599962D01*
X-19184590Y18600000D01*
X-18895410Y18600000D01*
X-18887137Y18596573D01*
G37*
%TD.AperFunction*%
%TD*%
%TA.AperFunction,Conductor*%
%TO.N,GND*%
G36*
X-20365430Y-6808471D02*
G01*
X-20362808Y-6810441D01*
X-20160444Y-7012805D01*
X-20157018Y-7021077D01*
X-20157478Y-7024322D01*
X-20573155Y-8460707D01*
X-20642072Y-8698851D01*
X-20647664Y-8705846D01*
X-20655752Y-8707042D01*
X-21803287Y-8462289D01*
X-21810663Y-8457211D01*
X-21812289Y-8453287D01*
X-22057042Y-7305752D01*
X-22055416Y-7296946D01*
X-22048851Y-7292072D01*
X-20374326Y-6807479D01*
X-20365430Y-6808471D01*
G37*
%TD.AperFunction*%
%TD*%
%TA.AperFunction,Conductor*%
%TO.N,GND*%
G36*
X-19033513Y16089634D02*
G01*
X-19030263Y16086384D01*
X-18044891Y14607342D01*
X-18043156Y14598557D01*
X-18045712Y14593279D01*
X-18886495Y13604123D01*
X-18894464Y13600038D01*
X-18895410Y13600000D01*
X-19184590Y13600000D01*
X-19192863Y13603427D01*
X-19193505Y13604123D01*
X-20034286Y14593278D01*
X-20037033Y14601801D01*
X-20035108Y14607342D01*
X-19049737Y16086384D01*
X-19042298Y16091369D01*
X-19033513Y16089634D01*
G37*
%TD.AperFunction*%
%TD*%
%TA.AperFunction,Conductor*%
%TO.N,GND*%
G36*
X-21488005Y-28277624D02*
G01*
X-21485601Y-28281112D01*
X-20767016Y-29884811D01*
X-20766761Y-29893760D01*
X-20772130Y-29899885D01*
X-21803266Y-30457359D01*
X-21812173Y-30458279D01*
X-21816032Y-30456288D01*
X-22746672Y-29729374D01*
X-22751083Y-29721580D01*
X-22749202Y-29713659D01*
X-21792174Y-28279403D01*
X-21784732Y-28274423D01*
X-21782442Y-28274197D01*
X-21496278Y-28274197D01*
X-21488005Y-28277624D01*
G37*
%TD.AperFunction*%
%TD*%
%TA.AperFunction,Conductor*%
%TO.N,GND*%
G36*
X-21803269Y-8462639D02*
G01*
X-20772128Y-9020115D01*
X-20766482Y-9027062D01*
X-20767016Y-9035187D01*
X-20839770Y-9197555D01*
X-21485601Y-10638887D01*
X-21492111Y-10645036D01*
X-21496278Y-10645803D01*
X-21782442Y-10645803D01*
X-21790715Y-10642376D01*
X-21792174Y-10640597D01*
X-22749202Y-9206339D01*
X-22750944Y-9197555D01*
X-22746672Y-9190624D01*
X-22547674Y-9035189D01*
X-21816030Y-8463710D01*
X-21807403Y-8461319D01*
X-21803269Y-8462639D01*
G37*
%TD.AperFunction*%
%TD*%
%TA.AperFunction,Conductor*%
%TO.N,GND*%
G36*
X-23893279Y-29465712D02*
G01*
X-22904122Y-30306495D01*
X-22900038Y-30314464D01*
X-22900000Y-30315410D01*
X-22900000Y-30604589D01*
X-22903427Y-30612862D01*
X-22904123Y-30613504D01*
X-23893278Y-31454286D01*
X-23901801Y-31457033D01*
X-23907342Y-31455108D01*
X-25386384Y-30469737D01*
X-25391369Y-30462298D01*
X-25389634Y-30453513D01*
X-25386384Y-30450263D01*
X-24563855Y-29902275D01*
X-23907341Y-29464890D01*
X-23898557Y-29463156D01*
X-23893279Y-29465712D01*
G37*
%TD.AperFunction*%
%TD*%
%TA.AperFunction,Conductor*%
%TO.N,GND*%
G36*
X-22451492Y-29469136D02*
G01*
X-21901781Y-30316911D01*
X-21813127Y-30453635D01*
X-21811501Y-30462441D01*
X-21813126Y-30466364D01*
X-21908425Y-30613335D01*
X-22451491Y-31450861D01*
X-22458867Y-31455939D01*
X-22466955Y-31454743D01*
X-23993681Y-30613335D01*
X-23999273Y-30606340D01*
X-23999734Y-30603088D01*
X-23999734Y-30316911D01*
X-23996307Y-30308638D01*
X-23993681Y-30306664D01*
X-22466953Y-29465255D01*
X-22458056Y-29464264D01*
X-22451492Y-29469136D01*
G37*
%TD.AperFunction*%
%TD*%
M02*
