%TF.GenerationSoftware,KiCad,Pcbnew,9.0.3*%
%TF.CreationDate,2026-02-23T20:27:38+09:00*%
%TF.ProjectId,cat_tenkeys,6361745f-7465-46e6-9b65-79732e6b6963,rev?*%
%TF.SameCoordinates,Original*%
%TF.FileFunction,Legend,Top*%
%TF.FilePolarity,Positive*%
%FSLAX46Y46*%
G04 Gerber Fmt 4.6, Leading zero omitted, Abs format (unit mm)*
G04 Created by KiCad (PCBNEW 9.0.3) date 2026-02-23 20:27:38*
%MOMM*%
%LPD*%
G01*
G04 APERTURE LIST*
G04 Aperture macros list*
%AMOutline5P*
0 Free polygon, 5 corners , with rotation*
0 The origin of the aperture is its center*
0 number of corners: always 5*
0 $1 to $10 corner X, Y*
0 $11 Rotation angle, in degrees counterclockwise*
0 create outline with 5 corners*
4,1,5,$1,$2,$3,$4,$5,$6,$7,$8,$9,$10,$1,$2,$11*%
%AMOutline6P*
0 Free polygon, 6 corners , with rotation*
0 The origin of the aperture is its center*
0 number of corners: always 6*
0 $1 to $12 corner X, Y*
0 $13 Rotation angle, in degrees counterclockwise*
0 create outline with 6 corners*
4,1,6,$1,$2,$3,$4,$5,$6,$7,$8,$9,$10,$11,$12,$1,$2,$13*%
%AMOutline7P*
0 Free polygon, 7 corners , with rotation*
0 The origin of the aperture is its center*
0 number of corners: always 7*
0 $1 to $14 corner X, Y*
0 $15 Rotation angle, in degrees counterclockwise*
0 create outline with 7 corners*
4,1,7,$1,$2,$3,$4,$5,$6,$7,$8,$9,$10,$11,$12,$13,$14,$1,$2,$15*%
%AMOutline8P*
0 Free polygon, 8 corners , with rotation*
0 The origin of the aperture is its center*
0 number of corners: always 8*
0 $1 to $16 corner X, Y*
0 $17 Rotation angle, in degrees counterclockwise*
0 create outline with 8 corners*
4,1,8,$1,$2,$3,$4,$5,$6,$7,$8,$9,$10,$11,$12,$13,$14,$15,$16,$1,$2,$17*%
G04 Aperture macros list end*
%ADD10C,0.600000*%
%ADD11C,0.150000*%
%ADD12C,1.700000*%
%ADD13C,4.000000*%
%ADD14C,2.400000*%
%ADD15C,3.200000*%
%ADD16O,2.600000X1.500000*%
%ADD17O,1.500000X2.600000*%
%ADD18Outline8P,-1.300000X0.450000X-1.000000X0.750000X1.000000X0.750000X1.300000X0.450000X1.300000X-0.450000X1.000000X-0.750000X-1.000000X-0.750000X-1.300000X-0.450000X0.000000*%
%ADD19R,2.600000X1.500000*%
G04 APERTURE END LIST*
D10*
X-10142856Y8929057D02*
X-10285713Y8786200D01*
X-10285713Y8786200D02*
X-10714285Y8643342D01*
X-10714285Y8643342D02*
X-10999999Y8643342D01*
X-10999999Y8643342D02*
X-11428570Y8786200D01*
X-11428570Y8786200D02*
X-11714285Y9071914D01*
X-11714285Y9071914D02*
X-11857142Y9357628D01*
X-11857142Y9357628D02*
X-11999999Y9929057D01*
X-11999999Y9929057D02*
X-11999999Y10357628D01*
X-11999999Y10357628D02*
X-11857142Y10929057D01*
X-11857142Y10929057D02*
X-11714285Y11214771D01*
X-11714285Y11214771D02*
X-11428570Y11500485D01*
X-11428570Y11500485D02*
X-10999999Y11643342D01*
X-10999999Y11643342D02*
X-10714285Y11643342D01*
X-10714285Y11643342D02*
X-10285713Y11500485D01*
X-10285713Y11500485D02*
X-10142856Y11357628D01*
X-7571428Y8643342D02*
X-7571428Y10214771D01*
X-7571428Y10214771D02*
X-7714285Y10500485D01*
X-7714285Y10500485D02*
X-7999999Y10643342D01*
X-7999999Y10643342D02*
X-8571428Y10643342D01*
X-8571428Y10643342D02*
X-8857142Y10500485D01*
X-7571428Y8786200D02*
X-7857142Y8643342D01*
X-7857142Y8643342D02*
X-8571428Y8643342D01*
X-8571428Y8643342D02*
X-8857142Y8786200D01*
X-8857142Y8786200D02*
X-8999999Y9071914D01*
X-8999999Y9071914D02*
X-8999999Y9357628D01*
X-8999999Y9357628D02*
X-8857142Y9643342D01*
X-8857142Y9643342D02*
X-8571428Y9786200D01*
X-8571428Y9786200D02*
X-7857142Y9786200D01*
X-7857142Y9786200D02*
X-7571428Y9929057D01*
X-6571427Y10643342D02*
X-5428570Y10643342D01*
X-6142856Y11643342D02*
X-6142856Y9071914D01*
X-6142856Y9071914D02*
X-5999999Y8786200D01*
X-5999999Y8786200D02*
X-5714284Y8643342D01*
X-5714284Y8643342D02*
X-5428570Y8643342D01*
X-571427Y8643342D02*
X-2285713Y8643342D01*
X-1428570Y8643342D02*
X-1428570Y11643342D01*
X-1428570Y11643342D02*
X-1714284Y11214771D01*
X-1714284Y11214771D02*
X-1999999Y10929057D01*
X-1999999Y10929057D02*
X-2285713Y10786200D01*
X1285715Y11643342D02*
X1571429Y11643342D01*
X1571429Y11643342D02*
X1857143Y11500485D01*
X1857143Y11500485D02*
X2000001Y11357628D01*
X2000001Y11357628D02*
X2142858Y11071914D01*
X2142858Y11071914D02*
X2285715Y10500485D01*
X2285715Y10500485D02*
X2285715Y9786200D01*
X2285715Y9786200D02*
X2142858Y9214771D01*
X2142858Y9214771D02*
X2000001Y8929057D01*
X2000001Y8929057D02*
X1857143Y8786200D01*
X1857143Y8786200D02*
X1571429Y8643342D01*
X1571429Y8643342D02*
X1285715Y8643342D01*
X1285715Y8643342D02*
X1000001Y8786200D01*
X1000001Y8786200D02*
X857143Y8929057D01*
X857143Y8929057D02*
X714286Y9214771D01*
X714286Y9214771D02*
X571429Y9786200D01*
X571429Y9786200D02*
X571429Y10500485D01*
X571429Y10500485D02*
X714286Y11071914D01*
X714286Y11071914D02*
X857143Y11357628D01*
X857143Y11357628D02*
X1000001Y11500485D01*
X1000001Y11500485D02*
X1285715Y11643342D01*
X3571429Y8643342D02*
X3571429Y11643342D01*
X3857144Y9786200D02*
X4714286Y8643342D01*
X4714286Y10643342D02*
X3571429Y9500485D01*
X7142857Y8786200D02*
X6857143Y8643342D01*
X6857143Y8643342D02*
X6285715Y8643342D01*
X6285715Y8643342D02*
X6000000Y8786200D01*
X6000000Y8786200D02*
X5857143Y9071914D01*
X5857143Y9071914D02*
X5857143Y10214771D01*
X5857143Y10214771D02*
X6000000Y10500485D01*
X6000000Y10500485D02*
X6285715Y10643342D01*
X6285715Y10643342D02*
X6857143Y10643342D01*
X6857143Y10643342D02*
X7142857Y10500485D01*
X7142857Y10500485D02*
X7285715Y10214771D01*
X7285715Y10214771D02*
X7285715Y9929057D01*
X7285715Y9929057D02*
X5857143Y9643342D01*
X8285715Y10643342D02*
X9000001Y8643342D01*
X9714286Y10643342D02*
X9000001Y8643342D01*
X9000001Y8643342D02*
X8714286Y7929057D01*
X8714286Y7929057D02*
X8571429Y7786200D01*
X8571429Y7786200D02*
X8285715Y7643342D01*
X10714286Y8786200D02*
X11000000Y8643342D01*
X11000000Y8643342D02*
X11571429Y8643342D01*
X11571429Y8643342D02*
X11857143Y8786200D01*
X11857143Y8786200D02*
X12000000Y9071914D01*
X12000000Y9071914D02*
X12000000Y9214771D01*
X12000000Y9214771D02*
X11857143Y9500485D01*
X11857143Y9500485D02*
X11571429Y9643342D01*
X11571429Y9643342D02*
X11142858Y9643342D01*
X11142858Y9643342D02*
X10857143Y9786200D01*
X10857143Y9786200D02*
X10714286Y10071914D01*
X10714286Y10071914D02*
X10714286Y10214771D01*
X10714286Y10214771D02*
X10857143Y10500485D01*
X10857143Y10500485D02*
X11142858Y10643342D01*
X11142858Y10643342D02*
X11571429Y10643342D01*
X11571429Y10643342D02*
X11857143Y10500485D01*
D11*
X10221064Y33068430D02*
X10716302Y33068430D01*
X10716302Y33068430D02*
X10449636Y32687478D01*
X10449636Y32687478D02*
X10563921Y32687478D01*
X10563921Y32687478D02*
X10640112Y32639859D01*
X10640112Y32639859D02*
X10678207Y32592240D01*
X10678207Y32592240D02*
X10716302Y32497002D01*
X10716302Y32497002D02*
X10716302Y32258907D01*
X10716302Y32258907D02*
X10678207Y32163669D01*
X10678207Y32163669D02*
X10640112Y32116050D01*
X10640112Y32116050D02*
X10563921Y32068430D01*
X10563921Y32068430D02*
X10335350Y32068430D01*
X10335350Y32068430D02*
X10259159Y32116050D01*
X10259159Y32116050D02*
X10221064Y32163669D01*
X10449636Y40688430D02*
X10525826Y40688430D01*
X10525826Y40688430D02*
X10602017Y40640811D01*
X10602017Y40640811D02*
X10640112Y40593192D01*
X10640112Y40593192D02*
X10678207Y40497954D01*
X10678207Y40497954D02*
X10716302Y40307478D01*
X10716302Y40307478D02*
X10716302Y40069383D01*
X10716302Y40069383D02*
X10678207Y39878907D01*
X10678207Y39878907D02*
X10640112Y39783669D01*
X10640112Y39783669D02*
X10602017Y39736050D01*
X10602017Y39736050D02*
X10525826Y39688430D01*
X10525826Y39688430D02*
X10449636Y39688430D01*
X10449636Y39688430D02*
X10373445Y39736050D01*
X10373445Y39736050D02*
X10335350Y39783669D01*
X10335350Y39783669D02*
X10297255Y39878907D01*
X10297255Y39878907D02*
X10259159Y40069383D01*
X10259159Y40069383D02*
X10259159Y40307478D01*
X10259159Y40307478D02*
X10297255Y40497954D01*
X10297255Y40497954D02*
X10335350Y40593192D01*
X10335350Y40593192D02*
X10373445Y40640811D01*
X10373445Y40640811D02*
X10449636Y40688430D01*
X4868208Y16566680D02*
X5020589Y16566680D01*
X5020589Y16566680D02*
X5096779Y16614300D01*
X5096779Y16614300D02*
X5134875Y16661919D01*
X5134875Y16661919D02*
X5211065Y16804776D01*
X5211065Y16804776D02*
X5249160Y16995252D01*
X5249160Y16995252D02*
X5249160Y17376204D01*
X5249160Y17376204D02*
X5211065Y17471442D01*
X5211065Y17471442D02*
X5172970Y17519061D01*
X5172970Y17519061D02*
X5096779Y17566680D01*
X5096779Y17566680D02*
X4944398Y17566680D01*
X4944398Y17566680D02*
X4868208Y17519061D01*
X4868208Y17519061D02*
X4830113Y17471442D01*
X4830113Y17471442D02*
X4792017Y17376204D01*
X4792017Y17376204D02*
X4792017Y17138109D01*
X4792017Y17138109D02*
X4830113Y17042871D01*
X4830113Y17042871D02*
X4868208Y16995252D01*
X4868208Y16995252D02*
X4944398Y16947633D01*
X4944398Y16947633D02*
X5096779Y16947633D01*
X5096779Y16947633D02*
X5172970Y16995252D01*
X5172970Y16995252D02*
X5211065Y17042871D01*
X5211065Y17042871D02*
X5249160Y17138109D01*
X10221064Y22908430D02*
X10754398Y22908430D01*
X10754398Y22908430D02*
X10411540Y21908430D01*
X-11402018Y27893192D02*
X-11363922Y27940811D01*
X-11363922Y27940811D02*
X-11287732Y27988430D01*
X-11287732Y27988430D02*
X-11097256Y27988430D01*
X-11097256Y27988430D02*
X-11021065Y27940811D01*
X-11021065Y27940811D02*
X-10982970Y27893192D01*
X-10982970Y27893192D02*
X-10944875Y27797954D01*
X-10944875Y27797954D02*
X-10944875Y27702716D01*
X-10944875Y27702716D02*
X-10982970Y27559859D01*
X-10982970Y27559859D02*
X-11440113Y26988430D01*
X-11440113Y26988430D02*
X-10944875Y26988430D01*
X-10678208Y27988430D02*
X-10144874Y27988430D01*
X-10144874Y27988430D02*
X-10487732Y26988430D01*
X10411540Y19939859D02*
X10335350Y19987478D01*
X10335350Y19987478D02*
X10297255Y20035097D01*
X10297255Y20035097D02*
X10259159Y20130335D01*
X10259159Y20130335D02*
X10259159Y20177954D01*
X10259159Y20177954D02*
X10297255Y20273192D01*
X10297255Y20273192D02*
X10335350Y20320811D01*
X10335350Y20320811D02*
X10411540Y20368430D01*
X10411540Y20368430D02*
X10563921Y20368430D01*
X10563921Y20368430D02*
X10640112Y20320811D01*
X10640112Y20320811D02*
X10678207Y20273192D01*
X10678207Y20273192D02*
X10716302Y20177954D01*
X10716302Y20177954D02*
X10716302Y20130335D01*
X10716302Y20130335D02*
X10678207Y20035097D01*
X10678207Y20035097D02*
X10640112Y19987478D01*
X10640112Y19987478D02*
X10563921Y19939859D01*
X10563921Y19939859D02*
X10411540Y19939859D01*
X10411540Y19939859D02*
X10335350Y19892240D01*
X10335350Y19892240D02*
X10297255Y19844621D01*
X10297255Y19844621D02*
X10259159Y19749383D01*
X10259159Y19749383D02*
X10259159Y19558907D01*
X10259159Y19558907D02*
X10297255Y19463669D01*
X10297255Y19463669D02*
X10335350Y19416050D01*
X10335350Y19416050D02*
X10411540Y19368430D01*
X10411540Y19368430D02*
X10563921Y19368430D01*
X10563921Y19368430D02*
X10640112Y19416050D01*
X10640112Y19416050D02*
X10678207Y19463669D01*
X10678207Y19463669D02*
X10716302Y19558907D01*
X10716302Y19558907D02*
X10716302Y19749383D01*
X10716302Y19749383D02*
X10678207Y19844621D01*
X10678207Y19844621D02*
X10640112Y19892240D01*
X10640112Y19892240D02*
X10563921Y19939859D01*
X-211792Y16566680D02*
X-668935Y16566680D01*
X-440363Y16566680D02*
X-440363Y17566680D01*
X-440363Y17566680D02*
X-516554Y17423823D01*
X-516554Y17423823D02*
X-592744Y17328585D01*
X-592744Y17328585D02*
X-668935Y17280966D01*
X550112Y16566680D02*
X92969Y16566680D01*
X321541Y16566680D02*
X321541Y17566680D01*
X321541Y17566680D02*
X245350Y17423823D01*
X245350Y17423823D02*
X169160Y17328585D01*
X169160Y17328585D02*
X92969Y17280966D01*
X-5291792Y16566680D02*
X-5748935Y16566680D01*
X-5520363Y16566680D02*
X-5520363Y17566680D01*
X-5520363Y17566680D02*
X-5596554Y17423823D01*
X-5596554Y17423823D02*
X-5672744Y17328585D01*
X-5672744Y17328585D02*
X-5748935Y17280966D01*
X-5025125Y17566680D02*
X-4529887Y17566680D01*
X-4529887Y17566680D02*
X-4796553Y17185728D01*
X-4796553Y17185728D02*
X-4682268Y17185728D01*
X-4682268Y17185728D02*
X-4606077Y17138109D01*
X-4606077Y17138109D02*
X-4567982Y17090490D01*
X-4567982Y17090490D02*
X-4529887Y16995252D01*
X-4529887Y16995252D02*
X-4529887Y16757157D01*
X-4529887Y16757157D02*
X-4567982Y16661919D01*
X-4567982Y16661919D02*
X-4606077Y16614300D01*
X-4606077Y16614300D02*
X-4682268Y16566680D01*
X-4682268Y16566680D02*
X-4910839Y16566680D01*
X-4910839Y16566680D02*
X-4987030Y16614300D01*
X-4987030Y16614300D02*
X-5025125Y16661919D01*
X10640112Y30195097D02*
X10640112Y29528430D01*
X10449636Y30576050D02*
X10259159Y29861764D01*
X10259159Y29861764D02*
X10754398Y29861764D01*
X-10944875Y21908430D02*
X-11402018Y21908430D01*
X-11173446Y21908430D02*
X-11173446Y22908430D01*
X-11173446Y22908430D02*
X-11249637Y22765573D01*
X-11249637Y22765573D02*
X-11325827Y22670335D01*
X-11325827Y22670335D02*
X-11402018Y22622716D01*
X-10221065Y22908430D02*
X-10602017Y22908430D01*
X-10602017Y22908430D02*
X-10640113Y22432240D01*
X-10640113Y22432240D02*
X-10602017Y22479859D01*
X-10602017Y22479859D02*
X-10525827Y22527478D01*
X-10525827Y22527478D02*
X-10335351Y22527478D01*
X-10335351Y22527478D02*
X-10259160Y22479859D01*
X-10259160Y22479859D02*
X-10221065Y22432240D01*
X-10221065Y22432240D02*
X-10182970Y22337002D01*
X-10182970Y22337002D02*
X-10182970Y22098907D01*
X-10182970Y22098907D02*
X-10221065Y22003669D01*
X-10221065Y22003669D02*
X-10259160Y21956050D01*
X-10259160Y21956050D02*
X-10335351Y21908430D01*
X-10335351Y21908430D02*
X-10525827Y21908430D01*
X-10525827Y21908430D02*
X-10602017Y21956050D01*
X-10602017Y21956050D02*
X-10640113Y22003669D01*
X-11859160Y38100811D02*
X-11935350Y38148430D01*
X-11935350Y38148430D02*
X-12049636Y38148430D01*
X-12049636Y38148430D02*
X-12163922Y38100811D01*
X-12163922Y38100811D02*
X-12240112Y38005573D01*
X-12240112Y38005573D02*
X-12278207Y37910335D01*
X-12278207Y37910335D02*
X-12316303Y37719859D01*
X-12316303Y37719859D02*
X-12316303Y37577002D01*
X-12316303Y37577002D02*
X-12278207Y37386526D01*
X-12278207Y37386526D02*
X-12240112Y37291288D01*
X-12240112Y37291288D02*
X-12163922Y37196050D01*
X-12163922Y37196050D02*
X-12049636Y37148430D01*
X-12049636Y37148430D02*
X-11973445Y37148430D01*
X-11973445Y37148430D02*
X-11859160Y37196050D01*
X-11859160Y37196050D02*
X-11821064Y37243669D01*
X-11821064Y37243669D02*
X-11821064Y37577002D01*
X-11821064Y37577002D02*
X-11973445Y37577002D01*
X-11478207Y37148430D02*
X-11478207Y38148430D01*
X-11478207Y38148430D02*
X-11021064Y37148430D01*
X-11021064Y37148430D02*
X-11021064Y38148430D01*
X-10640112Y37148430D02*
X-10640112Y38148430D01*
X-10640112Y38148430D02*
X-10449636Y38148430D01*
X-10449636Y38148430D02*
X-10335350Y38100811D01*
X-10335350Y38100811D02*
X-10259160Y38005573D01*
X-10259160Y38005573D02*
X-10221065Y37910335D01*
X-10221065Y37910335D02*
X-10182969Y37719859D01*
X-10182969Y37719859D02*
X-10182969Y37577002D01*
X-10182969Y37577002D02*
X-10221065Y37386526D01*
X-10221065Y37386526D02*
X-10259160Y37291288D01*
X-10259160Y37291288D02*
X-10335350Y37196050D01*
X-10335350Y37196050D02*
X-10449636Y37148430D01*
X-10449636Y37148430D02*
X-10640112Y37148430D01*
X2328207Y16566680D02*
X1871064Y16566680D01*
X2099636Y16566680D02*
X2099636Y17566680D01*
X2099636Y17566680D02*
X2023445Y17423823D01*
X2023445Y17423823D02*
X1947255Y17328585D01*
X1947255Y17328585D02*
X1871064Y17280966D01*
X2823446Y17566680D02*
X2899636Y17566680D01*
X2899636Y17566680D02*
X2975827Y17519061D01*
X2975827Y17519061D02*
X3013922Y17471442D01*
X3013922Y17471442D02*
X3052017Y17376204D01*
X3052017Y17376204D02*
X3090112Y17185728D01*
X3090112Y17185728D02*
X3090112Y16947633D01*
X3090112Y16947633D02*
X3052017Y16757157D01*
X3052017Y16757157D02*
X3013922Y16661919D01*
X3013922Y16661919D02*
X2975827Y16614300D01*
X2975827Y16614300D02*
X2899636Y16566680D01*
X2899636Y16566680D02*
X2823446Y16566680D01*
X2823446Y16566680D02*
X2747255Y16614300D01*
X2747255Y16614300D02*
X2709160Y16661919D01*
X2709160Y16661919D02*
X2671065Y16757157D01*
X2671065Y16757157D02*
X2632969Y16947633D01*
X2632969Y16947633D02*
X2632969Y17185728D01*
X2632969Y17185728D02*
X2671065Y17376204D01*
X2671065Y17376204D02*
X2709160Y17471442D01*
X2709160Y17471442D02*
X2747255Y17519061D01*
X2747255Y17519061D02*
X2823446Y17566680D01*
X10716302Y37148430D02*
X10259159Y37148430D01*
X10487731Y37148430D02*
X10487731Y38148430D01*
X10487731Y38148430D02*
X10411540Y38005573D01*
X10411540Y38005573D02*
X10335350Y37910335D01*
X10335350Y37910335D02*
X10259159Y37862716D01*
X-11402018Y30433192D02*
X-11363922Y30480811D01*
X-11363922Y30480811D02*
X-11287732Y30528430D01*
X-11287732Y30528430D02*
X-11097256Y30528430D01*
X-11097256Y30528430D02*
X-11021065Y30480811D01*
X-11021065Y30480811D02*
X-10982970Y30433192D01*
X-10982970Y30433192D02*
X-10944875Y30337954D01*
X-10944875Y30337954D02*
X-10944875Y30242716D01*
X-10944875Y30242716D02*
X-10982970Y30099859D01*
X-10982970Y30099859D02*
X-11440113Y29528430D01*
X-11440113Y29528430D02*
X-10944875Y29528430D01*
X-10487732Y30099859D02*
X-10563922Y30147478D01*
X-10563922Y30147478D02*
X-10602017Y30195097D01*
X-10602017Y30195097D02*
X-10640113Y30290335D01*
X-10640113Y30290335D02*
X-10640113Y30337954D01*
X-10640113Y30337954D02*
X-10602017Y30433192D01*
X-10602017Y30433192D02*
X-10563922Y30480811D01*
X-10563922Y30480811D02*
X-10487732Y30528430D01*
X-10487732Y30528430D02*
X-10335351Y30528430D01*
X-10335351Y30528430D02*
X-10259160Y30480811D01*
X-10259160Y30480811D02*
X-10221065Y30433192D01*
X-10221065Y30433192D02*
X-10182970Y30337954D01*
X-10182970Y30337954D02*
X-10182970Y30290335D01*
X-10182970Y30290335D02*
X-10221065Y30195097D01*
X-10221065Y30195097D02*
X-10259160Y30147478D01*
X-10259160Y30147478D02*
X-10335351Y30099859D01*
X-10335351Y30099859D02*
X-10487732Y30099859D01*
X-10487732Y30099859D02*
X-10563922Y30052240D01*
X-10563922Y30052240D02*
X-10602017Y30004621D01*
X-10602017Y30004621D02*
X-10640113Y29909383D01*
X-10640113Y29909383D02*
X-10640113Y29718907D01*
X-10640113Y29718907D02*
X-10602017Y29623669D01*
X-10602017Y29623669D02*
X-10563922Y29576050D01*
X-10563922Y29576050D02*
X-10487732Y29528430D01*
X-10487732Y29528430D02*
X-10335351Y29528430D01*
X-10335351Y29528430D02*
X-10259160Y29576050D01*
X-10259160Y29576050D02*
X-10221065Y29623669D01*
X-10221065Y29623669D02*
X-10182970Y29718907D01*
X-10182970Y29718907D02*
X-10182970Y29909383D01*
X-10182970Y29909383D02*
X-10221065Y30004621D01*
X-10221065Y30004621D02*
X-10259160Y30052240D01*
X-10259160Y30052240D02*
X-10335351Y30099859D01*
X10640112Y25448430D02*
X10487731Y25448430D01*
X10487731Y25448430D02*
X10411540Y25400811D01*
X10411540Y25400811D02*
X10373445Y25353192D01*
X10373445Y25353192D02*
X10297255Y25210335D01*
X10297255Y25210335D02*
X10259159Y25019859D01*
X10259159Y25019859D02*
X10259159Y24638907D01*
X10259159Y24638907D02*
X10297255Y24543669D01*
X10297255Y24543669D02*
X10335350Y24496050D01*
X10335350Y24496050D02*
X10411540Y24448430D01*
X10411540Y24448430D02*
X10563921Y24448430D01*
X10563921Y24448430D02*
X10640112Y24496050D01*
X10640112Y24496050D02*
X10678207Y24543669D01*
X10678207Y24543669D02*
X10716302Y24638907D01*
X10716302Y24638907D02*
X10716302Y24877002D01*
X10716302Y24877002D02*
X10678207Y24972240D01*
X10678207Y24972240D02*
X10640112Y25019859D01*
X10640112Y25019859D02*
X10563921Y25067478D01*
X10563921Y25067478D02*
X10411540Y25067478D01*
X10411540Y25067478D02*
X10335350Y25019859D01*
X10335350Y25019859D02*
X10297255Y24972240D01*
X10297255Y24972240D02*
X10259159Y24877002D01*
X10678207Y27988430D02*
X10297255Y27988430D01*
X10297255Y27988430D02*
X10259159Y27512240D01*
X10259159Y27512240D02*
X10297255Y27559859D01*
X10297255Y27559859D02*
X10373445Y27607478D01*
X10373445Y27607478D02*
X10563921Y27607478D01*
X10563921Y27607478D02*
X10640112Y27559859D01*
X10640112Y27559859D02*
X10678207Y27512240D01*
X10678207Y27512240D02*
X10716302Y27417002D01*
X10716302Y27417002D02*
X10716302Y27178907D01*
X10716302Y27178907D02*
X10678207Y27083669D01*
X10678207Y27083669D02*
X10640112Y27036050D01*
X10640112Y27036050D02*
X10563921Y26988430D01*
X10563921Y26988430D02*
X10373445Y26988430D01*
X10373445Y26988430D02*
X10297255Y27036050D01*
X10297255Y27036050D02*
X10259159Y27083669D01*
X-12125827Y35608430D02*
X-11630589Y35608430D01*
X-11630589Y35608430D02*
X-11897255Y35227478D01*
X-11897255Y35227478D02*
X-11782970Y35227478D01*
X-11782970Y35227478D02*
X-11706779Y35179859D01*
X-11706779Y35179859D02*
X-11668684Y35132240D01*
X-11668684Y35132240D02*
X-11630589Y35037002D01*
X-11630589Y35037002D02*
X-11630589Y34798907D01*
X-11630589Y34798907D02*
X-11668684Y34703669D01*
X-11668684Y34703669D02*
X-11706779Y34656050D01*
X-11706779Y34656050D02*
X-11782970Y34608430D01*
X-11782970Y34608430D02*
X-12011541Y34608430D01*
X-12011541Y34608430D02*
X-12087732Y34656050D01*
X-12087732Y34656050D02*
X-12125827Y34703669D01*
X-11402017Y35608430D02*
X-11135350Y34608430D01*
X-11135350Y34608430D02*
X-10868684Y35608430D01*
X-10678208Y35608430D02*
X-10182970Y35608430D01*
X-10182970Y35608430D02*
X-10449636Y35227478D01*
X-10449636Y35227478D02*
X-10335351Y35227478D01*
X-10335351Y35227478D02*
X-10259160Y35179859D01*
X-10259160Y35179859D02*
X-10221065Y35132240D01*
X-10221065Y35132240D02*
X-10182970Y35037002D01*
X-10182970Y35037002D02*
X-10182970Y34798907D01*
X-10182970Y34798907D02*
X-10221065Y34703669D01*
X-10221065Y34703669D02*
X-10259160Y34656050D01*
X-10259160Y34656050D02*
X-10335351Y34608430D01*
X-10335351Y34608430D02*
X-10563922Y34608430D01*
X-10563922Y34608430D02*
X-10640113Y34656050D01*
X-10640113Y34656050D02*
X-10678208Y34703669D01*
X-10944875Y19368430D02*
X-11402018Y19368430D01*
X-11173446Y19368430D02*
X-11173446Y20368430D01*
X-11173446Y20368430D02*
X-11249637Y20225573D01*
X-11249637Y20225573D02*
X-11325827Y20130335D01*
X-11325827Y20130335D02*
X-11402018Y20082716D01*
X-10259160Y20035097D02*
X-10259160Y19368430D01*
X-10449636Y20416050D02*
X-10640113Y19701764D01*
X-10640113Y19701764D02*
X-10144874Y19701764D01*
X10259159Y35513192D02*
X10297255Y35560811D01*
X10297255Y35560811D02*
X10373445Y35608430D01*
X10373445Y35608430D02*
X10563921Y35608430D01*
X10563921Y35608430D02*
X10640112Y35560811D01*
X10640112Y35560811D02*
X10678207Y35513192D01*
X10678207Y35513192D02*
X10716302Y35417954D01*
X10716302Y35417954D02*
X10716302Y35322716D01*
X10716302Y35322716D02*
X10678207Y35179859D01*
X10678207Y35179859D02*
X10221064Y34608430D01*
X10221064Y34608430D02*
X10716302Y34608430D01*
X-10906779Y40688430D02*
X-11287731Y40688430D01*
X-11287731Y40688430D02*
X-11325827Y40212240D01*
X-11325827Y40212240D02*
X-11287731Y40259859D01*
X-11287731Y40259859D02*
X-11211541Y40307478D01*
X-11211541Y40307478D02*
X-11021065Y40307478D01*
X-11021065Y40307478D02*
X-10944874Y40259859D01*
X-10944874Y40259859D02*
X-10906779Y40212240D01*
X-10906779Y40212240D02*
X-10868684Y40117002D01*
X-10868684Y40117002D02*
X-10868684Y39878907D01*
X-10868684Y39878907D02*
X-10906779Y39783669D01*
X-10906779Y39783669D02*
X-10944874Y39736050D01*
X-10944874Y39736050D02*
X-11021065Y39688430D01*
X-11021065Y39688430D02*
X-11211541Y39688430D01*
X-11211541Y39688430D02*
X-11287731Y39736050D01*
X-11287731Y39736050D02*
X-11325827Y39783669D01*
X-10640112Y40688430D02*
X-10373445Y39688430D01*
X-10373445Y39688430D02*
X-10106779Y40688430D01*
X-11402018Y25353192D02*
X-11363922Y25400811D01*
X-11363922Y25400811D02*
X-11287732Y25448430D01*
X-11287732Y25448430D02*
X-11097256Y25448430D01*
X-11097256Y25448430D02*
X-11021065Y25400811D01*
X-11021065Y25400811D02*
X-10982970Y25353192D01*
X-10982970Y25353192D02*
X-10944875Y25257954D01*
X-10944875Y25257954D02*
X-10944875Y25162716D01*
X-10944875Y25162716D02*
X-10982970Y25019859D01*
X-10982970Y25019859D02*
X-11440113Y24448430D01*
X-11440113Y24448430D02*
X-10944875Y24448430D01*
X-10259160Y25448430D02*
X-10411541Y25448430D01*
X-10411541Y25448430D02*
X-10487732Y25400811D01*
X-10487732Y25400811D02*
X-10525827Y25353192D01*
X-10525827Y25353192D02*
X-10602017Y25210335D01*
X-10602017Y25210335D02*
X-10640113Y25019859D01*
X-10640113Y25019859D02*
X-10640113Y24638907D01*
X-10640113Y24638907D02*
X-10602017Y24543669D01*
X-10602017Y24543669D02*
X-10563922Y24496050D01*
X-10563922Y24496050D02*
X-10487732Y24448430D01*
X-10487732Y24448430D02*
X-10335351Y24448430D01*
X-10335351Y24448430D02*
X-10259160Y24496050D01*
X-10259160Y24496050D02*
X-10221065Y24543669D01*
X-10221065Y24543669D02*
X-10182970Y24638907D01*
X-10182970Y24638907D02*
X-10182970Y24877002D01*
X-10182970Y24877002D02*
X-10221065Y24972240D01*
X-10221065Y24972240D02*
X-10259160Y25019859D01*
X-10259160Y25019859D02*
X-10335351Y25067478D01*
X-10335351Y25067478D02*
X-10487732Y25067478D01*
X-10487732Y25067478D02*
X-10563922Y25019859D01*
X-10563922Y25019859D02*
X-10602017Y24972240D01*
X-10602017Y24972240D02*
X-10640113Y24877002D01*
X-11402018Y32973192D02*
X-11363922Y33020811D01*
X-11363922Y33020811D02*
X-11287732Y33068430D01*
X-11287732Y33068430D02*
X-11097256Y33068430D01*
X-11097256Y33068430D02*
X-11021065Y33020811D01*
X-11021065Y33020811D02*
X-10982970Y32973192D01*
X-10982970Y32973192D02*
X-10944875Y32877954D01*
X-10944875Y32877954D02*
X-10944875Y32782716D01*
X-10944875Y32782716D02*
X-10982970Y32639859D01*
X-10982970Y32639859D02*
X-11440113Y32068430D01*
X-11440113Y32068430D02*
X-10944875Y32068430D01*
X-10563922Y32068430D02*
X-10411541Y32068430D01*
X-10411541Y32068430D02*
X-10335351Y32116050D01*
X-10335351Y32116050D02*
X-10297255Y32163669D01*
X-10297255Y32163669D02*
X-10221065Y32306526D01*
X-10221065Y32306526D02*
X-10182970Y32497002D01*
X-10182970Y32497002D02*
X-10182970Y32877954D01*
X-10182970Y32877954D02*
X-10221065Y32973192D01*
X-10221065Y32973192D02*
X-10259160Y33020811D01*
X-10259160Y33020811D02*
X-10335351Y33068430D01*
X-10335351Y33068430D02*
X-10487732Y33068430D01*
X-10487732Y33068430D02*
X-10563922Y33020811D01*
X-10563922Y33020811D02*
X-10602017Y32973192D01*
X-10602017Y32973192D02*
X-10640113Y32877954D01*
X-10640113Y32877954D02*
X-10640113Y32639859D01*
X-10640113Y32639859D02*
X-10602017Y32544621D01*
X-10602017Y32544621D02*
X-10563922Y32497002D01*
X-10563922Y32497002D02*
X-10487732Y32449383D01*
X-10487732Y32449383D02*
X-10335351Y32449383D01*
X-10335351Y32449383D02*
X-10259160Y32497002D01*
X-10259160Y32497002D02*
X-10221065Y32544621D01*
X-10221065Y32544621D02*
X-10182970Y32639859D01*
X-2751792Y16566680D02*
X-3208935Y16566680D01*
X-2980363Y16566680D02*
X-2980363Y17566680D01*
X-2980363Y17566680D02*
X-3056554Y17423823D01*
X-3056554Y17423823D02*
X-3132744Y17328585D01*
X-3132744Y17328585D02*
X-3208935Y17280966D01*
X-2447030Y17471442D02*
X-2408934Y17519061D01*
X-2408934Y17519061D02*
X-2332744Y17566680D01*
X-2332744Y17566680D02*
X-2142268Y17566680D01*
X-2142268Y17566680D02*
X-2066077Y17519061D01*
X-2066077Y17519061D02*
X-2027982Y17471442D01*
X-2027982Y17471442D02*
X-1989887Y17376204D01*
X-1989887Y17376204D02*
X-1989887Y17280966D01*
X-1989887Y17280966D02*
X-2027982Y17138109D01*
X-2027982Y17138109D02*
X-2485125Y16566680D01*
X-2485125Y16566680D02*
X-1989887Y16566680D01*
%LPC*%
D12*
%TO.C,SW5*%
X-16500000Y18420000D03*
D13*
X-16500000Y23500000D03*
D12*
X-16500000Y28580000D03*
D14*
X-19040000Y19690000D03*
X-21580000Y26040000D03*
%TD*%
D15*
%TO.C,H4*%
X37000000Y-23000000D03*
%TD*%
%TO.C,H2*%
X37000000Y23000000D03*
%TD*%
D12*
%TO.C,SW11*%
X-23080000Y-33000000D03*
D13*
X-18000000Y-33000000D03*
D12*
X-12920000Y-33000000D03*
D14*
X-21810000Y-30460000D03*
X-15460000Y-27920000D03*
%TD*%
D12*
%TO.C,SW3*%
X34420000Y-1500000D03*
D13*
X39500000Y-1500000D03*
D12*
X44580000Y-1500000D03*
D14*
X35690000Y1040000D03*
X42040000Y3580000D03*
%TD*%
D12*
%TO.C,SW8*%
X12920000Y-33000000D03*
D13*
X18000000Y-33000000D03*
D12*
X23080000Y-33000000D03*
D14*
X14190000Y-30460000D03*
X20540000Y-27920000D03*
%TD*%
D12*
%TO.C,SW10*%
X-5080000Y-11000000D03*
D13*
X0Y-11000000D03*
D12*
X5080000Y-11000000D03*
D14*
X-3810000Y-8460000D03*
X2540000Y-5920000D03*
%TD*%
D12*
%TO.C,SW7*%
X-23080000Y-11000000D03*
D13*
X-18000000Y-11000000D03*
D12*
X-12920000Y-11000000D03*
D14*
X-21810000Y-8460000D03*
X-15460000Y-5920000D03*
%TD*%
D12*
%TO.C,SW4*%
X12920000Y-11000000D03*
D13*
X18000000Y-11000000D03*
D12*
X23080000Y-11000000D03*
D14*
X14190000Y-8460000D03*
X20540000Y-5920000D03*
%TD*%
D12*
%TO.C,SW2*%
X16500000Y28580000D03*
D13*
X16500000Y23500000D03*
D12*
X16500000Y18420000D03*
D14*
X19040000Y27310000D03*
X21580000Y20960000D03*
%TD*%
D16*
%TO.C,U1*%
X8170000Y40160000D03*
X8170000Y37620000D03*
X8170000Y35080000D03*
X8170000Y32540000D03*
X8170000Y30000000D03*
X8170000Y27460000D03*
X8170000Y24920000D03*
X8170000Y22380000D03*
X8170000Y19840000D03*
D17*
X5080000Y19190000D03*
X2540000Y19190000D03*
X0Y19190000D03*
X-2540000Y19190000D03*
X-5080000Y19190000D03*
D16*
X-8170000Y19840000D03*
X-8170000Y22380000D03*
X-8170000Y24920000D03*
X-8170000Y27460000D03*
X-8170000Y30000000D03*
X-8170000Y32540000D03*
D18*
X-8170000Y35080000D03*
D19*
X-8170000Y37620000D03*
D18*
X-8170000Y40160000D03*
%TD*%
D12*
%TO.C,SW9*%
X-5080000Y-33000000D03*
D13*
X0Y-33000000D03*
D12*
X5080000Y-33000000D03*
D14*
X-3810000Y-30460000D03*
X2540000Y-27920000D03*
%TD*%
D12*
%TO.C,SW6*%
X-44580000Y-1500000D03*
D13*
X-39500000Y-1500000D03*
D12*
X-34420000Y-1500000D03*
D14*
X-43310000Y1040000D03*
X-36960000Y3580000D03*
%TD*%
D15*
%TO.C,H3*%
X-37000000Y-23000000D03*
%TD*%
%TO.C,H1*%
X-37000000Y23000000D03*
%TD*%
%LPD*%
M02*
