%TF.GenerationSoftware,KiCad,Pcbnew,9.0.3*%
%TF.CreationDate,2026-02-23T20:27:38+09:00*%
%TF.ProjectId,cat_tenkeys,6361745f-7465-46e6-9b65-79732e6b6963,rev?*%
%TF.SameCoordinates,Original*%
%TF.FileFunction,Legend,Bot*%
%TF.FilePolarity,Positive*%
%FSLAX46Y46*%
G04 Gerber Fmt 4.6, Leading zero omitted, Abs format (unit mm)*
G04 Created by KiCad (PCBNEW 9.0.3) date 2026-02-23 20:27:38*
%MOMM*%
%LPD*%
G01*
G04 APERTURE LIST*
G04 Aperture macros list*
%AMOutline5P*
0 Free polygon, 5 corners , with rotation*
0 The origin of the aperture is its center*
0 number of corners: always 5*
0 $1 to $10 corner X, Y*
0 $11 Rotation angle, in degrees counterclockwise*
0 create outline with 5 corners*
4,1,5,$1,$2,$3,$4,$5,$6,$7,$8,$9,$10,$1,$2,$11*%
%AMOutline6P*
0 Free polygon, 6 corners , with rotation*
0 The origin of the aperture is its center*
0 number of corners: always 6*
0 $1 to $12 corner X, Y*
0 $13 Rotation angle, in degrees counterclockwise*
0 create outline with 6 corners*
4,1,6,$1,$2,$3,$4,$5,$6,$7,$8,$9,$10,$11,$12,$1,$2,$13*%
%AMOutline7P*
0 Free polygon, 7 corners , with rotation*
0 The origin of the aperture is its center*
0 number of corners: always 7*
0 $1 to $14 corner X, Y*
0 $15 Rotation angle, in degrees counterclockwise*
0 create outline with 7 corners*
4,1,7,$1,$2,$3,$4,$5,$6,$7,$8,$9,$10,$11,$12,$13,$14,$1,$2,$15*%
%AMOutline8P*
0 Free polygon, 8 corners , with rotation*
0 The origin of the aperture is its center*
0 number of corners: always 8*
0 $1 to $16 corner X, Y*
0 $17 Rotation angle, in degrees counterclockwise*
0 create outline with 8 corners*
4,1,8,$1,$2,$3,$4,$5,$6,$7,$8,$9,$10,$11,$12,$13,$14,$15,$16,$1,$2,$17*%
G04 Aperture macros list end*
%ADD10C,0.160000*%
%ADD11C,0.150000*%
%ADD12C,1.700000*%
%ADD13C,4.000000*%
%ADD14R,2.000000X3.000000*%
%ADD15C,2.400000*%
%ADD16C,3.200000*%
%ADD17R,3.000000X2.000000*%
%ADD18O,2.600000X1.500000*%
%ADD19O,1.500000X2.600000*%
%ADD20Outline8P,-1.300000X0.450000X-1.000000X0.750000X1.000000X0.750000X1.300000X0.450000X1.300000X-0.450000X1.000000X-0.750000X-1.000000X-0.750000X-1.300000X-0.450000X0.000000*%
%ADD21R,2.600000X1.500000*%
G04 APERTURE END LIST*
D10*
X12761905Y11768129D02*
X13295239Y12530034D01*
X13676191Y11768129D02*
X13676191Y13368129D01*
X13676191Y13368129D02*
X13066667Y13368129D01*
X13066667Y13368129D02*
X12914286Y13291939D01*
X12914286Y13291939D02*
X12838096Y13215748D01*
X12838096Y13215748D02*
X12761905Y13063367D01*
X12761905Y13063367D02*
X12761905Y12834796D01*
X12761905Y12834796D02*
X12838096Y12682415D01*
X12838096Y12682415D02*
X12914286Y12606224D01*
X12914286Y12606224D02*
X13066667Y12530034D01*
X13066667Y12530034D02*
X13676191Y12530034D01*
X12076191Y11768129D02*
X12076191Y13368129D01*
X12076191Y13368129D02*
X11466667Y13368129D01*
X11466667Y13368129D02*
X11314286Y13291939D01*
X11314286Y13291939D02*
X11238096Y13215748D01*
X11238096Y13215748D02*
X11161905Y13063367D01*
X11161905Y13063367D02*
X11161905Y12834796D01*
X11161905Y12834796D02*
X11238096Y12682415D01*
X11238096Y12682415D02*
X11314286Y12606224D01*
X11314286Y12606224D02*
X11466667Y12530034D01*
X11466667Y12530034D02*
X12076191Y12530034D01*
X10552382Y13215748D02*
X10476191Y13291939D01*
X10476191Y13291939D02*
X10323810Y13368129D01*
X10323810Y13368129D02*
X9942858Y13368129D01*
X9942858Y13368129D02*
X9790477Y13291939D01*
X9790477Y13291939D02*
X9714286Y13215748D01*
X9714286Y13215748D02*
X9638096Y13063367D01*
X9638096Y13063367D02*
X9638096Y12910986D01*
X9638096Y12910986D02*
X9714286Y12682415D01*
X9714286Y12682415D02*
X10628572Y11768129D01*
X10628572Y11768129D02*
X9638096Y11768129D01*
X8647619Y13368129D02*
X8495238Y13368129D01*
X8495238Y13368129D02*
X8342857Y13291939D01*
X8342857Y13291939D02*
X8266667Y13215748D01*
X8266667Y13215748D02*
X8190476Y13063367D01*
X8190476Y13063367D02*
X8114286Y12758605D01*
X8114286Y12758605D02*
X8114286Y12377653D01*
X8114286Y12377653D02*
X8190476Y12072891D01*
X8190476Y12072891D02*
X8266667Y11920510D01*
X8266667Y11920510D02*
X8342857Y11844320D01*
X8342857Y11844320D02*
X8495238Y11768129D01*
X8495238Y11768129D02*
X8647619Y11768129D01*
X8647619Y11768129D02*
X8800000Y11844320D01*
X8800000Y11844320D02*
X8876191Y11920510D01*
X8876191Y11920510D02*
X8952381Y12072891D01*
X8952381Y12072891D02*
X9028572Y12377653D01*
X9028572Y12377653D02*
X9028572Y12758605D01*
X9028572Y12758605D02*
X8952381Y13063367D01*
X8952381Y13063367D02*
X8876191Y13215748D01*
X8876191Y13215748D02*
X8800000Y13291939D01*
X8800000Y13291939D02*
X8647619Y13368129D01*
X6742857Y12834796D02*
X6742857Y11768129D01*
X7123809Y13444320D02*
X7504762Y12301462D01*
X7504762Y12301462D02*
X6514285Y12301462D01*
X5599999Y13368129D02*
X5447618Y13368129D01*
X5447618Y13368129D02*
X5295237Y13291939D01*
X5295237Y13291939D02*
X5219047Y13215748D01*
X5219047Y13215748D02*
X5142856Y13063367D01*
X5142856Y13063367D02*
X5066666Y12758605D01*
X5066666Y12758605D02*
X5066666Y12377653D01*
X5066666Y12377653D02*
X5142856Y12072891D01*
X5142856Y12072891D02*
X5219047Y11920510D01*
X5219047Y11920510D02*
X5295237Y11844320D01*
X5295237Y11844320D02*
X5447618Y11768129D01*
X5447618Y11768129D02*
X5599999Y11768129D01*
X5599999Y11768129D02*
X5752380Y11844320D01*
X5752380Y11844320D02*
X5828571Y11920510D01*
X5828571Y11920510D02*
X5904761Y12072891D01*
X5904761Y12072891D02*
X5980952Y12377653D01*
X5980952Y12377653D02*
X5980952Y12758605D01*
X5980952Y12758605D02*
X5904761Y13063367D01*
X5904761Y13063367D02*
X5828571Y13215748D01*
X5828571Y13215748D02*
X5752380Y13291939D01*
X5752380Y13291939D02*
X5599999Y13368129D01*
X4761904Y11615748D02*
X3542856Y11615748D01*
X3314284Y12834796D02*
X2476189Y12834796D01*
X2476189Y12834796D02*
X3314284Y11768129D01*
X3314284Y11768129D02*
X2476189Y11768129D01*
X1257141Y11844320D02*
X1409522Y11768129D01*
X1409522Y11768129D02*
X1714284Y11768129D01*
X1714284Y11768129D02*
X1866665Y11844320D01*
X1866665Y11844320D02*
X1942856Y11996700D01*
X1942856Y11996700D02*
X1942856Y12606224D01*
X1942856Y12606224D02*
X1866665Y12758605D01*
X1866665Y12758605D02*
X1714284Y12834796D01*
X1714284Y12834796D02*
X1409522Y12834796D01*
X1409522Y12834796D02*
X1257141Y12758605D01*
X1257141Y12758605D02*
X1180951Y12606224D01*
X1180951Y12606224D02*
X1180951Y12453843D01*
X1180951Y12453843D02*
X1942856Y12301462D01*
X495236Y11768129D02*
X495236Y12834796D01*
X495236Y12530034D02*
X419046Y12682415D01*
X419046Y12682415D02*
X342855Y12758605D01*
X342855Y12758605D02*
X190474Y12834796D01*
X190474Y12834796D02*
X38093Y12834796D01*
X-723810Y11768129D02*
X-571429Y11844320D01*
X-571429Y11844320D02*
X-495239Y11920510D01*
X-495239Y11920510D02*
X-419048Y12072891D01*
X-419048Y12072891D02*
X-419048Y12530034D01*
X-419048Y12530034D02*
X-495239Y12682415D01*
X-495239Y12682415D02*
X-571429Y12758605D01*
X-571429Y12758605D02*
X-723810Y12834796D01*
X-723810Y12834796D02*
X-952382Y12834796D01*
X-952382Y12834796D02*
X-1104763Y12758605D01*
X-1104763Y12758605D02*
X-1180953Y12682415D01*
X-1180953Y12682415D02*
X-1257144Y12530034D01*
X-1257144Y12530034D02*
X-1257144Y12072891D01*
X-1257144Y12072891D02*
X-1180953Y11920510D01*
X-1180953Y11920510D02*
X-1104763Y11844320D01*
X-1104763Y11844320D02*
X-952382Y11768129D01*
X-952382Y11768129D02*
X-723810Y11768129D01*
X-2933334Y12301462D02*
X-4914287Y12301462D01*
X-3009525Y13368129D02*
X-4838096Y13368129D01*
X-3085715Y12530034D02*
X-4761906Y12530034D01*
X-3238096Y12758605D02*
X-4609525Y12758605D01*
X-3238096Y12987177D02*
X-4609525Y12987177D01*
X-3238096Y13215748D02*
X-3238096Y12758605D01*
X-3466668Y12149081D02*
X-3466668Y11844320D01*
X-3923811Y11920510D02*
X-3238096Y11768129D01*
X-3923811Y13596700D02*
X-3923811Y13368129D01*
X-4685715Y12149081D02*
X-4228573Y12072891D01*
X-3238096Y13215748D02*
X-4609525Y13215748D01*
X-4609525Y13215748D02*
X-4609525Y12758605D01*
X-3923811Y12377653D02*
X-3466668Y12149081D01*
X-3466668Y12149081D02*
X-2933334Y11996700D01*
X-3923811Y13215748D02*
X-3923811Y12301462D01*
X-3923811Y12301462D02*
X-4228573Y11996700D01*
X-4228573Y11996700D02*
X-4761906Y11768129D01*
X-5904763Y11234796D02*
X-5904763Y13520510D01*
X-7352383Y13139558D02*
X-7961907Y13139558D01*
X-7047621Y13444320D02*
X-6971430Y12987177D01*
X-6971430Y12987177D02*
X-6971430Y12530034D01*
X-6971430Y12530034D02*
X-7047621Y11920510D01*
X-7047621Y11920510D02*
X-7123811Y12453843D01*
X-7733335Y13444320D02*
X-7733335Y11920510D01*
X-7733335Y11920510D02*
X-7352383Y11996700D01*
X-7352383Y11996700D02*
X-7352383Y12301462D01*
X-7352383Y12301462D02*
X-7580954Y12377653D01*
X-7580954Y12377653D02*
X-7961907Y12072891D01*
X-9180954Y13444320D02*
X-8723811Y11768129D01*
X-8723811Y11768129D02*
X-9104763Y12530034D01*
X-9104763Y12530034D02*
X-9257144Y12530034D01*
X-9257144Y12530034D02*
X-9409525Y11768129D01*
X-9409525Y11768129D02*
X-9485716Y11768129D01*
X-9485716Y11768129D02*
X-9714287Y12149081D01*
X-10323810Y13139558D02*
X-10857144Y13139558D01*
X-10704763Y13520510D02*
X-10323810Y11920510D01*
X-10780953Y12758605D02*
X-11238096Y12758605D01*
X-11161906Y13291939D02*
X-11314287Y13063367D01*
X-11390477Y13368129D02*
X-11542858Y13139558D01*
X-10704763Y12301462D02*
X-10857144Y11920510D01*
X-10857144Y11920510D02*
X-11314287Y11920510D01*
X-12228572Y13215748D02*
X-12228572Y11768129D01*
X-12304762Y13520510D02*
X-12000000Y12834796D01*
X-12533334Y12225272D02*
X-13142858Y12225272D01*
X-12533334Y12682415D02*
X-13142858Y12682415D01*
X-12533334Y13063367D02*
X-13142858Y13063367D01*
X-12533334Y13444320D02*
X-12533334Y12225272D01*
X-12685715Y12072891D02*
X-12380953Y11844320D01*
X-12990477Y12072891D02*
X-13142858Y11844320D01*
X-13447619Y13368129D02*
X-13447619Y12225272D01*
X-13523810Y11768129D02*
X-13828572Y11768129D01*
X-13828572Y13520510D02*
X-13828572Y11768129D01*
X-12533334Y13444320D02*
X-13142858Y13444320D01*
X-13142858Y13444320D02*
X-13142858Y12225272D01*
D11*
X10847030Y33068430D02*
X10351792Y33068430D01*
X10351792Y33068430D02*
X10618458Y32687478D01*
X10618458Y32687478D02*
X10504173Y32687478D01*
X10504173Y32687478D02*
X10427982Y32639859D01*
X10427982Y32639859D02*
X10389887Y32592240D01*
X10389887Y32592240D02*
X10351792Y32497002D01*
X10351792Y32497002D02*
X10351792Y32258907D01*
X10351792Y32258907D02*
X10389887Y32163669D01*
X10389887Y32163669D02*
X10427982Y32116050D01*
X10427982Y32116050D02*
X10504173Y32068430D01*
X10504173Y32068430D02*
X10732744Y32068430D01*
X10732744Y32068430D02*
X10808935Y32116050D01*
X10808935Y32116050D02*
X10847030Y32163669D01*
X10618458Y40688430D02*
X10542268Y40688430D01*
X10542268Y40688430D02*
X10466077Y40640811D01*
X10466077Y40640811D02*
X10427982Y40593192D01*
X10427982Y40593192D02*
X10389887Y40497954D01*
X10389887Y40497954D02*
X10351792Y40307478D01*
X10351792Y40307478D02*
X10351792Y40069383D01*
X10351792Y40069383D02*
X10389887Y39878907D01*
X10389887Y39878907D02*
X10427982Y39783669D01*
X10427982Y39783669D02*
X10466077Y39736050D01*
X10466077Y39736050D02*
X10542268Y39688430D01*
X10542268Y39688430D02*
X10618458Y39688430D01*
X10618458Y39688430D02*
X10694649Y39736050D01*
X10694649Y39736050D02*
X10732744Y39783669D01*
X10732744Y39783669D02*
X10770839Y39878907D01*
X10770839Y39878907D02*
X10808935Y40069383D01*
X10808935Y40069383D02*
X10808935Y40307478D01*
X10808935Y40307478D02*
X10770839Y40497954D01*
X10770839Y40497954D02*
X10732744Y40593192D01*
X10732744Y40593192D02*
X10694649Y40640811D01*
X10694649Y40640811D02*
X10618458Y40688430D01*
X-10182969Y27893192D02*
X-10221065Y27940811D01*
X-10221065Y27940811D02*
X-10297255Y27988430D01*
X-10297255Y27988430D02*
X-10487731Y27988430D01*
X-10487731Y27988430D02*
X-10563922Y27940811D01*
X-10563922Y27940811D02*
X-10602017Y27893192D01*
X-10602017Y27893192D02*
X-10640112Y27797954D01*
X-10640112Y27797954D02*
X-10640112Y27702716D01*
X-10640112Y27702716D02*
X-10602017Y27559859D01*
X-10602017Y27559859D02*
X-10144874Y26988430D01*
X-10144874Y26988430D02*
X-10640112Y26988430D01*
X-10906779Y27988430D02*
X-11440113Y27988430D01*
X-11440113Y27988430D02*
X-11097255Y26988430D01*
X-2328207Y16566680D02*
X-1871064Y16566680D01*
X-2099636Y16566680D02*
X-2099636Y17566680D01*
X-2099636Y17566680D02*
X-2023445Y17423823D01*
X-2023445Y17423823D02*
X-1947255Y17328585D01*
X-1947255Y17328585D02*
X-1871064Y17280966D01*
X-2632969Y17471442D02*
X-2671065Y17519061D01*
X-2671065Y17519061D02*
X-2747255Y17566680D01*
X-2747255Y17566680D02*
X-2937731Y17566680D01*
X-2937731Y17566680D02*
X-3013922Y17519061D01*
X-3013922Y17519061D02*
X-3052017Y17471442D01*
X-3052017Y17471442D02*
X-3090112Y17376204D01*
X-3090112Y17376204D02*
X-3090112Y17280966D01*
X-3090112Y17280966D02*
X-3052017Y17138109D01*
X-3052017Y17138109D02*
X-2594874Y16566680D01*
X-2594874Y16566680D02*
X-3090112Y16566680D01*
X10351792Y37148430D02*
X10808935Y37148430D01*
X10580363Y37148430D02*
X10580363Y38148430D01*
X10580363Y38148430D02*
X10656554Y38005573D01*
X10656554Y38005573D02*
X10732744Y37910335D01*
X10732744Y37910335D02*
X10808935Y37862716D01*
X-4881302Y16566680D02*
X-4424159Y16566680D01*
X-4652731Y16566680D02*
X-4652731Y17566680D01*
X-4652731Y17566680D02*
X-4576540Y17423823D01*
X-4576540Y17423823D02*
X-4500350Y17328585D01*
X-4500350Y17328585D02*
X-4424159Y17280966D01*
X-5147969Y17566680D02*
X-5643207Y17566680D01*
X-5643207Y17566680D02*
X-5376541Y17185728D01*
X-5376541Y17185728D02*
X-5490826Y17185728D01*
X-5490826Y17185728D02*
X-5567017Y17138109D01*
X-5567017Y17138109D02*
X-5605112Y17090490D01*
X-5605112Y17090490D02*
X-5643207Y16995252D01*
X-5643207Y16995252D02*
X-5643207Y16757157D01*
X-5643207Y16757157D02*
X-5605112Y16661919D01*
X-5605112Y16661919D02*
X-5567017Y16614300D01*
X-5567017Y16614300D02*
X-5490826Y16566680D01*
X-5490826Y16566680D02*
X-5262255Y16566680D01*
X-5262255Y16566680D02*
X-5186064Y16614300D01*
X-5186064Y16614300D02*
X-5147969Y16661919D01*
X-10602017Y40688430D02*
X-10221065Y40688430D01*
X-10221065Y40688430D02*
X-10182969Y40212240D01*
X-10182969Y40212240D02*
X-10221065Y40259859D01*
X-10221065Y40259859D02*
X-10297255Y40307478D01*
X-10297255Y40307478D02*
X-10487731Y40307478D01*
X-10487731Y40307478D02*
X-10563922Y40259859D01*
X-10563922Y40259859D02*
X-10602017Y40212240D01*
X-10602017Y40212240D02*
X-10640112Y40117002D01*
X-10640112Y40117002D02*
X-10640112Y39878907D01*
X-10640112Y39878907D02*
X-10602017Y39783669D01*
X-10602017Y39783669D02*
X-10563922Y39736050D01*
X-10563922Y39736050D02*
X-10487731Y39688430D01*
X-10487731Y39688430D02*
X-10297255Y39688430D01*
X-10297255Y39688430D02*
X-10221065Y39736050D01*
X-10221065Y39736050D02*
X-10182969Y39783669D01*
X-10868684Y40688430D02*
X-11135351Y39688430D01*
X-11135351Y39688430D02*
X-11402017Y40688430D01*
X-10182969Y30433192D02*
X-10221065Y30480811D01*
X-10221065Y30480811D02*
X-10297255Y30528430D01*
X-10297255Y30528430D02*
X-10487731Y30528430D01*
X-10487731Y30528430D02*
X-10563922Y30480811D01*
X-10563922Y30480811D02*
X-10602017Y30433192D01*
X-10602017Y30433192D02*
X-10640112Y30337954D01*
X-10640112Y30337954D02*
X-10640112Y30242716D01*
X-10640112Y30242716D02*
X-10602017Y30099859D01*
X-10602017Y30099859D02*
X-10144874Y29528430D01*
X-10144874Y29528430D02*
X-10640112Y29528430D01*
X-11097255Y30099859D02*
X-11021065Y30147478D01*
X-11021065Y30147478D02*
X-10982970Y30195097D01*
X-10982970Y30195097D02*
X-10944874Y30290335D01*
X-10944874Y30290335D02*
X-10944874Y30337954D01*
X-10944874Y30337954D02*
X-10982970Y30433192D01*
X-10982970Y30433192D02*
X-11021065Y30480811D01*
X-11021065Y30480811D02*
X-11097255Y30528430D01*
X-11097255Y30528430D02*
X-11249636Y30528430D01*
X-11249636Y30528430D02*
X-11325827Y30480811D01*
X-11325827Y30480811D02*
X-11363922Y30433192D01*
X-11363922Y30433192D02*
X-11402017Y30337954D01*
X-11402017Y30337954D02*
X-11402017Y30290335D01*
X-11402017Y30290335D02*
X-11363922Y30195097D01*
X-11363922Y30195097D02*
X-11325827Y30147478D01*
X-11325827Y30147478D02*
X-11249636Y30099859D01*
X-11249636Y30099859D02*
X-11097255Y30099859D01*
X-11097255Y30099859D02*
X-11021065Y30052240D01*
X-11021065Y30052240D02*
X-10982970Y30004621D01*
X-10982970Y30004621D02*
X-10944874Y29909383D01*
X-10944874Y29909383D02*
X-10944874Y29718907D01*
X-10944874Y29718907D02*
X-10982970Y29623669D01*
X-10982970Y29623669D02*
X-11021065Y29576050D01*
X-11021065Y29576050D02*
X-11097255Y29528430D01*
X-11097255Y29528430D02*
X-11249636Y29528430D01*
X-11249636Y29528430D02*
X-11325827Y29576050D01*
X-11325827Y29576050D02*
X-11363922Y29623669D01*
X-11363922Y29623669D02*
X-11402017Y29718907D01*
X-11402017Y29718907D02*
X-11402017Y29909383D01*
X-11402017Y29909383D02*
X-11363922Y30004621D01*
X-11363922Y30004621D02*
X-11325827Y30052240D01*
X-11325827Y30052240D02*
X-11249636Y30099859D01*
X211792Y16566680D02*
X668935Y16566680D01*
X440363Y16566680D02*
X440363Y17566680D01*
X440363Y17566680D02*
X516554Y17423823D01*
X516554Y17423823D02*
X592744Y17328585D01*
X592744Y17328585D02*
X668935Y17280966D01*
X-550112Y16566680D02*
X-92969Y16566680D01*
X-321541Y16566680D02*
X-321541Y17566680D01*
X-321541Y17566680D02*
X-245350Y17423823D01*
X-245350Y17423823D02*
X-169160Y17328585D01*
X-169160Y17328585D02*
X-92969Y17280966D01*
X-10182969Y32973192D02*
X-10221065Y33020811D01*
X-10221065Y33020811D02*
X-10297255Y33068430D01*
X-10297255Y33068430D02*
X-10487731Y33068430D01*
X-10487731Y33068430D02*
X-10563922Y33020811D01*
X-10563922Y33020811D02*
X-10602017Y32973192D01*
X-10602017Y32973192D02*
X-10640112Y32877954D01*
X-10640112Y32877954D02*
X-10640112Y32782716D01*
X-10640112Y32782716D02*
X-10602017Y32639859D01*
X-10602017Y32639859D02*
X-10144874Y32068430D01*
X-10144874Y32068430D02*
X-10640112Y32068430D01*
X-11021065Y32068430D02*
X-11173446Y32068430D01*
X-11173446Y32068430D02*
X-11249636Y32116050D01*
X-11249636Y32116050D02*
X-11287732Y32163669D01*
X-11287732Y32163669D02*
X-11363922Y32306526D01*
X-11363922Y32306526D02*
X-11402017Y32497002D01*
X-11402017Y32497002D02*
X-11402017Y32877954D01*
X-11402017Y32877954D02*
X-11363922Y32973192D01*
X-11363922Y32973192D02*
X-11325827Y33020811D01*
X-11325827Y33020811D02*
X-11249636Y33068430D01*
X-11249636Y33068430D02*
X-11097255Y33068430D01*
X-11097255Y33068430D02*
X-11021065Y33020811D01*
X-11021065Y33020811D02*
X-10982970Y32973192D01*
X-10982970Y32973192D02*
X-10944874Y32877954D01*
X-10944874Y32877954D02*
X-10944874Y32639859D01*
X-10944874Y32639859D02*
X-10982970Y32544621D01*
X-10982970Y32544621D02*
X-11021065Y32497002D01*
X-11021065Y32497002D02*
X-11097255Y32449383D01*
X-11097255Y32449383D02*
X-11249636Y32449383D01*
X-11249636Y32449383D02*
X-11325827Y32497002D01*
X-11325827Y32497002D02*
X-11363922Y32544621D01*
X-11363922Y32544621D02*
X-11402017Y32639859D01*
X10389887Y27988430D02*
X10770839Y27988430D01*
X10770839Y27988430D02*
X10808935Y27512240D01*
X10808935Y27512240D02*
X10770839Y27559859D01*
X10770839Y27559859D02*
X10694649Y27607478D01*
X10694649Y27607478D02*
X10504173Y27607478D01*
X10504173Y27607478D02*
X10427982Y27559859D01*
X10427982Y27559859D02*
X10389887Y27512240D01*
X10389887Y27512240D02*
X10351792Y27417002D01*
X10351792Y27417002D02*
X10351792Y27178907D01*
X10351792Y27178907D02*
X10389887Y27083669D01*
X10389887Y27083669D02*
X10427982Y27036050D01*
X10427982Y27036050D02*
X10504173Y26988430D01*
X10504173Y26988430D02*
X10694649Y26988430D01*
X10694649Y26988430D02*
X10770839Y27036050D01*
X10770839Y27036050D02*
X10808935Y27083669D01*
X-10640112Y19368430D02*
X-10182969Y19368430D01*
X-10411541Y19368430D02*
X-10411541Y20368430D01*
X-10411541Y20368430D02*
X-10335350Y20225573D01*
X-10335350Y20225573D02*
X-10259160Y20130335D01*
X-10259160Y20130335D02*
X-10182969Y20082716D01*
X-11325827Y20035097D02*
X-11325827Y19368430D01*
X-11135351Y20416050D02*
X-10944874Y19701764D01*
X-10944874Y19701764D02*
X-11440113Y19701764D01*
X-10640112Y38100811D02*
X-10563922Y38148430D01*
X-10563922Y38148430D02*
X-10449636Y38148430D01*
X-10449636Y38148430D02*
X-10335350Y38100811D01*
X-10335350Y38100811D02*
X-10259160Y38005573D01*
X-10259160Y38005573D02*
X-10221065Y37910335D01*
X-10221065Y37910335D02*
X-10182969Y37719859D01*
X-10182969Y37719859D02*
X-10182969Y37577002D01*
X-10182969Y37577002D02*
X-10221065Y37386526D01*
X-10221065Y37386526D02*
X-10259160Y37291288D01*
X-10259160Y37291288D02*
X-10335350Y37196050D01*
X-10335350Y37196050D02*
X-10449636Y37148430D01*
X-10449636Y37148430D02*
X-10525827Y37148430D01*
X-10525827Y37148430D02*
X-10640112Y37196050D01*
X-10640112Y37196050D02*
X-10678208Y37243669D01*
X-10678208Y37243669D02*
X-10678208Y37577002D01*
X-10678208Y37577002D02*
X-10525827Y37577002D01*
X-11021065Y37148430D02*
X-11021065Y38148430D01*
X-11021065Y38148430D02*
X-11478208Y37148430D01*
X-11478208Y37148430D02*
X-11478208Y38148430D01*
X-11859160Y37148430D02*
X-11859160Y38148430D01*
X-11859160Y38148430D02*
X-12049636Y38148430D01*
X-12049636Y38148430D02*
X-12163922Y38100811D01*
X-12163922Y38100811D02*
X-12240112Y38005573D01*
X-12240112Y38005573D02*
X-12278207Y37910335D01*
X-12278207Y37910335D02*
X-12316303Y37719859D01*
X-12316303Y37719859D02*
X-12316303Y37577002D01*
X-12316303Y37577002D02*
X-12278207Y37386526D01*
X-12278207Y37386526D02*
X-12240112Y37291288D01*
X-12240112Y37291288D02*
X-12163922Y37196050D01*
X-12163922Y37196050D02*
X-12049636Y37148430D01*
X-12049636Y37148430D02*
X-11859160Y37148430D01*
X10656554Y19939859D02*
X10732744Y19987478D01*
X10732744Y19987478D02*
X10770839Y20035097D01*
X10770839Y20035097D02*
X10808935Y20130335D01*
X10808935Y20130335D02*
X10808935Y20177954D01*
X10808935Y20177954D02*
X10770839Y20273192D01*
X10770839Y20273192D02*
X10732744Y20320811D01*
X10732744Y20320811D02*
X10656554Y20368430D01*
X10656554Y20368430D02*
X10504173Y20368430D01*
X10504173Y20368430D02*
X10427982Y20320811D01*
X10427982Y20320811D02*
X10389887Y20273192D01*
X10389887Y20273192D02*
X10351792Y20177954D01*
X10351792Y20177954D02*
X10351792Y20130335D01*
X10351792Y20130335D02*
X10389887Y20035097D01*
X10389887Y20035097D02*
X10427982Y19987478D01*
X10427982Y19987478D02*
X10504173Y19939859D01*
X10504173Y19939859D02*
X10656554Y19939859D01*
X10656554Y19939859D02*
X10732744Y19892240D01*
X10732744Y19892240D02*
X10770839Y19844621D01*
X10770839Y19844621D02*
X10808935Y19749383D01*
X10808935Y19749383D02*
X10808935Y19558907D01*
X10808935Y19558907D02*
X10770839Y19463669D01*
X10770839Y19463669D02*
X10732744Y19416050D01*
X10732744Y19416050D02*
X10656554Y19368430D01*
X10656554Y19368430D02*
X10504173Y19368430D01*
X10504173Y19368430D02*
X10427982Y19416050D01*
X10427982Y19416050D02*
X10389887Y19463669D01*
X10389887Y19463669D02*
X10351792Y19558907D01*
X10351792Y19558907D02*
X10351792Y19749383D01*
X10351792Y19749383D02*
X10389887Y19844621D01*
X10389887Y19844621D02*
X10427982Y19892240D01*
X10427982Y19892240D02*
X10504173Y19939859D01*
X10427982Y30195097D02*
X10427982Y29528430D01*
X10618458Y30576050D02*
X10808935Y29861764D01*
X10808935Y29861764D02*
X10313696Y29861764D01*
X-10640112Y21908430D02*
X-10182969Y21908430D01*
X-10411541Y21908430D02*
X-10411541Y22908430D01*
X-10411541Y22908430D02*
X-10335350Y22765573D01*
X-10335350Y22765573D02*
X-10259160Y22670335D01*
X-10259160Y22670335D02*
X-10182969Y22622716D01*
X-11363922Y22908430D02*
X-10982970Y22908430D01*
X-10982970Y22908430D02*
X-10944874Y22432240D01*
X-10944874Y22432240D02*
X-10982970Y22479859D01*
X-10982970Y22479859D02*
X-11059160Y22527478D01*
X-11059160Y22527478D02*
X-11249636Y22527478D01*
X-11249636Y22527478D02*
X-11325827Y22479859D01*
X-11325827Y22479859D02*
X-11363922Y22432240D01*
X-11363922Y22432240D02*
X-11402017Y22337002D01*
X-11402017Y22337002D02*
X-11402017Y22098907D01*
X-11402017Y22098907D02*
X-11363922Y22003669D01*
X-11363922Y22003669D02*
X-11325827Y21956050D01*
X-11325827Y21956050D02*
X-11249636Y21908430D01*
X-11249636Y21908430D02*
X-11059160Y21908430D01*
X-11059160Y21908430D02*
X-10982970Y21956050D01*
X-10982970Y21956050D02*
X-10944874Y22003669D01*
X-10182969Y25353192D02*
X-10221065Y25400811D01*
X-10221065Y25400811D02*
X-10297255Y25448430D01*
X-10297255Y25448430D02*
X-10487731Y25448430D01*
X-10487731Y25448430D02*
X-10563922Y25400811D01*
X-10563922Y25400811D02*
X-10602017Y25353192D01*
X-10602017Y25353192D02*
X-10640112Y25257954D01*
X-10640112Y25257954D02*
X-10640112Y25162716D01*
X-10640112Y25162716D02*
X-10602017Y25019859D01*
X-10602017Y25019859D02*
X-10144874Y24448430D01*
X-10144874Y24448430D02*
X-10640112Y24448430D01*
X-11325827Y25448430D02*
X-11173446Y25448430D01*
X-11173446Y25448430D02*
X-11097255Y25400811D01*
X-11097255Y25400811D02*
X-11059160Y25353192D01*
X-11059160Y25353192D02*
X-10982970Y25210335D01*
X-10982970Y25210335D02*
X-10944874Y25019859D01*
X-10944874Y25019859D02*
X-10944874Y24638907D01*
X-10944874Y24638907D02*
X-10982970Y24543669D01*
X-10982970Y24543669D02*
X-11021065Y24496050D01*
X-11021065Y24496050D02*
X-11097255Y24448430D01*
X-11097255Y24448430D02*
X-11249636Y24448430D01*
X-11249636Y24448430D02*
X-11325827Y24496050D01*
X-11325827Y24496050D02*
X-11363922Y24543669D01*
X-11363922Y24543669D02*
X-11402017Y24638907D01*
X-11402017Y24638907D02*
X-11402017Y24877002D01*
X-11402017Y24877002D02*
X-11363922Y24972240D01*
X-11363922Y24972240D02*
X-11325827Y25019859D01*
X-11325827Y25019859D02*
X-11249636Y25067478D01*
X-11249636Y25067478D02*
X-11097255Y25067478D01*
X-11097255Y25067478D02*
X-11021065Y25019859D01*
X-11021065Y25019859D02*
X-10982970Y24972240D01*
X-10982970Y24972240D02*
X-10944874Y24877002D01*
X10847030Y22908430D02*
X10313696Y22908430D01*
X10313696Y22908430D02*
X10656554Y21908430D01*
X10427982Y25448430D02*
X10580363Y25448430D01*
X10580363Y25448430D02*
X10656554Y25400811D01*
X10656554Y25400811D02*
X10694649Y25353192D01*
X10694649Y25353192D02*
X10770839Y25210335D01*
X10770839Y25210335D02*
X10808935Y25019859D01*
X10808935Y25019859D02*
X10808935Y24638907D01*
X10808935Y24638907D02*
X10770839Y24543669D01*
X10770839Y24543669D02*
X10732744Y24496050D01*
X10732744Y24496050D02*
X10656554Y24448430D01*
X10656554Y24448430D02*
X10504173Y24448430D01*
X10504173Y24448430D02*
X10427982Y24496050D01*
X10427982Y24496050D02*
X10389887Y24543669D01*
X10389887Y24543669D02*
X10351792Y24638907D01*
X10351792Y24638907D02*
X10351792Y24877002D01*
X10351792Y24877002D02*
X10389887Y24972240D01*
X10389887Y24972240D02*
X10427982Y25019859D01*
X10427982Y25019859D02*
X10504173Y25067478D01*
X10504173Y25067478D02*
X10656554Y25067478D01*
X10656554Y25067478D02*
X10732744Y25019859D01*
X10732744Y25019859D02*
X10770839Y24972240D01*
X10770839Y24972240D02*
X10808935Y24877002D01*
X10808935Y35513192D02*
X10770839Y35560811D01*
X10770839Y35560811D02*
X10694649Y35608430D01*
X10694649Y35608430D02*
X10504173Y35608430D01*
X10504173Y35608430D02*
X10427982Y35560811D01*
X10427982Y35560811D02*
X10389887Y35513192D01*
X10389887Y35513192D02*
X10351792Y35417954D01*
X10351792Y35417954D02*
X10351792Y35322716D01*
X10351792Y35322716D02*
X10389887Y35179859D01*
X10389887Y35179859D02*
X10847030Y34608430D01*
X10847030Y34608430D02*
X10351792Y34608430D01*
X2751792Y16566680D02*
X3208935Y16566680D01*
X2980363Y16566680D02*
X2980363Y17566680D01*
X2980363Y17566680D02*
X3056554Y17423823D01*
X3056554Y17423823D02*
X3132744Y17328585D01*
X3132744Y17328585D02*
X3208935Y17280966D01*
X2256553Y17566680D02*
X2180363Y17566680D01*
X2180363Y17566680D02*
X2104172Y17519061D01*
X2104172Y17519061D02*
X2066077Y17471442D01*
X2066077Y17471442D02*
X2027982Y17376204D01*
X2027982Y17376204D02*
X1989887Y17185728D01*
X1989887Y17185728D02*
X1989887Y16947633D01*
X1989887Y16947633D02*
X2027982Y16757157D01*
X2027982Y16757157D02*
X2066077Y16661919D01*
X2066077Y16661919D02*
X2104172Y16614300D01*
X2104172Y16614300D02*
X2180363Y16566680D01*
X2180363Y16566680D02*
X2256553Y16566680D01*
X2256553Y16566680D02*
X2332744Y16614300D01*
X2332744Y16614300D02*
X2370839Y16661919D01*
X2370839Y16661919D02*
X2408934Y16757157D01*
X2408934Y16757157D02*
X2447030Y16947633D01*
X2447030Y16947633D02*
X2447030Y17185728D01*
X2447030Y17185728D02*
X2408934Y17376204D01*
X2408934Y17376204D02*
X2370839Y17471442D01*
X2370839Y17471442D02*
X2332744Y17519061D01*
X2332744Y17519061D02*
X2256553Y17566680D01*
X5278697Y16566680D02*
X5126316Y16566680D01*
X5126316Y16566680D02*
X5050126Y16614300D01*
X5050126Y16614300D02*
X5012030Y16661919D01*
X5012030Y16661919D02*
X4935840Y16804776D01*
X4935840Y16804776D02*
X4897745Y16995252D01*
X4897745Y16995252D02*
X4897745Y17376204D01*
X4897745Y17376204D02*
X4935840Y17471442D01*
X4935840Y17471442D02*
X4973935Y17519061D01*
X4973935Y17519061D02*
X5050126Y17566680D01*
X5050126Y17566680D02*
X5202507Y17566680D01*
X5202507Y17566680D02*
X5278697Y17519061D01*
X5278697Y17519061D02*
X5316792Y17471442D01*
X5316792Y17471442D02*
X5354888Y17376204D01*
X5354888Y17376204D02*
X5354888Y17138109D01*
X5354888Y17138109D02*
X5316792Y17042871D01*
X5316792Y17042871D02*
X5278697Y16995252D01*
X5278697Y16995252D02*
X5202507Y16947633D01*
X5202507Y16947633D02*
X5050126Y16947633D01*
X5050126Y16947633D02*
X4973935Y16995252D01*
X4973935Y16995252D02*
X4935840Y17042871D01*
X4935840Y17042871D02*
X4897745Y17138109D01*
X-10144874Y35608430D02*
X-10640112Y35608430D01*
X-10640112Y35608430D02*
X-10373446Y35227478D01*
X-10373446Y35227478D02*
X-10487731Y35227478D01*
X-10487731Y35227478D02*
X-10563922Y35179859D01*
X-10563922Y35179859D02*
X-10602017Y35132240D01*
X-10602017Y35132240D02*
X-10640112Y35037002D01*
X-10640112Y35037002D02*
X-10640112Y34798907D01*
X-10640112Y34798907D02*
X-10602017Y34703669D01*
X-10602017Y34703669D02*
X-10563922Y34656050D01*
X-10563922Y34656050D02*
X-10487731Y34608430D01*
X-10487731Y34608430D02*
X-10259160Y34608430D01*
X-10259160Y34608430D02*
X-10182969Y34656050D01*
X-10182969Y34656050D02*
X-10144874Y34703669D01*
X-10868684Y35608430D02*
X-11135351Y34608430D01*
X-11135351Y34608430D02*
X-11402017Y35608430D01*
X-11592493Y35608430D02*
X-12087731Y35608430D01*
X-12087731Y35608430D02*
X-11821065Y35227478D01*
X-11821065Y35227478D02*
X-11935350Y35227478D01*
X-11935350Y35227478D02*
X-12011541Y35179859D01*
X-12011541Y35179859D02*
X-12049636Y35132240D01*
X-12049636Y35132240D02*
X-12087731Y35037002D01*
X-12087731Y35037002D02*
X-12087731Y34798907D01*
X-12087731Y34798907D02*
X-12049636Y34703669D01*
X-12049636Y34703669D02*
X-12011541Y34656050D01*
X-12011541Y34656050D02*
X-11935350Y34608430D01*
X-11935350Y34608430D02*
X-11706779Y34608430D01*
X-11706779Y34608430D02*
X-11630588Y34656050D01*
X-11630588Y34656050D02*
X-11592493Y34703669D01*
%LPC*%
D12*
%TO.C,SW5*%
X-16500000Y18420000D03*
D13*
X-16500000Y23500000D03*
D12*
X-16500000Y28580000D03*
D14*
X-19040000Y16100000D03*
D15*
X-19040000Y19690000D03*
X-21580000Y26040000D03*
D14*
X-21580000Y29600000D03*
%TD*%
D16*
%TO.C,H4*%
X37000000Y-23000000D03*
%TD*%
%TO.C,H2*%
X37000000Y23000000D03*
%TD*%
D12*
%TO.C,SW11*%
X-23080000Y-33000000D03*
D13*
X-18000000Y-33000000D03*
D12*
X-12920000Y-33000000D03*
D17*
X-25400000Y-30460000D03*
D15*
X-21810000Y-30460000D03*
X-15460000Y-27920000D03*
D17*
X-11900000Y-27920000D03*
%TD*%
D12*
%TO.C,SW3*%
X34420000Y-1500000D03*
D13*
X39500000Y-1500000D03*
D12*
X44580000Y-1500000D03*
D17*
X32100000Y1040000D03*
D15*
X35690000Y1040000D03*
X42040000Y3580000D03*
D17*
X45600000Y3580000D03*
%TD*%
D12*
%TO.C,SW8*%
X12920000Y-33000000D03*
D13*
X18000000Y-33000000D03*
D12*
X23080000Y-33000000D03*
D17*
X10600000Y-30460000D03*
D15*
X14190000Y-30460000D03*
X20540000Y-27920000D03*
D17*
X24100000Y-27920000D03*
%TD*%
D12*
%TO.C,SW10*%
X-5080000Y-11000000D03*
D13*
X0Y-11000000D03*
D12*
X5080000Y-11000000D03*
D17*
X-7400000Y-8460000D03*
D15*
X-3810000Y-8460000D03*
X2540000Y-5920000D03*
D17*
X6100000Y-5920000D03*
%TD*%
D12*
%TO.C,SW7*%
X-23080000Y-11000000D03*
D13*
X-18000000Y-11000000D03*
D12*
X-12920000Y-11000000D03*
D17*
X-25400000Y-8460000D03*
D15*
X-21810000Y-8460000D03*
X-15460000Y-5920000D03*
D17*
X-11900000Y-5920000D03*
%TD*%
D12*
%TO.C,SW4*%
X12920000Y-11000000D03*
D13*
X18000000Y-11000000D03*
D12*
X23080000Y-11000000D03*
D17*
X10600000Y-8460000D03*
D15*
X14190000Y-8460000D03*
X20540000Y-5920000D03*
D17*
X24100000Y-5920000D03*
%TD*%
D12*
%TO.C,SW2*%
X16500000Y28580000D03*
D13*
X16500000Y23500000D03*
D12*
X16500000Y18420000D03*
D14*
X19040000Y30900000D03*
D15*
X19040000Y27310000D03*
X21580000Y20960000D03*
D14*
X21580000Y17400000D03*
%TD*%
D18*
%TO.C,U1*%
X8170000Y40160000D03*
X8170000Y37620000D03*
X8170000Y35080000D03*
X8170000Y32540000D03*
X8170000Y30000000D03*
X8170000Y27460000D03*
X8170000Y24920000D03*
X8170000Y22380000D03*
X8170000Y19840000D03*
D19*
X5080000Y19190000D03*
X2540000Y19190000D03*
X0Y19190000D03*
X-2540000Y19190000D03*
X-5080000Y19190000D03*
D18*
X-8170000Y19840000D03*
X-8170000Y22380000D03*
X-8170000Y24920000D03*
X-8170000Y27460000D03*
X-8170000Y30000000D03*
X-8170000Y32540000D03*
D20*
X-8170000Y35080000D03*
D21*
X-8170000Y37620000D03*
D20*
X-8170000Y40160000D03*
%TD*%
D12*
%TO.C,SW9*%
X-5080000Y-33000000D03*
D13*
X0Y-33000000D03*
D12*
X5080000Y-33000000D03*
D17*
X-7400000Y-30460000D03*
D15*
X-3810000Y-30460000D03*
X2540000Y-27920000D03*
D17*
X6100000Y-27920000D03*
%TD*%
D12*
%TO.C,SW6*%
X-44580000Y-1500000D03*
D13*
X-39500000Y-1500000D03*
D12*
X-34420000Y-1500000D03*
D17*
X-46900000Y1040000D03*
D15*
X-43310000Y1040000D03*
X-36960000Y3580000D03*
D17*
X-33400000Y3580000D03*
%TD*%
D16*
%TO.C,H3*%
X-37000000Y-23000000D03*
%TD*%
%TO.C,H1*%
X-37000000Y23000000D03*
%TD*%
%LPD*%
M02*
