%TF.GenerationSoftware,KiCad,Pcbnew,9.0.3*%
%TF.CreationDate,2026-02-23T20:27:38+09:00*%
%TF.ProjectId,cat_tenkeys,6361745f-7465-46e6-9b65-79732e6b6963,rev?*%
%TF.SameCoordinates,Original*%
%TF.FileFunction,Profile,NP*%
%FSLAX46Y46*%
G04 Gerber Fmt 4.6, Leading zero omitted, Abs format (unit mm)*
G04 Created by KiCad (PCBNEW 9.0.3) date 2026-02-23 20:27:38*
%MOMM*%
%LPD*%
G01*
G04 APERTURE LIST*
%TA.AperFunction,Profile*%
%ADD10C,0.200000*%
%TD*%
%ADD11C,0.200000*%
%TA.AperFunction,Profile*%
%ADD12C,0.010050*%
%TD*%
G04 APERTURE END LIST*
D10*
X6350000Y20750000D02*
X-6350000Y20750000D01*
D11*
X-50000000Y0D02*
X-49999960Y-53316D01*
X-49999840Y-106637D01*
X-49999640Y-159962D01*
X-49999360Y-213292D01*
X-49999000Y-266626D01*
X-49998560Y-319964D01*
X-49998040Y-373306D01*
X-49997440Y-426652D01*
X-49996759Y-480003D01*
X-49995999Y-533357D01*
X-49995159Y-586715D01*
X-49994238Y-640076D01*
X-49993238Y-693442D01*
X-49992158Y-746811D01*
X-49990997Y-800183D01*
X-49989756Y-853558D01*
X-49988435Y-906937D01*
X-49987035Y-960319D01*
X-49985554Y-1013705D01*
X-49983992Y-1067093D01*
X-49982351Y-1120484D01*
X-49980630Y-1173878D01*
X-49978828Y-1227274D01*
X-49976947Y-1280673D01*
X-49974985Y-1334075D01*
X-49972943Y-1387479D01*
X-49970821Y-1440886D01*
X-49968619Y-1494295D01*
X-49966336Y-1547706D01*
X-49963974Y-1601119D01*
X-49961531Y-1654534D01*
X-49959008Y-1707951D01*
X-49956405Y-1761370D01*
X-49953722Y-1814791D01*
X-49950959Y-1868213D01*
X-49948115Y-1921637D01*
X-49945191Y-1975063D01*
X-49942188Y-2028489D01*
X-49939103Y-2081918D01*
X-49935939Y-2135347D01*
X-49932694Y-2188777D01*
X-49929370Y-2242209D01*
X-49925965Y-2295641D01*
X-49922479Y-2349074D01*
X-49918914Y-2402508D01*
X-49915268Y-2455943D01*
X-49911543Y-2509378D01*
X-49907736Y-2562813D01*
X-49903850Y-2616249D01*
X-49899884Y-2669686D01*
X-49895837Y-2723122D01*
X-49891710Y-2776559D01*
X-49887503Y-2829996D01*
X-49883215Y-2883432D01*
X-49878847Y-2936869D01*
X-49874399Y-2990305D01*
X-49869871Y-3043741D01*
X-49865263Y-3097176D01*
X-49860574Y-3150611D01*
X-49855805Y-3204045D01*
X-49850956Y-3257479D01*
X-49846026Y-3310911D01*
X-49841016Y-3364343D01*
X-49835926Y-3417774D01*
X-49830756Y-3471204D01*
X-49825505Y-3524633D01*
X-49820175Y-3578060D01*
X-49814764Y-3631486D01*
X-49809272Y-3684911D01*
X-49803701Y-3738334D01*
X-49798049Y-3791755D01*
X-49792317Y-3845175D01*
X-49786504Y-3898593D01*
X-49780612Y-3952009D01*
X-49774639Y-4005423D01*
X-49768585Y-4058834D01*
X-49762452Y-4112244D01*
X-49756238Y-4165652D01*
X-49749944Y-4219057D01*
X-49743570Y-4272459D01*
X-49737115Y-4325859D01*
X-49730581Y-4379257D01*
X-49723966Y-4432651D01*
X-49717270Y-4486043D01*
X-49710495Y-4539432D01*
X-49703639Y-4592818D01*
X-49696703Y-4646201D01*
X-49689687Y-4699580D01*
X-49682590Y-4752957D01*
X-49675413Y-4806329D01*
X-49668156Y-4859699D01*
X-49660819Y-4913065D01*
X-49653401Y-4966427D01*
X-49645903Y-5019785D01*
X-49638325Y-5073140D01*
X-49630667Y-5126490D01*
X-49622928Y-5179837D01*
X-49615109Y-5233179D01*
X-49607210Y-5286517D01*
X-49599231Y-5339851D01*
X-49591171Y-5393181D01*
X-49583032Y-5446506D01*
X-49574812Y-5499826D01*
X-49566511Y-5553141D01*
X-49558131Y-5606452D01*
X-49549670Y-5659758D01*
X-49541130Y-5713059D01*
X-49532509Y-5766355D01*
X-49523807Y-5819646D01*
X-49515026Y-5872931D01*
X-49506164Y-5926211D01*
X-49497222Y-5979486D01*
X-49488200Y-6032755D01*
X-49479098Y-6086018D01*
X-49469916Y-6139276D01*
X-49460653Y-6192528D01*
X-49451310Y-6245774D01*
X-49441887Y-6299014D01*
X-49432384Y-6352247D01*
X-49422801Y-6405475D01*
X-49413138Y-6458696D01*
X-49403394Y-6511911D01*
X-49393570Y-6565120D01*
X-49383666Y-6618322D01*
X-49373682Y-6671517D01*
X-49363618Y-6724705D01*
X-49353474Y-6777887D01*
X-49343250Y-6831061D01*
X-49332945Y-6884229D01*
X-49322561Y-6937389D01*
X-49312096Y-6990542D01*
X-49301551Y-7043688D01*
X-49290926Y-7096826D01*
X-49280221Y-7149957D01*
X-49269436Y-7203080D01*
X-49258571Y-7256195D01*
X-49247626Y-7309303D01*
X-49236601Y-7362403D01*
X-49225496Y-7415494D01*
X-49214311Y-7468578D01*
X-49203045Y-7521653D01*
X-49191700Y-7574721D01*
X-49180275Y-7627779D01*
X-49168769Y-7680830D01*
X-49157184Y-7733871D01*
X-49145518Y-7786904D01*
X-49133773Y-7839929D01*
X-49121948Y-7892944D01*
X-49110042Y-7945950D01*
X-49098057Y-7998948D01*
X-49085992Y-8051936D01*
X-49073847Y-8104915D01*
X-49061622Y-8157885D01*
X-49049317Y-8210845D01*
X-49036932Y-8263796D01*
X-49024467Y-8316737D01*
X-49011922Y-8369668D01*
X-48999297Y-8422590D01*
X-48986593Y-8475501D01*
X-48973808Y-8528403D01*
X-48960944Y-8581295D01*
X-48948000Y-8634176D01*
X-48934976Y-8687047D01*
X-48921872Y-8739908D01*
X-48908688Y-8792758D01*
X-48895425Y-8845598D01*
X-48882081Y-8898427D01*
X-48868658Y-8951245D01*
X-48855155Y-9004052D01*
X-48841573Y-9056849D01*
X-48827910Y-9109634D01*
X-48814168Y-9162408D01*
X-48800346Y-9215171D01*
X-48786444Y-9267923D01*
X-48772463Y-9320663D01*
X-48758402Y-9373392D01*
X-48744261Y-9426109D01*
X-48730040Y-9478814D01*
X-48715740Y-9531508D01*
X-48701360Y-9584189D01*
X-48686901Y-9636859D01*
X-48672362Y-9689517D01*
X-48665062Y-9715841D01*
X-48657743Y-9742162D01*
X-48650404Y-9768480D01*
X-48643044Y-9794795D01*
X-48635665Y-9821107D01*
X-48628266Y-9847416D01*
X-48620848Y-9873721D01*
X-48613409Y-9900024D01*
X-48605950Y-9926323D01*
X-48598472Y-9952619D01*
X-48590973Y-9978913D01*
X-48583455Y-10005202D01*
X-48575917Y-10031489D01*
X-48568358Y-10057773D01*
X-48560780Y-10084053D01*
X-48553183Y-10110330D01*
X-48545565Y-10136604D01*
X-48537927Y-10162874D01*
X-48530270Y-10189142D01*
X-48522592Y-10215406D01*
X-48514895Y-10241667D01*
X-48507178Y-10267924D01*
X-48499441Y-10294178D01*
X-48491684Y-10320429D01*
X-48483907Y-10346677D01*
X-48476110Y-10372921D01*
X-48468294Y-10399162D01*
X-48460457Y-10425399D01*
X-48452601Y-10451633D01*
X-48444725Y-10477864D01*
X-48436829Y-10504091D01*
X-48428913Y-10530315D01*
X-48420978Y-10556535D01*
X-48413022Y-10582752D01*
X-48405047Y-10608966D01*
X-48397051Y-10635176D01*
X-48389036Y-10661382D01*
X-48381001Y-10687585D01*
X-48372947Y-10713785D01*
X-48364872Y-10739981D01*
X-48356777Y-10766173D01*
X-48348663Y-10792362D01*
X-48340529Y-10818548D01*
X-48332375Y-10844730D01*
X-48324201Y-10870908D01*
X-48316007Y-10897083D01*
X-48307794Y-10923254D01*
X-48299561Y-10949422D01*
X-48291307Y-10975586D01*
X-48283034Y-11001746D01*
X-48274742Y-11027903D01*
X-48266429Y-11054055D01*
X-48258096Y-11080205D01*
X-48249744Y-11106350D01*
X-48241372Y-11132492D01*
X-48232980Y-11158631D01*
X-48224568Y-11184765D01*
X-48216137Y-11210896D01*
X-48207686Y-11237023D01*
X-48199214Y-11263146D01*
X-48190723Y-11289266D01*
X-48182213Y-11315382D01*
X-48173682Y-11341494D01*
X-48165132Y-11367602D01*
X-48156562Y-11393707D01*
X-48147972Y-11419807D01*
X-48139362Y-11445904D01*
X-48130732Y-11471997D01*
X-48122083Y-11498086D01*
X-48113414Y-11524171D01*
X-48104725Y-11550253D01*
X-48096016Y-11576330D01*
X-48087288Y-11602403D01*
X-48078539Y-11628473D01*
X-48069771Y-11654539D01*
X-48060984Y-11680600D01*
X-48052176Y-11706658D01*
X-48043349Y-11732712D01*
X-48034501Y-11758762D01*
X-48025634Y-11784808D01*
X-48016748Y-11810850D01*
X-48007841Y-11836888D01*
X-47998915Y-11862922D01*
X-47989969Y-11888951D01*
X-47981003Y-11914977D01*
X-47972018Y-11940999D01*
X-47963013Y-11967016D01*
X-47953988Y-11993030D01*
X-47944943Y-12019039D01*
X-47935878Y-12045045D01*
X-47926794Y-12071046D01*
X-47917690Y-12097043D01*
X-47908566Y-12123036D01*
X-47899423Y-12149025D01*
X-47890260Y-12175010D01*
X-47881077Y-12200990D01*
X-47871874Y-12226967D01*
X-47862652Y-12252939D01*
X-47853410Y-12278907D01*
X-47844148Y-12304870D01*
X-47834866Y-12330830D01*
X-47825565Y-12356785D01*
X-47816244Y-12382736D01*
X-47806903Y-12408682D01*
X-47797543Y-12434625D01*
X-47788162Y-12460563D01*
X-47778762Y-12486497D01*
X-47769343Y-12512426D01*
X-47759904Y-12538351D01*
X-47750445Y-12564272D01*
X-47740966Y-12590189D01*
X-47731467Y-12616101D01*
X-47721949Y-12642009D01*
X-47712411Y-12667912D01*
X-47702854Y-12693811D01*
X-47693277Y-12719705D01*
X-47683680Y-12745595D01*
X-47674063Y-12771481D01*
X-47664427Y-12797362D01*
X-47654771Y-12823239D01*
X-47645095Y-12849111D01*
X-47635400Y-12874979D01*
X-47625685Y-12900842D01*
X-47615950Y-12926701D01*
X-47606196Y-12952556D01*
X-47596422Y-12978405D01*
X-47586628Y-13004251D01*
X-47576815Y-13030091D01*
X-47566982Y-13055927D01*
X-47557129Y-13081759D01*
X-47547257Y-13107586D01*
X-47537365Y-13133408D01*
X-47527454Y-13159226D01*
X-47517522Y-13185039D01*
X-47507571Y-13210848D01*
X-47497601Y-13236652D01*
X-47487611Y-13262451D01*
X-47477601Y-13288245D01*
X-47467571Y-13314035D01*
X-47457522Y-13339820D01*
X-47447454Y-13365601D01*
X-47437365Y-13391376D01*
X-47427257Y-13417147D01*
X-47417129Y-13442914D01*
X-47406982Y-13468675D01*
X-47396815Y-13494432D01*
X-47386629Y-13520184D01*
X-47376423Y-13545931D01*
X-47366197Y-13571674D01*
X-47355952Y-13597411D01*
X-47345687Y-13623144D01*
X-47335402Y-13648872D01*
X-47325098Y-13674595D01*
X-47314774Y-13700313D01*
X-47304431Y-13726027D01*
X-47294068Y-13751735D01*
X-47283685Y-13777439D01*
X-47273283Y-13803137D01*
X-47262862Y-13828831D01*
X-47252420Y-13854520D01*
X-47241959Y-13880204D01*
X-47231479Y-13905883D01*
X-47220979Y-13931557D01*
X-47210459Y-13957226D01*
X-47199920Y-13982890D01*
X-47189361Y-14008549D01*
X-47178783Y-14034203D01*
X-47168185Y-14059852D01*
X-47157568Y-14085496D01*
X-47146931Y-14111135D01*
X-47136274Y-14136769D01*
X-47125598Y-14162398D01*
X-47114902Y-14188022D01*
X-47104187Y-14213640D01*
X-47093452Y-14239254D01*
X-47082698Y-14264862D01*
X-47071924Y-14290466D01*
X-47061130Y-14316064D01*
X-47050318Y-14341657D01*
X-47039485Y-14367245D01*
X-47028633Y-14392828D01*
X-47017761Y-14418405D01*
X-47006870Y-14443977D01*
X-46995960Y-14469545D01*
X-46985030Y-14495107D01*
X-46974080Y-14520663D01*
X-46963111Y-14546215D01*
X-46952122Y-14571761D01*
X-46941114Y-14597302D01*
X-46930086Y-14622838D01*
X-46919039Y-14648368D01*
X-46907973Y-14673893D01*
X-46896886Y-14699413D01*
X-46885781Y-14724927D01*
X-46874656Y-14750437D01*
X-46863511Y-14775940D01*
X-46852347Y-14801439D01*
X-46841163Y-14826932D01*
X-46829960Y-14852420D01*
X-46818737Y-14877902D01*
X-46807495Y-14903379D01*
X-46796234Y-14928850D01*
X-46784953Y-14954316D01*
X-46773652Y-14979777D01*
X-46762332Y-15005232D01*
X-46750993Y-15030682D01*
X-46739634Y-15056126D01*
X-46728256Y-15081565D01*
X-46716858Y-15106998D01*
X-46705441Y-15132426D01*
X-46694004Y-15157848D01*
X-46682548Y-15183265D01*
X-46671072Y-15208676D01*
X-46659577Y-15234082D01*
X-46648063Y-15259482D01*
X-46636529Y-15284877D01*
X-46624976Y-15310266D01*
X-46613403Y-15335649D01*
X-46601811Y-15361027D01*
X-46590199Y-15386399D01*
X-46578568Y-15411765D01*
X-46566918Y-15437126D01*
X-46555248Y-15462481D01*
X-46543559Y-15487831D01*
X-46531850Y-15513175D01*
X-46520122Y-15538513D01*
X-46508374Y-15563845D01*
X-46496607Y-15589172D01*
X-46484821Y-15614493D01*
X-46473016Y-15639808D01*
X-46461191Y-15665118D01*
X-46449346Y-15690422D01*
X-46437482Y-15715720D01*
X-46425599Y-15741012D01*
X-46413697Y-15766298D01*
X-46401774Y-15791579D01*
X-46389833Y-15816854D01*
X-46377872Y-15842123D01*
X-46365892Y-15867386D01*
X-46353893Y-15892644D01*
X-46341874Y-15917895D01*
X-46329836Y-15943141D01*
X-46317779Y-15968380D01*
X-46305702Y-15993614D01*
X-46293606Y-16018842D01*
X-46281490Y-16044064D01*
X-46269355Y-16069280D01*
X-46257201Y-16094490D01*
X-46245027Y-16119694D01*
X-46232834Y-16144893D01*
X-46220622Y-16170085D01*
X-46208391Y-16195271D01*
X-46196140Y-16220452D01*
X-46183869Y-16245626D01*
X-46171580Y-16270794D01*
X-46159271Y-16295956D01*
X-46146943Y-16321113D01*
X-46134596Y-16346263D01*
X-46122229Y-16371407D01*
X-46109843Y-16396545D01*
X-46097437Y-16421677D01*
X-46085013Y-16446803D01*
X-46072569Y-16471922D01*
X-46060105Y-16497036D01*
X-46047623Y-16522143D01*
X-46035121Y-16547245D01*
X-46022600Y-16572340D01*
X-46010060Y-16597429D01*
X-45997500Y-16622512D01*
X-45984921Y-16647588D01*
X-45972323Y-16672659D01*
X-45959706Y-16697723D01*
X-45947069Y-16722781D01*
X-45934413Y-16747833D01*
X-45921738Y-16772878D01*
X-45909043Y-16797918D01*
X-45896329Y-16822951D01*
X-45883596Y-16847978D01*
X-45870844Y-16872998D01*
X-45858073Y-16898012D01*
X-45845282Y-16923020D01*
X-45832472Y-16948022D01*
X-45819643Y-16973017D01*
X-45806795Y-16998006D01*
X-45793927Y-17022988D01*
X-45781040Y-17047964D01*
X-45768134Y-17072934D01*
X-45755209Y-17097897D01*
X-45742265Y-17122854D01*
X-45729301Y-17147805D01*
X-45716318Y-17172749D01*
X-45703316Y-17197687D01*
X-45690295Y-17222618D01*
X-45677254Y-17247543D01*
X-45664195Y-17272461D01*
X-45651116Y-17297373D01*
X-45638018Y-17322278D01*
X-45624900Y-17347177D01*
X-45611764Y-17372069D01*
X-45598609Y-17396955D01*
X-45585434Y-17421834D01*
X-45572240Y-17446707D01*
X-45559027Y-17471573D01*
X-45545795Y-17496433D01*
X-45532543Y-17521286D01*
X-45519273Y-17546133D01*
X-45505983Y-17570972D01*
X-45492674Y-17595806D01*
X-45479346Y-17620632D01*
X-45465999Y-17645452D01*
X-45452633Y-17670266D01*
X-45439247Y-17695072D01*
X-45425843Y-17719872D01*
X-45412419Y-17744666D01*
X-45398977Y-17769452D01*
X-45385515Y-17794232D01*
X-45372034Y-17819005D01*
X-45358534Y-17843772D01*
X-45345014Y-17868532D01*
X-45331476Y-17893285D01*
X-45317919Y-17918031D01*
X-45304342Y-17942771D01*
X-45290747Y-17967503D01*
X-45277132Y-17992230D01*
X-45263498Y-18016949D01*
X-45249845Y-18041661D01*
X-45236173Y-18066366D01*
X-45222482Y-18091065D01*
X-45208772Y-18115757D01*
X-45195043Y-18140442D01*
X-45181294Y-18165120D01*
X-45167527Y-18189792D01*
X-45153741Y-18214456D01*
X-45139935Y-18239113D01*
X-45126111Y-18263764D01*
X-45112267Y-18288408D01*
X-45098404Y-18313044D01*
X-45084523Y-18337674D01*
X-45070622Y-18362297D01*
X-45056702Y-18386913D01*
X-45042764Y-18411522D01*
X-45028806Y-18436124D01*
X-45014829Y-18460718D01*
X-45000833Y-18485306D01*
X-44986818Y-18509887D01*
X-44972784Y-18534461D01*
X-44958731Y-18559028D01*
X-44944659Y-18583588D01*
X-44930568Y-18608140D01*
X-44916458Y-18632686D01*
X-44902330Y-18657224D01*
X-44888182Y-18681756D01*
X-44874015Y-18706280D01*
X-44859829Y-18730798D01*
X-44845624Y-18755308D01*
X-44831400Y-18779811D01*
X-44817157Y-18804306D01*
X-44802895Y-18828795D01*
X-44788615Y-18853276D01*
X-44774315Y-18877751D01*
X-44759996Y-18902218D01*
X-44745658Y-18926678D01*
X-44731302Y-18951130D01*
X-44716926Y-18975576D01*
X-44702532Y-19000014D01*
X-44688118Y-19024445D01*
X-44673686Y-19048869D01*
X-44659234Y-19073286D01*
X-44644764Y-19097695D01*
X-44630275Y-19122097D01*
X-44615767Y-19146491D01*
X-44601239Y-19170879D01*
X-44586693Y-19195258D01*
X-44572128Y-19219631D01*
X-44557545Y-19243996D01*
X-44542942Y-19268354D01*
X-44528320Y-19292705D01*
X-44513680Y-19317048D01*
X-44499020Y-19341384D01*
X-44484342Y-19365712D01*
X-44469645Y-19390033D01*
X-44454928Y-19414347D01*
X-44440193Y-19438653D01*
X-44425439Y-19462952D01*
X-44410667Y-19487243D01*
X-44395875Y-19511527D01*
X-44381065Y-19535803D01*
X-44366235Y-19560072D01*
X-44351387Y-19584333D01*
X-44336520Y-19608587D01*
X-44321634Y-19632833D01*
X-44306729Y-19657072D01*
X-44291805Y-19681303D01*
X-44276863Y-19705527D01*
X-44261902Y-19729743D01*
X-44246921Y-19753952D01*
X-44231922Y-19778153D01*
X-44216904Y-19802347D01*
X-44201868Y-19826532D01*
X-44186812Y-19850711D01*
X-44171738Y-19874881D01*
X-44156645Y-19899044D01*
X-44141533Y-19923199D01*
X-44126402Y-19947347D01*
X-44111253Y-19971487D01*
X-44096084Y-19995620D01*
X-44080897Y-20019744D01*
X-44065691Y-20043861D01*
X-44050467Y-20067970D01*
X-44035223Y-20092072D01*
X-44019961Y-20116166D01*
X-44004680Y-20140252D01*
X-43989380Y-20164330D01*
X-43974061Y-20188401D01*
X-43958724Y-20212464D01*
X-43943368Y-20236519D01*
X-43927993Y-20260566D01*
X-43912599Y-20284606D01*
X-43897187Y-20308637D01*
X-43881756Y-20332661D01*
X-43866306Y-20356677D01*
X-43850837Y-20380685D01*
X-43835350Y-20404685D01*
X-43819844Y-20428678D01*
X-43804319Y-20452662D01*
X-43788775Y-20476639D01*
X-43773213Y-20500608D01*
X-43757632Y-20524569D01*
X-43742033Y-20548521D01*
X-43726414Y-20572467D01*
X-43698456Y-20615239D01*
D10*
X6350000Y42149164D02*
X6350000Y20750000D01*
D11*
X-32739867Y32089796D02*
X-32789689Y32052989D01*
X-32839453Y32016125D01*
X-32889161Y31979203D01*
X-32938812Y31942225D01*
X-32988405Y31905189D01*
X-33037941Y31868096D01*
X-33087420Y31830946D01*
X-33136841Y31793739D01*
X-33186205Y31756476D01*
X-33235511Y31719156D01*
X-33284759Y31681779D01*
X-33333949Y31644346D01*
X-33383082Y31606857D01*
X-33432156Y31569311D01*
X-33481172Y31531709D01*
X-33530129Y31494051D01*
X-33579029Y31456336D01*
X-33627870Y31418566D01*
X-33676652Y31380741D01*
X-33725376Y31342859D01*
X-33774041Y31304922D01*
X-33822647Y31266929D01*
X-33871194Y31228881D01*
X-33919682Y31190777D01*
X-33968110Y31152619D01*
X-34016480Y31114405D01*
X-34064790Y31076136D01*
X-34113041Y31037812D01*
X-34161232Y30999433D01*
X-34209364Y30961000D01*
X-34257436Y30922512D01*
X-34305448Y30883969D01*
X-34353400Y30845372D01*
X-34401292Y30806720D01*
X-34449124Y30768015D01*
X-34496895Y30729255D01*
X-34544607Y30690441D01*
X-34592257Y30651573D01*
X-34639848Y30612651D01*
X-34687378Y30573676D01*
X-34734847Y30534647D01*
X-34782255Y30495564D01*
X-34829602Y30456428D01*
X-34876889Y30417238D01*
X-34924114Y30377995D01*
X-34971278Y30338700D01*
X-35018381Y30299351D01*
X-35065422Y30259949D01*
X-35112402Y30220494D01*
X-35159320Y30180986D01*
X-35206177Y30141426D01*
X-35252972Y30101814D01*
X-35299705Y30062149D01*
X-35323049Y30042296D01*
X-35346376Y30022431D01*
X-35369689Y30002553D01*
X-35392985Y29982662D01*
X-35416267Y29962757D01*
X-35439532Y29942840D01*
X-35462782Y29922909D01*
X-35486017Y29902966D01*
X-35509236Y29883010D01*
X-35532439Y29863041D01*
X-35555627Y29843058D01*
X-35578799Y29823063D01*
X-35601956Y29803055D01*
X-35625096Y29783034D01*
X-35648222Y29763000D01*
X-35671331Y29742953D01*
X-35694425Y29722893D01*
X-35717503Y29702821D01*
X-35740565Y29682736D01*
X-35763612Y29662638D01*
X-35786643Y29642526D01*
X-35809658Y29622403D01*
X-35832658Y29602266D01*
X-35855641Y29582117D01*
X-35878609Y29561954D01*
X-35901561Y29541780D01*
X-35924498Y29521592D01*
X-35947418Y29501392D01*
X-35970323Y29481178D01*
X-35993212Y29460953D01*
X-36016085Y29440714D01*
X-36038942Y29420463D01*
X-36061783Y29400199D01*
X-36084609Y29379923D01*
X-36107418Y29359634D01*
X-36130212Y29339333D01*
X-36152990Y29319018D01*
X-36175751Y29298691D01*
X-36198497Y29278352D01*
X-36221227Y29258000D01*
X-36243941Y29237635D01*
X-36266639Y29217258D01*
X-36289321Y29196868D01*
X-36311987Y29176467D01*
X-36334637Y29156052D01*
X-36357271Y29135625D01*
X-36379889Y29115185D01*
X-36402490Y29094733D01*
X-36425076Y29074269D01*
X-36447646Y29053792D01*
X-36470200Y29033303D01*
X-36492737Y29012801D01*
X-36515259Y28992287D01*
X-36537764Y28971761D01*
X-36560253Y28951222D01*
X-36582726Y28930671D01*
X-36605183Y28910107D01*
X-36627623Y28889532D01*
X-36650048Y28868943D01*
X-36672456Y28848343D01*
X-36694849Y28827730D01*
X-36717225Y28807106D01*
X-36739585Y28786468D01*
X-36761928Y28765819D01*
X-36784255Y28745157D01*
X-36806566Y28724484D01*
X-36828861Y28703798D01*
X-36851139Y28683100D01*
X-36873402Y28662389D01*
X-36895647Y28641667D01*
X-36917877Y28620932D01*
X-36940090Y28600186D01*
X-36962287Y28579427D01*
X-36984467Y28558656D01*
X-37006632Y28537873D01*
X-37028779Y28517078D01*
X-37050911Y28496271D01*
X-37073026Y28475452D01*
X-37095125Y28454620D01*
X-37117207Y28433778D01*
X-37139273Y28412922D01*
X-37161322Y28392055D01*
X-37183355Y28371176D01*
X-37205371Y28350285D01*
X-37227371Y28329382D01*
X-37249355Y28308467D01*
X-37271322Y28287540D01*
X-37293272Y28266602D01*
X-37315206Y28245651D01*
X-37337123Y28224689D01*
X-37359025Y28203714D01*
X-37380909Y28182728D01*
X-37402777Y28161730D01*
X-37424628Y28140721D01*
X-37446462Y28119699D01*
X-37468280Y28098666D01*
X-37490082Y28077620D01*
X-37511866Y28056564D01*
X-37533635Y28035495D01*
X-37555386Y28014415D01*
X-37577121Y27993323D01*
X-37598839Y27972219D01*
X-37620541Y27951104D01*
X-37642225Y27929977D01*
X-37663893Y27908838D01*
X-37685545Y27887688D01*
X-37707180Y27866526D01*
X-37728797Y27845352D01*
X-37750399Y27824167D01*
X-37771983Y27802970D01*
X-37793551Y27781762D01*
X-37815101Y27760542D01*
X-37836636Y27739311D01*
X-37858153Y27718068D01*
X-37879653Y27696813D01*
X-37901137Y27675548D01*
X-37922604Y27654270D01*
X-37944054Y27632982D01*
X-37965487Y27611681D01*
X-37986903Y27590370D01*
X-38008303Y27569046D01*
X-38029685Y27547712D01*
X-38051051Y27526366D01*
X-38072399Y27505009D01*
X-38093731Y27483640D01*
X-38115046Y27462260D01*
X-38136344Y27440869D01*
X-38157624Y27419466D01*
X-38178888Y27398052D01*
X-38200135Y27376627D01*
X-38221365Y27355191D01*
X-38242578Y27333743D01*
X-38263774Y27312284D01*
X-38284953Y27290814D01*
X-38306115Y27269332D01*
X-38327260Y27247840D01*
X-38348388Y27226336D01*
X-38369498Y27204821D01*
X-38390592Y27183295D01*
X-38411668Y27161758D01*
X-38432728Y27140210D01*
X-38453770Y27118650D01*
X-38474796Y27097080D01*
X-38495804Y27075498D01*
X-38516795Y27053906D01*
X-38537768Y27032302D01*
X-38558725Y27010687D01*
X-38579665Y26989061D01*
X-38600587Y26967425D01*
X-38621492Y26945777D01*
X-38642380Y26924118D01*
X-38663250Y26902449D01*
X-38684104Y26880768D01*
X-38704940Y26859077D01*
X-38725759Y26837374D01*
X-38746561Y26815661D01*
X-38767345Y26793936D01*
X-38788112Y26772202D01*
X-38808862Y26750456D01*
X-38829595Y26728699D01*
X-38850310Y26706931D01*
X-38871008Y26685153D01*
X-38891688Y26663364D01*
X-38912351Y26641564D01*
X-38932997Y26619753D01*
X-38953626Y26597932D01*
X-38974237Y26576099D01*
X-38994831Y26554257D01*
X-39015407Y26532403D01*
X-39035966Y26510539D01*
X-39056507Y26488664D01*
X-39077031Y26466778D01*
X-39097538Y26444882D01*
X-39118027Y26422975D01*
X-39138499Y26401058D01*
X-39158953Y26379130D01*
X-39179390Y26357191D01*
X-39199809Y26335242D01*
X-39220211Y26313282D01*
X-39240595Y26291312D01*
X-39260962Y26269331D01*
X-39281311Y26247340D01*
X-39301642Y26225338D01*
X-39321957Y26203326D01*
X-39342253Y26181303D01*
X-39362532Y26159270D01*
X-39382793Y26137227D01*
X-39403037Y26115173D01*
X-39423263Y26093109D01*
X-39443472Y26071034D01*
X-39463662Y26048949D01*
X-39483836Y26026854D01*
X-39503991Y26004748D01*
X-39524129Y25982632D01*
X-39544249Y25960505D01*
X-39564352Y25938369D01*
X-39584437Y25916222D01*
X-39604504Y25894065D01*
X-39624554Y25871898D01*
X-39644585Y25849720D01*
X-39664599Y25827532D01*
X-39684596Y25805334D01*
X-39704574Y25783126D01*
X-39724535Y25760908D01*
X-39744478Y25738679D01*
X-39764403Y25716441D01*
X-39784310Y25694192D01*
X-39804200Y25671933D01*
X-39824072Y25649664D01*
X-39843926Y25627385D01*
X-39863762Y25605097D01*
X-39883580Y25582797D01*
X-39903381Y25560488D01*
X-39923163Y25538169D01*
X-39942928Y25515840D01*
X-39962675Y25493501D01*
X-39982404Y25471153D01*
X-40002115Y25448794D01*
X-40021808Y25426425D01*
X-40041483Y25404046D01*
X-40061140Y25381658D01*
X-40080780Y25359259D01*
X-40100401Y25336851D01*
X-40120004Y25314433D01*
X-40139590Y25292005D01*
X-40159157Y25269567D01*
X-40178707Y25247119D01*
X-40198238Y25224662D01*
X-40217752Y25202195D01*
X-40237247Y25179718D01*
X-40256724Y25157231D01*
X-40276184Y25134735D01*
X-40295625Y25112229D01*
X-40315048Y25089713D01*
X-40334453Y25067188D01*
X-40353841Y25044653D01*
X-40373209Y25022108D01*
X-40392560Y24999554D01*
X-40411893Y24976990D01*
X-40431208Y24954416D01*
X-40450504Y24931833D01*
X-40469783Y24909240D01*
X-40489043Y24886638D01*
X-40508285Y24864027D01*
X-40527509Y24841405D01*
X-40546715Y24818775D01*
X-40565902Y24796135D01*
X-40585072Y24773485D01*
X-40604223Y24750826D01*
X-40623356Y24728157D01*
X-40642470Y24705479D01*
X-40661567Y24682792D01*
X-40680645Y24660095D01*
X-40699705Y24637389D01*
X-40718747Y24614674D01*
X-40737770Y24591949D01*
X-40756775Y24569215D01*
X-40775762Y24546471D01*
X-40794731Y24523719D01*
X-40813681Y24500957D01*
X-40832613Y24478186D01*
X-40851527Y24455405D01*
X-40870422Y24432616D01*
X-40889299Y24409817D01*
X-40908157Y24387009D01*
X-40926998Y24364191D01*
X-40945820Y24341365D01*
X-40964623Y24318529D01*
X-40983408Y24295685D01*
X-41002175Y24272831D01*
X-41020923Y24249968D01*
X-41039653Y24227096D01*
X-41058364Y24204216D01*
X-41077057Y24181325D01*
X-41095732Y24158427D01*
X-41114388Y24135518D01*
X-41133025Y24112601D01*
X-41151645Y24089675D01*
X-41170245Y24066740D01*
X-41188827Y24043796D01*
X-41207391Y24020844D01*
X-41225936Y23997882D01*
X-41244462Y23974911D01*
X-41262971Y23951931D01*
X-41281460Y23928943D01*
X-41299931Y23905946D01*
X-41318383Y23882940D01*
X-41336817Y23859925D01*
X-41355232Y23836901D01*
X-41373629Y23813868D01*
X-41392007Y23790827D01*
X-41410367Y23767777D01*
X-41428708Y23744719D01*
X-41447030Y23721651D01*
X-41465333Y23698575D01*
X-41483619Y23675490D01*
X-41501885Y23652397D01*
X-41520133Y23629294D01*
X-41538362Y23606184D01*
X-41556572Y23583064D01*
X-41574764Y23559936D01*
X-41592937Y23536799D01*
X-41611091Y23513654D01*
X-41629227Y23490500D01*
X-41647343Y23467338D01*
X-41665442Y23444167D01*
X-41683521Y23420988D01*
X-41701582Y23397800D01*
X-41719623Y23374604D01*
X-41737647Y23351399D01*
X-41755651Y23328186D01*
X-41773637Y23304964D01*
X-41791603Y23281735D01*
X-41809551Y23258496D01*
X-41827480Y23235250D01*
X-41845391Y23211994D01*
X-41863282Y23188731D01*
X-41881155Y23165459D01*
X-41899009Y23142179D01*
X-41916844Y23118890D01*
X-41934660Y23095594D01*
X-41952458Y23072289D01*
X-41970236Y23048976D01*
X-41987996Y23025654D01*
X-42005737Y23002325D01*
X-42023459Y22978987D01*
X-42041161Y22955641D01*
X-42058846Y22932287D01*
X-42076510Y22908925D01*
X-42094157Y22885554D01*
X-42111784Y22862176D01*
X-42129392Y22838789D01*
X-42146981Y22815395D01*
X-42164552Y22791992D01*
X-42182103Y22768581D01*
X-42199636Y22745162D01*
X-42217149Y22721736D01*
X-42234644Y22698301D01*
X-42252119Y22674858D01*
X-42269576Y22651407D01*
X-42287013Y22627949D01*
X-42304431Y22604482D01*
X-42321831Y22581008D01*
X-42339211Y22557525D01*
X-42356572Y22534035D01*
X-42373915Y22510536D01*
X-42391237Y22487031D01*
X-42408542Y22463517D01*
X-42425826Y22439995D01*
X-42443093Y22416466D01*
X-42460339Y22392929D01*
X-42477567Y22369383D01*
X-42494775Y22345831D01*
X-42511965Y22322270D01*
X-42529135Y22298702D01*
X-42546286Y22275126D01*
X-42563418Y22251543D01*
X-42580531Y22227952D01*
X-42597625Y22204353D01*
X-42614700Y22180746D01*
X-42631755Y22157133D01*
X-42648791Y22133510D01*
X-42665808Y22109882D01*
X-42682806Y22086244D01*
X-42699784Y22062600D01*
X-42716744Y22038948D01*
X-42733684Y22015289D01*
X-42750605Y21991622D01*
X-42767506Y21967948D01*
X-42784389Y21944266D01*
X-42801252Y21920577D01*
X-42818096Y21896880D01*
X-42834920Y21873176D01*
X-42851726Y21849464D01*
X-42868512Y21825746D01*
X-42885279Y21802019D01*
X-42902026Y21778286D01*
X-42918754Y21754544D01*
X-42935463Y21730797D01*
X-42952153Y21707041D01*
X-42968823Y21683278D01*
X-42985474Y21659508D01*
X-43002105Y21635731D01*
X-43018718Y21611946D01*
X-43035310Y21588155D01*
X-43051884Y21564355D01*
X-43068438Y21540550D01*
X-43084973Y21516736D01*
X-43101488Y21492916D01*
X-43117984Y21469088D01*
X-43134460Y21445254D01*
X-43150917Y21421412D01*
X-43167355Y21397563D01*
X-43183773Y21373707D01*
X-43200172Y21349844D01*
X-43216552Y21325974D01*
X-43232911Y21302097D01*
X-43249252Y21278213D01*
X-43265573Y21254322D01*
X-43281875Y21230424D01*
X-43298156Y21206520D01*
X-43314419Y21182607D01*
X-43330662Y21158689D01*
X-43346886Y21134763D01*
X-43363090Y21110831D01*
X-43379275Y21086891D01*
X-43395440Y21062946D01*
X-43411586Y21038992D01*
X-43427711Y21015033D01*
X-43443818Y20991066D01*
X-43459905Y20967093D01*
X-43475973Y20943112D01*
X-43492020Y20919126D01*
X-43508049Y20895132D01*
X-43524057Y20871132D01*
X-43540047Y20847125D01*
X-43556016Y20823111D01*
X-43571966Y20799091D01*
X-43587896Y20775064D01*
X-43603807Y20751030D01*
X-43619698Y20726990D01*
X-43635570Y20702943D01*
X-43651422Y20678890D01*
X-43667254Y20654830D01*
X-43683067Y20630764D01*
X-43698860Y20606690D01*
X-43714633Y20582611D01*
X-43730387Y20558525D01*
X-43746121Y20534433D01*
X-43761836Y20510333D01*
X-43777530Y20486229D01*
X-43793205Y20462116D01*
X-43808860Y20437999D01*
X-43824496Y20413873D01*
X-43840112Y20389743D01*
X-43855708Y20365605D01*
X-43871284Y20341462D01*
X-43886842Y20317312D01*
X-43902378Y20293156D01*
X-43917896Y20268993D01*
X-43933393Y20244824D01*
X-43948871Y20220649D01*
X-43964329Y20196468D01*
X-43979768Y20172280D01*
X-43995186Y20148087D01*
X-44010585Y20123886D01*
X-44025964Y20099681D01*
X-44041323Y20075468D01*
X-44056662Y20051250D01*
X-44071982Y20027025D01*
X-44087282Y20002795D01*
X-44102562Y19978557D01*
X-44117822Y19954315D01*
X-44133063Y19930066D01*
X-44148283Y19905811D01*
X-44163484Y19881550D01*
X-44178665Y19857283D01*
X-44193826Y19833010D01*
X-44208967Y19808732D01*
X-44224089Y19784446D01*
X-44239190Y19760156D01*
X-44254272Y19735859D01*
X-44269333Y19711557D01*
X-44284375Y19687248D01*
X-44299397Y19662934D01*
X-44314399Y19638613D01*
X-44329381Y19614288D01*
X-44344344Y19589955D01*
X-44359286Y19565618D01*
X-44374208Y19541274D01*
X-44389111Y19516925D01*
X-44403994Y19492570D01*
X-44418856Y19468210D01*
X-44433699Y19443842D01*
X-44448521Y19419471D01*
X-44463325Y19395092D01*
X-44478107Y19370710D01*
X-44492870Y19346320D01*
X-44507613Y19321926D01*
X-44522336Y19297524D01*
X-44537039Y19273119D01*
X-44551722Y19248707D01*
X-44566385Y19224290D01*
X-44581028Y19199867D01*
X-44595651Y19175439D01*
X-44610254Y19151005D01*
X-44624837Y19126566D01*
X-44639400Y19102121D01*
X-44653943Y19077671D01*
X-44668466Y19053215D01*
X-44682969Y19028754D01*
X-44697452Y19004287D01*
X-44711914Y18979816D01*
X-44726357Y18955338D01*
X-44740780Y18930856D01*
X-44755183Y18906367D01*
X-44769565Y18881874D01*
X-44783928Y18857375D01*
X-44798270Y18832871D01*
X-44812593Y18808361D01*
X-44826895Y18783847D01*
X-44841177Y18759327D01*
X-44855439Y18734802D01*
X-44869681Y18710271D01*
X-44883903Y18685737D01*
X-44898105Y18661195D01*
X-44912286Y18636650D01*
X-44926448Y18612098D01*
X-44940589Y18587543D01*
X-44954711Y18562981D01*
X-44968812Y18538415D01*
X-44982893Y18513843D01*
X-44996953Y18489267D01*
X-45010995Y18464685D01*
X-45025015Y18440099D01*
X-45039016Y18415506D01*
X-45052995Y18390911D01*
X-45066956Y18366308D01*
X-45080895Y18341702D01*
X-45094815Y18317090D01*
X-45108714Y18292474D01*
X-45122594Y18267852D01*
X-45136453Y18243226D01*
X-45150292Y18218594D01*
X-45164111Y18193959D01*
X-45177910Y18169317D01*
X-45191687Y18144672D01*
X-45205446Y18120021D01*
X-45219183Y18095366D01*
X-45232901Y18070705D01*
X-45246598Y18046041D01*
X-45260276Y18021371D01*
X-45273932Y17996697D01*
X-45287570Y17972017D01*
X-45301186Y17947334D01*
X-45314782Y17922644D01*
X-45328358Y17897952D01*
X-45341914Y17873253D01*
X-45355449Y17848552D01*
X-45368964Y17823843D01*
X-45382459Y17799133D01*
X-45395934Y17774415D01*
X-45409387Y17749695D01*
X-45422822Y17724969D01*
X-45436235Y17700240D01*
X-45449629Y17675504D01*
X-45463002Y17650766D01*
X-45476355Y17626021D01*
X-45489687Y17601274D01*
X-45502999Y17576521D01*
X-45516291Y17551765D01*
X-45529563Y17527003D01*
X-45542813Y17502238D01*
X-45556045Y17477467D01*
X-45569255Y17452693D01*
X-45582445Y17427913D01*
X-45595615Y17403131D01*
X-45608765Y17378342D01*
X-45621893Y17353551D01*
X-45635002Y17328754D01*
X-45648090Y17303954D01*
X-45661159Y17279149D01*
X-45674206Y17254341D01*
X-45687234Y17229526D01*
X-45700240Y17204710D01*
X-45713227Y17179887D01*
X-45726193Y17155062D01*
X-45739139Y17130232D01*
X-45752064Y17105398D01*
X-45764969Y17080559D01*
X-45777853Y17055718D01*
X-45790718Y17030870D01*
X-45803561Y17006021D01*
X-45816385Y16981165D01*
X-45829188Y16956307D01*
X-45841971Y16931444D01*
X-45854732Y16906578D01*
X-45867474Y16881706D01*
X-45880195Y16856832D01*
X-45892896Y16831953D01*
X-45905576Y16807071D01*
X-45918236Y16782183D01*
X-45930875Y16757294D01*
X-45943495Y16732399D01*
X-45956093Y16707501D01*
X-45968672Y16682598D01*
X-45981229Y16657693D01*
X-45993766Y16632782D01*
X-46006283Y16607869D01*
X-46018779Y16582951D01*
X-46031255Y16558031D01*
X-46043710Y16533105D01*
X-46056145Y16508177D01*
X-46068559Y16483243D01*
X-46080953Y16458308D01*
X-46093327Y16433367D01*
X-46105679Y16408424D01*
X-46118012Y16383476D01*
X-46130323Y16358526D01*
X-46142615Y16333570D01*
X-46154885Y16308613D01*
X-46167136Y16283650D01*
X-46179365Y16258685D01*
X-46191575Y16233715D01*
X-46203763Y16208743D01*
X-46215932Y16183766D01*
X-46228079Y16158787D01*
X-46240207Y16133803D01*
X-46252313Y16108817D01*
X-46264400Y16083826D01*
X-46276465Y16058833D01*
X-46288510Y16033835D01*
X-46300534Y16008836D01*
X-46312539Y15983830D01*
X-46324522Y15958824D01*
X-46336485Y15933812D01*
X-46348427Y15908799D01*
X-46360349Y15883780D01*
X-46372250Y15858760D01*
X-46384131Y15833735D01*
X-46395990Y15808709D01*
X-46407830Y15783677D01*
X-46419649Y15758644D01*
X-46431447Y15733605D01*
X-46443225Y15708566D01*
X-46454982Y15683521D01*
X-46466718Y15658475D01*
X-46478435Y15633423D01*
X-46490130Y15608371D01*
X-46501805Y15583313D01*
X-46512989Y15559265D01*
X-4962945Y-42289222D02*
X-4895699Y-42294908D01*
X-4828429Y-42300515D01*
X-4761136Y-42306045D01*
X-4693821Y-42311495D01*
X-4626483Y-42316868D01*
X-4559122Y-42322162D01*
X-4491739Y-42327377D01*
X-4424334Y-42332514D01*
X-4356907Y-42337572D01*
X-4289458Y-42342552D01*
X-4221988Y-42347453D01*
X-4154497Y-42352276D01*
X-4086984Y-42357020D01*
X-4019451Y-42361685D01*
X-3951896Y-42366271D01*
X-3884322Y-42370779D01*
X-3816726Y-42375207D01*
X-3749111Y-42379557D01*
X-3681476Y-42383828D01*
X-3613821Y-42388020D01*
X-3546146Y-42392134D01*
X-3478453Y-42396168D01*
X-3410740Y-42400123D01*
X-3343008Y-42403999D01*
X-3275257Y-42407796D01*
X-3207488Y-42411514D01*
X-3139700Y-42415153D01*
X-3071894Y-42418713D01*
X-3004070Y-42422194D01*
X-2936229Y-42425595D01*
X-2868370Y-42428918D01*
X-2800493Y-42432161D01*
X-2732600Y-42435324D01*
X-2664689Y-42438409D01*
X-2596762Y-42441414D01*
X-2528819Y-42444340D01*
X-2460858Y-42447186D01*
X-2392882Y-42449953D01*
X-2324890Y-42452641D01*
X-2256882Y-42455249D01*
X-2188859Y-42457778D01*
X-2120820Y-42460227D01*
X-2052766Y-42462597D01*
X-1984698Y-42464887D01*
X-1916614Y-42467098D01*
X-1848517Y-42469229D01*
X-1780404Y-42471280D01*
X-1712278Y-42473252D01*
X-1644138Y-42475145D01*
X-1575984Y-42476957D01*
X-1507817Y-42478690D01*
X-1439637Y-42480344D01*
X-1371444Y-42481917D01*
X-1303237Y-42483411D01*
X-1235018Y-42484825D01*
X-1166787Y-42486160D01*
X-1098544Y-42487414D01*
X-1030288Y-42488589D01*
X-962021Y-42489684D01*
X-893743Y-42490699D01*
X-825453Y-42491635D01*
X-757151Y-42492490D01*
X-688839Y-42493266D01*
X-620517Y-42493962D01*
X-552183Y-42494578D01*
X-483840Y-42495114D01*
X-415486Y-42495570D01*
X-347123Y-42495946D01*
X-278750Y-42496242D01*
X-210367Y-42496458D01*
X-141975Y-42496595D01*
X-73575Y-42496651D01*
X-5165Y-42496627D01*
X63253Y-42496524D01*
X131679Y-42496340D01*
X200114Y-42496076D01*
X268556Y-42495732D01*
X337006Y-42495309D01*
X405464Y-42494805D01*
X473929Y-42494221D01*
X542401Y-42493557D01*
X610880Y-42492813D01*
X679365Y-42491989D01*
X747857Y-42491085D01*
X816355Y-42490101D01*
X884859Y-42489036D01*
X953368Y-42487892D01*
X1021884Y-42486667D01*
X1090404Y-42485363D01*
X1158930Y-42483978D01*
X1227460Y-42482513D01*
X1295995Y-42480968D01*
X1364535Y-42479343D01*
X1433079Y-42477638D01*
X1501626Y-42475853D01*
X1570178Y-42473987D01*
X1638733Y-42472042D01*
X1707291Y-42470016D01*
X1775853Y-42467910D01*
X1844417Y-42465724D01*
X1912984Y-42463458D01*
X1981554Y-42461112D01*
X2050125Y-42458686D01*
X2118699Y-42456180D01*
X2187274Y-42453593D01*
X2255851Y-42450927D01*
X2324430Y-42448180D01*
X2393009Y-42445353D01*
X2461589Y-42442446D01*
X2530170Y-42439459D01*
X2598752Y-42436392D01*
X2667334Y-42433245D01*
X2735915Y-42430018D01*
X2804497Y-42426710D01*
X2873078Y-42423323D01*
X2941658Y-42419855D01*
X3010237Y-42416308D01*
X3078816Y-42412680D01*
X3147393Y-42408973D01*
X3215968Y-42405185D01*
X3284542Y-42401317D01*
X3353113Y-42397370D01*
X3421682Y-42393342D01*
X3490249Y-42389234D01*
X3558813Y-42385047D01*
X3627375Y-42380779D01*
X3695933Y-42376432D01*
X3764487Y-42372004D01*
X3833039Y-42367497D01*
X3901586Y-42362909D01*
X3970129Y-42358242D01*
X4038668Y-42353495D01*
X4107203Y-42348668D01*
X4175732Y-42343761D01*
X4244257Y-42338774D01*
X4312777Y-42333708D01*
X4381291Y-42328561D01*
X4449800Y-42323335D01*
X4518303Y-42318029D01*
X4586799Y-42312644D01*
X4655290Y-42307178D01*
X4723774Y-42301633D01*
X4792251Y-42296008D01*
X4860721Y-42290303D01*
X4929184Y-42284519D01*
X4997640Y-42278655D01*
X5066087Y-42272712D01*
X5134527Y-42266688D01*
X5202959Y-42260586D01*
X5271383Y-42254403D01*
X5339798Y-42248141D01*
X5408204Y-42241800D01*
X5476601Y-42235379D01*
X5544989Y-42228879D01*
X5613368Y-42222299D01*
X5681737Y-42215640D01*
X5750095Y-42208901D01*
X5818444Y-42202083D01*
X5886783Y-42195185D01*
X5955110Y-42188209D01*
X6023427Y-42181152D01*
X6057582Y-42177595D01*
X6091733Y-42174017D01*
X6125882Y-42170420D01*
X6160028Y-42166802D01*
X6194171Y-42163165D01*
X6228311Y-42159509D01*
X6262448Y-42155832D01*
X6296582Y-42152136D01*
X6330714Y-42148419D01*
X6364842Y-42144683D01*
X6398967Y-42140927D01*
X6433089Y-42137152D01*
X6467208Y-42133357D01*
X6501324Y-42129541D01*
X6535437Y-42125707D01*
X6569546Y-42121852D01*
X6603652Y-42117977D01*
X6637755Y-42114083D01*
X6671855Y-42110169D01*
X6705952Y-42106236D01*
X6740045Y-42102282D01*
X6774135Y-42098309D01*
X6808221Y-42094316D01*
X6842304Y-42090303D01*
X6876384Y-42086271D01*
X6910460Y-42082219D01*
X6944532Y-42078147D01*
X6978601Y-42074055D01*
X7012667Y-42069944D01*
X7046729Y-42065813D01*
X7080787Y-42061662D01*
X7114842Y-42057492D01*
X7148893Y-42053302D01*
X7182940Y-42049092D01*
X7216984Y-42044862D01*
X7251024Y-42040613D01*
X7285060Y-42036344D01*
X7319092Y-42032056D01*
X7353120Y-42027748D01*
X7387145Y-42023420D01*
X7421166Y-42019072D01*
X7455182Y-42014705D01*
X7489195Y-42010318D01*
X7523204Y-42005911D01*
X7557209Y-42001485D01*
X7591210Y-41997039D01*
X7625206Y-41992574D01*
X7659199Y-41988089D01*
X7693187Y-41983584D01*
X7727172Y-41979060D01*
X7761152Y-41974516D01*
X7795128Y-41969952D01*
X7829100Y-41965369D01*
X7863068Y-41960766D01*
X7897031Y-41956144D01*
X7930990Y-41951502D01*
X7964944Y-41946840D01*
X7998894Y-41942159D01*
X8032840Y-41937458D01*
X8066782Y-41932738D01*
X8100718Y-41927998D01*
X8134651Y-41923238D01*
X8168579Y-41918459D01*
X8202502Y-41913661D01*
X8236421Y-41908843D01*
X8270335Y-41904005D01*
X8304245Y-41899148D01*
X8338150Y-41894271D01*
X8372050Y-41889374D01*
X8405946Y-41884459D01*
X8439837Y-41879523D01*
X8473723Y-41874568D01*
X8507604Y-41869594D01*
X8541481Y-41864600D01*
X8575352Y-41859587D01*
X8609219Y-41854554D01*
X8643081Y-41849501D01*
X8676938Y-41844429D01*
X8710790Y-41839338D01*
X8744637Y-41834227D01*
X8778479Y-41829097D01*
X8812316Y-41823947D01*
X8846147Y-41818778D01*
X8879975Y-41813589D01*
X8913796Y-41808381D01*
X8947613Y-41803153D01*
X8981424Y-41797906D01*
X9015230Y-41792640D01*
X9049031Y-41787354D01*
X9082827Y-41782048D01*
X9116617Y-41776724D01*
X9150402Y-41771380D01*
X9184181Y-41766016D01*
X9217956Y-41760633D01*
X9251724Y-41755231D01*
X9285488Y-41749809D01*
X9319246Y-41744368D01*
X9352999Y-41738908D01*
X9386745Y-41733428D01*
X9420487Y-41727929D01*
X9454223Y-41722410D01*
X9487954Y-41716872D01*
X9521678Y-41711315D01*
X9555397Y-41705738D01*
X9589110Y-41700142D01*
X9622818Y-41694527D01*
X9656520Y-41688893D01*
X9690216Y-41683239D01*
X9723906Y-41677565D01*
X9757591Y-41671873D01*
X9791269Y-41666161D01*
X9824943Y-41660430D01*
X9858609Y-41654680D01*
X9892271Y-41648910D01*
X9925925Y-41643121D01*
X9959575Y-41637313D01*
X9993217Y-41631486D01*
X10026855Y-41625639D01*
X10060485Y-41619773D01*
X10094111Y-41613888D01*
X10127729Y-41607983D01*
X10161342Y-41602060D01*
X10194948Y-41596117D01*
X10228549Y-41590155D01*
X10262142Y-41584173D01*
X10295731Y-41578173D01*
X10329312Y-41572153D01*
X10362887Y-41566114D01*
X10396456Y-41560056D01*
X10430019Y-41553979D01*
X10463574Y-41547883D01*
X10497125Y-41541767D01*
X10530667Y-41535632D01*
X10564205Y-41529478D01*
X10597734Y-41523306D01*
X10631259Y-41517113D01*
X10664775Y-41510902D01*
X10698286Y-41504672D01*
X10731790Y-41498422D01*
X10765288Y-41492153D01*
X10798778Y-41485866D01*
X10832262Y-41479559D01*
X10865739Y-41473233D01*
X10899210Y-41466888D01*
X10932673Y-41460524D01*
X10966131Y-41454141D01*
X10999580Y-41447739D01*
X11033024Y-41441317D01*
X11066460Y-41434877D01*
X11099890Y-41428418D01*
X11133312Y-41421940D01*
X11166728Y-41415442D01*
X11200136Y-41408926D01*
X11233539Y-41402390D01*
X11266932Y-41395836D01*
X11300321Y-41389263D01*
X11333700Y-41382670D01*
X11367074Y-41376059D01*
X11400440Y-41369429D01*
X11433799Y-41362779D01*
X11467150Y-41356111D01*
X11500496Y-41349424D01*
X11533832Y-41342718D01*
X11567163Y-41335993D01*
X11600485Y-41329249D01*
X11633801Y-41322486D01*
X11667108Y-41315704D01*
X11700410Y-41308903D01*
X11733702Y-41302083D01*
X11766989Y-41295245D01*
X11800266Y-41288387D01*
X11833538Y-41281511D01*
X11866800Y-41274616D01*
X11900057Y-41267702D01*
X11933304Y-41260769D01*
X11966545Y-41253817D01*
X11999778Y-41246847D01*
X12033004Y-41239857D01*
X12066220Y-41232849D01*
X12099431Y-41225822D01*
X12132632Y-41218776D01*
X12165828Y-41211711D01*
X12199013Y-41204628D01*
X12232193Y-41197525D01*
X12265363Y-41190405D01*
X12298527Y-41183265D01*
X12331681Y-41176106D01*
X12364830Y-41168929D01*
X12397968Y-41161733D01*
X12431100Y-41154518D01*
X12464223Y-41147285D01*
X12497339Y-41140032D01*
X12530445Y-41132762D01*
X12563546Y-41125472D01*
X12596636Y-41118164D01*
X12629720Y-41110836D01*
X12662794Y-41103491D01*
X12695861Y-41096126D01*
X12728919Y-41088743D01*
X12761970Y-41081341D01*
X12795011Y-41073921D01*
X12828046Y-41066482D01*
X12861070Y-41059025D01*
X12894088Y-41051548D01*
X12927096Y-41044054D01*
X12960097Y-41036540D01*
X12993088Y-41029008D01*
X13026072Y-41021457D01*
X13059046Y-41013888D01*
X13092014Y-41006300D01*
X13124971Y-40998694D01*
X13157921Y-40991069D01*
X13190861Y-40983426D01*
X13223794Y-40975763D01*
X13256717Y-40968083D01*
X13289633Y-40960384D01*
X13322538Y-40952666D01*
X13355437Y-40944930D01*
X13388325Y-40937176D01*
X13421206Y-40929402D01*
X13454077Y-40921611D01*
X13486940Y-40913801D01*
X13519793Y-40905973D01*
X13552639Y-40898125D01*
X13585474Y-40890260D01*
X13618302Y-40882376D01*
X13651119Y-40874474D01*
X13683930Y-40866553D01*
X13716729Y-40858615D01*
X13749522Y-40850657D01*
X13782303Y-40842681D01*
X13815077Y-40834687D01*
X13847840Y-40826674D01*
X13880596Y-40818643D01*
X13913341Y-40810594D01*
X13946079Y-40802526D01*
X13978805Y-40794440D01*
X14011525Y-40786336D01*
X14044233Y-40778213D01*
X14076934Y-40770072D01*
X14109624Y-40761913D01*
X14142306Y-40753735D01*
X14174977Y-40745540D01*
X14207641Y-40737325D01*
X14240293Y-40729093D01*
X14272938Y-40720842D01*
X14305571Y-40712574D01*
X14338197Y-40704286D01*
X14370812Y-40695981D01*
X14403419Y-40687657D01*
X14436014Y-40679316D01*
X14468602Y-40670955D01*
X14501179Y-40662578D01*
X14533748Y-40654181D01*
X14566304Y-40645767D01*
X14598854Y-40637334D01*
X14631392Y-40628883D01*
X14663922Y-40620414D01*
X14696440Y-40611927D01*
X14728951Y-40603421D01*
X14761450Y-40594898D01*
X14793941Y-40586356D01*
X14826420Y-40577797D01*
X14858892Y-40569219D01*
X14891351Y-40560624D01*
X14923803Y-40552009D01*
X14956242Y-40543378D01*
X14988674Y-40534728D01*
X15021094Y-40526060D01*
X15053506Y-40517374D01*
X15085905Y-40508670D01*
X15118297Y-40499947D01*
X15150676Y-40491208D01*
X15183048Y-40482449D01*
X15215407Y-40473674D01*
X15247759Y-40464879D01*
X15280098Y-40456068D01*
X15312429Y-40447237D01*
X15344747Y-40438390D01*
X15377058Y-40429524D01*
X15409356Y-40420640D01*
X15441646Y-40411738D01*
X15473924Y-40402819D01*
X15506193Y-40393881D01*
X15538450Y-40384926D01*
X15570699Y-40375953D01*
X15602935Y-40366962D01*
X15635163Y-40357953D01*
X15667378Y-40348926D01*
X15699585Y-40339881D01*
X15731779Y-40330819D01*
X15763965Y-40321738D01*
X15796138Y-40312641D01*
X15828303Y-40303525D01*
X15860454Y-40294391D01*
X15892598Y-40285239D01*
X15924729Y-40276071D01*
X15956851Y-40266883D01*
X15988960Y-40257679D01*
X16021061Y-40248456D01*
X16053149Y-40239216D01*
X16085229Y-40229958D01*
X16117295Y-40220683D01*
X16149353Y-40211389D01*
X16181397Y-40202079D01*
X16213434Y-40192749D01*
X16245456Y-40183404D01*
X16277471Y-40174039D01*
X16309472Y-40164658D01*
X16341464Y-40155258D01*
X16373443Y-40145842D01*
X16405414Y-40136407D01*
X16437371Y-40126955D01*
X16469320Y-40117485D01*
X16501255Y-40107998D01*
X16533181Y-40098493D01*
X16565094Y-40088971D01*
X16596998Y-40079431D01*
X16628888Y-40069874D01*
X16660771Y-40060298D01*
X16692638Y-40050706D01*
X16724498Y-40041095D01*
X16756343Y-40031468D01*
X16788181Y-40021823D01*
X16820003Y-40012161D01*
X16851818Y-40002480D01*
X16883618Y-39992783D01*
X16915410Y-39983068D01*
X16947188Y-39973336D01*
X16978957Y-39963586D01*
X17010711Y-39953819D01*
X17042457Y-39944034D01*
X17074189Y-39934233D01*
X17105912Y-39924413D01*
X17137621Y-39914576D01*
X17169321Y-39904722D01*
X17201007Y-39894851D01*
X17232684Y-39884962D01*
X17264346Y-39875056D01*
X17296000Y-39865132D01*
X17327639Y-39855192D01*
X17359270Y-39845233D01*
X17390885Y-39835258D01*
X17422492Y-39825265D01*
X17454085Y-39815256D01*
X17485668Y-39805228D01*
X17517237Y-39795184D01*
X17548797Y-39785122D01*
X17580342Y-39775044D01*
X17611878Y-39764947D01*
X17643399Y-39754834D01*
X17674912Y-39744703D01*
X17706410Y-39734556D01*
X17737898Y-39724391D01*
X17769372Y-39714210D01*
X17800837Y-39704010D01*
X17832286Y-39693794D01*
X17863727Y-39683560D01*
X17895152Y-39673310D01*
X17926569Y-39663042D01*
X17957970Y-39652758D01*
X17989363Y-39642456D01*
X18020740Y-39632138D01*
X18052108Y-39621801D01*
X18083461Y-39611449D01*
X18114805Y-39601078D01*
X18146133Y-39590692D01*
X18177452Y-39580287D01*
X18208756Y-39569867D01*
X18240051Y-39559428D01*
X18271330Y-39548974D01*
X18302600Y-39538501D01*
X18333855Y-39528013D01*
X18365100Y-39517506D01*
X18396330Y-39506984D01*
X18427551Y-39496444D01*
X18458756Y-39485888D01*
X18489951Y-39475314D01*
X18521131Y-39464724D01*
X18552302Y-39454116D01*
X18583457Y-39443492D01*
X18614603Y-39432851D01*
X18645733Y-39422194D01*
X18676853Y-39411518D01*
X18707958Y-39400827D01*
X18739054Y-39390118D01*
X18770133Y-39379394D01*
X18801203Y-39368651D01*
X18832257Y-39357893D01*
X18863302Y-39347117D01*
X18894330Y-39336325D01*
X18925350Y-39325516D01*
X18934305Y-39322391D01*
X-6350000Y42150695D02*
X-6383916Y42147014D01*
X-6417828Y42143313D01*
X-6451733Y42139593D01*
X-6485635Y42135853D01*
X-6519528Y42132094D01*
X-6553419Y42128315D01*
X-6587302Y42124517D01*
X-6621181Y42120699D01*
X-6655053Y42116862D01*
X-6688921Y42113005D01*
X-6722781Y42109129D01*
X-6756638Y42105233D01*
X-6790486Y42101318D01*
X-6824332Y42097384D01*
X-6858169Y42093430D01*
X-6892003Y42089456D01*
X-6925828Y42085463D01*
X-6959650Y42081451D01*
X-6993464Y42077419D01*
X-7027274Y42073367D01*
X-7061076Y42069297D01*
X-7094875Y42065206D01*
X-7128665Y42061097D01*
X-7162451Y42056968D01*
X-7196229Y42052819D01*
X-7230004Y42048651D01*
X-7263769Y42044464D01*
X-7297532Y42040257D01*
X-7331285Y42036031D01*
X-7365035Y42031786D01*
X-7398776Y42027521D01*
X-7432513Y42023237D01*
X-7466242Y42018933D01*
X-7499967Y42014610D01*
X-7533683Y42010268D01*
X-7567395Y42005906D01*
X-7601099Y42001525D01*
X-7634798Y41997125D01*
X-7668489Y41992705D01*
X-7702176Y41988266D01*
X-7735854Y41983808D01*
X-7769527Y41979330D01*
X-7803192Y41974833D01*
X-7836853Y41970317D01*
X-7870505Y41965782D01*
X-7904152Y41961227D01*
X-7937791Y41956653D01*
X-7971425Y41952059D01*
X-8005050Y41947446D01*
X-8038671Y41942814D01*
X-8072283Y41938163D01*
X-8105891Y41933492D01*
X-8139489Y41928803D01*
X-8173083Y41924094D01*
X-8206668Y41919366D01*
X-8240248Y41914618D01*
X-8273819Y41909851D01*
X-8307386Y41905065D01*
X-8340943Y41900260D01*
X-8374496Y41895436D01*
X-8408039Y41890592D01*
X-8441578Y41885729D01*
X-8475107Y41880847D01*
X-8508632Y41875946D01*
X-8542147Y41871026D01*
X-8575658Y41866086D01*
X-8609159Y41861128D01*
X-8642656Y41856150D01*
X-8676142Y41851153D01*
X-8709624Y41846136D01*
X-8743096Y41841101D01*
X-8776564Y41836047D01*
X-8810022Y41830973D01*
X-8843475Y41825880D01*
X-8876918Y41820769D01*
X-8910356Y41815638D01*
X-8943785Y41810488D01*
X-8977208Y41805318D01*
X-9010622Y41800130D01*
X-9044031Y41794923D01*
X-9077429Y41789697D01*
X-9110823Y41784451D01*
X-9144207Y41779187D01*
X-9177586Y41773903D01*
X-9210954Y41768600D01*
X-9244318Y41763278D01*
X-9277671Y41757938D01*
X-9311020Y41752578D01*
X-9344358Y41747199D01*
X-9377691Y41741801D01*
X-9411013Y41736385D01*
X-9444331Y41730948D01*
X-9477638Y41725494D01*
X-9510940Y41720020D01*
X-9544232Y41714527D01*
X-9577518Y41709015D01*
X-9610794Y41703485D01*
X-9644065Y41697935D01*
X-9677325Y41692366D01*
X-9710580Y41686778D01*
X-9743824Y41681172D01*
X-9777063Y41675546D01*
X-9810291Y41669902D01*
X-9843514Y41664238D01*
X-9876726Y41658556D01*
X-9909933Y41652855D01*
X-9943128Y41647135D01*
X-9976319Y41641395D01*
X-10009498Y41635638D01*
X-10042673Y41629861D01*
X-10075836Y41624065D01*
X-10108994Y41618250D01*
X-10142140Y41612417D01*
X-10175282Y41606565D01*
X-10208412Y41600694D01*
X-10241537Y41594803D01*
X-10274650Y41588895D01*
X-10307758Y41582967D01*
X-10340855Y41577021D01*
X-10373946Y41571055D01*
X-10407026Y41565072D01*
X-10440101Y41559068D01*
X-10473163Y41553047D01*
X-10506221Y41547006D01*
X-10539267Y41540947D01*
X-10572307Y41534869D01*
X-10605336Y41528773D01*
X-10638359Y41522657D01*
X-10671370Y41516523D01*
X-10704376Y41510370D01*
X-10737370Y41504198D01*
X-10770359Y41498008D01*
X-10803336Y41491799D01*
X-10836307Y41485571D01*
X-10869266Y41479324D01*
X-10902220Y41473059D01*
X-10935161Y41466775D01*
X-10968097Y41460472D01*
X-11001021Y41454151D01*
X-11033939Y41447811D01*
X-11066845Y41441453D01*
X-11099746Y41435075D01*
X-11132634Y41428680D01*
X-11165516Y41422265D01*
X-11198387Y41415832D01*
X-11231251Y41409380D01*
X-11264103Y41402910D01*
X-11296950Y41396421D01*
X-11329783Y41389913D01*
X-11362612Y41383387D01*
X-11395427Y41376843D01*
X-11428237Y41370279D01*
X-11442611Y41367397D01*
X-46512989Y15559265D02*
X-46524718Y15533998D01*
X-46536428Y15508726D01*
X-46548118Y15483448D01*
X-46559789Y15458165D01*
X-46571440Y15432876D01*
X-46583072Y15407581D01*
X-46594685Y15382281D01*
X-46606278Y15356975D01*
X-46617851Y15331663D01*
X-46629405Y15306346D01*
X-46640940Y15281023D01*
X-46652455Y15255695D01*
X-46663951Y15230361D01*
X-46675428Y15205022D01*
X-46686885Y15179677D01*
X-46698322Y15154327D01*
X-46709740Y15128971D01*
X-46721139Y15103610D01*
X-46732518Y15078243D01*
X-46743878Y15052871D01*
X-46755218Y15027493D01*
X-46766539Y15002110D01*
X-46777840Y14976721D01*
X-46789122Y14951327D01*
X-46800384Y14925927D01*
X-46811627Y14900522D01*
X-46822850Y14875112D01*
X-46834054Y14849696D01*
X-46845239Y14824275D01*
X-46856404Y14798849D01*
X-46867549Y14773417D01*
X-46878675Y14747980D01*
X-46889781Y14722537D01*
X-46900868Y14697089D01*
X-46911936Y14671636D01*
X-46922984Y14646177D01*
X-46934012Y14620713D01*
X-46945021Y14595245D01*
X-46956011Y14569770D01*
X-46966981Y14544291D01*
X-46977931Y14518805D01*
X-46988862Y14493315D01*
X-46999774Y14467820D01*
X-47010665Y14442319D01*
X-47021538Y14416813D01*
X-47032391Y14391303D01*
X-47043224Y14365786D01*
X-47054038Y14340265D01*
X-47064832Y14314738D01*
X-47075607Y14289207D01*
X-47086362Y14263670D01*
X-47097098Y14238128D01*
X-47107814Y14212580D01*
X-47118511Y14187028D01*
X-47129188Y14161471D01*
X-47139845Y14135908D01*
X-47150483Y14110341D01*
X-47161102Y14084768D01*
X-47171701Y14059190D01*
X-47182280Y14033607D01*
X-47192840Y14008019D01*
X-47203380Y13982427D01*
X-47213901Y13956829D01*
X-47224402Y13931226D01*
X-47234883Y13905618D01*
X-47245345Y13880005D01*
X-47255788Y13854387D01*
X-47266210Y13828764D01*
X-47276614Y13803136D01*
X-47286997Y13777504D01*
X-47297362Y13751866D01*
X-47307706Y13726223D01*
X-47318031Y13700575D01*
X-47328336Y13674923D01*
X-47338622Y13649266D01*
X-47348888Y13623603D01*
X-47359135Y13597936D01*
X-47369362Y13572264D01*
X-47379570Y13546587D01*
X-47389757Y13520905D01*
X-47399926Y13495219D01*
X-47410074Y13469527D01*
X-47420204Y13443831D01*
X-47430313Y13418130D01*
X-47440403Y13392424D01*
X-47450473Y13366714D01*
X-47460524Y13340998D01*
X-47470555Y13315278D01*
X-47480566Y13289553D01*
X-47490558Y13263824D01*
X-47500530Y13238089D01*
X-47510483Y13212350D01*
X-47520416Y13186606D01*
X-47530329Y13160858D01*
X-47540223Y13135104D01*
X-47550097Y13109347D01*
X-47559951Y13083584D01*
X-47569786Y13057817D01*
X-47579601Y13032045D01*
X-47589397Y13006269D01*
X-47599173Y12980487D01*
X-47608929Y12954702D01*
X-47618666Y12928911D01*
X-47628383Y12903117D01*
X-47638080Y12877317D01*
X-47647758Y12851513D01*
X-47657416Y12825704D01*
X-47667054Y12799891D01*
X-47676673Y12774073D01*
X-47686272Y12748251D01*
X-47695852Y12722424D01*
X-47705411Y12696593D01*
X-47714951Y12670757D01*
X-47724472Y12644917D01*
X-47733973Y12619072D01*
X-47743454Y12593223D01*
X-47752915Y12567369D01*
X-47762357Y12541511D01*
X-47771779Y12515649D01*
X-47781182Y12489782D01*
X-47790565Y12463910D01*
X-47799928Y12438034D01*
X-47809271Y12412154D01*
X-47818595Y12386270D01*
X-47827899Y12360381D01*
X-47837183Y12334488D01*
X-47846448Y12308590D01*
X-47855693Y12282688D01*
X-47864918Y12256782D01*
X-47874124Y12230871D01*
X-47883310Y12204956D01*
X-47892476Y12179037D01*
X-47901623Y12153113D01*
X-47910749Y12127186D01*
X-47919857Y12101253D01*
X-47928944Y12075317D01*
X-47938012Y12049377D01*
X-47947060Y12023432D01*
X-47956088Y11997483D01*
X-47965097Y11971530D01*
X-47974086Y11945572D01*
X-47983055Y11919611D01*
X-47992004Y11893645D01*
X-48000934Y11867675D01*
X-48009844Y11841701D01*
X-48018734Y11815723D01*
X-48027605Y11789740D01*
X-48036456Y11763754D01*
X-48045287Y11737763D01*
X-48054098Y11711769D01*
X-48062890Y11685770D01*
X-48071662Y11659767D01*
X-48080414Y11633760D01*
X-48089146Y11607749D01*
X-48097859Y11581734D01*
X-48106552Y11555715D01*
X-48115225Y11529692D01*
X-48123879Y11503665D01*
X-48132513Y11477634D01*
X-48141127Y11451599D01*
X-48149721Y11425559D01*
X-48158296Y11399516D01*
X-48166850Y11373469D01*
X-48175385Y11347418D01*
X-48183901Y11321363D01*
X-48192396Y11295304D01*
X-48200872Y11269242D01*
X-48209328Y11243175D01*
X-48217764Y11217104D01*
X-48226181Y11191030D01*
X-48234577Y11164952D01*
X-48242954Y11138869D01*
X-48251312Y11112783D01*
X-48259649Y11086693D01*
X-48267967Y11060600D01*
X-48276264Y11034502D01*
X-48284543Y11008401D01*
X-48292801Y10982295D01*
X-48301039Y10956186D01*
X-48309258Y10930074D01*
X-48317457Y10903957D01*
X-48325636Y10877837D01*
X-48333796Y10851713D01*
X-48341935Y10825585D01*
X-48350055Y10799454D01*
X-48358155Y10773318D01*
X-48366236Y10747180D01*
X-48374296Y10721037D01*
X-48382337Y10694891D01*
X-48390358Y10668741D01*
X-48398359Y10642587D01*
X-48406340Y10616430D01*
X-48414302Y10590269D01*
X-48422243Y10564104D01*
X-48430165Y10537936D01*
X-48438067Y10511765D01*
X-48445950Y10485589D01*
X-48453812Y10459410D01*
X-48461655Y10433228D01*
X-48469478Y10407042D01*
X-48477281Y10380852D01*
X-48485064Y10354659D01*
X-48492827Y10328462D01*
X-48500571Y10302262D01*
X-48508295Y10276058D01*
X-48515999Y10249851D01*
X-48523683Y10223640D01*
X-48531347Y10197426D01*
X-48538992Y10171209D01*
X-48546616Y10144987D01*
X-48554221Y10118763D01*
X-48561806Y10092535D01*
X-48569371Y10066304D01*
X-48576917Y10040069D01*
X-48584442Y10013831D01*
X-48591948Y9987589D01*
X-48599434Y9961344D01*
X-48606900Y9935096D01*
X-48614346Y9908844D01*
X-48621773Y9882589D01*
X-48629179Y9856331D01*
X-48636566Y9830069D01*
X-48643933Y9803804D01*
X-48651280Y9777536D01*
X-48658607Y9751264D01*
X-48665914Y9724989D01*
X-48673201Y9698711D01*
X-48680469Y9672429D01*
X-48687717Y9646145D01*
X-48694945Y9619857D01*
X-48702153Y9593566D01*
X-48709341Y9567271D01*
X-48716509Y9540974D01*
X-48723658Y9514673D01*
X-48730786Y9488369D01*
X-48737895Y9462062D01*
X-48744984Y9435752D01*
X-48752053Y9409439D01*
X-48759102Y9383122D01*
X-48766131Y9356802D01*
X-48773141Y9330480D01*
X-48780130Y9304154D01*
X-48787100Y9277825D01*
X-48794050Y9251493D01*
X-48800980Y9225157D01*
X-48807890Y9198819D01*
X-48814780Y9172478D01*
X-48821650Y9146134D01*
X-48828501Y9119786D01*
X-48835331Y9093436D01*
X-48842142Y9067083D01*
X-48848933Y9040726D01*
X-48855704Y9014367D01*
X-48862455Y8988005D01*
X-48869186Y8961639D01*
X-48875897Y8935271D01*
X-48882588Y8908900D01*
X-48889260Y8882526D01*
X-48895911Y8856149D01*
X-48902543Y8829769D01*
X-48909155Y8803386D01*
X-48915747Y8777000D01*
X-48922319Y8750612D01*
X-48928871Y8724220D01*
X-48935403Y8697826D01*
X-48941915Y8671429D01*
X-48948408Y8645029D01*
X-48954880Y8618626D01*
X-48961333Y8592220D01*
X-48967766Y8565812D01*
X-48974178Y8539400D01*
X-48980571Y8512986D01*
X-48986944Y8486570D01*
X-48993297Y8460150D01*
X-48999631Y8433728D01*
X-49005944Y8407303D01*
X-49012237Y8380875D01*
X-49018511Y8354445D01*
X-49024764Y8328011D01*
X-49030998Y8301576D01*
X-49037211Y8275137D01*
X-49043405Y8248696D01*
X-49049579Y8222252D01*
X-49055733Y8195805D01*
X-49061867Y8169356D01*
X-49067981Y8142904D01*
X-49074075Y8116450D01*
X-49080150Y8089993D01*
X-49086204Y8063534D01*
X-49092238Y8037071D01*
X-49098253Y8010607D01*
X-49104247Y7984139D01*
X-49110222Y7957670D01*
X-49116177Y7931197D01*
X-49122111Y7904722D01*
X-49128026Y7878245D01*
X-49133921Y7851765D01*
X-49139796Y7825282D01*
X-49145651Y7798797D01*
X-49151486Y7772310D01*
X-49157301Y7745820D01*
X-49163097Y7719328D01*
X-49168872Y7692833D01*
X-49174627Y7666336D01*
X-49180363Y7639836D01*
X-49186078Y7613334D01*
X-49191774Y7586830D01*
X-49197449Y7560323D01*
X-49203105Y7533814D01*
X-49208741Y7507302D01*
X-49214356Y7480789D01*
X-49219952Y7454272D01*
X-49225528Y7427754D01*
X-49231084Y7401233D01*
X-49236620Y7374710D01*
X-49242136Y7348184D01*
X-49247632Y7321657D01*
X-49253108Y7295127D01*
X-49258564Y7268594D01*
X-49264000Y7242060D01*
X-49269416Y7215523D01*
X-49274813Y7188984D01*
X-49280189Y7162443D01*
X-49285545Y7135899D01*
X-49290882Y7109354D01*
X-49296198Y7082806D01*
X-49301495Y7056256D01*
X-49306771Y7029703D01*
X-49312028Y7003149D01*
X-49317264Y6976592D01*
X-49322481Y6950034D01*
X-49327678Y6923473D01*
X-49332854Y6896910D01*
X-49338011Y6870345D01*
X-49343148Y6843778D01*
X-49348265Y6817209D01*
X-49353361Y6790638D01*
X-49358438Y6764065D01*
X-49363495Y6737489D01*
X-49368532Y6710912D01*
X-49373549Y6684333D01*
X-49378546Y6657751D01*
X-49383523Y6631168D01*
X-49388480Y6604582D01*
X-49393417Y6577995D01*
X-49398334Y6551406D01*
X-49403231Y6524815D01*
X-49408108Y6498221D01*
X-49412965Y6471626D01*
X-49417803Y6445029D01*
X-49422620Y6418430D01*
X-49427417Y6391829D01*
X-49432194Y6365226D01*
X-49436951Y6338622D01*
X-49441689Y6312015D01*
X-49446406Y6285407D01*
X-49451103Y6258796D01*
X-49455780Y6232184D01*
X-49460438Y6205570D01*
X-49465075Y6178954D01*
X-49469692Y6152337D01*
X-49474290Y6125718D01*
X-49478867Y6099097D01*
X-49483425Y6072474D01*
X-49487962Y6045849D01*
X-49492479Y6019222D01*
X-49496977Y5992594D01*
X-49501454Y5965964D01*
X-49505912Y5939333D01*
X-49510349Y5912699D01*
X-49514766Y5886065D01*
X-49519164Y5859428D01*
X-49523541Y5832790D01*
X-49527899Y5806149D01*
X-49532236Y5779508D01*
X-49536554Y5752864D01*
X-49540851Y5726219D01*
X-49545129Y5699573D01*
X-49549386Y5672925D01*
X-49553624Y5646275D01*
X-49557841Y5619624D01*
X-49562039Y5592970D01*
X-49566216Y5566316D01*
X-49570374Y5539660D01*
X-49574511Y5513002D01*
X-49578629Y5486343D01*
X-49582726Y5459683D01*
X-49586804Y5433020D01*
X-49590861Y5406357D01*
X-49594899Y5379691D01*
X-49598916Y5353025D01*
X-49602913Y5326357D01*
X-49606891Y5299687D01*
X-49610848Y5273016D01*
X-49614786Y5246344D01*
X-49618703Y5219670D01*
X-49622601Y5192995D01*
X-49626478Y5166318D01*
X-49630335Y5139640D01*
X-49634173Y5112960D01*
X-49637990Y5086280D01*
X-49641788Y5059597D01*
X-49645565Y5032914D01*
X-49649322Y5006229D01*
X-49653060Y4979543D01*
X-49656777Y4952855D01*
X-49660474Y4926167D01*
X-49664152Y4899476D01*
X-49667809Y4872785D01*
X-49671446Y4846092D01*
X-49675064Y4819399D01*
X-49678661Y4792703D01*
X-49682238Y4766007D01*
X-49685795Y4739309D01*
X-49689333Y4712611D01*
X-49692850Y4685911D01*
X-49696347Y4659209D01*
X-49699824Y4632507D01*
X-49703281Y4605803D01*
X-49706719Y4579099D01*
X-49710136Y4552393D01*
X-49713533Y4525686D01*
X-49716910Y4498978D01*
X-49720267Y4472268D01*
X-49723604Y4445558D01*
X-49726921Y4418846D01*
X-49730218Y4392134D01*
X-49733495Y4365420D01*
X-49736752Y4338706D01*
X-49739989Y4311990D01*
X-49743206Y4285273D01*
X-49746403Y4258555D01*
X-49749580Y4231836D01*
X-49752737Y4205116D01*
X-49755874Y4178396D01*
X-49758990Y4151674D01*
X-49762087Y4124951D01*
X-49765164Y4098227D01*
X-49768221Y4071502D01*
X-49771258Y4044777D01*
X-49774274Y4018050D01*
X-49777271Y3991322D01*
X-49780248Y3964594D01*
X-49783204Y3937865D01*
X-49786141Y3911135D01*
X-49789058Y3884403D01*
X-49791954Y3857672D01*
X-49794831Y3830939D01*
X-49797687Y3804205D01*
X-49800524Y3777470D01*
X-49803340Y3750735D01*
X-49806137Y3723999D01*
X-49808913Y3697262D01*
X-49811670Y3670524D01*
X-49814406Y3643786D01*
X-49817122Y3617046D01*
X-49819819Y3590306D01*
X-49822495Y3563565D01*
X-49825151Y3536824D01*
X-49827788Y3510082D01*
X-49830404Y3483339D01*
X-49833000Y3456595D01*
X-49835576Y3429851D01*
X-49838132Y3403105D01*
X-49840668Y3376360D01*
X-49843185Y3349613D01*
X-49845681Y3322867D01*
X-49848157Y3296119D01*
X-49850613Y3269371D01*
X-49853049Y3242621D01*
X-49855465Y3215872D01*
X-49857861Y3189122D01*
X-49860236Y3162371D01*
X-49862592Y3135620D01*
X-49864928Y3108868D01*
X-49867244Y3082115D01*
X-49869540Y3055363D01*
X-49871816Y3028609D01*
X-49874071Y3001855D01*
X-49876307Y2975100D01*
X-49878523Y2948346D01*
X-49880718Y2921590D01*
X-49882894Y2894834D01*
X-49885049Y2868077D01*
X-49887185Y2841321D01*
X-49889301Y2814563D01*
X-49891396Y2787806D01*
X-49893472Y2761047D01*
X-49895527Y2734289D01*
X-49897562Y2707529D01*
X-49899578Y2680770D01*
X-49901573Y2654010D01*
X-49903549Y2627250D01*
X-49905504Y2600490D01*
X-49907439Y2573729D01*
X-49909354Y2546967D01*
X-49911250Y2520206D01*
X-49913125Y2493444D01*
X-49914980Y2466682D01*
X-49916815Y2439919D01*
X-49918630Y2413157D01*
X-49920425Y2386394D01*
X-49922200Y2359631D01*
X-49923955Y2332867D01*
X-49925690Y2306103D01*
X-49927405Y2279339D01*
X-49929100Y2252575D01*
X-49930775Y2225811D01*
X-49932430Y2199046D01*
X-49934065Y2172281D01*
X-49935680Y2145516D01*
X-49937275Y2118751D01*
X-49938849Y2091986D01*
X-49940404Y2065220D01*
X-49941939Y2038455D01*
X-49943454Y2011689D01*
X-49944948Y1984923D01*
X-49946423Y1958157D01*
X-49947878Y1931392D01*
X-49949312Y1904625D01*
X-49950727Y1877859D01*
X-49952121Y1851093D01*
X-49953496Y1824327D01*
X-49954850Y1797560D01*
X-49956185Y1770794D01*
X-49957499Y1744028D01*
X-49958794Y1717262D01*
X-49960068Y1690495D01*
X-49961323Y1663729D01*
X-49962557Y1636962D01*
X-49963771Y1610196D01*
X-49964966Y1583430D01*
X-49966140Y1556664D01*
X-49967294Y1529898D01*
X-49968428Y1503132D01*
X-49969543Y1476366D01*
X-49970637Y1449600D01*
X-49971711Y1422834D01*
X-49972765Y1396069D01*
X-49973799Y1369304D01*
X-49974813Y1342539D01*
X-49975808Y1315773D01*
X-49976782Y1289008D01*
X-49977736Y1262243D01*
X-49978670Y1235479D01*
X-49979584Y1208714D01*
X-49980478Y1181951D01*
X-49981352Y1155186D01*
X-49982206Y1128423D01*
X-49983040Y1101659D01*
X-49983853Y1074896D01*
X-49984647Y1048133D01*
X-49985421Y1021371D01*
X-49986175Y994608D01*
X-49986909Y967846D01*
X-49987623Y941084D01*
X-49988317Y914323D01*
X-49988990Y887561D01*
X-49989644Y860801D01*
X-49990278Y834040D01*
X-49990892Y807280D01*
X-49991485Y780520D01*
X-49992059Y753761D01*
X-49992613Y727002D01*
X-49993147Y700243D01*
X-49993660Y673485D01*
X-49994154Y646728D01*
X-49994628Y619970D01*
X-49995081Y593213D01*
X-49995515Y566457D01*
X-49995929Y539701D01*
X-49996322Y512945D01*
X-49996696Y486190D01*
X-49997049Y459436D01*
X-49997383Y432682D01*
X-49997697Y405928D01*
X-49997990Y379176D01*
X-49998264Y352423D01*
X-49998517Y325671D01*
X-49998751Y298920D01*
X-49998964Y272169D01*
X-49999158Y245419D01*
X-49999332Y218670D01*
X-49999485Y191920D01*
X-49999619Y165172D01*
X-49999732Y138424D01*
X-49999826Y111677D01*
X-49999899Y84931D01*
X-49999953Y58185D01*
X-49999986Y31440D01*
X-50000000Y0D01*
X33796927Y31287403D02*
X33748575Y31325112D01*
X33700149Y31362777D01*
X33651649Y31400398D01*
X33603075Y31437975D01*
X33554427Y31475508D01*
X33505706Y31512997D01*
X33456911Y31550442D01*
X33408043Y31587842D01*
X33359101Y31625198D01*
X33310086Y31662509D01*
X33260997Y31699775D01*
X33211836Y31736996D01*
X33162602Y31774172D01*
X33113295Y31811302D01*
X33063915Y31848387D01*
X33014463Y31885427D01*
X32964938Y31922421D01*
X32915341Y31959369D01*
X32865672Y31996272D01*
X32815931Y32033128D01*
X32766117Y32069938D01*
X32716232Y32106702D01*
X32666274Y32143419D01*
X32616245Y32180089D01*
X32566145Y32216713D01*
X32515973Y32253290D01*
X32465730Y32289820D01*
X32415415Y32326303D01*
X32365029Y32362739D01*
X32314573Y32399127D01*
X32264045Y32435468D01*
X32213447Y32471761D01*
X32162778Y32508006D01*
X32112039Y32544203D01*
X32061229Y32580353D01*
X32010349Y32616454D01*
X31959399Y32652506D01*
X31908379Y32688511D01*
X31857289Y32724466D01*
X31806129Y32760373D01*
X31754900Y32796231D01*
X31703601Y32832040D01*
X31652232Y32867800D01*
X31600794Y32903511D01*
X31549288Y32939172D01*
X31497712Y32974784D01*
X31446067Y33010346D01*
X31394354Y33045859D01*
X31342571Y33081321D01*
X31290721Y33116734D01*
X31238802Y33152096D01*
X31186814Y33187408D01*
X31134759Y33222669D01*
X31082636Y33257880D01*
X31030444Y33293040D01*
X30978185Y33328150D01*
X30925859Y33363208D01*
X30873465Y33398215D01*
X30821003Y33433171D01*
X30768475Y33468076D01*
X30715879Y33502929D01*
X30663217Y33537731D01*
X30610487Y33572481D01*
X30557691Y33607179D01*
X30504829Y33641825D01*
X30451900Y33676418D01*
X30398904Y33710960D01*
X30345843Y33745449D01*
X30292716Y33779886D01*
X30239523Y33814270D01*
X30186264Y33848601D01*
X30132939Y33882879D01*
X30079550Y33917104D01*
X30026094Y33951276D01*
X29972574Y33985395D01*
X29918989Y34019460D01*
X29865339Y34053472D01*
X29811624Y34087430D01*
X29757845Y34121334D01*
X29704001Y34155184D01*
X29650093Y34188980D01*
X29596120Y34222722D01*
X29542084Y34256409D01*
X29487984Y34290042D01*
X29433820Y34323621D01*
X29379593Y34357145D01*
X29325302Y34390614D01*
X29270948Y34424028D01*
X29216530Y34457386D01*
X29162050Y34490690D01*
X29107507Y34523938D01*
X29052901Y34557131D01*
X28998233Y34590268D01*
X28943502Y34623350D01*
X28888709Y34656375D01*
X28833854Y34689345D01*
X28778937Y34722258D01*
X28723959Y34755115D01*
X28668918Y34787916D01*
X28613816Y34820660D01*
X28558653Y34853348D01*
X28503429Y34885979D01*
X28448143Y34918553D01*
X28392797Y34951070D01*
X28337390Y34983530D01*
X28281922Y35015933D01*
X28226394Y35048279D01*
X28170806Y35080566D01*
X28115158Y35112797D01*
X28059449Y35144969D01*
X28003681Y35177084D01*
X27947854Y35209141D01*
X27891966Y35241139D01*
X27836020Y35273080D01*
X27780014Y35304962D01*
X27723949Y35336786D01*
X27667826Y35368551D01*
X27611643Y35400257D01*
X27555403Y35431904D01*
X27499103Y35463493D01*
X27442746Y35495022D01*
X27386330Y35526492D01*
X27329857Y35557903D01*
X27273326Y35589255D01*
X27216737Y35620547D01*
X27160091Y35651779D01*
X27103388Y35682952D01*
X27046628Y35714064D01*
X26989810Y35745117D01*
X26932936Y35776109D01*
X26876005Y35807041D01*
X26819018Y35837913D01*
X26761975Y35868724D01*
X26704876Y35899474D01*
X26647720Y35930164D01*
X26590509Y35960793D01*
X26533242Y35991361D01*
X26475920Y36021868D01*
X26418542Y36052314D01*
X26361110Y36082698D01*
X26303622Y36113021D01*
X26246080Y36143282D01*
X26188483Y36173482D01*
X26130831Y36203620D01*
X26073126Y36233696D01*
X26015366Y36263709D01*
X25957552Y36293661D01*
X25899685Y36323551D01*
X25841764Y36353378D01*
X25783789Y36383143D01*
X25725762Y36412845D01*
X25667681Y36442484D01*
X25609547Y36472061D01*
X25551360Y36501574D01*
X25493121Y36531025D01*
X25434830Y36560412D01*
X25376486Y36589736D01*
X25318090Y36618997D01*
X25259643Y36648195D01*
X25201143Y36677328D01*
X25142593Y36706398D01*
X25083990Y36735404D01*
X25025337Y36764347D01*
X24966632Y36793225D01*
X24907877Y36822039D01*
X24849071Y36850789D01*
X24790215Y36879474D01*
X24731308Y36908095D01*
X24672351Y36936651D01*
X24613344Y36965143D01*
X24554287Y36993570D01*
X24495181Y37021932D01*
X24436025Y37050229D01*
X24376820Y37078460D01*
X24317566Y37106627D01*
X24258263Y37134728D01*
X24198911Y37162764D01*
X24139511Y37190734D01*
X24080062Y37218639D01*
X24020565Y37246478D01*
X23961021Y37274251D01*
X23901428Y37301958D01*
X23871613Y37315786D01*
X23841787Y37329599D01*
X23811949Y37343394D01*
X23782099Y37357173D01*
X23752238Y37370936D01*
X23722364Y37384682D01*
X23692479Y37398411D01*
X23662582Y37412124D01*
X23632673Y37425820D01*
X23602753Y37439499D01*
X23572820Y37453162D01*
X23542876Y37466809D01*
X23512921Y37480438D01*
X23482954Y37494051D01*
X23452975Y37507647D01*
X23422985Y37521226D01*
X23392983Y37534789D01*
X23362969Y37548335D01*
X23332944Y37561864D01*
X23302908Y37575377D01*
X23272860Y37588872D01*
X23242801Y37602351D01*
X23212730Y37615813D01*
X23182648Y37629259D01*
X23152554Y37642687D01*
X23122450Y37656099D01*
X23092333Y37669494D01*
X23062206Y37682871D01*
X23032067Y37696233D01*
X23001917Y37709577D01*
X22971756Y37722904D01*
X22941583Y37736214D01*
X22911400Y37749508D01*
X22881205Y37762784D01*
X22850999Y37776044D01*
X22820782Y37789286D01*
X22790553Y37802512D01*
X22760314Y37815721D01*
X22730063Y37828912D01*
X22699802Y37842087D01*
X22669530Y37855244D01*
X22639246Y37868385D01*
X22608952Y37881509D01*
X22578646Y37894615D01*
X22548330Y37907704D01*
X22518003Y37920777D01*
X22487665Y37933832D01*
X22457316Y37946870D01*
X22426956Y37959891D01*
X22396586Y37972895D01*
X22366205Y37985882D01*
X22335812Y37998851D01*
X22305410Y38011804D01*
X22274996Y38024739D01*
X22244572Y38037657D01*
X22214137Y38050558D01*
X22183692Y38063442D01*
X22153235Y38076308D01*
X22122769Y38089157D01*
X22092291Y38101989D01*
X22061803Y38114804D01*
X22031305Y38127601D01*
X22000796Y38140382D01*
X21970277Y38153144D01*
X21939747Y38165890D01*
X21909206Y38178618D01*
X21878656Y38191329D01*
X21848095Y38204023D01*
X21817523Y38216699D01*
X21786941Y38229358D01*
X21756349Y38241999D01*
X21725747Y38254623D01*
X21695134Y38267230D01*
X21664511Y38279819D01*
X21633878Y38292391D01*
X21603234Y38304946D01*
X21572581Y38317482D01*
X21541917Y38330002D01*
X21511243Y38342504D01*
X21480559Y38354989D01*
X21449865Y38367456D01*
X21419161Y38379905D01*
X21388447Y38392337D01*
X21357723Y38404752D01*
X21326989Y38417149D01*
X21296244Y38429529D01*
X21265490Y38441891D01*
X21234726Y38454235D01*
X21203952Y38466562D01*
X21173168Y38478871D01*
X21142375Y38491163D01*
X21111571Y38503437D01*
X21080758Y38515693D01*
X21049934Y38527932D01*
X21019102Y38540153D01*
X20988259Y38552356D01*
X20957406Y38564542D01*
X20926544Y38576710D01*
X20895673Y38588861D01*
X20864791Y38600993D01*
X20833900Y38613108D01*
X20802999Y38625206D01*
X20772089Y38637285D01*
X20741169Y38649347D01*
X20710240Y38661391D01*
X20679301Y38673417D01*
X20648353Y38685426D01*
X20617395Y38697417D01*
X20586428Y38709390D01*
X20555451Y38721345D01*
X20524466Y38733282D01*
X20493470Y38745202D01*
X20462466Y38757103D01*
X20431451Y38768987D01*
X20400428Y38780853D01*
X20369395Y38792701D01*
X20338354Y38804532D01*
X20307302Y38816344D01*
X20276243Y38828138D01*
X20245173Y38839915D01*
X20214094Y38851673D01*
X20183006Y38863414D01*
X20151910Y38875137D01*
X20120803Y38886842D01*
X20089689Y38898529D01*
X20058564Y38910198D01*
X20027432Y38921848D01*
X19996289Y38933481D01*
X19965139Y38945096D01*
X19933978Y38956693D01*
X19902810Y38968272D01*
X19871631Y38979833D01*
X19840445Y38991376D01*
X19809249Y39002900D01*
X19778045Y39014407D01*
X19746832Y39025896D01*
X19715610Y39037366D01*
X19684379Y39048819D01*
X19653140Y39060253D01*
X19621891Y39071669D01*
X19590635Y39083067D01*
X19559369Y39094447D01*
X19528095Y39105809D01*
X19496812Y39117153D01*
X19465521Y39128478D01*
X19434221Y39139786D01*
X19402913Y39151075D01*
X19371595Y39162346D01*
X19340270Y39173599D01*
X19308936Y39184833D01*
X19277594Y39196050D01*
X19246242Y39207248D01*
X19214884Y39218428D01*
X19183515Y39229590D01*
X19152140Y39240733D01*
X19120755Y39251858D01*
X19089363Y39262965D01*
X19057961Y39274054D01*
X19026553Y39285124D01*
X18995135Y39296176D01*
X18963710Y39307209D01*
X18932275Y39318225D01*
X18900834Y39329222D01*
X18869383Y39340201D01*
X18837925Y39351161D01*
X18806458Y39362103D01*
X18774984Y39373026D01*
X18743501Y39383932D01*
X18712011Y39394818D01*
X18680512Y39405687D01*
X18649006Y39416537D01*
X18617491Y39427369D01*
X18585969Y39438182D01*
X18554438Y39448977D01*
X18522900Y39459753D01*
X18491353Y39470511D01*
X18459800Y39481250D01*
X18428238Y39491971D01*
X18396669Y39502673D01*
X18365091Y39513358D01*
X18333506Y39524023D01*
X18301913Y39534670D01*
X18270313Y39545298D01*
X18238704Y39555909D01*
X18207089Y39566500D01*
X18175465Y39577073D01*
X18143834Y39587627D01*
X18112195Y39598163D01*
X18080549Y39608680D01*
X18048895Y39619179D01*
X18017234Y39629659D01*
X17985565Y39640120D01*
X17953889Y39650563D01*
X17922205Y39660988D01*
X17890514Y39671393D01*
X17858815Y39681780D01*
X17827110Y39692148D01*
X17795396Y39702498D01*
X17763676Y39712829D01*
X17731948Y39723142D01*
X17700213Y39733436D01*
X17668470Y39743711D01*
X17636721Y39753967D01*
X17604964Y39764205D01*
X17573200Y39774424D01*
X17541428Y39784624D01*
X17509651Y39794806D01*
X17477865Y39804969D01*
X17446073Y39815113D01*
X17414272Y39825238D01*
X17382467Y39835345D01*
X17350652Y39845433D01*
X17318832Y39855502D01*
X17287004Y39865553D01*
X17255170Y39875584D01*
X17223328Y39885597D01*
X17191480Y39895591D01*
X17159624Y39905566D01*
X17127763Y39915522D01*
X17095893Y39925460D01*
X17064018Y39935379D01*
X17032135Y39945279D01*
X17000246Y39955159D01*
X16968349Y39965022D01*
X16936447Y39974865D01*
X16904537Y39984690D01*
X16872622Y39994495D01*
X16840698Y40004282D01*
X16808770Y40014050D01*
X16776833Y40023799D01*
X16744891Y40033529D01*
X16712941Y40043240D01*
X16680986Y40052932D01*
X16649023Y40062605D01*
X16617055Y40072259D01*
X16585079Y40081895D01*
X16553099Y40091511D01*
X16521110Y40101109D01*
X16489116Y40110687D01*
X16457115Y40120247D01*
X16425109Y40129787D01*
X16393094Y40139309D01*
X16361076Y40148811D01*
X16329049Y40158295D01*
X16297018Y40167759D01*
X16264978Y40177205D01*
X16232935Y40186631D01*
X16200883Y40196039D01*
X16168827Y40205427D01*
X16136763Y40214797D01*
X16104695Y40224147D01*
X16072618Y40233478D01*
X16040538Y40242790D01*
X16008450Y40252084D01*
X15976357Y40261358D01*
X15944257Y40270613D01*
X15912152Y40279848D01*
X15880040Y40289065D01*
X15847924Y40298263D01*
X15815800Y40307441D01*
X15783672Y40316601D01*
X15751536Y40325741D01*
X15719396Y40334862D01*
X15687249Y40343964D01*
X15655097Y40353047D01*
X15622938Y40362111D01*
X15590776Y40371155D01*
X15558605Y40380181D01*
X15526431Y40389186D01*
X15494249Y40398174D01*
X15462064Y40407141D01*
X15429870Y40416090D01*
X15397674Y40425019D01*
X15365469Y40433930D01*
X15333262Y40442820D01*
X15301046Y40451692D01*
X15268827Y40460545D01*
X15236601Y40469378D01*
X15204371Y40478192D01*
X15172134Y40486987D01*
X15139893Y40495762D01*
X15107645Y40504519D01*
X15075393Y40513255D01*
X15043135Y40521973D01*
X15010873Y40530671D01*
X14978603Y40539351D01*
X14946330Y40548010D01*
X14914050Y40556651D01*
X14881767Y40565272D01*
X14849477Y40573874D01*
X14817183Y40582457D01*
X14784882Y40591020D01*
X14752579Y40599564D01*
X14720267Y40608089D01*
X14687954Y40616594D01*
X14655632Y40625080D01*
X14623308Y40633546D01*
X14590977Y40641994D01*
X14558643Y40650421D01*
X14526301Y40658830D01*
X14493957Y40667219D01*
X14461606Y40675589D01*
X14429252Y40683939D01*
X14396891Y40692270D01*
X14364527Y40700581D01*
X14332157Y40708874D01*
X14299783Y40717146D01*
X14267403Y40725400D01*
X14235020Y40733633D01*
X14202630Y40741848D01*
X14170238Y40750043D01*
X14137838Y40758218D01*
X14105437Y40766374D01*
X14073028Y40774511D01*
X14040617Y40782628D01*
X14008199Y40790726D01*
X13975779Y40798804D01*
X13943352Y40806863D01*
X13910922Y40814902D01*
X13878486Y40822922D01*
X13846048Y40830922D01*
X13813602Y40838903D01*
X13781155Y40846864D01*
X13748701Y40854806D01*
X13716245Y40862728D01*
X13683782Y40870631D01*
X13651317Y40878514D01*
X13618845Y40886378D01*
X13586372Y40894222D01*
X13553892Y40902047D01*
X13521410Y40909852D01*
X13488921Y40917638D01*
X13456430Y40925403D01*
X13423933Y40933150D01*
X13391434Y40940877D01*
X13358928Y40948584D01*
X13326421Y40956272D01*
X13293907Y40963940D01*
X13261392Y40971588D01*
X13228869Y40979217D01*
X13196346Y40986826D01*
X13163816Y40994417D01*
X13131284Y41001986D01*
X13098746Y41009537D01*
X13066206Y41017068D01*
X13033660Y41024579D01*
X13001113Y41032071D01*
X12968559Y41039543D01*
X12936004Y41046995D01*
X12903442Y41054428D01*
X12873207Y41061312D01*
X46963788Y14551856D02*
X46941995Y14602381D01*
X46920119Y14652894D01*
X46898161Y14703396D01*
X46876121Y14753886D01*
X46853999Y14804364D01*
X46831795Y14854831D01*
X46809508Y14905286D01*
X46787140Y14955729D01*
X46764689Y15006160D01*
X46742156Y15056578D01*
X46719541Y15106984D01*
X46696844Y15157378D01*
X46674065Y15207759D01*
X46651204Y15258127D01*
X46628260Y15308482D01*
X46605235Y15358824D01*
X46582128Y15409153D01*
X46558939Y15459468D01*
X46535668Y15509771D01*
X46512316Y15560059D01*
X46488881Y15610334D01*
X46465365Y15660596D01*
X46441766Y15710843D01*
X46418086Y15761076D01*
X46394324Y15811295D01*
X46370481Y15861500D01*
X46346556Y15911690D01*
X46322549Y15961866D01*
X46298460Y16012027D01*
X46274290Y16062173D01*
X46250038Y16112304D01*
X46225704Y16162420D01*
X46201289Y16212521D01*
X46176793Y16262607D01*
X46152215Y16312677D01*
X46127555Y16362732D01*
X46102814Y16412771D01*
X46077992Y16462794D01*
X46053088Y16512801D01*
X46028103Y16562792D01*
X46003037Y16612767D01*
X45977889Y16662725D01*
X45952660Y16712667D01*
X45927350Y16762592D01*
X45901958Y16812501D01*
X45876486Y16862392D01*
X45850932Y16912267D01*
X45825297Y16962125D01*
X45799581Y17011965D01*
X45773784Y17061788D01*
X45747906Y17111593D01*
X45721947Y17161381D01*
X45695907Y17211151D01*
X45669786Y17260903D01*
X45643584Y17310636D01*
X45617302Y17360352D01*
X45590938Y17410050D01*
X45564494Y17459729D01*
X45537969Y17509389D01*
X45511363Y17559031D01*
X45484677Y17608654D01*
X45457910Y17658258D01*
X45431062Y17707843D01*
X45404134Y17757408D01*
X45377125Y17806955D01*
X45350036Y17856482D01*
X45322866Y17905989D01*
X45295616Y17955476D01*
X45268285Y18004944D01*
X45240874Y18054392D01*
X45213383Y18103819D01*
X45185812Y18153226D01*
X45158160Y18202613D01*
X45130428Y18251979D01*
X45102616Y18301325D01*
X45074724Y18350650D01*
X45046751Y18399954D01*
X45018699Y18449237D01*
X44990567Y18498498D01*
X44962354Y18547739D01*
X44934062Y18596958D01*
X44905690Y18646155D01*
X44877238Y18695331D01*
X44848706Y18744485D01*
X44820095Y18793616D01*
X44791404Y18842726D01*
X44762633Y18891814D01*
X44733782Y18940879D01*
X44704852Y18989921D01*
X44675842Y19038941D01*
X44646753Y19087939D01*
X44617585Y19136913D01*
X44588337Y19185864D01*
X44559009Y19234792D01*
X44529603Y19283697D01*
X44500117Y19332579D01*
X44470552Y19381437D01*
X44440907Y19430271D01*
X44411184Y19479081D01*
X44381381Y19527868D01*
X44351500Y19576630D01*
X44321539Y19625368D01*
X44291499Y19674082D01*
X44261381Y19722771D01*
X44231184Y19771436D01*
X44200908Y19820076D01*
X44170553Y19868691D01*
X44140119Y19917281D01*
X44109607Y19965846D01*
X44079016Y20014386D01*
X44048347Y20062900D01*
X44017599Y20111389D01*
X43986772Y20159852D01*
X43955867Y20208289D01*
X43924884Y20256700D01*
X43893823Y20305085D01*
X43862683Y20353445D01*
X43831465Y20401777D01*
X43800169Y20450084D01*
X43768795Y20498363D01*
X43737343Y20546616D01*
X43705812Y20594842D01*
X43674204Y20643042D01*
X43642518Y20691214D01*
X43610754Y20739358D01*
X43578912Y20787476D01*
X43546993Y20835566D01*
X43514996Y20883628D01*
X43482921Y20931662D01*
X43450769Y20979669D01*
X43418539Y21027648D01*
X43386231Y21075598D01*
X43353847Y21123520D01*
X43321385Y21171414D01*
X43288845Y21219279D01*
X43256229Y21267115D01*
X43223535Y21314923D01*
X43190764Y21362701D01*
X43157916Y21410451D01*
X43124991Y21458171D01*
X43091989Y21505862D01*
X43058910Y21553523D01*
X43025755Y21601155D01*
X42992522Y21648757D01*
X42959213Y21696329D01*
X42925827Y21743872D01*
X42892365Y21791384D01*
X42858826Y21838865D01*
X42825210Y21886317D01*
X42791518Y21933738D01*
X42757750Y21981128D01*
X42723905Y22028487D01*
X42689985Y22075816D01*
X42655988Y22123113D01*
X42621915Y22170379D01*
X42587765Y22217614D01*
X42553540Y22264818D01*
X42519239Y22311990D01*
X42484862Y22359130D01*
X42450409Y22406239D01*
X42415881Y22453315D01*
X42381277Y22500359D01*
X42346597Y22547371D01*
X42311841Y22594351D01*
X42277011Y22641299D01*
X42242104Y22688213D01*
X42207123Y22735095D01*
X42172066Y22781944D01*
X42136933Y22828760D01*
X42101726Y22875543D01*
X42066443Y22922293D01*
X42031086Y22969009D01*
X41995653Y23015692D01*
X41960146Y23062341D01*
X41924564Y23108957D01*
X41906744Y23132252D01*
X41888907Y23155538D01*
X41871050Y23178816D01*
X41853175Y23202086D01*
X41835281Y23225347D01*
X41817368Y23248599D01*
X41799437Y23271843D01*
X41781487Y23295078D01*
X41763519Y23318305D01*
X41745532Y23341522D01*
X41727526Y23364732D01*
X41709502Y23387932D01*
X41691459Y23411125D01*
X41673398Y23434308D01*
X41655318Y23457483D01*
X41637219Y23480648D01*
X41619102Y23503806D01*
X41600966Y23526954D01*
X41582812Y23550094D01*
X41564639Y23573225D01*
X41546448Y23596347D01*
X41528238Y23619460D01*
X41510010Y23642565D01*
X41491763Y23665660D01*
X41473497Y23688747D01*
X41455214Y23711825D01*
X41436911Y23734894D01*
X41418591Y23757954D01*
X41400251Y23781005D01*
X41381894Y23804048D01*
X41363518Y23827081D01*
X41345123Y23850105D01*
X41326710Y23873121D01*
X41308279Y23896127D01*
X41289829Y23919124D01*
X41271361Y23942112D01*
X41252874Y23965092D01*
X41234369Y23988062D01*
X41215846Y24011023D01*
X41197305Y24033975D01*
X41178744Y24056918D01*
X41160166Y24079852D01*
X41141569Y24102776D01*
X41122955Y24125692D01*
X41104321Y24148598D01*
X41085670Y24171495D01*
X41067000Y24194383D01*
X41048311Y24217261D01*
X41029605Y24240131D01*
X41010880Y24262991D01*
X40992137Y24285842D01*
X40973376Y24308684D01*
X40954596Y24331516D01*
X40935799Y24354339D01*
X40916983Y24377153D01*
X40898148Y24399957D01*
X40879296Y24422752D01*
X40860426Y24445537D01*
X40841537Y24468314D01*
X40822630Y24491080D01*
X40803705Y24513838D01*
X40784761Y24536585D01*
X40765800Y24559324D01*
X40746820Y24582053D01*
X40727823Y24604772D01*
X40708807Y24627482D01*
X40689773Y24650183D01*
X40670721Y24672874D01*
X40651650Y24695555D01*
X40632562Y24718227D01*
X40613456Y24740889D01*
X40594332Y24763542D01*
X40575189Y24786185D01*
X40556029Y24808818D01*
X40536850Y24831442D01*
X40517653Y24854056D01*
X40498439Y24876660D01*
X40479206Y24899255D01*
X40459956Y24921840D01*
X40440687Y24944415D01*
X40421400Y24966981D01*
X40402096Y24989536D01*
X40382773Y25012082D01*
X40363433Y25034619D01*
X40344074Y25057145D01*
X40324698Y25079662D01*
X40305303Y25102168D01*
X40285891Y25124665D01*
X40266461Y25147152D01*
X40247013Y25169630D01*
X40227547Y25192097D01*
X40208063Y25214554D01*
X40188562Y25237002D01*
X40169042Y25259439D01*
X40149505Y25281867D01*
X40129949Y25304285D01*
X40110376Y25326692D01*
X40090785Y25349090D01*
X40071177Y25371477D01*
X40051550Y25393855D01*
X40031906Y25416223D01*
X40012244Y25438580D01*
X39992564Y25460927D01*
X39972866Y25483265D01*
X39953151Y25505592D01*
X39933418Y25527909D01*
X39913667Y25550216D01*
X39893898Y25572513D01*
X39874112Y25594799D01*
X39854308Y25617076D01*
X39834486Y25639342D01*
X39814647Y25661598D01*
X39794790Y25683844D01*
X39774915Y25706080D01*
X39755022Y25728305D01*
X39735112Y25750520D01*
X39715185Y25772725D01*
X39695239Y25794919D01*
X39675276Y25817103D01*
X39655296Y25839277D01*
X39635298Y25861441D01*
X39615282Y25883594D01*
X39595248Y25905736D01*
X39575198Y25927869D01*
X39555129Y25949991D01*
X39535043Y25972102D01*
X39514940Y25994203D01*
X39494818Y26016294D01*
X39474680Y26038374D01*
X39454524Y26060444D01*
X39434350Y26082503D01*
X39414159Y26104551D01*
X39393950Y26126590D01*
X39373724Y26148617D01*
X39353481Y26170634D01*
X39333220Y26192641D01*
X39312941Y26214636D01*
X39292646Y26236622D01*
X39272332Y26258596D01*
X39252002Y26280560D01*
X39231654Y26302514D01*
X39211288Y26324456D01*
X39190905Y26346388D01*
X39170505Y26368310D01*
X39150088Y26390220D01*
X39129652Y26412120D01*
X39109200Y26434009D01*
X39088731Y26455888D01*
X39068244Y26477755D01*
X39047740Y26499612D01*
X39027218Y26521458D01*
X39006679Y26543294D01*
X38986123Y26565118D01*
X38965550Y26586932D01*
X38944959Y26608734D01*
X38924351Y26630526D01*
X38903726Y26652307D01*
X38883084Y26674077D01*
X38862425Y26695836D01*
X38841748Y26717585D01*
X38821054Y26739322D01*
X38800343Y26761048D01*
X38779614Y26782764D01*
X38758869Y26804468D01*
X38738106Y26826161D01*
X38717326Y26847844D01*
X38696530Y26869515D01*
X38675716Y26891176D01*
X38654885Y26912825D01*
X38634036Y26934463D01*
X38613171Y26956090D01*
X38592288Y26977706D01*
X38571389Y26999311D01*
X38550472Y27020905D01*
X38529539Y27042487D01*
X38508588Y27064059D01*
X38487621Y27085619D01*
X38466636Y27107168D01*
X38445634Y27128706D01*
X38424615Y27150233D01*
X38403580Y27171748D01*
X38382527Y27193252D01*
X38361458Y27214745D01*
X38340371Y27236227D01*
X38319268Y27257697D01*
X38298147Y27279156D01*
X38277010Y27300604D01*
X38255855Y27322040D01*
X38234684Y27343465D01*
X38213496Y27364879D01*
X38192291Y27386281D01*
X38171069Y27407672D01*
X38149831Y27429051D01*
X38128575Y27450420D01*
X38107303Y27471776D01*
X38086013Y27493122D01*
X38064707Y27514455D01*
X38043384Y27535778D01*
X38022045Y27557088D01*
X38000688Y27578388D01*
X37979315Y27599675D01*
X37957925Y27620952D01*
X37936518Y27642216D01*
X37915095Y27663470D01*
X37893655Y27684711D01*
X37872197Y27705941D01*
X37850724Y27727159D01*
X37829233Y27748366D01*
X37807727Y27769561D01*
X37786203Y27790745D01*
X37764662Y27811916D01*
X37743105Y27833077D01*
X37721532Y27854225D01*
X37699941Y27875362D01*
X37678334Y27896487D01*
X37656710Y27917600D01*
X37635070Y27938702D01*
X37613413Y27959792D01*
X37591740Y27980870D01*
X37570050Y28001936D01*
X37548344Y28022990D01*
X37526620Y28044033D01*
X37504881Y28065064D01*
X37483125Y28086083D01*
X37461352Y28107090D01*
X37439563Y28128085D01*
X37417757Y28149069D01*
X37395935Y28170040D01*
X37374097Y28191000D01*
X37352241Y28211948D01*
X37330370Y28232883D01*
X37308482Y28253807D01*
X37286578Y28274719D01*
X37264656Y28295619D01*
X37242719Y28316506D01*
X37220765Y28337383D01*
X37198796Y28358246D01*
X37176809Y28379098D01*
X37154806Y28399938D01*
X37132787Y28420766D01*
X37110752Y28441581D01*
X37088700Y28462385D01*
X37066632Y28483176D01*
X37044547Y28503956D01*
X37022447Y28524723D01*
X37000329Y28545478D01*
X36978196Y28566220D01*
X36956046Y28586952D01*
X36933881Y28607670D01*
X36911698Y28628376D01*
X36889500Y28649070D01*
X36867285Y28669753D01*
X36845055Y28690422D01*
X36822808Y28711080D01*
X36800545Y28731725D01*
X36778265Y28752358D01*
X36755970Y28772978D01*
X36733658Y28793587D01*
X36711331Y28814182D01*
X36688986Y28834766D01*
X36666627Y28855337D01*
X36644250Y28875897D01*
X36621858Y28896443D01*
X36599449Y28916978D01*
X36577025Y28937499D01*
X36554584Y28958009D01*
X36532128Y28978506D01*
X36509655Y28998990D01*
X36487167Y29019462D01*
X36464662Y29039922D01*
X36442141Y29060369D01*
X36419604Y29080804D01*
X36397052Y29101226D01*
X36374483Y29121636D01*
X36351899Y29142033D01*
X36329298Y29162418D01*
X36306681Y29182790D01*
X36284048Y29203149D01*
X36261400Y29223496D01*
X36238736Y29243831D01*
X36216056Y29264152D01*
X36193359Y29284461D01*
X36170648Y29304758D01*
X36147919Y29325042D01*
X36125176Y29345313D01*
X36102416Y29365571D01*
X36079641Y29385817D01*
X36056850Y29406050D01*
X36034043Y29426270D01*
X36011220Y29446478D01*
X35988381Y29466673D01*
X35965527Y29486856D01*
X35942657Y29507025D01*
X35919770Y29527182D01*
X35896869Y29547325D01*
X35873951Y29567457D01*
X35851019Y29587574D01*
X35828069Y29607680D01*
X35805105Y29627772D01*
X35782125Y29647853D01*
X35759129Y29667919D01*
X35736117Y29687973D01*
X35713090Y29708014D01*
X35690047Y29728043D01*
X35666989Y29748058D01*
X35643914Y29768060D01*
X35620825Y29788049D01*
X35597719Y29808026D01*
X35574599Y29827989D01*
X35551462Y29847940D01*
X35528310Y29867877D01*
X35505142Y29887802D01*
X35481959Y29907713D01*
X35458760Y29927612D01*
X35435547Y29947497D01*
X35412316Y29967370D01*
X35389072Y29987229D01*
X35365810Y30007076D01*
X35342535Y30026908D01*
X35319243Y30046729D01*
X35295936Y30066535D01*
X35272613Y30086330D01*
X35249276Y30106110D01*
X35225922Y30125878D01*
X35202554Y30145632D01*
X35179169Y30165373D01*
X35155770Y30185101D01*
X35132354Y30204816D01*
X35108925Y30224517D01*
X35085479Y30244206D01*
X35062018Y30263880D01*
X35038541Y30283543D01*
X35015050Y30303191D01*
X34991543Y30322826D01*
X34968021Y30342448D01*
X34944483Y30362057D01*
X34920931Y30381652D01*
X34897362Y30401234D01*
X34873780Y30420803D01*
X34850181Y30440358D01*
X34826568Y30459900D01*
X34802938Y30479429D01*
X34779295Y30498944D01*
X34755635Y30518446D01*
X34731961Y30537934D01*
X34708271Y30557409D01*
X34684566Y30576870D01*
X34660846Y30596319D01*
X34637111Y30615753D01*
X34613361Y30635175D01*
X34589596Y30654582D01*
X34565815Y30673977D01*
X34542020Y30693357D01*
X34518209Y30712724D01*
X34494384Y30732078D01*
X34470543Y30751418D01*
X34446688Y30770744D01*
X34422816Y30790058D01*
X34398931Y30809356D01*
X34375030Y30828643D01*
X34351115Y30847914D01*
X34327183Y30867173D01*
X34303238Y30886418D01*
X34279277Y30905650D01*
X34255302Y30924867D01*
X34231311Y30944071D01*
X34207306Y30963261D01*
X34183285Y30982438D01*
X34159250Y31001600D01*
X34135200Y31020750D01*
X34111135Y31039885D01*
X34087055Y31059007D01*
X34062961Y31078115D01*
X34038850Y31097209D01*
X34014727Y31116289D01*
X33990587Y31135357D01*
X33966433Y31154409D01*
X33942264Y31173448D01*
X33918081Y31192473D01*
X33893882Y31211485D01*
X33869669Y31230482D01*
X33845441Y31249466D01*
X33821199Y31268436D01*
X33796941Y31287392D01*
X33796927Y31287403D01*
X-11442611Y41367397D02*
X-11508257Y41354185D01*
X-11573891Y41340895D01*
X-11639512Y41327525D01*
X-11705121Y41314076D01*
X-11770717Y41300548D01*
X-11836300Y41286941D01*
X-11901870Y41273255D01*
X-11967427Y41259490D01*
X-12032970Y41245647D01*
X-12098500Y41231724D01*
X-12164015Y41217722D01*
X-12229517Y41203642D01*
X-12295004Y41189483D01*
X-12360477Y41175245D01*
X-12425936Y41160929D01*
X-12491380Y41146534D01*
X-12556808Y41132060D01*
X-12622222Y41117508D01*
X-12687620Y41102877D01*
X-12753003Y41088168D01*
X-12818370Y41073380D01*
X-12883722Y41058514D01*
X-12949057Y41043570D01*
X-13014376Y41028547D01*
X-13079678Y41013445D01*
X-13144964Y40998266D01*
X-13210233Y40983008D01*
X-13275485Y40967672D01*
X-13340720Y40952259D01*
X-13405938Y40936766D01*
X-13471138Y40921196D01*
X-13536320Y40905548D01*
X-13601485Y40889822D01*
X-13666631Y40874018D01*
X-13731759Y40858136D01*
X-13796868Y40842177D01*
X-13861959Y40826139D01*
X-13927031Y40810024D01*
X-13992084Y40793831D01*
X-14057118Y40777561D01*
X-14122132Y40761212D01*
X-14187127Y40744787D01*
X-14252102Y40728284D01*
X-14317057Y40711703D01*
X-14381992Y40695045D01*
X-14446906Y40678309D01*
X-14511800Y40661497D01*
X-14576673Y40644607D01*
X-14641525Y40627640D01*
X-14706356Y40610595D01*
X-14771166Y40593474D01*
X-14835955Y40576275D01*
X-14900721Y40559000D01*
X-14965466Y40541647D01*
X-15030188Y40524218D01*
X-15094889Y40506712D01*
X-15159567Y40489129D01*
X-15224222Y40471469D01*
X-15288855Y40453733D01*
X-15353464Y40435920D01*
X-15418050Y40418030D01*
X-15482613Y40400064D01*
X-15547153Y40382021D01*
X-15611668Y40363902D01*
X-15676160Y40345707D01*
X-15740627Y40327435D01*
X-15805070Y40309087D01*
X-15869489Y40290663D01*
X-15933882Y40272163D01*
X-15998251Y40253587D01*
X-16062595Y40234934D01*
X-16126913Y40216206D01*
X-16191206Y40197402D01*
X-16255473Y40178522D01*
X-16319715Y40159566D01*
X-16383930Y40140535D01*
X-16448119Y40121428D01*
X-16512281Y40102245D01*
X-16576417Y40082987D01*
X-16640526Y40063654D01*
X-16704608Y40044245D01*
X-16768663Y40024760D01*
X-16832690Y40005201D01*
X-16896690Y39985566D01*
X-16960662Y39965856D01*
X-17024606Y39946071D01*
X-17088521Y39926211D01*
X-17152409Y39906276D01*
X-17216268Y39886266D01*
X-17280097Y39866181D01*
X-17343899Y39846022D01*
X-17407670Y39825788D01*
X-17471413Y39805479D01*
X-17535126Y39785096D01*
X-17598809Y39764638D01*
X-17662462Y39744106D01*
X-17726086Y39723499D01*
X-17789679Y39702819D01*
X-17853241Y39682064D01*
X-17916773Y39661235D01*
X-17980274Y39640332D01*
X-18043743Y39619355D01*
X-18107182Y39598304D01*
X-18170589Y39577179D01*
X-18233964Y39555980D01*
X-18297308Y39534708D01*
X-18360619Y39513362D01*
X-18423898Y39491943D01*
X-18487145Y39470450D01*
X-18550359Y39448883D01*
X-18613541Y39427244D01*
X-18676689Y39405531D01*
X-18739804Y39383745D01*
X-18802886Y39361886D01*
X-18865934Y39339953D01*
X-18928949Y39317948D01*
X-18991929Y39295870D01*
X-19054875Y39273719D01*
X-19117787Y39251496D01*
X-19180665Y39229200D01*
X-19243507Y39206831D01*
X-19274916Y39195619D01*
X-19306315Y39184390D01*
X-19337706Y39173142D01*
X-19369088Y39161876D01*
X-19400461Y39150592D01*
X-19431825Y39139291D01*
X-19463181Y39127970D01*
X-19494527Y39116632D01*
X-19525865Y39105276D01*
X-19557193Y39093902D01*
X-19588513Y39082510D01*
X-19619823Y39071100D01*
X-19651125Y39059672D01*
X-19682417Y39048225D01*
X-19713701Y39036761D01*
X-19744975Y39025279D01*
X-19776241Y39013779D01*
X-19807496Y39002261D01*
X-19838744Y38990725D01*
X-19869981Y38979171D01*
X-19901210Y38967599D01*
X-19932429Y38956010D01*
X-19963639Y38944402D01*
X-19994840Y38932777D01*
X-20026032Y38921133D01*
X-20057214Y38909472D01*
X-20088387Y38897793D01*
X-20119550Y38886096D01*
X-20150704Y38874381D01*
X-20181849Y38862649D01*
X-20212984Y38850898D01*
X-20244109Y38839130D01*
X-20275226Y38827344D01*
X-20306332Y38815541D01*
X-20337430Y38803719D01*
X-20368517Y38791880D01*
X-20399595Y38780023D01*
X-20430663Y38768148D01*
X-20461722Y38756256D01*
X-20492771Y38744345D01*
X-20523810Y38732417D01*
X-20554840Y38720472D01*
X-20585860Y38708509D01*
X-20616870Y38696528D01*
X-20647871Y38684529D01*
X-20678861Y38672513D01*
X-20709842Y38660479D01*
X-20740813Y38648427D01*
X-20771774Y38636358D01*
X-20802725Y38624272D01*
X-20833666Y38612167D01*
X-20864597Y38600045D01*
X-20895518Y38587906D01*
X-20926430Y38575749D01*
X-20957331Y38563574D01*
X-20988222Y38551382D01*
X-21019103Y38539172D01*
X-21049974Y38526945D01*
X-21080835Y38514701D01*
X-21111686Y38502438D01*
X-21142527Y38490159D01*
X-21173357Y38477862D01*
X-21204177Y38465547D01*
X-21234987Y38453215D01*
X-21265787Y38440865D01*
X-21296576Y38428499D01*
X-21327356Y38416114D01*
X-21358124Y38403713D01*
X-21388883Y38391293D01*
X-21419631Y38378857D01*
X-21450369Y38366403D01*
X-21481096Y38353932D01*
X-21511813Y38341443D01*
X-21542519Y38328937D01*
X-21573215Y38316414D01*
X-21603900Y38303874D01*
X-21634575Y38291316D01*
X-21665240Y38278741D01*
X-21695893Y38266148D01*
X-21726536Y38253539D01*
X-21757169Y38240912D01*
X-21787791Y38228268D01*
X-21818402Y38215606D01*
X-21849002Y38202928D01*
X-21879592Y38190232D01*
X-21910171Y38177519D01*
X-21940739Y38164789D01*
X-21971296Y38152042D01*
X-22001843Y38139277D01*
X-22032379Y38126496D01*
X-22062903Y38113697D01*
X-22093417Y38100881D01*
X-22123920Y38088048D01*
X-22154413Y38075198D01*
X-22184894Y38062331D01*
X-22215364Y38049446D01*
X-22245823Y38036545D01*
X-22276271Y38023627D01*
X-22306708Y38010691D01*
X-22337134Y37997739D01*
X-22367549Y37984770D01*
X-22397953Y37971783D01*
X-22428346Y37958780D01*
X-22458727Y37945759D01*
X-22489097Y37932722D01*
X-22519457Y37919668D01*
X-22549804Y37906597D01*
X-22580141Y37893508D01*
X-22610466Y37880403D01*
X-22640780Y37867281D01*
X-22671083Y37854142D01*
X-22701374Y37840987D01*
X-22731654Y37827814D01*
X-22761923Y37814625D01*
X-22792180Y37801418D01*
X-22822426Y37788195D01*
X-22852660Y37774955D01*
X-22882883Y37761699D01*
X-22913094Y37748425D01*
X-22943294Y37735135D01*
X-22973482Y37721828D01*
X-23003658Y37708504D01*
X-23033823Y37695163D01*
X-23063977Y37681806D01*
X-23094118Y37668432D01*
X-23124248Y37655041D01*
X-23154366Y37641634D01*
X-23184473Y37628210D01*
X-23214568Y37614769D01*
X-23244651Y37601312D01*
X-23274722Y37587838D01*
X-23304782Y37574347D01*
X-23334829Y37560840D01*
X-23364865Y37547316D01*
X-23394889Y37533776D01*
X-23424901Y37520219D01*
X-23454901Y37506645D01*
X-23484890Y37493055D01*
X-23514865Y37479448D01*
X-23544830Y37465825D01*
X-23574782Y37452185D01*
X-23604722Y37438529D01*
X-23634650Y37424857D01*
X-23664566Y37411167D01*
X-23694470Y37397462D01*
X-23724362Y37383740D01*
X-23754241Y37370002D01*
X-23784109Y37356246D01*
X-23813964Y37342475D01*
X-23843808Y37328688D01*
X-23873638Y37314884D01*
X-23903457Y37301063D01*
X-23933263Y37287227D01*
X-23963057Y37273373D01*
X-23992838Y37259504D01*
X-24022608Y37245618D01*
X-24052365Y37231716D01*
X-24082110Y37217798D01*
X-24111841Y37203863D01*
X-24141561Y37189912D01*
X-24171268Y37175946D01*
X-24200963Y37161962D01*
X-24230645Y37147963D01*
X-24260315Y37133947D01*
X-24289972Y37119915D01*
X-24319617Y37105867D01*
X-24349248Y37091803D01*
X-24378868Y37077722D01*
X-24408475Y37063626D01*
X-24438069Y37049513D01*
X-24467650Y37035384D01*
X-24497219Y37021239D01*
X-24526775Y37007079D01*
X-24556318Y36992901D01*
X-24585848Y36978708D01*
X-24615366Y36964499D01*
X-24644871Y36950274D01*
X-24674363Y36936033D01*
X-24703842Y36921776D01*
X-24733308Y36907503D01*
X-24762761Y36893214D01*
X-24792202Y36878908D01*
X-24821629Y36864588D01*
X-24851044Y36850250D01*
X-24880445Y36835898D01*
X-24909834Y36821529D01*
X-24939209Y36807144D01*
X-24968572Y36792744D01*
X-24997921Y36778327D01*
X-25027257Y36763895D01*
X-25056580Y36749447D01*
X-25085890Y36734983D01*
X-25115187Y36720503D01*
X-25144471Y36706008D01*
X-25173741Y36691497D01*
X-25202998Y36676969D01*
X-25232242Y36662427D01*
X-25261473Y36647868D01*
X-25290690Y36633294D01*
X-25319894Y36618704D01*
X-25349084Y36604098D01*
X-25378262Y36589477D01*
X-25407426Y36574840D01*
X-25436577Y36560187D01*
X-25465713Y36545519D01*
X-25494838Y36530835D01*
X-25523947Y36516136D01*
X-25553045Y36501420D01*
X-25582127Y36486690D01*
X-25611198Y36471943D01*
X-25640253Y36457182D01*
X-25669296Y36442404D01*
X-25698325Y36427612D01*
X-25727341Y36412803D01*
X-25756342Y36397979D01*
X-25785331Y36383140D01*
X-25814304Y36368285D01*
X-25843266Y36353415D01*
X-25872212Y36338529D01*
X-25901146Y36323628D01*
X-25930065Y36308711D01*
X-25958971Y36293779D01*
X-25987862Y36278832D01*
X-26016741Y36263869D01*
X-26045604Y36248891D01*
X-26074456Y36233898D01*
X-26103291Y36218889D01*
X-26132115Y36203865D01*
X-26160922Y36188826D01*
X-26189718Y36173771D01*
X-26218498Y36158702D01*
X-26247265Y36143616D01*
X-26276017Y36128516D01*
X-26304757Y36113400D01*
X-26333480Y36098270D01*
X-26362192Y36083124D01*
X-26390887Y36067963D01*
X-26419570Y36052786D01*
X-26448238Y36037595D01*
X-26476893Y36022388D01*
X-26505532Y36007167D01*
X-26534158Y35991930D01*
X-26562769Y35976678D01*
X-26591367Y35961411D01*
X-26619949Y35946129D01*
X-26648518Y35930832D01*
X-26677072Y35915520D01*
X-26705612Y35900193D01*
X-26734137Y35884851D01*
X-26762649Y35869493D01*
X-26791146Y35854122D01*
X-26819629Y35838734D01*
X-26848096Y35823333D01*
X-26876551Y35807916D01*
X-26904989Y35792484D01*
X-26933414Y35777037D01*
X-26961824Y35761576D01*
X-26990220Y35746099D01*
X-27018600Y35730608D01*
X-27046968Y35715102D01*
X-27075319Y35699581D01*
X-27103657Y35684045D01*
X-27131979Y35668495D01*
X-27160288Y35652929D01*
X-27188580Y35637350D01*
X-27216860Y35621755D01*
X-27245123Y35606146D01*
X-27273373Y35590521D01*
X-27301607Y35574882D01*
X-27329828Y35559228D01*
X-27358032Y35543560D01*
X-27386223Y35527877D01*
X-27414397Y35512180D01*
X-27442559Y35496467D01*
X-27470703Y35480741D01*
X-27498835Y35464999D01*
X-27526950Y35449243D01*
X-27555052Y35433472D01*
X-27583137Y35417688D01*
X-27611209Y35401888D01*
X-27639264Y35386074D01*
X-27667306Y35370245D01*
X-27695331Y35354402D01*
X-27723343Y35338544D01*
X-27751338Y35322673D01*
X-27779320Y35306786D01*
X-27807284Y35290885D01*
X-27835236Y35274969D01*
X-27863170Y35259040D01*
X-27891092Y35243095D01*
X-27918996Y35227137D01*
X-27946887Y35211164D01*
X-27974760Y35195177D01*
X-28002621Y35179175D01*
X-28030464Y35163160D01*
X-28058294Y35147130D01*
X-28086107Y35131086D01*
X-28113906Y35115027D01*
X-28141688Y35098954D01*
X-28169457Y35082867D01*
X-28197208Y35066766D01*
X-28224946Y35050650D01*
X-28252666Y35034521D01*
X-28280373Y35018376D01*
X-28308063Y35002219D01*
X-28335739Y34986046D01*
X-28363398Y34969861D01*
X-28391043Y34953660D01*
X-28418670Y34937446D01*
X-28446285Y34921217D01*
X-28473881Y34904975D01*
X-28501464Y34888718D01*
X-28529029Y34872448D01*
X-28556581Y34856163D01*
X-28584115Y34839865D01*
X-28611636Y34823551D01*
X-28639138Y34807225D01*
X-28666628Y34790884D01*
X-28694099Y34774531D01*
X-28721557Y34758162D01*
X-28748996Y34741780D01*
X-28776423Y34725383D01*
X-28803831Y34708974D01*
X-28831225Y34692550D01*
X-28858602Y34676113D01*
X-28885965Y34659660D01*
X-28913310Y34643196D01*
X-28940641Y34626716D01*
X-28967954Y34610224D01*
X-28995254Y34593717D01*
X-29022535Y34577197D01*
X-29049803Y34560662D01*
X-29077052Y34544115D01*
X-29104288Y34527553D01*
X-29131505Y34510979D01*
X-29158709Y34494389D01*
X-29185894Y34477787D01*
X-29213066Y34461171D01*
X-29240219Y34444542D01*
X-29267358Y34427898D01*
X-29294479Y34411241D01*
X-29321586Y34394570D01*
X-29348675Y34377887D01*
X-29375750Y34361189D01*
X-29402806Y34344478D01*
X-29429849Y34327753D01*
X-29456873Y34311016D01*
X-29483883Y34294264D01*
X-29510874Y34277499D01*
X-29537852Y34260720D01*
X-29564810Y34243929D01*
X-29591755Y34227123D01*
X-29618682Y34210305D01*
X-29645594Y34193473D01*
X-29672487Y34176628D01*
X-29699367Y34159768D01*
X-29726228Y34142897D01*
X-29753074Y34126011D01*
X-29779902Y34109113D01*
X-29806716Y34092201D01*
X-29833511Y34075276D01*
X-29860292Y34058337D01*
X-29887054Y34041386D01*
X-29913802Y34024420D01*
X-29940531Y34007443D01*
X-29967246Y33990451D01*
X-29993941Y33973447D01*
X-30020623Y33956429D01*
X-30047286Y33939399D01*
X-30073934Y33922355D01*
X-30100564Y33905298D01*
X-30127179Y33888228D01*
X-30153775Y33871145D01*
X-30180357Y33854048D01*
X-30206919Y33836940D01*
X-30233468Y33819817D01*
X-30259997Y33802683D01*
X-30286512Y33785534D01*
X-30313007Y33768373D01*
X-30339489Y33751198D01*
X-30365951Y33734012D01*
X-30392399Y33716811D01*
X-30418827Y33699599D01*
X-30445241Y33682372D01*
X-30471636Y33665135D01*
X-30498016Y33647882D01*
X-30524377Y33630619D01*
X-30550724Y33613341D01*
X-30577051Y33596051D01*
X-30603363Y33578748D01*
X-30629656Y33561433D01*
X-30655935Y33544104D01*
X-30682194Y33526764D01*
X-30708439Y33509409D01*
X-30734664Y33492043D01*
X-30760874Y33474663D01*
X-30787065Y33457272D01*
X-30813242Y33439867D01*
X-30839398Y33422450D01*
X-30865541Y33405019D01*
X-30891663Y33387578D01*
X-30917771Y33370122D01*
X-30943859Y33352655D01*
X-30969933Y33335174D01*
X-30995986Y33317682D01*
X-31022026Y33300176D01*
X-31048045Y33282659D01*
X-31074050Y33265128D01*
X-31100035Y33247586D01*
X-31126005Y33230029D01*
X-31151955Y33212462D01*
X-31177891Y33194881D01*
X-31203806Y33177290D01*
X-31229707Y33159684D01*
X-31255588Y33142067D01*
X-31281454Y33124436D01*
X-31307300Y33106795D01*
X-31333132Y33089140D01*
X-31358943Y33071474D01*
X-31384740Y33053794D01*
X-31410516Y33036103D01*
X-31436278Y33018399D01*
X-31462020Y33000684D01*
X-31487746Y32982955D01*
X-31513453Y32965215D01*
X-31539144Y32947462D01*
X-31564816Y32929698D01*
X-31590473Y32911920D01*
X-31616109Y32894131D01*
X-31641730Y32876329D01*
X-31667331Y32858517D01*
X-31692918Y32840690D01*
X-31718484Y32822854D01*
X-31744035Y32805003D01*
X-31769565Y32787142D01*
X-31795081Y32769267D01*
X-31820576Y32751382D01*
X-31846056Y32733484D01*
X-31871516Y32715575D01*
X-31896961Y32697652D01*
X-31922385Y32679719D01*
X-31947794Y32661772D01*
X-31973183Y32643816D01*
X-31998557Y32625845D01*
X-32023910Y32607865D01*
X-32049248Y32589870D01*
X-32074566Y32571866D01*
X-32099868Y32553848D01*
X-32125150Y32535820D01*
X-32150416Y32517778D01*
X-32175662Y32499727D01*
X-32200893Y32481661D01*
X-32226103Y32463586D01*
X-32251298Y32445497D01*
X-32276473Y32427399D01*
X-32301632Y32409286D01*
X-32326770Y32391165D01*
X-32351893Y32373029D01*
X-32376995Y32354883D01*
X-32402082Y32336724D01*
X-32427149Y32318556D01*
X-32452200Y32300374D01*
X-32477230Y32282182D01*
X-32502245Y32263976D01*
X-32527239Y32245761D01*
X-32552217Y32227533D01*
X-32577175Y32209295D01*
X-32602117Y32191043D01*
X-32627039Y32172782D01*
X-32651945Y32154507D01*
X-32676830Y32136223D01*
X-32701700Y32117926D01*
X-32739867Y32089796D01*
X48952651Y-8631876D02*
X48965491Y-8579344D01*
X48978251Y-8526799D01*
X48990933Y-8474240D01*
X49003536Y-8421668D01*
X49016059Y-8369082D01*
X49028504Y-8316483D01*
X49040869Y-8263871D01*
X49053156Y-8211245D01*
X49065363Y-8158607D01*
X49077491Y-8105956D01*
X49089540Y-8053291D01*
X49101510Y-8000614D01*
X49113401Y-7947924D01*
X49125213Y-7895222D01*
X49136945Y-7842506D01*
X49148598Y-7789779D01*
X49160173Y-7737038D01*
X49171668Y-7684286D01*
X49183083Y-7631521D01*
X49194420Y-7578744D01*
X49205677Y-7525955D01*
X49216855Y-7473153D01*
X49227954Y-7420340D01*
X49238974Y-7367515D01*
X49249915Y-7314678D01*
X49260776Y-7261829D01*
X49271558Y-7208968D01*
X49282260Y-7156096D01*
X49292884Y-7103212D01*
X49303428Y-7050317D01*
X49313893Y-6997411D01*
X49324278Y-6944493D01*
X49334585Y-6891564D01*
X49344811Y-6838624D01*
X49354959Y-6785672D01*
X49365027Y-6732710D01*
X49375016Y-6679737D01*
X49384925Y-6626753D01*
X49394756Y-6573758D01*
X49404506Y-6520753D01*
X49414178Y-6467737D01*
X49423770Y-6414710D01*
X49433282Y-6361673D01*
X49442715Y-6308625D01*
X49452069Y-6255568D01*
X49461343Y-6202500D01*
X49470538Y-6149422D01*
X49479654Y-6096334D01*
X49488690Y-6043235D01*
X49497646Y-5990127D01*
X49506523Y-5937010D01*
X49515321Y-5883882D01*
X49524039Y-5830745D01*
X49532677Y-5777598D01*
X49541236Y-5724441D01*
X49549716Y-5671276D01*
X49558116Y-5618101D01*
X49566437Y-5564916D01*
X49574678Y-5511722D01*
X49582839Y-5458520D01*
X49590921Y-5405308D01*
X49598923Y-5352087D01*
X49606846Y-5298857D01*
X49614690Y-5245619D01*
X49622453Y-5192372D01*
X49630137Y-5139116D01*
X49637742Y-5085852D01*
X49645267Y-5032579D01*
X49652712Y-4979297D01*
X49660078Y-4926008D01*
X49667364Y-4872710D01*
X49674571Y-4819404D01*
X49681697Y-4766090D01*
X49688745Y-4712767D01*
X49695712Y-4659437D01*
X49702600Y-4606099D01*
X49709408Y-4552754D01*
X49716137Y-4499400D01*
X49722786Y-4446039D01*
X49729355Y-4392671D01*
X49735845Y-4339294D01*
X49742255Y-4285911D01*
X49748585Y-4232520D01*
X49754836Y-4179122D01*
X49761006Y-4125717D01*
X49767097Y-4072305D01*
X49773109Y-4018886D01*
X49779040Y-3965460D01*
X49784892Y-3912027D01*
X49790665Y-3858587D01*
X49796357Y-3805141D01*
X49801970Y-3751688D01*
X49807503Y-3698229D01*
X49812956Y-3644763D01*
X49818329Y-3591291D01*
X49823623Y-3537813D01*
X49828837Y-3484328D01*
X49833971Y-3430837D01*
X49839025Y-3377341D01*
X49844000Y-3323838D01*
X49848894Y-3270329D01*
X49853709Y-3216815D01*
X49858444Y-3163295D01*
X49863100Y-3109770D01*
X49867675Y-3056238D01*
X49872171Y-3002702D01*
X49876587Y-2949160D01*
X49880923Y-2895612D01*
X49885179Y-2842060D01*
X49889355Y-2788502D01*
X49893452Y-2734940D01*
X49897468Y-2681372D01*
X49901405Y-2627799D01*
X49905262Y-2574222D01*
X49909039Y-2520640D01*
X49912736Y-2467053D01*
X49916354Y-2413462D01*
X49919891Y-2359866D01*
X49923349Y-2306265D01*
X49926726Y-2252661D01*
X49930024Y-2199052D01*
X49933242Y-2145439D01*
X49936380Y-2091822D01*
X49939438Y-2038201D01*
X49942416Y-1984576D01*
X49945315Y-1930947D01*
X49948133Y-1877314D01*
X49950871Y-1823678D01*
X49953530Y-1770038D01*
X49956109Y-1716395D01*
X49958607Y-1662748D01*
X49961026Y-1609097D01*
X49963365Y-1555444D01*
X49965624Y-1501787D01*
X49967803Y-1448127D01*
X49969902Y-1394464D01*
X49971921Y-1340799D01*
X49973860Y-1287130D01*
X49975719Y-1233458D01*
X49977498Y-1179784D01*
X49979198Y-1126107D01*
X49980817Y-1072428D01*
X49982356Y-1018746D01*
X49983816Y-965062D01*
X49985195Y-911375D01*
X49986495Y-857687D01*
X49987714Y-803996D01*
X49988854Y-750303D01*
X49989913Y-696608D01*
X49990893Y-642911D01*
X49991792Y-589213D01*
X49992612Y-535512D01*
X49993352Y-481810D01*
X49994011Y-428107D01*
X49994591Y-374402D01*
X49995091Y-320695D01*
X49995510Y-266988D01*
X49995850Y-213279D01*
X49996110Y-159569D01*
X49996289Y-105857D01*
X49996389Y-52145D01*
X49996409Y1568D01*
X49996348Y55282D01*
X49996208Y108996D01*
X49995988Y162712D01*
X49995687Y216428D01*
X49995307Y270144D01*
X49994847Y323861D01*
X49994306Y377578D01*
X49993686Y431296D01*
X49992986Y485013D01*
X49992205Y538731D01*
X49991345Y592449D01*
X49990405Y646166D01*
X49989384Y699884D01*
X49988284Y753601D01*
X49987104Y807318D01*
X49985843Y861035D01*
X49984503Y914751D01*
X49983082Y968466D01*
X49981582Y1022181D01*
X49980002Y1075895D01*
X49978341Y1129608D01*
X49976601Y1183321D01*
X49974780Y1237032D01*
X49972880Y1290742D01*
X49970899Y1344452D01*
X49968839Y1398160D01*
X49966698Y1451866D01*
X49964478Y1505572D01*
X49962177Y1559275D01*
X49959797Y1612978D01*
X49957336Y1666678D01*
X49954796Y1720377D01*
X49952175Y1774074D01*
X49949474Y1827770D01*
X49946694Y1881463D01*
X49943833Y1935154D01*
X49940893Y1988843D01*
X49937872Y2042530D01*
X49934772Y2096215D01*
X49931591Y2149897D01*
X49928330Y2203576D01*
X49924990Y2257254D01*
X49921569Y2310928D01*
X49918069Y2364600D01*
X49914488Y2418269D01*
X49910828Y2471935D01*
X49907087Y2525599D01*
X49903267Y2579259D01*
X49899366Y2632916D01*
X49895386Y2686570D01*
X49893366Y2713396D01*
X49891326Y2740221D01*
X49889265Y2767045D01*
X49887185Y2793868D01*
X49885085Y2820690D01*
X49882965Y2847512D01*
X49880825Y2874332D01*
X49878664Y2901152D01*
X49876484Y2927971D01*
X49874284Y2954789D01*
X49872064Y2981606D01*
X49869824Y3008422D01*
X49867564Y3035237D01*
X49865284Y3062051D01*
X49862983Y3088864D01*
X49860663Y3115676D01*
X49858323Y3142487D01*
X49855963Y3169298D01*
X49853583Y3196107D01*
X49851183Y3222915D01*
X49848763Y3249722D01*
X49846323Y3276528D01*
X49843863Y3303333D01*
X49841383Y3330137D01*
X49838883Y3356940D01*
X49836363Y3383742D01*
X49833823Y3410543D01*
X49831263Y3437343D01*
X49828683Y3464141D01*
X49826083Y3490939D01*
X49823463Y3517735D01*
X49820824Y3544530D01*
X49818164Y3571324D01*
X49815484Y3598117D01*
X49812784Y3624909D01*
X49810064Y3651699D01*
X49807324Y3678489D01*
X49804565Y3705277D01*
X49801785Y3732064D01*
X49798985Y3758849D01*
X49796165Y3785634D01*
X49793326Y3812417D01*
X49790466Y3839199D01*
X49787586Y3865980D01*
X49784687Y3892759D01*
X49781767Y3919537D01*
X49778827Y3946314D01*
X49775868Y3973090D01*
X49772888Y3999864D01*
X49769889Y4026637D01*
X49766869Y4053408D01*
X49763830Y4080178D01*
X49760770Y4106947D01*
X49757691Y4133715D01*
X49754591Y4160481D01*
X49751472Y4187246D01*
X49748333Y4214009D01*
X49745173Y4240771D01*
X49741994Y4267531D01*
X49738795Y4294290D01*
X49735576Y4321048D01*
X49732336Y4347804D01*
X49729077Y4374559D01*
X49725798Y4401312D01*
X49722499Y4428064D01*
X49719180Y4454814D01*
X49715841Y4481563D01*
X49712482Y4508310D01*
X49709103Y4535056D01*
X49705704Y4561800D01*
X49702285Y4588543D01*
X49698846Y4615284D01*
X49695387Y4642024D01*
X49691908Y4668762D01*
X49688410Y4695498D01*
X49684891Y4722233D01*
X49681352Y4748966D01*
X49677794Y4775698D01*
X49674215Y4802428D01*
X49670616Y4829156D01*
X49666998Y4855883D01*
X49663359Y4882608D01*
X49659701Y4909332D01*
X49656023Y4936053D01*
X49652324Y4962773D01*
X49648606Y4989492D01*
X49644868Y5016208D01*
X49641109Y5042923D01*
X49637331Y5069636D01*
X49633533Y5096348D01*
X49629715Y5123058D01*
X49625877Y5149765D01*
X49622019Y5176472D01*
X49618141Y5203176D01*
X49614243Y5229879D01*
X49610325Y5256580D01*
X49606387Y5283279D01*
X49602430Y5309976D01*
X49598452Y5336671D01*
X49594454Y5363365D01*
X49590437Y5390056D01*
X49586399Y5416746D01*
X49582342Y5443434D01*
X49578264Y5470120D01*
X49574167Y5496804D01*
X49570049Y5523487D01*
X49565912Y5550167D01*
X49561755Y5576845D01*
X49557578Y5603522D01*
X49553381Y5630196D01*
X49549164Y5656869D01*
X49544927Y5683540D01*
X49540670Y5710208D01*
X49536393Y5736875D01*
X49532096Y5763540D01*
X49527780Y5790203D01*
X49523443Y5816863D01*
X49519086Y5843522D01*
X49514710Y5870178D01*
X49510313Y5896833D01*
X49505897Y5923486D01*
X49501461Y5950136D01*
X49497004Y5976784D01*
X49492528Y6003431D01*
X49488032Y6030075D01*
X49483516Y6056717D01*
X49478980Y6083357D01*
X49474424Y6109995D01*
X49469849Y6136631D01*
X49465253Y6163264D01*
X49460637Y6189896D01*
X49456002Y6216525D01*
X49451346Y6243152D01*
X49446671Y6269777D01*
X49441975Y6296400D01*
X49437260Y6323020D01*
X49432525Y6349638D01*
X49427770Y6376254D01*
X49422995Y6402868D01*
X49418200Y6429480D01*
X49413385Y6456089D01*
X49408550Y6482696D01*
X49403696Y6509301D01*
X49398821Y6535903D01*
X49393927Y6562503D01*
X49389012Y6589101D01*
X49384078Y6615697D01*
X49379124Y6642290D01*
X49374149Y6668881D01*
X49369155Y6695469D01*
X49364141Y6722056D01*
X49359108Y6748639D01*
X49354054Y6775221D01*
X49348980Y6801800D01*
X49343887Y6828376D01*
X49338773Y6854951D01*
X49333640Y6881522D01*
X49328486Y6908092D01*
X49323313Y6934658D01*
X49318120Y6961223D01*
X49312907Y6987785D01*
X49307674Y7014344D01*
X49302421Y7040901D01*
X49297149Y7067456D01*
X49291856Y7094008D01*
X49286544Y7120558D01*
X49281211Y7147104D01*
X49275859Y7173649D01*
X49270487Y7200191D01*
X49265095Y7226730D01*
X49259683Y7253267D01*
X49254251Y7279801D01*
X49248800Y7306333D01*
X49243328Y7332862D01*
X49237837Y7359388D01*
X49232325Y7385912D01*
X49226794Y7412433D01*
X49221243Y7438952D01*
X49215672Y7465468D01*
X49210081Y7491981D01*
X49204471Y7518491D01*
X49198840Y7544999D01*
X49193189Y7571505D01*
X49187519Y7598007D01*
X49181829Y7624507D01*
X49176119Y7651004D01*
X49170389Y7677498D01*
X49164639Y7703990D01*
X49158869Y7730479D01*
X49153080Y7756965D01*
X49147270Y7783448D01*
X49141441Y7809929D01*
X49135592Y7836407D01*
X49129723Y7862882D01*
X49123834Y7889354D01*
X49117925Y7915823D01*
X49111996Y7942290D01*
X49106048Y7968754D01*
X49100079Y7995214D01*
X49094091Y8021672D01*
X49088083Y8048127D01*
X49082055Y8074580D01*
X49076007Y8101029D01*
X49069940Y8127475D01*
X49063852Y8153919D01*
X49057745Y8180360D01*
X49051618Y8206797D01*
X49045471Y8233232D01*
X49039304Y8259664D01*
X49033117Y8286093D01*
X49026910Y8312518D01*
X49020684Y8338941D01*
X49014438Y8365361D01*
X49008171Y8391778D01*
X49001886Y8418192D01*
X48995580Y8444603D01*
X48989254Y8471011D01*
X48982909Y8497416D01*
X48976543Y8523817D01*
X48970158Y8550216D01*
X48963753Y8576612D01*
X48957328Y8603004D01*
X48950884Y8629393D01*
X48944419Y8655780D01*
X48937935Y8682163D01*
X48931431Y8708543D01*
X48924907Y8734920D01*
X48918363Y8761294D01*
X48911799Y8787665D01*
X48905216Y8814032D01*
X48898613Y8840396D01*
X48891989Y8866758D01*
X48885346Y8893116D01*
X48878684Y8919470D01*
X48872001Y8945822D01*
X48865299Y8972170D01*
X48858577Y8998515D01*
X48851835Y9024857D01*
X48845073Y9051196D01*
X48838291Y9077531D01*
X48831490Y9103863D01*
X48824668Y9130192D01*
X48817827Y9156517D01*
X48810967Y9182840D01*
X48804086Y9209158D01*
X48797185Y9235474D01*
X48790265Y9261786D01*
X48783325Y9288095D01*
X48776365Y9314401D01*
X48769385Y9340703D01*
X48762386Y9367002D01*
X48755367Y9393297D01*
X48748328Y9419589D01*
X48741269Y9445878D01*
X48734190Y9472163D01*
X48727092Y9498445D01*
X48719973Y9524723D01*
X48712835Y9550998D01*
X48705678Y9577269D01*
X48698500Y9603537D01*
X48691303Y9629802D01*
X48684085Y9656063D01*
X48676848Y9682320D01*
X48669592Y9708574D01*
X48662315Y9734825D01*
X48655019Y9761072D01*
X48647703Y9787315D01*
X48640367Y9813555D01*
X48633011Y9839791D01*
X48625636Y9866024D01*
X48618241Y9892253D01*
X48610826Y9918479D01*
X48603391Y9944701D01*
X48595937Y9970920D01*
X48588462Y9997134D01*
X48580968Y10023346D01*
X48573455Y10049553D01*
X48565921Y10075757D01*
X48558368Y10101957D01*
X48550795Y10128154D01*
X48543202Y10154347D01*
X48535589Y10180536D01*
X48527957Y10206722D01*
X48520305Y10232904D01*
X48512633Y10259082D01*
X48504941Y10285256D01*
X48497230Y10311427D01*
X48489499Y10337594D01*
X48481748Y10363757D01*
X48473978Y10389917D01*
X48466187Y10416072D01*
X48458377Y10442224D01*
X48450547Y10468372D01*
X48442698Y10494517D01*
X48434829Y10520657D01*
X48426940Y10546794D01*
X48419031Y10572926D01*
X48411102Y10599056D01*
X48403154Y10625180D01*
X48395186Y10651302D01*
X48387198Y10677419D01*
X48379191Y10703533D01*
X48371164Y10729642D01*
X48363117Y10755748D01*
X48355050Y10781850D01*
X48346964Y10807948D01*
X48338858Y10834042D01*
X48330732Y10860132D01*
X48322587Y10886218D01*
X48314422Y10912300D01*
X48306237Y10938378D01*
X48298032Y10964452D01*
X48289808Y10990522D01*
X48281564Y11016589D01*
X48273300Y11042651D01*
X48265016Y11068709D01*
X48256713Y11094763D01*
X48248390Y11120813D01*
X48240048Y11146859D01*
X48231685Y11172901D01*
X48223304Y11198939D01*
X48214902Y11224973D01*
X48206480Y11251003D01*
X48198039Y11277028D01*
X48189579Y11303050D01*
X48181098Y11329067D01*
X48172598Y11355080D01*
X48164078Y11381090D01*
X48155539Y11407095D01*
X48146979Y11433096D01*
X48138400Y11459092D01*
X48129802Y11485085D01*
X48121184Y11511073D01*
X48112546Y11537057D01*
X48103888Y11563037D01*
X48095211Y11589013D01*
X48086514Y11614984D01*
X48077797Y11640952D01*
X48069061Y11666914D01*
X48060305Y11692873D01*
X48051529Y11718827D01*
X48042734Y11744778D01*
X48033919Y11770724D01*
X48025084Y11796665D01*
X48016230Y11822603D01*
X48007355Y11848536D01*
X47998462Y11874464D01*
X47989548Y11900389D01*
X47980616Y11926308D01*
X47971663Y11952224D01*
X47962691Y11978135D01*
X47953699Y12004042D01*
X47944687Y12029945D01*
X47935656Y12055843D01*
X47926605Y12081737D01*
X47917534Y12107626D01*
X47908444Y12133511D01*
X47899334Y12159392D01*
X47890205Y12185267D01*
X47881056Y12211139D01*
X47871887Y12237006D01*
X47862699Y12262869D01*
X47853491Y12288727D01*
X47844263Y12314581D01*
X47835016Y12340430D01*
X47825749Y12366275D01*
X47816462Y12392114D01*
X47807156Y12417950D01*
X47797830Y12443781D01*
X47788485Y12469608D01*
X47779120Y12495430D01*
X47769735Y12521247D01*
X47760331Y12547060D01*
X47750907Y12572868D01*
X47741464Y12598672D01*
X47732000Y12624471D01*
X47722518Y12650265D01*
X47713015Y12676055D01*
X47703493Y12701840D01*
X47693952Y12727621D01*
X47684391Y12753397D01*
X47674810Y12779168D01*
X47665210Y12804934D01*
X47655590Y12830696D01*
X47645950Y12856453D01*
X47636291Y12882206D01*
X47626612Y12907953D01*
X47616914Y12933697D01*
X47607196Y12959435D01*
X47597458Y12985168D01*
X47587701Y13010897D01*
X47577924Y13036621D01*
X47568128Y13062340D01*
X47558312Y13088055D01*
X47548477Y13113764D01*
X47538622Y13139470D01*
X47528747Y13165169D01*
X47518853Y13190865D01*
X47508939Y13216555D01*
X47499006Y13242241D01*
X47489053Y13267921D01*
X47479081Y13293598D01*
X47469089Y13319268D01*
X47459077Y13344935D01*
X47449046Y13370596D01*
X47438995Y13396252D01*
X47428925Y13421904D01*
X47418835Y13447550D01*
X47408726Y13473192D01*
X47398597Y13498829D01*
X47388448Y13524460D01*
X47378280Y13550087D01*
X47368092Y13575709D01*
X47357885Y13601326D01*
X47347659Y13626937D01*
X47337412Y13652545D01*
X47327147Y13678146D01*
X47316861Y13703743D01*
X47306556Y13729335D01*
X47296232Y13754922D01*
X47285888Y13780504D01*
X47275524Y13806081D01*
X47265142Y13831652D01*
X47254739Y13857219D01*
X47244317Y13882780D01*
X47233875Y13908337D01*
X47223414Y13933888D01*
X47212933Y13959434D01*
X47202433Y13984975D01*
X47191914Y14010511D01*
X47181375Y14036042D01*
X47170816Y14061568D01*
X47160238Y14087088D01*
X47149640Y14112604D01*
X47139023Y14138114D01*
X47128386Y14163619D01*
X47117730Y14189119D01*
X47107054Y14214614D01*
X47096359Y14240103D01*
X47085644Y14265588D01*
X47074910Y14291066D01*
X47064156Y14316540D01*
X47053382Y14342009D01*
X47042590Y14367472D01*
X47031777Y14392930D01*
X47020946Y14418383D01*
X47010095Y14443830D01*
X46999224Y14469272D01*
X46988334Y14494709D01*
X46977424Y14520141D01*
X46963788Y14551856D01*
X-27645196Y-35388387D02*
X-27589950Y-35419583D01*
X-27534638Y-35450724D01*
X-27479261Y-35481810D01*
X-27423818Y-35512841D01*
X-27368310Y-35543817D01*
X-27312737Y-35574738D01*
X-27257098Y-35605603D01*
X-27201395Y-35636413D01*
X-27145627Y-35667167D01*
X-27089795Y-35697866D01*
X-27033898Y-35728508D01*
X-26977936Y-35759095D01*
X-26921911Y-35789626D01*
X-26865821Y-35820100D01*
X-26809667Y-35850518D01*
X-26753450Y-35880880D01*
X-26697169Y-35911185D01*
X-26640824Y-35941434D01*
X-26584416Y-35971625D01*
X-26527945Y-36001760D01*
X-26471411Y-36031838D01*
X-26414814Y-36061859D01*
X-26358154Y-36091822D01*
X-26301431Y-36121728D01*
X-26244646Y-36151577D01*
X-26187799Y-36181368D01*
X-26130889Y-36211101D01*
X-26073918Y-36240776D01*
X-26016884Y-36270394D01*
X-25959789Y-36299953D01*
X-25902632Y-36329454D01*
X-25845413Y-36358897D01*
X-25788134Y-36388281D01*
X-25730793Y-36417607D01*
X-25673391Y-36446875D01*
X-25615928Y-36476083D01*
X-25558405Y-36505233D01*
X-25500821Y-36534323D01*
X-25443176Y-36563355D01*
X-25385472Y-36592327D01*
X-25327707Y-36621240D01*
X-25269882Y-36650093D01*
X-25211998Y-36678887D01*
X-25154053Y-36707621D01*
X-25096050Y-36736296D01*
X-25037987Y-36764910D01*
X-24979865Y-36793464D01*
X-24921684Y-36821959D01*
X-24863444Y-36850393D01*
X-24805145Y-36878766D01*
X-24746788Y-36907079D01*
X-24688373Y-36935332D01*
X-24629899Y-36963524D01*
X-24571367Y-36991655D01*
X-24512778Y-37019725D01*
X-24454130Y-37047734D01*
X-24395425Y-37075682D01*
X-24336663Y-37103568D01*
X-24277843Y-37131393D01*
X-24218967Y-37159157D01*
X-24160033Y-37186859D01*
X-24101043Y-37214499D01*
X-24041996Y-37242078D01*
X-23982893Y-37269595D01*
X-23923733Y-37297049D01*
X-23864517Y-37324441D01*
X-23805246Y-37351771D01*
X-23745919Y-37379039D01*
X-23686536Y-37406244D01*
X-23627097Y-37433387D01*
X-23567604Y-37460466D01*
X-23508055Y-37487483D01*
X-23448452Y-37514437D01*
X-23388793Y-37541328D01*
X-23329081Y-37568156D01*
X-23269313Y-37594921D01*
X-23209492Y-37621622D01*
X-23149617Y-37648260D01*
X-23089687Y-37674834D01*
X-23029704Y-37701344D01*
X-22969667Y-37727791D01*
X-22909577Y-37754174D01*
X-22849434Y-37780492D01*
X-22789238Y-37806747D01*
X-22728989Y-37832937D01*
X-22668687Y-37859063D01*
X-22608333Y-37885125D01*
X-22547927Y-37911121D01*
X-22487468Y-37937054D01*
X-22426958Y-37962921D01*
X-22366395Y-37988724D01*
X-22305781Y-38014462D01*
X-22245116Y-38040134D01*
X-22184399Y-38065742D01*
X-22123632Y-38091284D01*
X-22062813Y-38116760D01*
X-22001944Y-38142172D01*
X-21941024Y-38167517D01*
X-21880054Y-38192797D01*
X-21819034Y-38218011D01*
X-21757964Y-38243160D01*
X-21696843Y-38268242D01*
X-21635674Y-38293258D01*
X-21574455Y-38318208D01*
X-21513186Y-38343091D01*
X-21451869Y-38367908D01*
X-21390503Y-38392659D01*
X-21329088Y-38417343D01*
X-21267624Y-38441960D01*
X-21206112Y-38466511D01*
X-21144552Y-38490994D01*
X-21082944Y-38515411D01*
X-21021288Y-38539760D01*
X-20959585Y-38564042D01*
X-20897834Y-38588257D01*
X-20836037Y-38612404D01*
X-20774192Y-38636484D01*
X-20712300Y-38660496D01*
X-20650361Y-38684441D01*
X-20588376Y-38708318D01*
X-20526345Y-38732126D01*
X-20464268Y-38755867D01*
X-20402145Y-38779540D01*
X-20339976Y-38803144D01*
X-20277762Y-38826681D01*
X-20215502Y-38850148D01*
X-20153197Y-38873548D01*
X-20090848Y-38896878D01*
X-20028453Y-38920140D01*
X-19966014Y-38943334D01*
X-19903531Y-38966458D01*
X-19841003Y-38989514D01*
X-19778432Y-39012500D01*
X-19715816Y-39035417D01*
X-19653157Y-39058265D01*
X-19590455Y-39081044D01*
X-19527710Y-39103753D01*
X-19464921Y-39126393D01*
X-19402090Y-39148963D01*
X-19339216Y-39171463D01*
X-19276300Y-39193894D01*
X-19213341Y-39216255D01*
X-19150340Y-39238546D01*
X-19087298Y-39260766D01*
X-19024214Y-39282917D01*
X-18961088Y-39304997D01*
X-18897922Y-39327007D01*
X-18834714Y-39348947D01*
X-18771465Y-39370816D01*
X-18708176Y-39392614D01*
X-18644846Y-39414342D01*
X-18581476Y-39435999D01*
X-18518066Y-39457585D01*
X-18454616Y-39479100D01*
X-18391127Y-39500544D01*
X-18327598Y-39521917D01*
X-18264030Y-39543219D01*
X-18200422Y-39564450D01*
X-18136776Y-39585609D01*
X-18073091Y-39606697D01*
X-18009368Y-39627713D01*
X-17945607Y-39648657D01*
X-17881807Y-39669530D01*
X-17817970Y-39690331D01*
X-17754095Y-39711060D01*
X-17690182Y-39731718D01*
X-17626232Y-39752303D01*
X-17562246Y-39772816D01*
X-17498222Y-39793257D01*
X-17434162Y-39813625D01*
X-17370065Y-39833921D01*
X-17305932Y-39854145D01*
X-17241763Y-39874296D01*
X-17177559Y-39894375D01*
X-17113318Y-39914381D01*
X-17049042Y-39934314D01*
X-16984731Y-39954174D01*
X-16920385Y-39973961D01*
X-16856005Y-39993676D01*
X-16791589Y-40013317D01*
X-16727140Y-40032885D01*
X-16662656Y-40052380D01*
X-16630401Y-40062100D01*
X-16598138Y-40071802D01*
X-16565866Y-40081485D01*
X-16533586Y-40091150D01*
X-16501297Y-40100796D01*
X-16469001Y-40110425D01*
X-16436695Y-40120034D01*
X-16404382Y-40129626D01*
X-16372060Y-40139199D01*
X-16339730Y-40148753D01*
X-16307392Y-40158290D01*
X-16275045Y-40167807D01*
X-16242691Y-40177307D01*
X-16210328Y-40186787D01*
X-16177957Y-40196250D01*
X-16145578Y-40205694D01*
X-16113191Y-40215119D01*
X-16080795Y-40224526D01*
X-16048392Y-40233915D01*
X-16015981Y-40243285D01*
X-15983562Y-40252636D01*
X-15951134Y-40261969D01*
X-15918699Y-40271283D01*
X-15886256Y-40280579D01*
X-15853805Y-40289857D01*
X-15821347Y-40299115D01*
X-15788880Y-40308355D01*
X-15756406Y-40317577D01*
X-15723924Y-40326780D01*
X-15691434Y-40335965D01*
X-15658936Y-40345130D01*
X-15626431Y-40354278D01*
X-15593918Y-40363406D01*
X-15561397Y-40372516D01*
X-15528869Y-40381608D01*
X-15496333Y-40390680D01*
X-15463790Y-40399734D01*
X-15431239Y-40408770D01*
X-15398680Y-40417786D01*
X-15366115Y-40426784D01*
X-15333541Y-40435764D01*
X-15300960Y-40444724D01*
X-15268372Y-40453666D01*
X-15235776Y-40462589D01*
X-15203174Y-40471494D01*
X-15170563Y-40480380D01*
X-15137946Y-40489247D01*
X-15105321Y-40498095D01*
X-15072689Y-40506924D01*
X-15040049Y-40515735D01*
X-15007403Y-40524527D01*
X-14974749Y-40533300D01*
X-14942088Y-40542055D01*
X-14909420Y-40550790D01*
X-14876745Y-40559507D01*
X-14844063Y-40568205D01*
X-14811374Y-40576884D01*
X-14778677Y-40585545D01*
X-14745974Y-40594186D01*
X-14713264Y-40602809D01*
X-14680547Y-40611413D01*
X-14647823Y-40619998D01*
X-14615092Y-40628564D01*
X-14582354Y-40637111D01*
X-14549610Y-40645639D01*
X-14516858Y-40654149D01*
X-14484100Y-40662639D01*
X-14451335Y-40671111D01*
X-14418563Y-40679563D01*
X-14385785Y-40687997D01*
X-14353000Y-40696412D01*
X-14320208Y-40704808D01*
X-14287410Y-40713185D01*
X-14254605Y-40721543D01*
X-14221793Y-40729882D01*
X-14188975Y-40738202D01*
X-14156151Y-40746503D01*
X-14123319Y-40754785D01*
X-14090482Y-40763048D01*
X-14057638Y-40771292D01*
X-14024788Y-40779517D01*
X-13991931Y-40787723D01*
X-13959068Y-40795910D01*
X-13926198Y-40804078D01*
X-13893322Y-40812227D01*
X-13860440Y-40820357D01*
X-13827552Y-40828467D01*
X-13794657Y-40836559D01*
X-13761757Y-40844632D01*
X-13728849Y-40852685D01*
X-13695936Y-40860720D01*
X-13663017Y-40868735D01*
X-13630092Y-40876732D01*
X-13597160Y-40884709D01*
X-13564223Y-40892667D01*
X-13531279Y-40900606D01*
X-13498330Y-40908526D01*
X-13465374Y-40916427D01*
X-13432413Y-40924308D01*
X-13399445Y-40932171D01*
X-13366473Y-40940014D01*
X-13333493Y-40947838D01*
X-13300509Y-40955643D01*
X-13267517Y-40963429D01*
X-13234521Y-40971195D01*
X-13201519Y-40978943D01*
X-13168511Y-40986671D01*
X-13135497Y-40994380D01*
X-13102478Y-41002069D01*
X-13069452Y-41009740D01*
X-13036422Y-41017391D01*
X-13003385Y-41025023D01*
X-12970344Y-41032636D01*
X-12937296Y-41040230D01*
X-12904244Y-41047804D01*
X-12871185Y-41055359D01*
X-12838121Y-41062895D01*
X-12805052Y-41070412D01*
X-12771977Y-41077909D01*
X-12738897Y-41085387D01*
X-12705812Y-41092845D01*
X-12672720Y-41100285D01*
X-12639625Y-41107705D01*
X-12606523Y-41115106D01*
X-12573416Y-41122487D01*
X-12540304Y-41129849D01*
X-12507187Y-41137192D01*
X-12474064Y-41144515D01*
X-12440937Y-41151819D01*
X-12407804Y-41159104D01*
X-12374667Y-41166370D01*
X-12341524Y-41173616D01*
X-12308376Y-41180842D01*
X-12275223Y-41188050D01*
X-12242066Y-41195237D01*
X-12208902Y-41202406D01*
X-12175735Y-41209555D01*
X-12142562Y-41216685D01*
X-12109385Y-41223795D01*
X-12076202Y-41230886D01*
X-12043015Y-41237957D01*
X-12009822Y-41245010D01*
X-11976626Y-41252042D01*
X-11943423Y-41259055D01*
X-11910218Y-41266049D01*
X-11877006Y-41273023D01*
X-11843791Y-41279978D01*
X-11810570Y-41286914D01*
X-11777345Y-41293829D01*
X-11744115Y-41300726D01*
X-11710881Y-41307603D01*
X-11677642Y-41314460D01*
X-11644399Y-41321298D01*
X-11611150Y-41328117D01*
X-11577899Y-41334916D01*
X-11544641Y-41341695D01*
X-11511381Y-41348455D01*
X-11478114Y-41355196D01*
X-11444845Y-41361917D01*
X-11411570Y-41368618D01*
X-11378292Y-41375300D01*
X-11345008Y-41381962D01*
X-11311722Y-41388605D01*
X-11278430Y-41395228D01*
X-11245135Y-41401832D01*
X-11211834Y-41408416D01*
X-11178531Y-41414981D01*
X-11145222Y-41421526D01*
X-11111910Y-41428051D01*
X-11078593Y-41434557D01*
X-11045274Y-41441043D01*
X-11011949Y-41447510D01*
X-10978621Y-41453957D01*
X-10945288Y-41460384D01*
X-10911952Y-41466792D01*
X-10878611Y-41473181D01*
X-10845268Y-41479549D01*
X-10811919Y-41485898D01*
X-10778568Y-41492227D01*
X-10745211Y-41498537D01*
X-10711852Y-41504827D01*
X-10678488Y-41511098D01*
X-10645122Y-41517348D01*
X-10611750Y-41523580D01*
X-10578377Y-41529791D01*
X-10544998Y-41535983D01*
X-10511617Y-41542155D01*
X-10478231Y-41548308D01*
X-10444843Y-41554440D01*
X-10411449Y-41560554D01*
X-10378054Y-41566647D01*
X-10344654Y-41572721D01*
X-10311251Y-41578775D01*
X-10277844Y-41584809D01*
X-10244435Y-41590824D01*
X-10211021Y-41596819D01*
X-10177605Y-41602794D01*
X-10144184Y-41608749D01*
X-10110761Y-41614685D01*
X-10077334Y-41620601D01*
X-10043905Y-41626497D01*
X-10010471Y-41632374D01*
X-9977035Y-41638231D01*
X-9943594Y-41644068D01*
X-9910152Y-41649885D01*
X-9876706Y-41655683D01*
X-9843257Y-41661461D01*
X-9809804Y-41667219D01*
X-9776350Y-41672957D01*
X-9742891Y-41678676D01*
X-9709430Y-41684374D01*
X-9675965Y-41690053D01*
X-9642499Y-41695712D01*
X-9609027Y-41701352D01*
X-9575555Y-41706971D01*
X-9542078Y-41712571D01*
X-9508600Y-41718151D01*
X-9475117Y-41723711D01*
X-9441634Y-41729252D01*
X-9408146Y-41734772D01*
X-9374656Y-41740273D01*
X-9341163Y-41745754D01*
X-9307668Y-41751215D01*
X-9274169Y-41756656D01*
X-9240669Y-41762078D01*
X-9207164Y-41767479D01*
X-9173659Y-41772861D01*
X-9140149Y-41778223D01*
X-9106639Y-41783565D01*
X-9073124Y-41788887D01*
X-9039609Y-41794190D01*
X-9006089Y-41799472D01*
X-8972569Y-41804735D01*
X-8939044Y-41809978D01*
X-8905519Y-41815201D01*
X-8871990Y-41820404D01*
X-8838460Y-41825587D01*
X-8804926Y-41830750D01*
X-8771391Y-41835893D01*
X-8737853Y-41841017D01*
X-8704314Y-41846121D01*
X-8670770Y-41851204D01*
X-8637227Y-41856268D01*
X-8603680Y-41861312D01*
X-8570132Y-41866336D01*
X-8536580Y-41871340D01*
X-8503028Y-41876324D01*
X-8469472Y-41881289D01*
X-8435916Y-41886233D01*
X-8402356Y-41891158D01*
X-8368796Y-41896062D01*
X-8335232Y-41900947D01*
X-8301668Y-41905811D01*
X-8268100Y-41910656D01*
X-8234532Y-41915481D01*
X-8200961Y-41920286D01*
X-8167389Y-41925071D01*
X-8133814Y-41929836D01*
X-8100239Y-41934581D01*
X-8066660Y-41939306D01*
X-8033081Y-41944011D01*
X-7999499Y-41948696D01*
X-7965917Y-41953361D01*
X-7932331Y-41958007D01*
X-7898746Y-41962632D01*
X-7865157Y-41967237D01*
X-7831568Y-41971822D01*
X-7797976Y-41976388D01*
X-7764385Y-41980933D01*
X-7730789Y-41985459D01*
X-7697195Y-41989964D01*
X-7663596Y-41994449D01*
X-7629999Y-41998915D01*
X-7596398Y-42003360D01*
X-7562798Y-42007786D01*
X-7529194Y-42012191D01*
X-7495591Y-42016577D01*
X-7461984Y-42020942D01*
X-7428379Y-42025288D01*
X-7394770Y-42029613D01*
X-7361162Y-42033918D01*
X-7327550Y-42038204D01*
X-7293940Y-42042469D01*
X-7260326Y-42046715D01*
X-7226713Y-42050940D01*
X-7193097Y-42055146D01*
X-7159482Y-42059331D01*
X-7125863Y-42063496D01*
X-7092247Y-42067642D01*
X-7058626Y-42071767D01*
X-7025007Y-42075872D01*
X-6991385Y-42079957D01*
X-6957764Y-42084022D01*
X-6924139Y-42088068D01*
X-6890517Y-42092093D01*
X-6856891Y-42096098D01*
X-6823266Y-42100083D01*
X-6789638Y-42104048D01*
X-6756013Y-42107993D01*
X-6722383Y-42111918D01*
X-6688756Y-42115822D01*
X-6655125Y-42119707D01*
X-6621496Y-42123572D01*
X-6587864Y-42127417D01*
X-6554234Y-42131241D01*
X-6520600Y-42135046D01*
X-6486969Y-42138830D01*
X-6453334Y-42142595D01*
X-6419702Y-42146339D01*
X-6386066Y-42150063D01*
X-6352432Y-42153767D01*
X-6318796Y-42157452D01*
X-6285161Y-42161116D01*
X-6251524Y-42164760D01*
X-6217888Y-42168383D01*
X-6184250Y-42171987D01*
X-6150614Y-42175571D01*
X-6116975Y-42179135D01*
X-6083338Y-42182678D01*
X-6049699Y-42186202D01*
X-6016061Y-42189705D01*
X-5982421Y-42193189D01*
X-5948784Y-42196652D01*
X-5915143Y-42200095D01*
X-5881505Y-42203518D01*
X-5847864Y-42206921D01*
X-5814226Y-42210304D01*
X-5780585Y-42213667D01*
X-5746947Y-42217009D01*
X-5713306Y-42220332D01*
X-5679668Y-42223634D01*
X-5646026Y-42226917D01*
X-5612388Y-42230179D01*
X-5578747Y-42233421D01*
X-5545109Y-42236643D01*
X-5511468Y-42239845D01*
X-5477830Y-42243027D01*
X-5444189Y-42246189D01*
X-5410552Y-42249330D01*
X-5376912Y-42252452D01*
X-5343275Y-42255553D01*
X-5309635Y-42258635D01*
X-5275998Y-42261696D01*
X-5242359Y-42264737D01*
X-5208723Y-42267758D01*
X-5175085Y-42270759D01*
X-5141449Y-42273740D01*
X-5107812Y-42276700D01*
X-5074177Y-42279641D01*
X-5040540Y-42282561D01*
X-5006907Y-42285462D01*
X-4973271Y-42288342D01*
X-4962945Y-42289222D01*
D10*
X-6350000Y20750000D02*
X-6350000Y42150695D01*
D11*
X18934305Y-39322391D02*
X18996397Y-39300677D01*
X19058461Y-39278889D01*
X19120496Y-39257026D01*
X19182502Y-39235088D01*
X19244480Y-39213075D01*
X19306428Y-39190988D01*
X19368347Y-39168827D01*
X19430236Y-39146591D01*
X19492096Y-39124281D01*
X19553926Y-39101896D01*
X19615725Y-39079438D01*
X19677495Y-39056905D01*
X19739235Y-39034298D01*
X19800944Y-39011617D01*
X19862622Y-38988862D01*
X19924270Y-38966033D01*
X19985887Y-38943131D01*
X20047472Y-38920154D01*
X20109026Y-38897104D01*
X20170549Y-38873980D01*
X20232041Y-38850783D01*
X20293500Y-38827512D01*
X20354928Y-38804168D01*
X20416323Y-38780750D01*
X20477687Y-38757259D01*
X20539017Y-38733695D01*
X20600316Y-38710057D01*
X20661581Y-38686347D01*
X20722814Y-38662563D01*
X20784013Y-38638707D01*
X20845180Y-38614778D01*
X20906313Y-38590775D01*
X20967412Y-38566700D01*
X21028478Y-38542553D01*
X21089509Y-38518333D01*
X21150507Y-38494040D01*
X21211470Y-38469674D01*
X21272399Y-38445237D01*
X21333294Y-38420727D01*
X21394154Y-38396145D01*
X21454979Y-38371490D01*
X21515768Y-38346764D01*
X21576523Y-38321965D01*
X21637242Y-38297095D01*
X21697926Y-38272152D01*
X21758574Y-38247138D01*
X21819186Y-38222052D01*
X21879762Y-38196895D01*
X21940302Y-38171666D01*
X22000805Y-38146365D01*
X22061272Y-38120993D01*
X22121703Y-38095550D01*
X22182096Y-38070035D01*
X22242452Y-38044449D01*
X22302771Y-38018792D01*
X22363053Y-37993064D01*
X22423297Y-37967265D01*
X22483504Y-37941396D01*
X22543673Y-37915455D01*
X22603803Y-37889444D01*
X22663896Y-37863362D01*
X22723950Y-37837209D01*
X22783965Y-37810987D01*
X22843942Y-37784693D01*
X22903880Y-37758330D01*
X22963779Y-37731896D01*
X23023639Y-37705392D01*
X23083459Y-37678818D01*
X23143240Y-37652174D01*
X23202982Y-37625460D01*
X23262683Y-37598676D01*
X23322344Y-37571823D01*
X23381965Y-37544900D01*
X23441546Y-37517908D01*
X23501086Y-37490846D01*
X23560586Y-37463714D01*
X23620045Y-37436514D01*
X23679462Y-37409244D01*
X23738839Y-37381905D01*
X23798174Y-37354497D01*
X23857468Y-37327020D01*
X23916720Y-37299474D01*
X23975930Y-37271860D01*
X24035098Y-37244176D01*
X24094224Y-37216425D01*
X24153307Y-37188604D01*
X24212349Y-37160716D01*
X24271347Y-37132759D01*
X24330303Y-37104734D01*
X24389215Y-37076640D01*
X24448084Y-37048479D01*
X24506911Y-37020250D01*
X24565693Y-36991953D01*
X24624432Y-36963588D01*
X24683127Y-36935155D01*
X24741778Y-36906655D01*
X24800385Y-36878088D01*
X24858947Y-36849453D01*
X24917466Y-36820751D01*
X24975939Y-36791981D01*
X25034368Y-36763145D01*
X25063565Y-36748701D01*
X25092751Y-36734241D01*
X25121926Y-36719764D01*
X25151090Y-36705271D01*
X25180242Y-36690760D01*
X25209383Y-36676234D01*
X25238513Y-36661690D01*
X25267630Y-36647130D01*
X25296737Y-36632553D01*
X25325832Y-36617959D01*
X25354917Y-36603349D01*
X25383989Y-36588722D01*
X25413050Y-36574079D01*
X25442099Y-36559419D01*
X25471137Y-36544742D01*
X25500163Y-36530049D01*
X25529178Y-36515339D01*
X25558181Y-36500613D01*
X25587172Y-36485870D01*
X25616152Y-36471111D01*
X25645120Y-36456335D01*
X25674077Y-36441543D01*
X25703022Y-36426734D01*
X25731954Y-36411909D01*
X25760876Y-36397067D01*
X25789785Y-36382209D01*
X25818683Y-36367334D01*
X25847569Y-36352444D01*
X25876444Y-36337536D01*
X25905306Y-36322612D01*
X25934156Y-36307672D01*
X25962995Y-36292716D01*
X25991822Y-36277743D01*
X26020636Y-36262753D01*
X26049439Y-36247748D01*
X26078230Y-36232726D01*
X26107009Y-36217688D01*
X26135775Y-36202633D01*
X26164531Y-36187562D01*
X26193273Y-36172476D01*
X26222004Y-36157372D01*
X26250722Y-36142253D01*
X26279429Y-36127117D01*
X26308123Y-36111965D01*
X26336806Y-36096797D01*
X26365476Y-36081613D01*
X26394134Y-36066412D01*
X26422779Y-36051195D01*
X26451413Y-36035962D01*
X26480034Y-36020714D01*
X26508643Y-36005448D01*
X26537240Y-35990167D01*
X26565824Y-35974870D01*
X26594396Y-35959557D01*
X26622956Y-35944227D01*
X26651503Y-35928882D01*
X26680038Y-35913520D01*
X26708560Y-35898143D01*
X26737071Y-35882749D01*
X26765568Y-35867339D01*
X26794053Y-35851914D01*
X26822526Y-35836472D01*
X26850986Y-35821015D01*
X26879434Y-35805541D01*
X26907869Y-35790052D01*
X26936291Y-35774546D01*
X26964701Y-35759025D01*
X26993098Y-35743488D01*
X27021483Y-35727935D01*
X27049855Y-35712366D01*
X27078214Y-35696781D01*
X27106561Y-35681181D01*
X27134895Y-35665564D01*
X27163216Y-35649932D01*
X27191524Y-35634284D01*
X27219820Y-35618620D01*
X27248103Y-35602940D01*
X27276373Y-35587245D01*
X27304630Y-35571534D01*
X27332875Y-35555807D01*
X27361106Y-35540064D01*
X27389325Y-35524306D01*
X27417530Y-35508532D01*
X27445723Y-35492742D01*
X27473903Y-35476937D01*
X27502070Y-35461116D01*
X27530224Y-35445279D01*
X27558364Y-35429427D01*
X27586492Y-35413559D01*
X27614607Y-35397676D01*
X27642709Y-35381776D01*
X27670797Y-35365862D01*
X27698873Y-35349932D01*
X27726935Y-35333986D01*
X27754984Y-35318025D01*
X27783020Y-35302048D01*
X27811043Y-35286056D01*
X27839053Y-35270048D01*
X27867049Y-35254025D01*
X27895032Y-35237986D01*
X27923002Y-35221932D01*
X27950958Y-35205862D01*
X27978902Y-35189777D01*
X28006832Y-35173677D01*
X28034748Y-35157561D01*
X28062651Y-35141430D01*
X28090541Y-35125283D01*
X28118418Y-35109121D01*
X28146281Y-35092944D01*
X28174130Y-35076752D01*
X28201966Y-35060544D01*
X28229789Y-35044321D01*
X28257598Y-35028082D01*
X28285393Y-35011829D01*
X28313175Y-34995560D01*
X28340944Y-34979276D01*
X28368699Y-34962976D01*
X28396440Y-34946662D01*
X28424168Y-34930332D01*
X28451882Y-34913987D01*
X28479582Y-34897627D01*
X28507269Y-34881252D01*
X28534941Y-34864861D01*
X28562601Y-34848456D01*
X28590246Y-34832035D01*
X28617878Y-34815600D01*
X28645496Y-34799149D01*
X28673100Y-34782683D01*
X28700690Y-34766202D01*
X28728267Y-34749706D01*
X28755829Y-34733196D01*
X28783378Y-34716670D01*
X28810913Y-34700129D01*
X28838434Y-34683573D01*
X28865941Y-34667002D01*
X28893434Y-34650416D01*
X28920913Y-34633816D01*
X28948378Y-34617200D01*
X28975829Y-34600570D01*
X29003266Y-34583924D01*
X29030689Y-34567264D01*
X29058098Y-34550589D01*
X29085493Y-34533899D01*
X29112874Y-34517194D01*
X29140240Y-34500475D01*
X29167593Y-34483741D01*
X29194931Y-34466992D01*
X29222255Y-34450228D01*
X29249565Y-34433449D01*
X29276861Y-34416656D01*
X29304142Y-34399848D01*
X29331410Y-34383025D01*
X29358662Y-34366187D01*
X29385901Y-34349335D01*
X29413125Y-34332468D01*
X29440335Y-34315587D01*
X29467531Y-34298691D01*
X29494712Y-34281780D01*
X29521879Y-34264855D01*
X29549031Y-34247915D01*
X29576169Y-34230960D01*
X29603293Y-34213991D01*
X29630402Y-34197008D01*
X29657497Y-34180010D01*
X29684577Y-34162997D01*
X29711642Y-34145970D01*
X29738693Y-34128929D01*
X29765730Y-34111872D01*
X29792751Y-34094802D01*
X29819759Y-34077717D01*
X29846751Y-34060618D01*
X29873730Y-34043504D01*
X29900693Y-34026376D01*
X29927642Y-34009233D01*
X29954575Y-33992077D01*
X29981495Y-33974905D01*
X30008399Y-33957720D01*
X30035289Y-33940520D01*
X30062164Y-33923306D01*
X30089025Y-33906078D01*
X30115870Y-33888835D01*
X30142701Y-33871578D01*
X30169516Y-33854307D01*
X30196317Y-33837022D01*
X30223103Y-33819722D01*
X30249875Y-33802408D01*
X30276630Y-33785081D01*
X30303372Y-33767738D01*
X30330098Y-33750382D01*
X30356810Y-33733012D01*
X30383506Y-33715628D01*
X30410188Y-33698229D01*
X30436854Y-33680816D01*
X30463505Y-33663389D01*
X30490141Y-33645949D01*
X30516763Y-33628494D01*
X30543368Y-33611026D01*
X30569960Y-33593543D01*
X30596535Y-33576046D01*
X30623096Y-33558535D01*
X30649641Y-33541011D01*
X30676172Y-33523472D01*
X30702686Y-33505920D01*
X30729187Y-33488353D01*
X30755671Y-33470773D01*
X30782141Y-33453178D01*
X30808594Y-33435571D01*
X30835033Y-33417948D01*
X30861456Y-33400313D01*
X30887865Y-33382663D01*
X30914257Y-33365000D01*
X30940635Y-33347323D01*
X30966997Y-33329632D01*
X30993344Y-33311927D01*
X31019674Y-33294209D01*
X31045991Y-33276477D01*
X31072290Y-33258731D01*
X31098576Y-33240972D01*
X31124844Y-33223199D01*
X31151099Y-33205412D01*
X31177336Y-33187612D01*
X31203560Y-33169798D01*
X31229766Y-33151970D01*
X31255958Y-33134129D01*
X31282134Y-33116274D01*
X31308294Y-33098406D01*
X31334439Y-33080524D01*
X31360568Y-33062628D01*
X31386681Y-33044720D01*
X31412779Y-33026797D01*
X31438861Y-33008862D01*
X31464927Y-32990912D01*
X31490977Y-32972950D01*
X31517012Y-32954973D01*
X31543031Y-32936984D01*
X31569035Y-32918981D01*
X31595021Y-32900965D01*
X31620993Y-32882935D01*
X31646948Y-32864892D01*
X31672889Y-32846835D01*
X31698812Y-32828766D01*
X31724721Y-32810682D01*
X31750612Y-32792587D01*
X31776489Y-32774477D01*
X31802348Y-32756354D01*
X31828193Y-32738218D01*
X31854021Y-32720069D01*
X31879834Y-32701906D01*
X31905629Y-32683731D01*
X31931410Y-32665542D01*
X31957174Y-32647340D01*
X31982922Y-32629125D01*
X32008654Y-32610897D01*
X32034370Y-32592656D01*
X32060069Y-32574402D01*
X32085753Y-32556134D01*
X32111420Y-32537854D01*
X32137072Y-32519560D01*
X32162706Y-32501254D01*
X32188326Y-32482934D01*
X32213928Y-32464602D01*
X32239515Y-32446256D01*
X32265084Y-32427898D01*
X32290639Y-32409526D01*
X32316175Y-32391142D01*
X32341697Y-32372745D01*
X32367202Y-32354335D01*
X32392691Y-32335912D01*
X32418162Y-32317476D01*
X32443619Y-32299027D01*
X32469057Y-32280566D01*
X32494481Y-32262092D01*
X32519887Y-32243605D01*
X32545278Y-32225105D01*
X32570651Y-32206593D01*
X32596009Y-32188067D01*
X32621349Y-32169530D01*
X32646673Y-32150979D01*
X32671980Y-32132416D01*
X32697272Y-32113839D01*
X32722546Y-32095251D01*
X32747805Y-32076649D01*
X32773045Y-32058036D01*
X32798271Y-32039409D01*
X32823478Y-32020770D01*
X32848670Y-32002118D01*
X32873845Y-31983454D01*
X32899003Y-31964777D01*
X32924144Y-31946088D01*
X32949270Y-31927386D01*
X32974377Y-31908672D01*
X32999469Y-31889945D01*
X33024543Y-31871206D01*
X33049601Y-31852454D01*
X33074642Y-31833690D01*
X33099666Y-31814913D01*
X33124673Y-31796125D01*
X33149664Y-31777323D01*
X33174637Y-31758510D01*
X33199595Y-31739684D01*
X33224534Y-31720846D01*
X33249458Y-31701995D01*
X33274363Y-31683133D01*
X33299253Y-31664257D01*
X33324124Y-31645371D01*
X33348980Y-31626470D01*
X33373818Y-31607559D01*
X33398640Y-31588635D01*
X33423443Y-31569699D01*
X33448231Y-31550750D01*
X33473001Y-31531791D01*
X33497755Y-31512817D01*
X33522490Y-31493833D01*
X33547210Y-31474836D01*
X33571911Y-31455828D01*
X33596596Y-31436806D01*
X33621263Y-31417774D01*
X33645914Y-31398728D01*
X33670547Y-31379672D01*
X33695164Y-31360602D01*
X33719762Y-31341522D01*
X33744344Y-31322429D01*
X33768908Y-31303324D01*
X33793456Y-31284207D01*
X33817985Y-31265079D01*
X33842498Y-31245938D01*
X33866993Y-31226786D01*
X33891472Y-31207621D01*
X33915932Y-31188446D01*
X33940376Y-31169257D01*
X33964801Y-31150058D01*
X33989211Y-31130846D01*
X34013601Y-31111623D01*
X34037976Y-31092387D01*
X34062331Y-31073141D01*
X34086671Y-31053882D01*
X34110992Y-31034612D01*
X34135297Y-31015330D01*
X34159583Y-30996037D01*
X34183853Y-30976731D01*
X34208104Y-30957415D01*
X34232339Y-30938086D01*
X34256554Y-30918746D01*
X34280754Y-30899394D01*
X34304935Y-30880031D01*
X34329100Y-30860656D01*
X34353245Y-30841270D01*
X34377375Y-30821872D01*
X34401485Y-30802463D01*
X34425579Y-30783042D01*
X34449654Y-30763610D01*
X34473713Y-30744166D01*
X34497753Y-30724711D01*
X34521777Y-30705244D01*
X34545781Y-30685767D01*
X34569769Y-30666277D01*
X34593738Y-30646777D01*
X34617691Y-30627264D01*
X34641624Y-30607742D01*
X34665541Y-30588206D01*
X34689439Y-30568661D01*
X34713320Y-30549103D01*
X34737182Y-30529535D01*
X34761028Y-30509955D01*
X34784854Y-30490365D01*
X34808664Y-30470762D01*
X34832455Y-30451150D01*
X34856229Y-30431524D01*
X34879984Y-30411890D01*
X34903723Y-30392242D01*
X34927441Y-30372585D01*
X34951144Y-30352915D01*
X34974827Y-30333236D01*
X34998494Y-30313544D01*
X35022141Y-30293843D01*
X35045771Y-30274129D01*
X35069382Y-30254406D01*
X35092977Y-30234670D01*
X35116552Y-30214924D01*
X35140110Y-30195167D01*
X35163649Y-30175399D01*
X35187171Y-30155620D01*
X35210674Y-30135831D01*
X35234160Y-30116029D01*
X35257626Y-30096218D01*
X35281076Y-30076395D01*
X35304506Y-30056562D01*
X35327919Y-30036718D01*
X35351313Y-30016863D01*
X35374690Y-29996997D01*
X35398047Y-29977121D01*
X35421388Y-29957233D01*
X35444708Y-29937336D01*
X35468013Y-29917427D01*
X35491297Y-29897508D01*
X35514564Y-29877577D01*
X35537812Y-29857637D01*
X35561043Y-29837685D01*
X35584254Y-29817724D01*
X35607448Y-29797751D01*
X35630622Y-29777768D01*
X35653780Y-29757774D01*
X35676917Y-29737770D01*
X35700038Y-29717755D01*
X35723139Y-29697730D01*
X35746223Y-29677693D01*
X35769286Y-29657648D01*
X35792334Y-29637590D01*
X35815360Y-29617524D01*
X35838371Y-29597445D01*
X35861361Y-29577358D01*
X35884334Y-29557259D01*
X35907287Y-29537151D01*
X35930223Y-29517030D01*
X35953139Y-29496902D01*
X35976038Y-29476761D01*
X35998917Y-29456612D01*
X36021779Y-29436450D01*
X36044620Y-29416280D01*
X36067445Y-29396098D01*
X36090250Y-29375908D01*
X36113037Y-29355705D01*
X36135804Y-29335494D01*
X36158555Y-29315272D01*
X36181284Y-29295040D01*
X36203997Y-29274797D01*
X36226690Y-29254546D01*
X36249366Y-29234282D01*
X36272020Y-29214011D01*
X36294659Y-29193727D01*
X36317276Y-29173435D01*
X36339877Y-29153131D01*
X36362457Y-29132819D01*
X36385020Y-29112495D01*
X36407562Y-29092164D01*
X36430088Y-29071820D01*
X36452593Y-29051468D01*
X36475081Y-29031104D01*
X36497548Y-29010732D01*
X36519998Y-28990349D01*
X36542428Y-28969957D01*
X36564840Y-28949554D01*
X36587232Y-28929143D01*
X36609607Y-28908720D01*
X36631961Y-28888289D01*
X36654298Y-28867846D01*
X36676614Y-28847396D01*
X36698913Y-28826933D01*
X36721191Y-28806463D01*
X36743452Y-28785982D01*
X36765692Y-28765492D01*
X36787915Y-28744991D01*
X36810118Y-28724482D01*
X36832303Y-28703962D01*
X36854467Y-28683434D01*
X36876614Y-28662894D01*
X36898740Y-28642346D01*
X36920849Y-28621787D01*
X36942937Y-28601221D01*
X36965008Y-28580643D01*
X36987057Y-28560057D01*
X37009090Y-28539460D01*
X37031102Y-28518855D01*
X37053096Y-28498239D01*
X37075069Y-28477616D01*
X37097025Y-28456980D01*
X37118960Y-28436338D01*
X37140878Y-28415684D01*
X37162774Y-28395023D01*
X37184654Y-28374350D01*
X37206512Y-28353670D01*
X37228353Y-28332978D01*
X37250173Y-28312279D01*
X37271975Y-28291569D01*
X37293756Y-28270852D01*
X37315520Y-28250123D01*
X37337263Y-28229387D01*
X37358988Y-28208640D01*
X37380692Y-28187886D01*
X37402379Y-28167120D01*
X37424044Y-28146347D01*
X37445693Y-28125563D01*
X37467319Y-28104772D01*
X37488929Y-28083970D01*
X37510517Y-28063160D01*
X37532087Y-28042340D01*
X37553637Y-28021512D01*
X37575169Y-28000674D01*
X37596679Y-27979828D01*
X37618172Y-27958971D01*
X37639644Y-27938107D01*
X37661098Y-27917233D01*
X37682531Y-27896351D01*
X37703946Y-27875458D01*
X37725340Y-27854558D01*
X37746716Y-27833648D01*
X37768071Y-27812730D01*
X37789408Y-27791802D01*
X37810724Y-27770867D01*
X37832022Y-27749920D01*
X37853299Y-27728968D01*
X37874558Y-27708004D01*
X37895796Y-27687033D01*
X37917016Y-27666051D01*
X37938215Y-27645063D01*
X37959396Y-27624064D01*
X37980555Y-27603059D01*
X38001697Y-27582042D01*
X38022817Y-27561019D01*
X38043919Y-27539985D01*
X38065000Y-27518945D01*
X38086063Y-27497894D01*
X38125692Y-27458211D01*
X12873207Y41061312D02*
X12808144Y41076065D01*
X12743041Y41090745D01*
X12677899Y41105351D01*
X12612717Y41119885D01*
X12547497Y41134345D01*
X12482238Y41148732D01*
X12416941Y41163045D01*
X12351605Y41177285D01*
X12286231Y41191452D01*
X12220819Y41205544D01*
X12155369Y41219564D01*
X12089881Y41233509D01*
X12024356Y41247381D01*
X11958794Y41261178D01*
X11893194Y41274902D01*
X11827558Y41288552D01*
X11761885Y41302127D01*
X11696175Y41315629D01*
X11630429Y41329056D01*
X11564647Y41342409D01*
X11498829Y41355688D01*
X11432975Y41368892D01*
X11367086Y41382022D01*
X11301161Y41395078D01*
X11235200Y41408058D01*
X11169205Y41420965D01*
X11103175Y41433796D01*
X11037111Y41446553D01*
X10971012Y41459235D01*
X10904878Y41471842D01*
X10838711Y41484374D01*
X10772510Y41496831D01*
X10706275Y41509213D01*
X10640006Y41521520D01*
X10573704Y41533751D01*
X10507369Y41545908D01*
X10441002Y41557989D01*
X10374601Y41569995D01*
X10308168Y41581925D01*
X10241703Y41593780D01*
X10175206Y41605560D01*
X10108676Y41617263D01*
X10042115Y41628892D01*
X9975523Y41640444D01*
X9908899Y41651921D01*
X9842244Y41663322D01*
X9775558Y41674647D01*
X9708841Y41685896D01*
X9642094Y41697069D01*
X9575316Y41708166D01*
X9508509Y41719187D01*
X9441671Y41730132D01*
X9374804Y41741000D01*
X9307907Y41751793D01*
X9240981Y41762509D01*
X9174026Y41773149D01*
X9107042Y41783712D01*
X9040029Y41794199D01*
X8972987Y41804609D01*
X8905918Y41814943D01*
X8838820Y41825200D01*
X8771694Y41835381D01*
X8704541Y41845485D01*
X8637360Y41855512D01*
X8570152Y41865462D01*
X8502917Y41875335D01*
X8435656Y41885132D01*
X8368367Y41894851D01*
X8301052Y41904494D01*
X8233711Y41914059D01*
X8166344Y41923548D01*
X8098951Y41932959D01*
X8031532Y41942293D01*
X7964088Y41951549D01*
X7896619Y41960729D01*
X7829125Y41969831D01*
X7761606Y41978856D01*
X7694062Y41987803D01*
X7626494Y41996673D01*
X7558903Y42005465D01*
X7491287Y42014180D01*
X7423647Y42022817D01*
X7355984Y42031377D01*
X7288298Y42039858D01*
X7220589Y42048262D01*
X7152857Y42056589D01*
X7085102Y42064837D01*
X7017325Y42073008D01*
X6949525Y42081100D01*
X6881704Y42089115D01*
X6813861Y42097052D01*
X6745996Y42104911D01*
X6678110Y42112691D01*
X6610203Y42120394D01*
X6542275Y42128018D01*
X6474326Y42135565D01*
X6406357Y42143033D01*
X6350000Y42149164D01*
X38125692Y-27458211D02*
X38167898Y-27415837D01*
X38210038Y-27373416D01*
X38252111Y-27330949D01*
X38294118Y-27288436D01*
X38336057Y-27245876D01*
X38377930Y-27203271D01*
X38419735Y-27160620D01*
X38440613Y-27139276D01*
X38461474Y-27117922D01*
X38482318Y-27096556D01*
X38503145Y-27075179D01*
X38523956Y-27053790D01*
X38544750Y-27032390D01*
X38565527Y-27010978D01*
X38586287Y-26989556D01*
X38607031Y-26968121D01*
X38627757Y-26946676D01*
X38648467Y-26925219D01*
X38669159Y-26903751D01*
X38689836Y-26882271D01*
X38710494Y-26860780D01*
X38731137Y-26839277D01*
X38751762Y-26817764D01*
X38772371Y-26796239D01*
X38792962Y-26774703D01*
X38813537Y-26753155D01*
X38834094Y-26731597D01*
X38854636Y-26710027D01*
X38875159Y-26688446D01*
X38895666Y-26666853D01*
X38916156Y-26645250D01*
X38936630Y-26623635D01*
X38957085Y-26602009D01*
X38977525Y-26580372D01*
X38997947Y-26558724D01*
X39018352Y-26537064D01*
X39038740Y-26515394D01*
X39059112Y-26493712D01*
X39079466Y-26472020D01*
X39099803Y-26450316D01*
X39120123Y-26428601D01*
X39140427Y-26406875D01*
X39160713Y-26385138D01*
X39180982Y-26363390D01*
X39201234Y-26341631D01*
X39221469Y-26319861D01*
X39241687Y-26298080D01*
X39261888Y-26276287D01*
X39282071Y-26254485D01*
X39302238Y-26232670D01*
X39322388Y-26210845D01*
X39342520Y-26189009D01*
X39362635Y-26167162D01*
X39382734Y-26145304D01*
X39402815Y-26123436D01*
X39422879Y-26101556D01*
X39442926Y-26079665D01*
X39462956Y-26057764D01*
X39482968Y-26035852D01*
X39502964Y-26013928D01*
X39522941Y-25991994D01*
X39542903Y-25970049D01*
X39562846Y-25948094D01*
X39582773Y-25926127D01*
X39602682Y-25904150D01*
X39622575Y-25882162D01*
X39642449Y-25860163D01*
X39662307Y-25838153D01*
X39682147Y-25816133D01*
X39701971Y-25794102D01*
X39721777Y-25772060D01*
X39741566Y-25750008D01*
X39761337Y-25727945D01*
X39781091Y-25705870D01*
X39800828Y-25683786D01*
X39820548Y-25661691D01*
X39840250Y-25639585D01*
X39859935Y-25617468D01*
X39879602Y-25595342D01*
X39899253Y-25573204D01*
X39918886Y-25551056D01*
X39938502Y-25528896D01*
X39958100Y-25506727D01*
X39977681Y-25484547D01*
X39997244Y-25462357D01*
X40016791Y-25440155D01*
X40036319Y-25417944D01*
X40055831Y-25395721D01*
X40075325Y-25373489D01*
X40094802Y-25351245D01*
X40114261Y-25328992D01*
X40133703Y-25306728D01*
X40153127Y-25284454D01*
X40172534Y-25262168D01*
X40191924Y-25239873D01*
X40211296Y-25217567D01*
X40230650Y-25195251D01*
X40249988Y-25172924D01*
X40269307Y-25150588D01*
X40288610Y-25128240D01*
X40307894Y-25105883D01*
X40327162Y-25083514D01*
X40346411Y-25061136D01*
X40365644Y-25038747D01*
X40384858Y-25016349D01*
X40404056Y-24993939D01*
X40423235Y-24971520D01*
X40442397Y-24949090D01*
X40461542Y-24926650D01*
X40480669Y-24904200D01*
X40499778Y-24881739D01*
X40518870Y-24859268D01*
X40537944Y-24836788D01*
X40557001Y-24814296D01*
X40576040Y-24791795D01*
X40595062Y-24769284D01*
X40614066Y-24746763D01*
X40633052Y-24724231D01*
X40652021Y-24701689D01*
X40670972Y-24679137D01*
X40689905Y-24656575D01*
X40708821Y-24634003D01*
X40727719Y-24611421D01*
X40746600Y-24588828D01*
X40765463Y-24566226D01*
X40784308Y-24543614D01*
X40803135Y-24520992D01*
X40821945Y-24498359D01*
X40840737Y-24475717D01*
X40859512Y-24453064D01*
X40878268Y-24430402D01*
X40897007Y-24407730D01*
X40915728Y-24385048D01*
X40934432Y-24362356D01*
X40953118Y-24339654D01*
X40971786Y-24316942D01*
X40990436Y-24294220D01*
X41009068Y-24271488D01*
X41027683Y-24248747D01*
X41046280Y-24225995D01*
X41064859Y-24203234D01*
X41083421Y-24180463D01*
X41101964Y-24157682D01*
X41120490Y-24134891D01*
X41138998Y-24112091D01*
X41157488Y-24089281D01*
X41175960Y-24066461D01*
X41194415Y-24043631D01*
X41212851Y-24020792D01*
X41231270Y-23997942D01*
X41249671Y-23975083D01*
X41268054Y-23952214D01*
X41286419Y-23929336D01*
X41304766Y-23906448D01*
X41323095Y-23883551D01*
X41341407Y-23860643D01*
X41359701Y-23837727D01*
X41377976Y-23814800D01*
X41396234Y-23791864D01*
X41414474Y-23768918D01*
X41432696Y-23745963D01*
X41450900Y-23722998D01*
X41469086Y-23700023D01*
X41487254Y-23677039D01*
X41505404Y-23654046D01*
X41523536Y-23631043D01*
X41541650Y-23608030D01*
X41559746Y-23585008D01*
X41577824Y-23561977D01*
X41595885Y-23538936D01*
X41613927Y-23515886D01*
X41631951Y-23492826D01*
X41649957Y-23469756D01*
X41667945Y-23446678D01*
X41685915Y-23423590D01*
X41703868Y-23400492D01*
X41721801Y-23377386D01*
X41739718Y-23354269D01*
X41757615Y-23331144D01*
X41775495Y-23308009D01*
X41793357Y-23284865D01*
X41811201Y-23261711D01*
X41829026Y-23238549D01*
X41846834Y-23215377D01*
X41864623Y-23192195D01*
X41882394Y-23169005D01*
X41900147Y-23145805D01*
X41917883Y-23122596D01*
X41935599Y-23099378D01*
X41953298Y-23076150D01*
X41970979Y-23052914D01*
X41988641Y-23029668D01*
X42006285Y-23006413D01*
X42023912Y-22983149D01*
X42041520Y-22959876D01*
X42059109Y-22936594D01*
X42076681Y-22913303D01*
X42094234Y-22890002D01*
X42111769Y-22866693D01*
X42129287Y-22843374D01*
X42146785Y-22820046D01*
X42164266Y-22796710D01*
X42181728Y-22773364D01*
X42199172Y-22750009D01*
X42216598Y-22726646D01*
X42234006Y-22703273D01*
X42251395Y-22679891D01*
X42268766Y-22656501D01*
X42286119Y-22633101D01*
X42303453Y-22609693D01*
X42320770Y-22586275D01*
X42338068Y-22562849D01*
X42355347Y-22539414D01*
X42372609Y-22515970D01*
X42389851Y-22492517D01*
X42407076Y-22469055D01*
X42424283Y-22445585D01*
X42441471Y-22422105D01*
X42458640Y-22398617D01*
X42475792Y-22375120D01*
X42492925Y-22351614D01*
X42510039Y-22328100D01*
X42527136Y-22304577D01*
X42544214Y-22281044D01*
X42561273Y-22257504D01*
X42578314Y-22233954D01*
X42595337Y-22210396D01*
X42612341Y-22186829D01*
X42629327Y-22163254D01*
X42646295Y-22139670D01*
X42663244Y-22116077D01*
X42680175Y-22092476D01*
X42697087Y-22068866D01*
X42713981Y-22045247D01*
X42730856Y-22021620D01*
X42747713Y-21997984D01*
X42764551Y-21974340D01*
X42781372Y-21950687D01*
X42798173Y-21927026D01*
X42814956Y-21903356D01*
X42831721Y-21879677D01*
X42848467Y-21855990D01*
X42865194Y-21832295D01*
X42881903Y-21808591D01*
X42898594Y-21784879D01*
X42915266Y-21761158D01*
X42931919Y-21737429D01*
X42948554Y-21713691D01*
X42965171Y-21689945D01*
X42981769Y-21666191D01*
X42998348Y-21642428D01*
X43014909Y-21618657D01*
X43031451Y-21594878D01*
X43047974Y-21571090D01*
X43064479Y-21547294D01*
X43080966Y-21523490D01*
X43097434Y-21499678D01*
X43113883Y-21475857D01*
X43130314Y-21452028D01*
X43146726Y-21428190D01*
X43163119Y-21404345D01*
X43179494Y-21380491D01*
X43195850Y-21356629D01*
X43212188Y-21332759D01*
X43228507Y-21308881D01*
X43244807Y-21284994D01*
X43261088Y-21261099D01*
X43277351Y-21237197D01*
X43293596Y-21213286D01*
X43309821Y-21189367D01*
X43326028Y-21165440D01*
X43342216Y-21141505D01*
X43358386Y-21117562D01*
X43374537Y-21093610D01*
X43390669Y-21069651D01*
X43406782Y-21045684D01*
X43422877Y-21021709D01*
X43438953Y-20997725D01*
X43455010Y-20973734D01*
X43471049Y-20949735D01*
X43487069Y-20925728D01*
X43503070Y-20901713D01*
X43519052Y-20877690D01*
X43535015Y-20853659D01*
X43550960Y-20829620D01*
X43566886Y-20805573D01*
X43582793Y-20781519D01*
X43598682Y-20757457D01*
X43614551Y-20733386D01*
X43630402Y-20709308D01*
X43646234Y-20685223D01*
X43662047Y-20661129D01*
X43677841Y-20637028D01*
X43693617Y-20612919D01*
X43709374Y-20588802D01*
X43725112Y-20564677D01*
X43740831Y-20540545D01*
X43756531Y-20516405D01*
X43772212Y-20492257D01*
X43787875Y-20468102D01*
X43803518Y-20443939D01*
X43819143Y-20419768D01*
X43834749Y-20395589D01*
X43850336Y-20371403D01*
X43865904Y-20347210D01*
X43881453Y-20323009D01*
X43896983Y-20298800D01*
X43912495Y-20274584D01*
X43927987Y-20250360D01*
X43943460Y-20226128D01*
X43958915Y-20201890D01*
X43974351Y-20177643D01*
X43989768Y-20153389D01*
X44005165Y-20129128D01*
X44020544Y-20104859D01*
X44035904Y-20080583D01*
X44051245Y-20056299D01*
X44066567Y-20032008D01*
X44081870Y-20007709D01*
X44097154Y-19983403D01*
X44112419Y-19959090D01*
X44127665Y-19934769D01*
X44142892Y-19910441D01*
X44158100Y-19886106D01*
X44173289Y-19861763D01*
X44188459Y-19837413D01*
X44203610Y-19813056D01*
X44218742Y-19788691D01*
X44233855Y-19764319D01*
X44248949Y-19739940D01*
X44264024Y-19715554D01*
X44279079Y-19691161D01*
X44294116Y-19666760D01*
X44309134Y-19642352D01*
X44324133Y-19617937D01*
X44339112Y-19593515D01*
X44354073Y-19569085D01*
X44369014Y-19544649D01*
X44383936Y-19520205D01*
X44398839Y-19495754D01*
X44413724Y-19471296D01*
X44428589Y-19446831D01*
X44443434Y-19422359D01*
X44458261Y-19397880D01*
X44473069Y-19373394D01*
X44487857Y-19348901D01*
X44502627Y-19324401D01*
X44517377Y-19299894D01*
X44532108Y-19275380D01*
X44546820Y-19250859D01*
X44561513Y-19226331D01*
X44576187Y-19201796D01*
X44590841Y-19177254D01*
X44605476Y-19152705D01*
X44620093Y-19128150D01*
X44634689Y-19103587D01*
X44649267Y-19079018D01*
X44663826Y-19054442D01*
X44678365Y-19029859D01*
X44692885Y-19005269D01*
X44707386Y-18980672D01*
X44721868Y-18956069D01*
X44736331Y-18931458D01*
X44750774Y-18906842D01*
X44765198Y-18882218D01*
X44779603Y-18857587D01*
X44793988Y-18832950D01*
X44808355Y-18808307D01*
X44822702Y-18783656D01*
X44837030Y-18758999D01*
X44851338Y-18734335D01*
X44865628Y-18709664D01*
X44879898Y-18684987D01*
X44894148Y-18660304D01*
X44908380Y-18635613D01*
X44922592Y-18610916D01*
X44936785Y-18586213D01*
X44950958Y-18561503D01*
X44965113Y-18536786D01*
X44979248Y-18512063D01*
X44993363Y-18487333D01*
X45007460Y-18462597D01*
X45021537Y-18437855D01*
X45035594Y-18413106D01*
X45049633Y-18388350D01*
X45063652Y-18363588D01*
X45077651Y-18338820D01*
X45091632Y-18314045D01*
X45105593Y-18289264D01*
X45119534Y-18264477D01*
X45133457Y-18239683D01*
X45147359Y-18214882D01*
X45161243Y-18190076D01*
X45175107Y-18165263D01*
X45188952Y-18140444D01*
X45202777Y-18115618D01*
X45216583Y-18090786D01*
X45230369Y-18065948D01*
X45244137Y-18041104D01*
X45257884Y-18016254D01*
X45271613Y-17991397D01*
X45285321Y-17966534D01*
X45299011Y-17941665D01*
X45312681Y-17916789D01*
X45326332Y-17891908D01*
X45339963Y-17867020D01*
X45353574Y-17842126D01*
X45367167Y-17817227D01*
X45380739Y-17792321D01*
X45394293Y-17767409D01*
X45407827Y-17742490D01*
X45421341Y-17717567D01*
X45434836Y-17692636D01*
X45448311Y-17667700D01*
X45461767Y-17642758D01*
X45475204Y-17617810D01*
X45488621Y-17592855D01*
X45502018Y-17567895D01*
X45515396Y-17542929D01*
X45528755Y-17517957D01*
X45542094Y-17492979D01*
X45555413Y-17467995D01*
X45568713Y-17443005D01*
X45581993Y-17418009D01*
X45595254Y-17393008D01*
X45608495Y-17368000D01*
X45621717Y-17342987D01*
X45634920Y-17317968D01*
X45648102Y-17292943D01*
X45661265Y-17267913D01*
X45674409Y-17242876D01*
X45687533Y-17217834D01*
X45700638Y-17192786D01*
X45713722Y-17167732D01*
X45726788Y-17142673D01*
X45739833Y-17117608D01*
X45752860Y-17092537D01*
X45765866Y-17067461D01*
X45778853Y-17042378D01*
X45791820Y-17017291D01*
X45804768Y-16992197D01*
X45817696Y-16967098D01*
X45830605Y-16941993D01*
X45843494Y-16916883D01*
X45856363Y-16891767D01*
X45869213Y-16866646D01*
X45882043Y-16841519D01*
X45894853Y-16816387D01*
X45907644Y-16791249D01*
X45920415Y-16766106D01*
X45933167Y-16740957D01*
X45945898Y-16715803D01*
X45958611Y-16690643D01*
X45971303Y-16665478D01*
X45983976Y-16640307D01*
X45996629Y-16615131D01*
X46009263Y-16589949D01*
X46021876Y-16564763D01*
X46034471Y-16539570D01*
X46047045Y-16514373D01*
X46059600Y-16489170D01*
X46072135Y-16463962D01*
X46084650Y-16438748D01*
X46097146Y-16413529D01*
X46109622Y-16388305D01*
X46122078Y-16363076D01*
X46134515Y-16337841D01*
X46146931Y-16312602D01*
X46159329Y-16287356D01*
X46171706Y-16262106D01*
X46184064Y-16236851D01*
X46196401Y-16211590D01*
X46208720Y-16186324D01*
X46221018Y-16161054D01*
X46233297Y-16135777D01*
X46245556Y-16110497D01*
X46257795Y-16085210D01*
X46270014Y-16059919D01*
X46282214Y-16034622D01*
X46294394Y-16009321D01*
X46306554Y-15984015D01*
X46318694Y-15958703D01*
X46330815Y-15933387D01*
X46342915Y-15908065D01*
X46354997Y-15882739D01*
X46367058Y-15857408D01*
X46379099Y-15832071D01*
X46391121Y-15806730D01*
X46403123Y-15781383D01*
X46415104Y-15756032D01*
X46427067Y-15730676D01*
X46439009Y-15705316D01*
X46450932Y-15679949D01*
X46462834Y-15654579D01*
X46474717Y-15629203D01*
X46486580Y-15603824D01*
X46498424Y-15578438D01*
X46510247Y-15553049D01*
X46522051Y-15527654D01*
X46533834Y-15502255D01*
X46545598Y-15476850D01*
X46557342Y-15451442D01*
X46569066Y-15426028D01*
X46580771Y-15400610D01*
X46592455Y-15375187D01*
X46604120Y-15349759D01*
X46615765Y-15324327D01*
X46627389Y-15298890D01*
X46638994Y-15273448D01*
X46650579Y-15248003D01*
X46662145Y-15222552D01*
X46673690Y-15197097D01*
X46685215Y-15171636D01*
X46696721Y-15146172D01*
X46708207Y-15120703D01*
X46719672Y-15095230D01*
X46731118Y-15069752D01*
X46742544Y-15044270D01*
X46753950Y-15018782D01*
X46765336Y-14993291D01*
X46776702Y-14967795D01*
X46788048Y-14942295D01*
X46799375Y-14916790D01*
X46810681Y-14891281D01*
X46821968Y-14865767D01*
X46833234Y-14840250D01*
X46844481Y-14814727D01*
X46855707Y-14789201D01*
X46866914Y-14763670D01*
X46878101Y-14738135D01*
X46889268Y-14712595D01*
X46900415Y-14687052D01*
X46911542Y-14661504D01*
X46922648Y-14635952D01*
X46933736Y-14610395D01*
X46944802Y-14584834D01*
X46955850Y-14559269D01*
X46966876Y-14533700D01*
X46977884Y-14508127D01*
X46988871Y-14482550D01*
X46999838Y-14456967D01*
X47010785Y-14431382D01*
X47021712Y-14405792D01*
X47032619Y-14380198D01*
X47043506Y-14354600D01*
X47054373Y-14328998D01*
X47065221Y-14303391D01*
X47076048Y-14277781D01*
X47086855Y-14252167D01*
X47097642Y-14226549D01*
X47108409Y-14200926D01*
X47119156Y-14175300D01*
X47129883Y-14149669D01*
X47140590Y-14124035D01*
X47151277Y-14098397D01*
X47161944Y-14072755D01*
X47172591Y-14047109D01*
X47183218Y-14021459D01*
X47193825Y-13995805D01*
X47204412Y-13970148D01*
X47214979Y-13944486D01*
X47225525Y-13918821D01*
X47236052Y-13893151D01*
X47246558Y-13867478D01*
X47257045Y-13841801D01*
X47267512Y-13816121D01*
X47277958Y-13790436D01*
X47288384Y-13764749D01*
X47298791Y-13739056D01*
X47309177Y-13713361D01*
X47319543Y-13687661D01*
X47329889Y-13661959D01*
X47340215Y-13636252D01*
X47350521Y-13610542D01*
X47360807Y-13584827D01*
X47371073Y-13559110D01*
X47381319Y-13533389D01*
X47391544Y-13507664D01*
X47401750Y-13481935D01*
X47411935Y-13456204D01*
X47422100Y-13430468D01*
X47432245Y-13404729D01*
X47442371Y-13378986D01*
X47452475Y-13353240D01*
X47462560Y-13327490D01*
X47472625Y-13301738D01*
X47482670Y-13275980D01*
X47492694Y-13250221D01*
X47502699Y-13224457D01*
X47512683Y-13198690D01*
X47522647Y-13172920D01*
X47532591Y-13147146D01*
X47542515Y-13121369D01*
X47552418Y-13095589D01*
X47562302Y-13069804D01*
X47572166Y-13044018D01*
X47582009Y-13018226D01*
X47591832Y-12992433D01*
X47601635Y-12966635D01*
X47611418Y-12940836D01*
X47621181Y-12915031D01*
X47630923Y-12889225D01*
X47640646Y-12863414D01*
X47650348Y-12837601D01*
X47660030Y-12811784D01*
X47669692Y-12785965D01*
X47679334Y-12760141D01*
X47688955Y-12734316D01*
X47698557Y-12708486D01*
X47708138Y-12682654D01*
X47717699Y-12656818D01*
X47727240Y-12630980D01*
X47736761Y-12605137D01*
X47746261Y-12579293D01*
X47755742Y-12553445D01*
X47765202Y-12527594D01*
X47774642Y-12501740D01*
X47784062Y-12475883D01*
X47793462Y-12450023D01*
X47802841Y-12424160D01*
X47812200Y-12398294D01*
X47821539Y-12372425D01*
X47830858Y-12346553D01*
X47840157Y-12320679D01*
X47849435Y-12294800D01*
X47858693Y-12268920D01*
X47867932Y-12243036D01*
X47877149Y-12217150D01*
X47886347Y-12191261D01*
X47895524Y-12165369D01*
X47904682Y-12139473D01*
X47913818Y-12113576D01*
X47922935Y-12087675D01*
X47932032Y-12061772D01*
X47941108Y-12035866D01*
X47950164Y-12009957D01*
X47959200Y-11984045D01*
X47968215Y-11958132D01*
X47977211Y-11932214D01*
X47986186Y-11906295D01*
X47995141Y-11880372D01*
X48004075Y-11854447D01*
X48012990Y-11828519D01*
X48021884Y-11802589D01*
X48030758Y-11776655D01*
X48039612Y-11750720D01*
X48048445Y-11724781D01*
X48057258Y-11698841D01*
X48066051Y-11672897D01*
X48074824Y-11646952D01*
X48083577Y-11621003D01*
X48092308Y-11595052D01*
X48101021Y-11569098D01*
X48109712Y-11543143D01*
X48118384Y-11517183D01*
X48127035Y-11491223D01*
X48135666Y-11465259D01*
X48144276Y-11439294D01*
X48152867Y-11413325D01*
X48161437Y-11387355D01*
X48169987Y-11361381D01*
X48178516Y-11335406D01*
X48187025Y-11309427D01*
X48195514Y-11283448D01*
X48203983Y-11257465D01*
X48212431Y-11231480D01*
X48220860Y-11205493D01*
X48229267Y-11179504D01*
X48237655Y-11153511D01*
X48246022Y-11127518D01*
X48254369Y-11101521D01*
X48262696Y-11075523D01*
X48271003Y-11049521D01*
X48279289Y-11023519D01*
X48287555Y-10997513D01*
X48295800Y-10971507D01*
X48304026Y-10945496D01*
X48312230Y-10919485D01*
X48320415Y-10893471D01*
X48328579Y-10867456D01*
X48336724Y-10841437D01*
X48344847Y-10815417D01*
X48352951Y-10789394D01*
X48361034Y-10763371D01*
X48369097Y-10737344D01*
X48377139Y-10711316D01*
X48385162Y-10685285D01*
X48393164Y-10659253D01*
X48401145Y-10633218D01*
X48409107Y-10607182D01*
X48417048Y-10581143D01*
X48424968Y-10555103D01*
X48432869Y-10529060D01*
X48440749Y-10503017D01*
X48448609Y-10476970D01*
X48456448Y-10450923D01*
X48464267Y-10424872D01*
X48472066Y-10398821D01*
X48479844Y-10372767D01*
X48487602Y-10346712D01*
X48495340Y-10320654D01*
X48503058Y-10294595D01*
X48510755Y-10268534D01*
X48518432Y-10242472D01*
X48526088Y-10216407D01*
X48533724Y-10190341D01*
X48541341Y-10164272D01*
X48548936Y-10138203D01*
X48556511Y-10112131D01*
X48564066Y-10086059D01*
X48571601Y-10059983D01*
X48579115Y-10033907D01*
X48586609Y-10007829D01*
X48594082Y-9981750D01*
X48601535Y-9955667D01*
X48608968Y-9929585D01*
X48616381Y-9903500D01*
X48623773Y-9877414D01*
X48631145Y-9851326D01*
X48638496Y-9825237D01*
X48645827Y-9799145D01*
X48653138Y-9773054D01*
X48660428Y-9746959D01*
X48667698Y-9720864D01*
X48674948Y-9694766D01*
X48682177Y-9668669D01*
X48689387Y-9642568D01*
X48696575Y-9616468D01*
X48703744Y-9590364D01*
X48710891Y-9564261D01*
X48718019Y-9538154D01*
X48725126Y-9512048D01*
X48732214Y-9485939D01*
X48739280Y-9459830D01*
X48746326Y-9433718D01*
X48753352Y-9407606D01*
X48760358Y-9381492D01*
X48767343Y-9355377D01*
X48774308Y-9329260D01*
X48781252Y-9303143D01*
X48788176Y-9277024D01*
X48795080Y-9250904D01*
X48801963Y-9224782D01*
X48808826Y-9198660D01*
X48815669Y-9172535D01*
X48822491Y-9146411D01*
X48829293Y-9120284D01*
X48836074Y-9094158D01*
X48842836Y-9068028D01*
X48849576Y-9041899D01*
X48856297Y-9015768D01*
X48862997Y-8989636D01*
X48869677Y-8963503D01*
X48876336Y-8937369D01*
X48882975Y-8911233D01*
X48889594Y-8885098D01*
X48896192Y-8858960D01*
X48902770Y-8832822D01*
X48909328Y-8806682D01*
X48915865Y-8780542D01*
X48922382Y-8754400D01*
X48928878Y-8728258D01*
X48935354Y-8702114D01*
X48941810Y-8675971D01*
X48948245Y-8649825D01*
X48952651Y-8631876D01*
D12*
X5025Y0D02*
G75*
G02*
X-5025Y0I-5025J0D01*
G01*
X-5025Y0D02*
G75*
G02*
X5025Y0I5025J0D01*
G01*
D11*
X-43698456Y-20615239D02*
X-43667308Y-20662754D01*
X-43636078Y-20710247D01*
X-43604765Y-20757720D01*
X-43573371Y-20805172D01*
X-43541895Y-20852603D01*
X-43510337Y-20900012D01*
X-43478697Y-20947400D01*
X-43446976Y-20994766D01*
X-43415173Y-21042111D01*
X-43383287Y-21089434D01*
X-43351321Y-21136735D01*
X-43319272Y-21184013D01*
X-43287143Y-21231270D01*
X-43254931Y-21278504D01*
X-43222638Y-21325715D01*
X-43190264Y-21372904D01*
X-43157808Y-21420070D01*
X-43125271Y-21467213D01*
X-43092653Y-21514333D01*
X-43059954Y-21561430D01*
X-43027173Y-21608504D01*
X-42994311Y-21655553D01*
X-42961368Y-21702580D01*
X-42928344Y-21749582D01*
X-42895240Y-21796561D01*
X-42862054Y-21843515D01*
X-42828787Y-21890446D01*
X-42795440Y-21937352D01*
X-42762011Y-21984233D01*
X-42728502Y-22031090D01*
X-42694913Y-22077923D01*
X-42661242Y-22124730D01*
X-42627492Y-22171512D01*
X-42593660Y-22218269D01*
X-42559748Y-22265001D01*
X-42525756Y-22311708D01*
X-42491684Y-22358389D01*
X-42457531Y-22405044D01*
X-42423298Y-22451673D01*
X-42388985Y-22498276D01*
X-42354592Y-22544853D01*
X-42320118Y-22591404D01*
X-42285565Y-22637929D01*
X-42250932Y-22684427D01*
X-42216219Y-22730898D01*
X-42181426Y-22777342D01*
X-42146553Y-22823760D01*
X-42111601Y-22870150D01*
X-42076569Y-22916513D01*
X-42041457Y-22962849D01*
X-42006266Y-23009157D01*
X-41970995Y-23055437D01*
X-41935645Y-23101690D01*
X-41900216Y-23147914D01*
X-41864707Y-23194111D01*
X-41829120Y-23240279D01*
X-41793453Y-23286419D01*
X-41757707Y-23332531D01*
X-41721882Y-23378614D01*
X-41685978Y-23424668D01*
X-41649995Y-23470693D01*
X-41613933Y-23516689D01*
X-41577793Y-23562655D01*
X-41541574Y-23608593D01*
X-41505276Y-23654500D01*
X-41468900Y-23700379D01*
X-41432445Y-23746227D01*
X-41395912Y-23792046D01*
X-41359300Y-23837834D01*
X-41322610Y-23883592D01*
X-41285842Y-23929320D01*
X-41248996Y-23975018D01*
X-41212072Y-24020685D01*
X-41175070Y-24066321D01*
X-41137989Y-24111926D01*
X-41100831Y-24157500D01*
X-41063595Y-24203043D01*
X-41026282Y-24248554D01*
X-40988890Y-24294034D01*
X-40951422Y-24339483D01*
X-40913875Y-24384899D01*
X-40876251Y-24430284D01*
X-40838550Y-24475637D01*
X-40800772Y-24520957D01*
X-40762916Y-24566246D01*
X-40724983Y-24611502D01*
X-40686973Y-24656725D01*
X-40648887Y-24701915D01*
X-40610723Y-24747073D01*
X-40572482Y-24792197D01*
X-40534165Y-24837289D01*
X-40495771Y-24882347D01*
X-40457300Y-24927371D01*
X-40418753Y-24972362D01*
X-40380129Y-25017320D01*
X-40341429Y-25062243D01*
X-40302653Y-25107133D01*
X-40263800Y-25151988D01*
X-40224871Y-25196809D01*
X-40185866Y-25241596D01*
X-40146786Y-25286348D01*
X-40107629Y-25331065D01*
X-40068396Y-25375747D01*
X-40029088Y-25420395D01*
X-39989704Y-25465007D01*
X-39950244Y-25509584D01*
X-39910709Y-25554126D01*
X-39871099Y-25598632D01*
X-39831413Y-25643102D01*
X-39791652Y-25687537D01*
X-39751816Y-25731935D01*
X-39711905Y-25776298D01*
X-39671918Y-25820624D01*
X-39631857Y-25864914D01*
X-39591721Y-25909167D01*
X-39551510Y-25953384D01*
X-39511224Y-25997564D01*
X-39470864Y-26041706D01*
X-39430430Y-26085812D01*
X-39389921Y-26129881D01*
X-39349337Y-26173912D01*
X-39308680Y-26217905D01*
X-39267948Y-26261861D01*
X-39227142Y-26305780D01*
X-39186263Y-26349660D01*
X-39145309Y-26393502D01*
X-39104282Y-26437306D01*
X-39063181Y-26481072D01*
X-39022006Y-26524799D01*
X-38980758Y-26568488D01*
X-38939436Y-26612137D01*
X-38898041Y-26655748D01*
X-38856572Y-26699320D01*
X-38815031Y-26742853D01*
X-38773416Y-26786346D01*
X-38731729Y-26829800D01*
X-38689968Y-26873215D01*
X-38648135Y-26916589D01*
X-38606229Y-26959924D01*
X-38564251Y-27003219D01*
X-38522199Y-27046473D01*
X-38480076Y-27089688D01*
X-38437880Y-27132862D01*
X-38395612Y-27175995D01*
X-38353272Y-27219088D01*
X-38310859Y-27262140D01*
X-38268375Y-27305150D01*
X-38225819Y-27348120D01*
X-38183191Y-27391049D01*
X-38140491Y-27433936D01*
X-38097720Y-27476782D01*
X-38054878Y-27519586D01*
X-38011964Y-27562348D01*
X-37968978Y-27605068D01*
X-37925922Y-27647747D01*
X-37882794Y-27690383D01*
X-37839596Y-27732977D01*
X-37796326Y-27775528D01*
X-37752986Y-27818037D01*
X-37709575Y-27860503D01*
X-37666093Y-27902926D01*
X-37622541Y-27945306D01*
X-37578919Y-27987643D01*
X-37535226Y-28029937D01*
X-37491463Y-28072187D01*
X-37447630Y-28114394D01*
X-37403727Y-28156557D01*
X-37359754Y-28198676D01*
X-37315711Y-28240752D01*
X-37271599Y-28282783D01*
X-37227417Y-28324770D01*
X-37183165Y-28366713D01*
X-37138844Y-28408611D01*
X-37094454Y-28450465D01*
X-37049995Y-28492274D01*
X-37005466Y-28534038D01*
X-36960869Y-28575757D01*
X-36916203Y-28617431D01*
X-36893843Y-28638251D01*
X-36871468Y-28659059D01*
X-36849074Y-28679857D01*
X-36826664Y-28700643D01*
X-36804236Y-28721418D01*
X-36781792Y-28742181D01*
X-36759330Y-28762932D01*
X-36736851Y-28783673D01*
X-36714355Y-28804402D01*
X-36691842Y-28825119D01*
X-36669311Y-28845825D01*
X-36646764Y-28866519D01*
X-36624200Y-28887202D01*
X-36601619Y-28907874D01*
X-36579021Y-28928534D01*
X-36556405Y-28949182D01*
X-36533773Y-28969819D01*
X-36511124Y-28990443D01*
X-36488458Y-29011057D01*
X-36465775Y-29031659D01*
X-36443075Y-29052249D01*
X-36420358Y-29072828D01*
X-36397624Y-29093395D01*
X-36374873Y-29113950D01*
X-36352106Y-29134493D01*
X-36329321Y-29155025D01*
X-36306520Y-29175545D01*
X-36283702Y-29196053D01*
X-36260867Y-29216550D01*
X-36238015Y-29237034D01*
X-36215147Y-29257507D01*
X-36192261Y-29277968D01*
X-36169359Y-29298418D01*
X-36146440Y-29318855D01*
X-36123505Y-29339280D01*
X-36100552Y-29359694D01*
X-36077583Y-29380096D01*
X-36054598Y-29400485D01*
X-36031595Y-29420863D01*
X-36008576Y-29441229D01*
X-35985540Y-29461583D01*
X-35962488Y-29481925D01*
X-35939419Y-29502255D01*
X-35916334Y-29522573D01*
X-35893231Y-29542879D01*
X-35870112Y-29563172D01*
X-35846977Y-29583454D01*
X-35823825Y-29603724D01*
X-35800657Y-29623982D01*
X-35777472Y-29644227D01*
X-35754270Y-29664460D01*
X-35731052Y-29684682D01*
X-35707817Y-29704891D01*
X-35684566Y-29725087D01*
X-35661299Y-29745272D01*
X-35638015Y-29765445D01*
X-35614715Y-29785605D01*
X-35591398Y-29805753D01*
X-35568065Y-29825889D01*
X-35544715Y-29846012D01*
X-35521349Y-29866123D01*
X-35497967Y-29886222D01*
X-35474568Y-29906309D01*
X-35451153Y-29926383D01*
X-35427721Y-29946445D01*
X-35404274Y-29966494D01*
X-35380810Y-29986532D01*
X-35357330Y-30006556D01*
X-35333833Y-30026569D01*
X-35310320Y-30046569D01*
X-35286791Y-30066556D01*
X-35263246Y-30086531D01*
X-35239684Y-30106494D01*
X-35216107Y-30126444D01*
X-35192513Y-30146381D01*
X-35168903Y-30166306D01*
X-35145277Y-30186219D01*
X-35121634Y-30206119D01*
X-35097976Y-30226006D01*
X-35074301Y-30245881D01*
X-35050611Y-30265743D01*
X-35026904Y-30285593D01*
X-35003181Y-30305429D01*
X-34979442Y-30325254D01*
X-34955687Y-30345065D01*
X-34931916Y-30364864D01*
X-34908129Y-30384650D01*
X-34884326Y-30404424D01*
X-34860508Y-30424185D01*
X-34836673Y-30443933D01*
X-34812822Y-30463668D01*
X-34788955Y-30483391D01*
X-34765072Y-30503101D01*
X-34741174Y-30522798D01*
X-34717259Y-30542482D01*
X-34693329Y-30562153D01*
X-34669382Y-30581811D01*
X-34645420Y-30601457D01*
X-34621442Y-30621090D01*
X-34597448Y-30640710D01*
X-34573439Y-30660317D01*
X-34549413Y-30679911D01*
X-34525372Y-30699492D01*
X-34501315Y-30719060D01*
X-34477242Y-30738615D01*
X-34453154Y-30758157D01*
X-34429049Y-30777686D01*
X-34404929Y-30797203D01*
X-34380794Y-30816706D01*
X-34356642Y-30836196D01*
X-34332476Y-30855673D01*
X-34308293Y-30875137D01*
X-34284095Y-30894588D01*
X-34259881Y-30914026D01*
X-34235651Y-30933450D01*
X-34211406Y-30952862D01*
X-34187145Y-30972260D01*
X-34162869Y-30991645D01*
X-34138577Y-31011017D01*
X-34114270Y-31030376D01*
X-34089947Y-31049722D01*
X-34065609Y-31069054D01*
X-34041255Y-31088373D01*
X-34016886Y-31107679D01*
X-33992501Y-31126972D01*
X-33968100Y-31146251D01*
X-33943685Y-31165517D01*
X-33919254Y-31184770D01*
X-33894807Y-31204009D01*
X-33870345Y-31223236D01*
X-33845868Y-31242448D01*
X-33821375Y-31261648D01*
X-33796868Y-31280834D01*
X-33772344Y-31300006D01*
X-33747806Y-31319165D01*
X-33723252Y-31338311D01*
X-33698683Y-31357443D01*
X-33674098Y-31376562D01*
X-33649498Y-31395667D01*
X-33624883Y-31414759D01*
X-33600253Y-31433838D01*
X-33575608Y-31452903D01*
X-33550947Y-31471954D01*
X-33526271Y-31490992D01*
X-33501581Y-31510016D01*
X-33476874Y-31529026D01*
X-33452153Y-31548023D01*
X-33427417Y-31567007D01*
X-33402665Y-31585977D01*
X-33377899Y-31604933D01*
X-33353117Y-31623875D01*
X-33328320Y-31642804D01*
X-33303509Y-31661719D01*
X-33278682Y-31680621D01*
X-33253840Y-31699509D01*
X-33228983Y-31718383D01*
X-33204112Y-31737243D01*
X-33179225Y-31756090D01*
X-33154323Y-31774922D01*
X-33129406Y-31793741D01*
X-33104475Y-31812547D01*
X-33079528Y-31831338D01*
X-33054567Y-31850116D01*
X-33029591Y-31868880D01*
X-33004600Y-31887629D01*
X-32979594Y-31906366D01*
X-32954573Y-31925088D01*
X-32929537Y-31943796D01*
X-32904487Y-31962490D01*
X-32879421Y-31981171D01*
X-32854342Y-31999837D01*
X-32829247Y-32018490D01*
X-32804137Y-32037128D01*
X-32779013Y-32055753D01*
X-32753874Y-32074364D01*
X-32728720Y-32092961D01*
X-32703552Y-32111543D01*
X-32678369Y-32130112D01*
X-32653172Y-32148666D01*
X-32627959Y-32167207D01*
X-32602732Y-32185733D01*
X-32577491Y-32204246D01*
X-32552235Y-32222744D01*
X-32526964Y-32241228D01*
X-32501679Y-32259698D01*
X-32476379Y-32278154D01*
X-32451065Y-32296595D01*
X-32425735Y-32315023D01*
X-32400392Y-32333436D01*
X-32375034Y-32351835D01*
X-32349662Y-32370220D01*
X-32324275Y-32388591D01*
X-32298874Y-32406947D01*
X-32273458Y-32425290D01*
X-32248029Y-32443617D01*
X-32222584Y-32461931D01*
X-32197125Y-32480230D01*
X-32171652Y-32498515D01*
X-32146165Y-32516786D01*
X-32120662Y-32535043D01*
X-32095147Y-32553284D01*
X-32069616Y-32571512D01*
X-32044071Y-32589725D01*
X-32018512Y-32607924D01*
X-31992939Y-32626109D01*
X-31967351Y-32644279D01*
X-31941750Y-32662434D01*
X-31916133Y-32680576D01*
X-31890503Y-32698702D01*
X-31864859Y-32716815D01*
X-31839201Y-32734912D01*
X-31813528Y-32752996D01*
X-31787841Y-32771064D01*
X-31762140Y-32789119D01*
X-31736425Y-32807158D01*
X-31710696Y-32825184D01*
X-31684953Y-32843194D01*
X-31659195Y-32861190D01*
X-31633424Y-32879172D01*
X-31607639Y-32897139D01*
X-31581840Y-32915091D01*
X-31556026Y-32933029D01*
X-31530199Y-32950951D01*
X-31504358Y-32968860D01*
X-31478503Y-32986753D01*
X-31452633Y-33004632D01*
X-31426751Y-33022496D01*
X-31400853Y-33040346D01*
X-31374943Y-33058180D01*
X-31349018Y-33076001D01*
X-31323080Y-33093806D01*
X-31297127Y-33111597D01*
X-31271161Y-33129372D01*
X-31245181Y-33147133D01*
X-31219187Y-33164879D01*
X-31193179Y-33182611D01*
X-31167158Y-33200327D01*
X-31141123Y-33218029D01*
X-31115075Y-33235716D01*
X-31089012Y-33253388D01*
X-31062936Y-33271045D01*
X-31036845Y-33288687D01*
X-31010742Y-33306314D01*
X-30984625Y-33323927D01*
X-30958494Y-33341524D01*
X-30932349Y-33359107D01*
X-30906192Y-33376674D01*
X-30880019Y-33394227D01*
X-30853835Y-33411764D01*
X-30827635Y-33429287D01*
X-30801423Y-33446795D01*
X-30775197Y-33464288D01*
X-30748958Y-33481765D01*
X-30722705Y-33499228D01*
X-30696439Y-33516675D01*
X-30670159Y-33534108D01*
X-30643866Y-33551524D01*
X-30617559Y-33568927D01*
X-30591239Y-33586314D01*
X-30564905Y-33603686D01*
X-30538558Y-33621043D01*
X-30512198Y-33638385D01*
X-30485825Y-33655711D01*
X-30459437Y-33673023D01*
X-30433037Y-33690318D01*
X-30406623Y-33707600D01*
X-30380197Y-33724865D01*
X-30353756Y-33742116D01*
X-30327303Y-33759351D01*
X-30300836Y-33776572D01*
X-30274356Y-33793776D01*
X-30247863Y-33810966D01*
X-30221357Y-33828140D01*
X-30194837Y-33845299D01*
X-30168305Y-33862443D01*
X-30141758Y-33879572D01*
X-30115200Y-33896684D01*
X-30088627Y-33913782D01*
X-30062043Y-33930864D01*
X-30035444Y-33947932D01*
X-30008833Y-33964983D01*
X-29982208Y-33982020D01*
X-29955571Y-33999040D01*
X-29928920Y-34016046D01*
X-29902257Y-34033035D01*
X-29875580Y-34050010D01*
X-29848891Y-34066969D01*
X-29822188Y-34083913D01*
X-29795473Y-34100841D01*
X-29768744Y-34117754D01*
X-29742004Y-34134651D01*
X-29715249Y-34151533D01*
X-29688483Y-34168398D01*
X-29661702Y-34185249D01*
X-29634910Y-34202084D01*
X-29608104Y-34218904D01*
X-29581286Y-34235708D01*
X-29554454Y-34252496D01*
X-29527611Y-34269269D01*
X-29500753Y-34286026D01*
X-29473885Y-34302767D01*
X-29447002Y-34319494D01*
X-29420107Y-34336204D01*
X-29393199Y-34352899D01*
X-29366279Y-34369577D01*
X-29339345Y-34386241D01*
X-29312400Y-34402888D01*
X-29285441Y-34419520D01*
X-29258471Y-34436136D01*
X-29231487Y-34452737D01*
X-29204491Y-34469321D01*
X-29177481Y-34485891D01*
X-29150461Y-34502443D01*
X-29123426Y-34518981D01*
X-29096380Y-34535503D01*
X-29069321Y-34552009D01*
X-29042250Y-34568499D01*
X-29015165Y-34584973D01*
X-28988069Y-34601431D01*
X-28960960Y-34617874D01*
X-28933839Y-34634301D01*
X-28906704Y-34650712D01*
X-28879559Y-34667107D01*
X-28852400Y-34683486D01*
X-28825229Y-34699849D01*
X-28798045Y-34716197D01*
X-28770850Y-34732528D01*
X-28743641Y-34748844D01*
X-28716422Y-34765143D01*
X-28689188Y-34781427D01*
X-28661944Y-34797694D01*
X-28634686Y-34813947D01*
X-28607417Y-34830182D01*
X-28580135Y-34846402D01*
X-28552842Y-34862605D01*
X-28525535Y-34878794D01*
X-28498217Y-34894965D01*
X-28470886Y-34911121D01*
X-28443544Y-34927260D01*
X-28416188Y-34943384D01*
X-28388822Y-34959491D01*
X-28361442Y-34975583D01*
X-28334052Y-34991658D01*
X-28306648Y-35007717D01*
X-28279234Y-35023760D01*
X-28251805Y-35039787D01*
X-28224367Y-35055798D01*
X-28196915Y-35071793D01*
X-28169452Y-35087771D01*
X-28141976Y-35103734D01*
X-28114489Y-35119680D01*
X-28086989Y-35135610D01*
X-28059479Y-35151523D01*
X-28031955Y-35167421D01*
X-28004420Y-35183302D01*
X-27976872Y-35199168D01*
X-27949314Y-35215016D01*
X-27921743Y-35230849D01*
X-27894161Y-35246665D01*
X-27866566Y-35262466D01*
X-27838960Y-35278249D01*
X-27811342Y-35294017D01*
X-27783713Y-35309768D01*
X-27756070Y-35325503D01*
X-27728418Y-35341221D01*
X-27700752Y-35356924D01*
X-27673076Y-35372609D01*
X-27645386Y-35388279D01*
X-27645196Y-35388387D01*
M02*
