M48
; DRILL file {KiCad 9.0.3} date 2026-02-23T20:27:38+0900
; FORMAT={-:-/ absolute / inch / decimal}
; #@! TF.CreationDate,2026-02-23T20:27:38+09:00
; #@! TF.GenerationSoftware,Kicad,Pcbnew,9.0.3
; #@! TF.FileFunction,Plated,1,2,PTH
FMAT,2
INCH
; #@! TA.AperFunction,Plated,PTH,ViaDrill
T1C0.0118
; #@! TA.AperFunction,Plated,PTH,ComponentDrill
T2C0.0335
; #@! TA.AperFunction,Plated,PTH,ComponentDrill
T3C0.0709
%
G90
G05
T1
X-0.4508Y0.2388
X0.8759Y0.1406
X1.1545Y1.1231
T2
X-0.302Y1.5811
X-0.302Y1.4811
X-0.302Y1.3811
X-0.302Y1.2811
X-0.302Y1.1811
X-0.302Y1.0811
X-0.302Y0.9811
X-0.302Y0.8811
X-0.302Y0.7811
X-0.2Y0.7791
X-0.1Y0.7791
X0.0Y0.7791
X0.1Y0.7791
X0.2Y0.7791
X0.302Y1.5811
X0.302Y1.4811
X0.302Y1.3811
X0.302Y1.2811
X0.302Y1.1811
X0.302Y1.0811
X0.302Y0.9811
X0.302Y0.8811
X0.302Y0.7811
T3
X-1.7051Y0.0409
X-1.4551Y0.1409
X-0.8587Y-0.3331
X-0.8587Y-1.1992
X-0.8496Y1.0252
X-0.7496Y0.7752
X-0.6087Y-0.2331
X-0.6087Y-1.0992
X-0.15Y-0.3331
X-0.15Y-1.1992
X0.1Y-0.2331
X0.1Y-1.0992
X0.5587Y-0.3331
X0.5587Y-1.1992
X0.7496Y1.0752
X0.8087Y-0.2331
X0.8087Y-1.0992
X0.8496Y0.8252
X1.4051Y0.0409
X1.6551Y0.1409
M30
